<svg width="130" height="56" viewBox="0 0 130 56" fill="none" xmlns="http://www.w3.org/2000/svg">
<g clip-path="url(#clip0_104_13534)">
<path d="M50.4496 13.05C43.1996 13.05 37.3496 18.9 37.3496 26.15C37.3496 33.35 43.1996 39.2 50.4496 39.25C57.6996 39.25 63.5496 33.4 63.5496 26.15C63.4996 18.9 57.6496 13.05 50.4496 13.05ZM55.1496 30.8C53.9496 32 52.2996 32.75 50.4496 32.75C48.5996 32.75 46.9996 32 45.7496 30.8C44.5496 29.6 43.7996 27.95 43.7996 26.1C43.7996 24.25 44.5496 22.6 45.7496 21.4C46.9496 20.2 48.5996 19.45 50.4496 19.45C52.2996 19.45 53.9496 20.2 55.1496 21.4C56.3496 22.6 57.0996 24.25 57.0996 26.1C57.0996 27.95 56.3496 29.6 55.1496 30.8Z" fill="white"/>
<path d="M79.0004 13.05C76.5504 13.05 74.3004 13.7 72.3504 14.85C72.3504 10.75 72.3504 7.04999 72.3504 5.29999C72.3504 0.249989 65.9004 0.749988 65.9004 0.749988V26.1C65.9004 33.3 71.7504 39.15 79.0004 39.15C86.2504 39.15 92.1004 33.3 92.1004 26.05C92.1004 18.9 86.2504 13.05 79.0004 13.05ZM83.7004 30.8C82.5004 32 80.8504 32.75 79.0004 32.75C77.1504 32.75 75.5004 32 74.3004 30.8C73.1004 29.6 72.3504 27.95 72.3504 26.1C72.3504 24.25 73.1004 22.6 74.3004 21.4C75.5004 20.2 77.1504 19.45 79.0004 19.45C80.8504 19.45 82.5004 20.2 83.7004 21.4C84.9004 22.6 85.6504 24.25 85.6504 26.1C85.6504 27.95 84.9004 29.6 83.7004 30.8Z" fill="white"/>
<path d="M107.5 13.05C100.25 13.05 94.4004 18.9 94.4004 26.15C94.4004 33.4 100.25 39.25 107.5 39.25C109.9 39.25 112.2 38.6001 114.15 37.4501V39H120.6V33.9001V25.9C120.45 18.75 114.65 13.05 107.5 13.05ZM112.2 30.8C111 32 109.35 32.75 107.5 32.75C105.65 32.75 104 32 102.8 30.8C101.6 29.6 100.85 27.95 100.85 26.1C100.85 24.25 101.6 22.6 102.8 21.4C104 20.2 105.65 19.45 107.5 19.45C109.35 19.45 111 20.2 112.2 21.4C113.4 22.6 114.15 24.25 114.15 26.1C114.15 27.95 113.4 29.6 112.2 30.8Z" fill="white"/>
<path d="M26.0002 26.2999C26.0002 23.5999 25.2002 21.0999 23.8002 19.0499C26.4502 17.3999 25.9502 13.3999 25.9502 13.3999H13.4502C13.3502 13.3999 13.2002 13.3999 13.1002 13.3999C5.95019 13.3999 0.200195 19.1999 0.200195 26.2999C0.200195 33.4499 5.95019 39.1999 13.1002 39.1999C13.6502 39.1999 14.7502 39.1999 14.7502 39.1999C16.1002 39.1999 17.3002 39.7499 18.2002 40.5999C19.1002 41.4999 19.6502 42.6999 19.6502 44.0499C19.6502 45.3999 19.1002 46.5999 18.2002 47.4999C17.3002 48.3999 16.1002 48.9499 14.7502 48.9499C13.4002 48.9499 12.2002 48.3999 11.3002 47.4999C10.4002 46.5999 9.90019 45.3999 9.85019 44.0499C9.85019 43.3499 10.0002 42.6499 10.2502 42.0499L4.4502 39.4499C3.8002 40.8499 3.4502 42.3999 3.4502 44.0499C3.4502 50.2499 8.4502 55.2499 14.6502 55.2499C20.8502 55.2499 25.8502 50.2499 25.8502 44.0499C25.8502 40.6499 24.3502 37.5999 21.9502 35.5499C24.5002 33.1999 26.0002 29.8999 26.0002 26.2999ZM8.4502 30.8999C7.2502 29.6999 6.5502 28.0999 6.5502 26.2499C6.5502 24.4499 7.3002 22.7999 8.4502 21.5999C9.6002 20.4499 11.2002 19.7499 12.9502 19.6999C12.9502 19.6999 13.1002 19.6999 13.4502 19.6999C15.1502 19.7999 16.6002 20.4999 17.7502 21.5999C18.9502 22.7999 19.6502 24.3999 19.7002 26.2499C19.7002 28.0499 18.9502 29.6999 17.7502 30.8999C16.5502 32.0999 14.9502 32.7999 13.1502 32.8499C11.2502 32.8499 9.6502 32.0999 8.4502 30.8999Z" fill="white"/>
<path d="M123.35 0.94994C123.35 0.94994 123.35 27.3499 123.35 33.2999V39.1499H129.8C129.8 39.1499 129.8 10.4999 129.8 5.49994C129.8 0.449939 123.35 0.94994 123.35 0.94994Z" fill="white"/>
<path d="M28.4502 0.949961C28.4502 0.949961 28.4502 27.35 28.4502 33.35V39.2H34.9002C34.9002 39.2 34.9002 10.55 34.9002 5.54996C34.9002 0.449961 28.4502 0.949961 28.4502 0.949961Z" fill="white"/>
<path d="M32.5008 52.6003H31.0508V45.3003H32.5008V48.2503H34.8508V45.3003H36.3008V52.6003H34.8508V49.6003H32.5008V52.6003Z" fill="white"/>
<path d="M40.0004 51.5504C40.5504 51.5504 41.0504 51.3004 41.3004 50.8504H42.7004C42.2504 52.0504 41.2504 52.7504 40.0004 52.7504C39.2004 52.7504 38.5004 52.4504 37.9504 51.9004C37.4004 51.3504 37.1504 50.6004 37.1504 49.8504C37.1504 49.1004 37.4004 48.4004 37.9504 47.8504C38.5004 47.2504 39.2504 46.9004 40.0004 46.9004C40.9504 46.9004 41.8004 47.3504 42.4004 48.1504C42.7504 48.6504 42.9504 49.2504 42.9504 49.9504C42.9504 50.0504 42.9504 50.1504 42.9504 50.2504H38.5004C38.5504 51.0504 39.1504 51.5504 40.0004 51.5504ZM40.0004 48.1004C39.3004 48.1004 38.7004 48.5504 38.5504 49.2504H41.5504C41.3004 48.5004 40.7504 48.1004 40.0004 48.1004Z" fill="white"/>
<path d="M47.9504 51.9004C47.6504 52.4504 47.1004 52.7004 46.2504 52.7004C44.6004 52.7004 43.4004 51.4504 43.4004 49.8004C43.4004 49.0504 43.7004 48.3004 44.2004 47.7504C44.7504 47.1504 45.4004 46.9004 46.2504 46.9004C47.0504 46.9004 47.6504 47.1504 48.0004 47.7004V47.0504H49.2504V52.6004H48.0004V51.9004H47.9504V51.9004ZM46.2504 51.4504C47.0504 51.4504 47.8004 50.7504 47.8004 49.8504C47.8004 48.9004 47.0504 48.2004 46.2504 48.2004C45.4004 48.2004 44.6504 48.9004 44.6504 49.8004C44.6504 50.7504 45.4004 51.4504 46.2504 51.4504Z" fill="white"/>
<path d="M51.551 49.8002V52.6002H50.251V47.0502H51.451V47.7002C51.851 47.2002 52.251 47.0002 52.851 47.0002V48.2002C51.801 48.3002 51.551 48.7502 51.551 49.8002Z" fill="white"/>
<path d="M56.4004 46.5002V45.2502H57.6504V46.5002H56.4004ZM56.4004 47.0502H57.6504V52.6002H56.4004V47.0502Z" fill="white"/>
<path d="M59.2006 48.2002H58.3506V47.0502H59.2006V45.2502H60.5006V47.0502H61.3506V48.2002H60.5006V52.6002H59.2006V48.2002Z" fill="white"/>
<path d="M62.2012 52.6002V51.2002H63.5012V52.6002H62.2012Z" fill="white"/>
<path d="M68.8008 50.3003C68.8008 50.3503 68.8008 50.3503 68.8008 50.4003C68.8008 51.0503 69.1508 51.4003 69.7008 51.4003C70.3008 51.4003 70.6508 51.0503 70.6508 50.4503C70.6508 49.6503 70.2008 49.6003 69.4508 49.3503C68.3508 49.0003 67.7508 48.3503 67.7508 47.3503C67.7508 45.9503 68.6008 45.0503 69.8508 45.0503C71.0508 45.0503 71.8008 45.8003 71.8508 47.1503H70.5508V47.1003C70.5508 46.6503 70.2508 46.3003 69.8008 46.3003C69.3508 46.3003 69.0508 46.6003 69.0508 47.1003C69.0508 47.3003 69.1008 47.4503 69.2508 47.6003C69.5508 47.9003 70.0008 47.9503 70.6008 48.1503C71.6008 48.5003 72.0508 49.1003 72.0508 50.1003C72.0508 51.6003 71.1508 52.6003 69.7508 52.6003C68.4508 52.6003 67.5508 51.6503 67.5508 50.2003H68.8008V50.3003Z" fill="white"/>
<path d="M75.351 51.5504C75.901 51.5504 76.401 51.3004 76.651 50.8504H78.051C77.601 52.0504 76.601 52.7504 75.351 52.7504C74.551 52.7504 73.851 52.4504 73.301 51.9004C72.801 51.3504 72.501 50.6004 72.501 49.8504C72.501 49.1004 72.751 48.4004 73.301 47.8504C73.851 47.2504 74.601 46.9004 75.351 46.9004C76.301 46.9004 77.151 47.3504 77.751 48.1504C78.101 48.6504 78.251 49.2504 78.251 49.9504C78.251 50.0504 78.251 50.1504 78.251 50.2504H73.801C73.901 51.0504 74.451 51.5504 75.351 51.5504ZM75.351 48.1004C74.651 48.1004 74.051 48.5504 73.901 49.2504H76.901C76.651 48.5004 76.101 48.1004 75.351 48.1004Z" fill="white"/>
<path d="M81.5512 51.5504C82.1012 51.5504 82.6012 51.3004 82.8512 50.8504H84.2512C83.8012 52.0504 82.8012 52.7504 81.5512 52.7504C80.7512 52.7504 80.0512 52.4504 79.5012 51.9004C79.0012 51.3504 78.7012 50.6004 78.7012 49.8504C78.7012 49.1004 78.9512 48.4004 79.5012 47.8504C80.0512 47.2504 80.8012 46.9004 81.5512 46.9004C82.5012 46.9004 83.3512 47.3504 83.9512 48.1504C84.3012 48.6504 84.4512 49.2504 84.4512 49.9504C84.4512 50.0504 84.4512 50.1504 84.4512 50.2504H80.0012C80.1012 51.0504 80.7012 51.5504 81.5512 51.5504ZM81.5512 48.1004C80.8512 48.1004 80.2512 48.5504 80.1012 49.2504H83.1012C82.8512 48.5004 82.3512 48.1004 81.5512 48.1004Z" fill="white"/>
<path d="M88.251 46.5002V45.2502H89.501V46.5002H88.251ZM88.251 47.0502H89.501V52.6002H88.251V47.0502Z" fill="white"/>
<path d="M91.0512 48.2002H90.2012V47.0502H91.0512V45.2502H92.3512V47.0502H93.2012V48.2002H92.3512V52.6002H91.0512V48.2002Z" fill="white"/>
<path d="M94.0508 52.6002V51.2002H95.3508V52.6002H94.0508Z" fill="white"/>
<path d="M99.8008 45.3003H103.751V46.6003H101.201V48.2503H103.751V49.5003H101.201V52.6003H99.8008V45.3003Z" fill="white"/>
<path d="M107.25 51.5504C107.8 51.5504 108.3 51.3004 108.55 50.8504H109.95C109.5 52.0504 108.5 52.7504 107.25 52.7504C106.45 52.7504 105.75 52.4504 105.2 51.9004C104.7 51.3504 104.4 50.6004 104.4 49.8504C104.4 49.1004 104.65 48.4004 105.2 47.8504C105.75 47.2504 106.5 46.9004 107.25 46.9004C108.2 46.9004 109.05 47.3504 109.65 48.1504C110 48.6504 110.15 49.2504 110.15 49.9504C110.15 50.0504 110.15 50.1504 110.15 50.2504H105.7C105.8 51.0504 106.35 51.5504 107.25 51.5504ZM107.2 48.1004C106.5 48.1004 105.9 48.5504 105.75 49.2504H108.75C108.55 48.5004 108 48.1004 107.2 48.1004Z" fill="white"/>
<path d="M113.451 51.5504C114.001 51.5504 114.501 51.3004 114.751 50.8504H116.151C115.701 52.0504 114.701 52.7504 113.451 52.7504C112.651 52.7504 111.951 52.4504 111.401 51.9004C110.901 51.3504 110.601 50.6004 110.601 49.8504C110.601 49.1004 110.851 48.4004 111.401 47.8504C111.951 47.2504 112.701 46.9004 113.451 46.9004C114.401 46.9004 115.251 47.3504 115.851 48.1504C116.201 48.6504 116.351 49.2504 116.351 49.9504C116.351 50.0504 116.351 50.1504 116.351 50.2504H111.901C112.001 51.0504 112.601 51.5504 113.451 51.5504ZM113.451 48.1004C112.751 48.1004 112.151 48.5504 112.001 49.2504H115.001C114.751 48.5004 114.201 48.1004 113.451 48.1004Z" fill="white"/>
<path d="M117.15 45.3003H118.4V52.6003H117.15V45.3003Z" fill="white"/>
<path d="M122.551 46.5002V45.2502H123.801V46.5002H122.551ZM122.551 47.0502H123.801V52.6002H122.551V47.0502Z" fill="white"/>
<path d="M125.351 48.2002H124.501V47.0502H125.351V45.2502H126.651V47.0502H127.501V48.2002H126.651V52.6002H125.351V48.2002Z" fill="white"/>
<path d="M128.351 52.6002V51.2002H129.651V52.6002H128.351Z" fill="white"/>
</g>
<defs>
<clipPath id="clip0_104_13534">
<rect width="129.6" height="54.5" fill="white" transform="translate(0.200195 0.75)"/>
</clipPath>
</defs>
</svg>
