<svg width="152" height="46" viewBox="0 0 152 46" fill="none" xmlns="http://www.w3.org/2000/svg">
<g clip-path="url(#clip0_149_20432)">
<path d="M94.6374 32.3818C94.5815 32.2371 94.4272 32.1535 94.2759 32.1878L94.229 32.2013C93.7813 32.2968 93.4364 32.2699 93.1944 32.1088C92.851 31.8805 92.6846 31.3642 92.6846 30.5316V23.0069C92.6846 20.0675 90.9088 18.5769 87.4025 18.5769C84.2638 18.5769 81.8043 20.0421 81.8043 21.9132C81.8043 22.8756 82.3987 23.5709 83.2761 23.6754C83.8494 23.744 84.3969 23.4874 84.7932 23.0741C85.5647 22.2713 85.4664 21.3149 84.53 20.2898C85.0837 19.7183 86.0639 19.3811 87.1817 19.3811C89.0029 19.3811 89.7804 20.4465 89.7804 22.9443V24.8467C89.3538 24.9765 88.9545 25.0989 88.2224 25.269C86.7476 25.6106 84.7237 26.0657 83.1974 26.8968C81.9374 27.5787 81.2976 28.6545 81.2976 30.0944C81.2976 31.6626 82.3413 33.4934 85.2818 33.4934C86.9291 33.4934 88.4039 32.7235 89.918 31.0703C90.0496 32.7877 90.7091 33.4323 92.3095 33.4323C93.0794 33.4323 93.6951 33.2547 94.4272 32.9055C94.6253 32.8101 94.7191 32.5833 94.6374 32.3818H94.6374ZM89.7804 30.0825C89.4234 30.5734 88.2556 32.0342 86.8005 32.0342C84.8356 32.0342 84.4226 30.6734 84.4226 29.5319C84.4226 27.6548 85.8808 26.7864 89.7804 25.836V30.0825ZM127.463 33.5576C123.297 33.5576 120.155 30.3376 120.155 26.0672C120.155 21.8863 123.433 18.4843 127.463 18.4843C131.543 18.4843 134.74 21.7595 134.74 25.9434C134.74 30.6465 130.963 33.5576 127.463 33.5576ZM127.306 19.2871C125.506 19.2871 123.438 20.0511 123.438 26.0046C123.438 30.5465 124.796 32.7534 127.59 32.7534C130.263 32.7534 131.456 30.6734 131.456 26.0046C131.456 21.485 130.098 19.2871 127.306 19.2871V19.2871ZM63.0597 18.7529C63.0597 22.2176 62.1945 24.1245 57.7686 24.1245H55.4225V13.6589H57.8639C62.4426 13.6589 63.0597 16.2343 63.0597 18.7529ZM55.4225 30.5316V25.0869H57.5477C60.7182 25.0869 63.1293 24.4259 64.7161 23.1203C66.3754 21.755 66.7233 20.0257 66.7233 18.8156C66.7233 13.8379 61.8542 12.7935 57.7686 12.7935L57.7852 12.792H49.5005C49.313 12.792 49.1602 12.9442 49.1602 13.1277V13.1501V13.1442C49.1602 13.3143 49.2646 13.4665 49.4279 13.5246C50.1661 13.7932 52.1703 13.4172 52.1703 15.5375V30.5286C52.1703 31.6194 51.6802 32.3893 49.44 32.5982C49.2615 32.6146 49.1284 32.7578 49.1284 32.9309V32.9831C49.1284 33.1682 49.2797 33.3174 49.4672 33.3174H58.3192C58.5067 33.3174 58.6595 33.1682 58.6595 32.9831V32.9369C58.6595 32.7638 58.5203 32.6176 58.3419 32.6027C55.908 32.4102 55.4194 31.6671 55.4194 30.5286V25.0974L55.4225 30.5316ZM73.4228 18.4769C69.5701 18.4769 66.4344 21.9177 66.4344 26.1478C66.4344 30.4301 69.3735 33.5382 73.4228 33.5382C76.8247 33.5382 78.481 31.5328 79.4294 30.0258C79.5232 29.8766 79.4824 29.6796 79.3372 29.5767L79.2918 29.5453C79.145 29.4424 78.9408 29.4722 78.8274 29.6125C77.5764 31.1598 76.4813 32.055 74.5905 32.055C72.199 32.055 69.6442 30.4301 69.6442 25.8673V25.8345C69.6396 25.633 69.6442 25.357 69.6517 25.0988H79.437C79.4642 25.0988 79.4854 25.078 79.4869 25.0511L79.4931 24.9735C79.6322 23.1039 79.0953 21.4223 77.982 20.242C76.8944 19.0872 75.3182 18.4769 73.4229 18.4769L73.4228 18.4769ZM69.7062 24.1379C70.0284 21.0165 71.2627 19.305 73.2019 19.305C74.1715 19.305 74.8915 19.5706 75.3998 20.1167C76.0986 20.8643 76.3951 22.2176 76.2786 24.1379H69.7062ZM113.981 24.3051H113.978C111.302 23.5635 110.26 22.8144 110.26 21.6312C110.26 20.2838 111.344 19.305 112.839 19.305C114.597 19.305 115.35 20.1346 117.206 23.1949L117.23 23.2352C117.239 23.2516 117.256 23.2606 117.256 23.2606H117.528C117.716 23.2606 117.868 23.1099 117.868 22.9248V18.5261C117.868 18.4993 117.846 18.4769 117.846 18.4769H117.481C117.38 18.4769 117.283 18.5217 117.219 18.5992L116.627 19.3095C115.879 18.9036 114.662 18.4769 113.439 18.4769C110.366 18.4769 108.219 20.3495 108.219 23.0323C108.219 25.551 109.912 26.494 112.834 27.2728C115.674 28.0398 116.681 28.8381 116.681 30.3197C116.681 31.9685 115.062 32.7086 113.913 32.7086C111.774 32.7086 110.871 31.9252 108.821 28.2935L108.797 28.2502C108.788 28.2338 108.771 28.2233 108.771 28.2233H108.496C108.309 28.2233 108.156 28.3755 108.156 28.559V33.4875C108.156 33.5158 108.178 33.5382 108.207 33.5382H108.555C108.644 33.5382 108.732 33.5024 108.796 33.4397L109.732 32.5161C110.829 33.1876 112.468 33.5382 113.533 33.5382C115.132 33.5382 116.446 33.0383 117.334 32.0938C118.127 31.2508 118.563 30.0571 118.563 28.7321C118.563 26.4373 117.321 25.2376 113.981 24.3051L113.981 24.3051ZM97.7882 31.5492C97.7882 32.3087 97.5931 32.5579 96.3664 32.634C96.1879 32.6459 96.0487 32.7921 96.0487 32.9682C96.0487 33.1532 96.2015 33.3024 96.389 33.3024H102.444C102.629 33.3024 102.778 33.1547 102.778 32.9742C102.778 32.7951 102.638 32.6474 102.456 32.64C101.056 32.5728 100.692 32.349 100.692 31.5492V22.7906C101.689 21.1552 102.405 20.2987 103.615 20.0406C103.556 20.248 103.518 20.4942 103.518 20.6956C103.518 21.7595 104.271 22.5026 105.35 22.5026C106.409 22.5026 107.15 21.7595 107.15 20.6956C107.15 19.69 106.513 18.5142 104.716 18.5142C103.244 18.5142 101.838 19.3468 100.629 21.3387V19.0857C100.629 18.8559 100.437 18.6709 100.204 18.6768L96.389 18.7783C96.203 18.7842 96.0593 18.9305 96.0593 19.1125V19.1603C96.0593 19.3259 96.1803 19.4676 96.3422 19.49C97.6143 19.6676 97.7897 20.2644 97.7882 20.8837V31.5492ZM139.668 18.6679C139.756 18.6679 139.841 18.7022 139.903 18.7634C139.971 18.826 140.007 18.9096 140.009 19.0021L140.021 21.4999C140.021 21.4999 141.264 18.5694 145.297 18.5694H145.333C147.847 18.5694 149.289 20.151 149.289 22.9084V31.5358C149.289 32.2953 149.485 32.5445 150.711 32.6206C150.889 32.631 151.028 32.7772 151.028 32.9548C151.028 33.1383 150.876 33.289 150.689 33.289H145.249C145.061 33.289 144.908 33.1383 144.908 32.9533C144.908 32.7742 145.046 32.628 145.218 32.6131C146.208 32.5295 146.365 32.2833 146.365 31.5358V23.75C146.365 21.1776 145.624 20.1779 143.722 20.1779C142.437 20.1779 141.385 21.2835 140.729 22.2116C140.729 22.2116 140.393 22.6264 140.03 23.4083L140.069 31.5343C140.069 32.2818 140.224 32.528 141.184 32.6116C141.357 32.6265 141.493 32.7742 141.493 32.9458C141.493 33.1383 141.34 33.289 141.154 33.289H135.746C135.56 33.289 135.407 33.1383 135.407 32.9533C135.407 32.7772 135.548 32.631 135.725 32.6191C136.95 32.543 137.145 32.2953 137.145 31.5358V20.8851C137.145 20.2644 136.97 19.6646 135.692 19.4856C135.53 19.4632 135.407 19.3199 135.407 19.1543V19.1051C135.407 18.9215 135.553 18.7753 135.739 18.7693L139.668 18.6679Z" fill="white"/>
<path d="M33.382 3.50062C42.9705 8.8901 45.2032 20.9732 38.531 33.1995C32.668 43.9456 19.8651 48.5353 10.3249 43.0653C0.783277 37.5922 -1.07877 22.3265 3.02197 13.5425C8.97568 0.784986 22.7875 -2.45587 33.382 3.50062Z" fill="white"/>
<path d="M33.1596 12.7712C35.0368 14.7483 35.6207 17.7474 35.2955 20.2079C34.9218 23.013 33.1974 25.6093 30.331 27.3297C28.0575 28.6965 25.0701 29.2396 22.131 29.2665C22.1068 29.726 22.0146 31.3091 21.9677 31.5598C21.8996 31.9284 21.768 32.1283 21.6077 32.3342C21.2915 32.7416 20.744 33.0027 20.1994 33.1564C19.7683 33.2757 19.3402 33.3295 19.0362 33.3295C18.9863 33.3295 18.9364 33.325 18.8864 33.3205C18.5673 33.2847 18.2118 33.1355 17.9925 32.8953C17.7732 32.652 17.6491 32.3477 17.6204 32.0015L17.5962 31.6881C17.5342 31.4196 17.1938 17.7877 17.2589 18.0309C17.3088 16.397 19.9816 16.1135 21.4322 16.4015C22.8858 16.6895 22.5183 18.4323 22.4789 20.5734C22.4789 20.5734 22.4094 23.3891 22.2747 26.3643C24.1262 26.2942 25.5965 25.7734 26.9715 25.1005C29.7502 23.7397 31.2204 21.6552 31.2204 18.586C31.2204 15.5167 28.1921 12.0789 22.603 12.0789C17.0138 12.0789 14.6148 13.4695 11.9087 15.6779C11.2991 16.1762 10.8287 16.6776 10.3855 17.0073C9.94075 17.3371 8.75939 17.3878 8.44476 16.6149C8.06206 15.6838 8.77451 14.6453 9.19351 14.1425C9.8515 13.3532 11.4715 11.7641 13.2685 10.8404C15.3272 9.78105 17.8442 8.63959 21.349 8.55156C24.5195 8.47397 29.5263 8.72613 33.1324 12.7444M21.0374 35.3408C20.7455 35.117 20.4187 34.9633 20.0875 34.8992C19.9755 34.8768 19.8591 34.8648 19.7456 34.8648C19.1224 34.8648 18.5098 35.2035 18.1105 35.772C17.7777 36.2435 17.64 36.809 17.7278 37.3552C17.7852 37.7058 17.9169 38.0087 18.1135 38.234C18.3328 38.4877 18.6686 38.6831 19.0861 38.801C19.3266 38.8667 19.5732 38.9025 19.8197 38.9025H19.8213C20.3598 38.9025 20.8438 38.7413 21.2205 38.4429C21.6576 38.0893 21.8951 37.5894 21.8906 37.0299C21.8845 36.3808 21.5669 35.7467 21.0374 35.3408" fill="black"/>
</g>
<defs>
<clipPath id="clip0_149_20432">
<rect width="150.827" height="45.5342" fill="white" transform="translate(0.586426 0.232422)"/>
</clipPath>
</defs>
</svg>
