<svg width="154" height="36" viewBox="0 0 154 36" fill="none" xmlns="http://www.w3.org/2000/svg">
<g clip-path="url(#clip0_149_20447)">
<path d="M10.3473 2.6168H14.5715L24.1732 30.6539H20.141L17.6449 23.3563H7.23576L4.77397 30.6552H0.745605L10.3473 2.6168ZM8.54167 19.5123H16.3377L12.4594 7.99432L8.54167 19.5123ZM25.6711 12.6038H29.1273L29.5088 14.5239L29.7008 14.7159L29.8928 14.5239C30.3656 13.8342 30.9947 13.2661 31.7288 12.8656C32.4629 12.4652 33.2811 12.2439 34.117 12.2198C34.7804 12.1593 35.4472 12.2918 36.0371 12.6013V16.0574H33.7355C32.6441 16.0651 31.5973 16.4916 30.8112 17.2488C30.0252 18.006 29.5598 19.0361 29.5113 20.1265V30.6501H25.6711V12.6038ZM36.9628 16.06H40.4965V25.2764C40.4965 28.7325 42.5704 30.6539 46.4106 30.6539L48.5227 30.2724V26.8137L46.2186 27.1952C45.9605 27.2113 45.7019 27.173 45.4596 27.0827C45.2173 26.9924 44.9967 26.8522 44.812 26.6711C44.6274 26.4901 44.4828 26.2723 44.3878 26.0318C44.2928 25.7913 44.2494 25.5335 44.2604 25.2751V16.06H48.1781V12.6038H44.2591V4.92218H43.5292L40.4952 8.76363V12.6038H36.9615V16.06H36.9628ZM60.0877 2.6168H76.9807V6.45825H64.1148V14.5226H75.8286V18.3679H64.1148V30.6577H60.0877V2.6168ZM93.8024 30.6552H90.3514L89.9699 29.1178L89.7703 28.922L89.5783 29.114C89.0564 29.7223 88.4081 30.2094 87.6784 30.541C86.9488 30.8727 86.1555 31.0409 85.3541 31.0341C84.3788 31.0998 83.4007 30.9561 82.4855 30.6126C81.5703 30.2691 80.7392 29.7337 80.048 29.0425C79.3568 28.3513 78.8215 27.5202 78.478 26.6051C78.1345 25.6899 77.9908 24.7118 78.0565 23.7365V12.6038H81.8966V23.7416C81.9729 26.1995 83.1682 27.5818 85.7368 27.5818C86.8207 27.5697 87.8596 27.1467 88.6437 26.3983C89.4278 25.6499 89.8986 24.6317 89.961 23.5496V12.6038H93.8012V30.6603L93.8024 30.6552ZM96.9522 12.5987H100.408L100.79 14.1348L100.982 14.3268L101.174 14.1348C101.695 13.5261 102.344 13.0387 103.073 12.7069C103.803 12.375 104.596 12.2066 105.398 12.2134C106.374 12.1473 107.352 12.2908 108.268 12.6342C109.183 12.9776 110.015 13.513 110.706 14.2044C111.398 14.8958 111.933 15.7272 112.277 16.6427C112.62 17.5582 112.764 18.5367 112.698 19.5123V30.6514H108.858V19.5123C108.742 17.0543 107.552 15.6721 105.018 15.6721C103.926 15.6798 102.88 16.1063 102.094 16.8635C101.307 17.6207 100.842 18.6508 100.794 19.7412V30.6501H96.9534V12.6038L96.9522 12.5987ZM133.168 1.46094H129.328V14.1348L129.135 14.3319L128.943 14.1399C127.578 12.8972 125.796 12.2117 123.95 12.2185C122.721 12.2083 121.502 12.4461 120.366 12.9178C119.23 13.3895 118.202 14.0853 117.341 14.9638C116.481 15.8422 115.806 16.8851 115.358 18.0302C114.91 19.1753 114.697 20.399 114.733 21.6282C114.697 22.8574 114.909 24.0812 115.358 25.2264C115.806 26.3716 116.48 27.4146 117.341 28.2931C118.201 29.1715 119.23 29.8674 120.366 30.339C121.502 30.8106 122.721 31.0484 123.95 31.0379C125.797 31.0521 127.581 30.3661 128.943 29.1178L129.135 28.922L129.327 29.114L129.708 30.6514H133.164V1.46602L133.168 1.46094ZM129.712 21.6231C129.751 22.383 129.636 23.1429 129.375 23.8576C129.114 24.5722 128.711 25.2269 128.191 25.7825C127.671 26.3381 127.045 26.7834 126.349 27.0916C125.654 27.3999 124.903 27.5649 124.142 27.5767C120.494 27.5767 118.535 24.8885 118.535 21.6231C118.535 18.3577 120.493 15.6709 124.142 15.6709C124.904 15.6827 125.654 15.8477 126.35 16.1562C127.046 16.4647 127.673 16.9103 128.193 17.4663C128.713 18.0224 129.115 18.6775 129.376 19.3926C129.637 20.1077 129.751 20.868 129.712 21.6282V21.6231ZM153.295 30.6552V34.3033H135.551V30.6552H153.295Z" fill="white"/>
</g>
<defs>
<clipPath id="clip0_149_20447">
<rect width="152.59" height="34.3327" fill="white" transform="translate(0.705078 0.56543)"/>
</clipPath>
</defs>
</svg>
