<svg width="156" height="54" viewBox="0 0 156 54" fill="none" xmlns="http://www.w3.org/2000/svg">
<g clip-path="url(#clip0_149_20440)">
<path d="M54.375 54H0.375V0H54.375V54Z" fill="white"/>
<path d="M14.1484 28.2106C14.1484 30.7756 14.8605 31.0599 17.758 31.1637V32.1138H6.21631V31.1637C8.59062 31.0684 9.30443 30.784 9.30443 28.2106V11.4934C9.30443 8.92838 8.59231 8.64404 6.3125 8.54026V7.59863H26.6874L26.8308 12.9649H25.831C24.9762 10.2581 24.0253 9.35532 19.2767 9.35532H15.5642C14.4252 9.35532 14.1872 9.59157 14.1872 10.5906V18.3784H15.9928C19.7922 18.3784 20.5997 17.6663 21.0747 15.1485H22.0248V23.7446H21.0747C20.5516 20.8953 19.1274 20.1351 15.9928 20.1351H14.1872L14.1484 28.2106ZM49.7209 7.64588H28.3487L27.8256 13.0121H29.0608C29.8202 10.3999 31.0082 9.40257 33.5724 9.40257H36.5643V28.1642C36.5643 30.7292 35.8522 31.0135 33.1446 31.1173V32.0674H44.925V31.1089C42.1702 31.0135 41.5053 30.7292 41.5053 28.1558V9.44982H44.4972C47.0622 9.44982 48.2097 10.3999 49.0088 13.0594H50.244L49.7209 7.64588Z" fill="#29140F"/>
</g>
<path d="M65.9766 16.5642C65.9766 17.5936 66.2533 17.6721 67.4405 17.7117V18.0678H62.8522V17.7117C63.8014 17.6721 64.0781 17.5531 64.0781 16.5642V9.91885C64.0781 8.88948 63.8014 8.81101 62.8918 8.77135V8.41529H70.9614L71.0011 10.5517H70.6045C70.2881 9.48348 69.8924 9.12741 67.994 9.12741H66.4921C66.0171 9.12741 65.9386 9.20673 65.9386 9.63366V12.7193H67.6008C69.1432 12.7193 69.4596 12.4425 69.6258 11.4536H69.9818V14.8961H69.6258C69.4283 13.7486 68.8343 13.4322 67.6008 13.4322H65.9386V16.5575L65.9766 16.5642ZM75.5498 16.5642C75.5498 17.5936 75.8265 17.6721 77.0137 17.7117V18.0678H72.1874V17.7117C73.3349 17.6721 73.6513 17.5531 73.6513 16.5642V9.91885C73.6513 8.88948 73.4151 8.81101 72.1874 8.77135V8.41529H77.0137V8.77135C75.8662 8.81101 75.5498 8.92998 75.5498 9.91885V16.5642ZM87.0214 10.1559C87.0214 9.20673 86.7851 8.81101 85.6764 8.69204V8.33598H89.1189V8.69204C88.0508 8.81016 87.774 9.19829 87.774 10.1559V18.2559H87.2678L80.6224 10.582V16.1997C80.6224 17.1489 80.8586 17.5447 81.9673 17.6636V18.0197H78.5248V17.6636C79.593 17.5455 79.8697 17.1574 79.8697 16.1997V9.70285C79.5533 9.10969 79.1576 8.83379 78.5248 8.71398V8.35791H81.1742L86.9893 15.0826V10.1382L87.0214 10.1559ZM92.2037 14.5856L93.6676 10.7483L95.1315 14.5856H92.2037ZM99.1646 18.0669V17.7109C98.4052 17.7109 98.2551 17.4341 97.899 16.5246L94.4565 8.1377H93.9815L90.4208 16.8005C90.1846 17.4333 89.8277 17.5919 89.2345 17.71V18.0661H92.3598V17.7185C91.6873 17.7185 91.3709 17.5599 91.3709 17.0857C91.3709 16.6891 91.8459 15.5821 91.9244 15.3138H95.4454C95.5635 15.6302 96.0385 16.738 96.0385 17.0857C96.0385 17.5607 95.6825 17.7185 95.0092 17.7185V18.0745L99.1646 18.0669ZM108.628 10.1559C108.628 9.20673 108.392 8.81101 107.283 8.69204V8.33598H110.726V8.69204C109.658 8.81016 109.381 9.19829 109.381 10.1559V18.2559H108.875L102.229 10.582V16.1997C102.229 17.1489 102.465 17.5447 103.574 17.6636V18.0197H100.115V17.6636C101.183 17.5455 101.46 17.1574 101.46 16.1997V9.70285C101.143 9.10969 100.747 8.83379 100.115 8.71398V8.35791H102.764L108.579 15.0826L108.628 10.1559ZM120.93 15.8124C119.901 17.5531 118.557 18.3437 116.579 18.3437C113.415 18.3437 111.516 16.2866 111.516 13.1614C111.516 10.9465 113.257 8.1377 116.659 8.1377C117.688 8.1377 119.112 8.73085 119.349 8.73085C119.626 8.73085 119.705 8.57223 119.982 8.1377H120.488L120.685 11.3811H120.289C119.696 9.87751 118.707 8.77051 116.998 8.77051C114.703 8.77051 113.707 11.2629 113.707 13.1217C113.707 15.7323 114.815 17.5126 117.268 17.5126C119.167 17.5126 120.196 16.0884 120.63 15.4876L120.93 15.8124ZM125.598 16.5718C125.598 17.6012 125.874 17.6797 127.062 17.7193V18.0754H122.235V17.7193C123.383 17.6797 123.699 17.5607 123.699 16.5718V9.92644C123.699 8.89707 123.422 8.8186 122.235 8.77894V8.42288H127.062V8.77894C125.914 8.8186 125.598 8.93757 125.598 9.92644V16.5718ZM131.057 14.5941L132.521 10.7567L133.984 14.5941H131.057ZM138.018 18.0754V17.7193C137.258 17.7193 137.108 17.4426 136.752 16.533L133.31 8.14613H132.834L129.274 16.8089C129.038 17.4417 128.681 17.6004 128.088 17.7185V18.0745H131.213V17.7185C130.54 17.7185 130.224 17.5599 130.224 17.0857C130.224 16.6891 130.699 15.5821 130.777 15.3138H134.298C134.416 15.6302 134.892 16.738 134.892 17.0857C134.892 17.5607 134.535 17.7185 133.862 17.7185V18.0745L138.018 18.0754ZM138.887 18.0754V17.7193C139.796 17.6797 140.073 17.5607 140.073 16.5718V9.92644C140.073 8.89707 139.796 8.8186 138.887 8.77894V8.42288H143.357V8.77894C142.289 8.8186 142.012 8.93757 142.012 9.92644V16.7608C142.012 17.354 142.171 17.5523 143.238 17.5523C144.979 17.5523 146.007 17.2359 146.837 15.5273H147.188L146.515 18.1378H138.801V18.0585L138.887 18.0754ZM64.9151 33.4316C66.023 33.392 66.2989 33.273 66.2989 32.2841V24.8085H65.1075C63.9997 24.8085 63.5255 25.2835 63.2091 26.5804H62.8125L63.0487 24.0879H71.5934L71.8297 26.5804H71.4331C71.1167 25.2354 70.6737 24.8085 69.5347 24.8085H68.3475V32.2841C68.3475 33.3135 68.6243 33.392 69.7313 33.4316V33.7877H65.0653V33.4316H64.9151ZM76.1497 32.2841C76.1497 33.3135 76.4264 33.392 77.6136 33.4316V33.7877H72.7873V33.4316C73.9348 33.392 74.2512 33.273 74.2512 32.2841V25.6388C74.2512 24.6094 73.9745 24.5309 72.7873 24.4913V24.1352H77.6136V24.4913C76.4661 24.5309 76.1497 24.6499 76.1497 25.6388V32.2841ZM87.8187 24.0559H91.1811V24.4119C90.2715 24.4516 89.9947 24.5706 89.9947 25.5594V32.2445C89.9947 33.2739 90.2715 33.3523 91.1811 33.392V33.748H86.775V33.392C87.7242 33.3523 88.001 33.2334 88.001 32.2445V25.4101H87.9613L84.7179 33.9151H84.2438L81.04 25.4101H81.0004V31.9762C81.0004 32.9254 81.2366 33.3211 82.3453 33.4401V33.7961H78.9028V33.4401C79.971 33.3219 80.2477 32.9338 80.2477 31.9762V25.3308C80.2477 24.6583 79.971 24.4212 78.9028 24.4212V24.0652H82.4238L85.0031 30.7966L87.8187 24.0559ZM92.5268 33.7869V33.4308C93.4364 33.3911 93.7132 33.2722 93.7132 32.2833V25.6379C93.7132 24.6085 93.4364 24.5301 92.5268 24.4904V24.1344H100.627L100.666 26.2707H100.27C99.9535 25.2025 99.5578 24.8465 97.6594 24.8465H96.1558C95.6808 24.8465 95.6023 24.9258 95.6023 25.3527V28.4383H97.2645C98.8069 28.4383 99.1233 28.1616 99.2895 27.1727H99.6456V30.6152H99.2895C99.0921 29.4677 98.4981 29.1909 97.2645 29.1909H95.6023V32.5533C95.6023 33.1464 95.7609 33.3447 97.5007 33.3447C99.2406 33.3447 100.27 33.0283 101.1 31.3197H101.456L100.784 33.9303H92.445V33.7717L92.5268 33.7869ZM102.821 30.7494H103.177C103.573 32.015 104.839 33.3987 106.262 33.3987C107.488 33.3987 107.924 32.5297 107.924 31.777C107.924 29.5225 102.862 29.1277 102.862 26.3576C102.862 25.0127 104.128 23.8652 105.631 23.8652C107.095 23.8652 107.609 24.3714 108.242 24.3714C108.518 24.3714 108.717 24.174 108.748 23.8652H109.104V26.9904H108.748C108.351 25.5662 107.324 24.5377 106.018 24.5377C104.95 24.5377 104.515 25.2498 104.515 25.9214C104.515 27.8992 109.577 27.9464 109.577 31.3805C109.577 32.9229 108.351 34.0704 106.571 34.0704C104.87 34.0704 104.435 33.4772 103.761 33.4772C103.525 33.4772 103.365 33.6358 103.255 33.9834H102.749L102.821 30.7494Z" fill="white"/>
<defs>
<clipPath id="clip0_149_20440">
<rect width="54" height="54" fill="white" transform="translate(0.375)"/>
</clipPath>
</defs>
</svg>
