<?xml version="1.0" standalone="no"?>
<!DOCTYPE svg PUBLIC "-//W3C//DTD SVG 20010904//EN"
 "http://www.w3.org/TR/2001/REC-SVG-20010904/DTD/svg10.dtd">
<svg version="1.0" xmlns="http://www.w3.org/2000/svg"
 width="260.000000pt" height="260.000000pt" viewBox="0 0 260.000000 260.000000"
 preserveAspectRatio="xMidYMid meet">
<metadata>
Created by potrace 1.11, written by Peter Selinger 2001-2013
</metadata>
<g transform="translate(0.000000,260.000000) scale(0.100000,-0.100000)"
fill="#000000" stroke="none">
<path d="M1227 2234 c-1 -1 -29 -4 -62 -7 -338 -34 -645 -284 -753 -614 -34
-102 -59 -312 -38 -314 39 -4 338 -4 345 1 5 3 11 33 15 66 24 230 162 414
371 494 86 33 253 38 352 10 226 -63 384 -256 409 -503 4 -37 10 -68 13 -68
30 -6 347 -3 352 4 8 11 1 119 -12 187 -65 343 -318 621 -649 711 -25 7 -47
13 -50 14 -38 11 -283 27 -293 19z"/>
<path d="M429 941 c73 -193 222 -362 411 -464 72 -39 183 -81 245 -92 22 -4
51 -9 65 -12 38 -7 249 -7 304 1 81 11 208 49 234 69 6 5 12 7 12 4 0 -3 33
12 73 35 182 103 319 260 397 458 l20 50 -199 0 -198 0 -26 -37 c-104 -155
-278 -245 -472 -244 -38 0 -81 3 -95 6 -14 3 -36 8 -50 11 -14 2 -61 22 -105
43 -84 41 -167 114 -212 184 l-23 37 -200 0 -200 0 19 -49z"/>
</g>
</svg>
