<svg width="561" height="551" viewBox="0 0 561 551" fill="none" xmlns="http://www.w3.org/2000/svg">
<path d="M108.691 449.643C108.691 449.643 87.6459 441.879 63.8512 433.324C30.41 421.294 33.537 410.491 16.9344 403.765C-16.1528 390.36 7.29969 384.147 38.0387 395.434C66.3115 405.818 99.5875 409.252 114.827 414.768C135.277 422.173 159.667 431.088 159.667 431.088L108.691 449.643Z" fill="#2B0838"/>
<path d="M472.88 501.304C472.88 501.304 485.86 506.095 501.666 511.818C535.084 523.907 536.677 531.494 548.052 536.503C580.732 550.893 544.264 556.127 513.525 544.834C485.27 534.45 473.435 538.58 458.195 533.075C437.746 525.671 421.904 519.853 421.904 519.853L442.607 512.319C442.607 512.319 474.65 521.682 479.187 519.724C483.725 517.765 454.655 507.924 454.655 507.924L472.88 501.304Z" fill="#2B0838"/>
<path d="M84.235 423.489C87.8694 425.518 96.035 429.342 98.4894 428.964C100.944 428.586 102.218 425.802 105.333 425.518C105.745 425.481 106.159 425.495 106.567 425.56C105.21 424.132 102.637 422.332 99.5279 420.509C94.2179 417.4 88.1055 414.019 86.9727 407.96C85.8399 401.901 71.6798 410.06 71.6798 410.06C71.6798 411.677 71.3022 413.931 71.0898 415.96C74.8717 419.613 80.9428 421.648 84.235 423.489Z" fill="#91BEFF"/>
<path d="M105.31 425.518C102.195 425.801 100.92 428.586 98.4661 428.964C96.0117 429.341 87.8461 425.518 84.2117 423.489C80.9195 421.648 74.8484 419.612 71.1019 415.984C70.9013 418.102 70.8895 420.014 71.6919 420.798C73.2377 422.344 88.7546 428.669 93.5749 430.427C98.3952 432.185 106.13 429.105 107.357 427.878C107.865 427.371 107.511 426.557 106.561 425.56C106.147 425.493 105.727 425.479 105.31 425.518V425.518Z" fill="#2D44EB"/>
<path d="M61.5325 386.95C60.2168 387.924 58.1459 388.98 56.3641 390.053C55.4555 394.773 56.0809 398.827 56.5588 402.538C57.0898 406.668 57.2019 411.388 58.0987 413.748C59.6032 417.606 66.3941 422.173 69.9754 421.955C70.1067 421.94 70.2394 421.94 70.3707 421.955C71.0964 421.365 71.0787 420.515 69.6863 419.341C65.0017 415.388 68.1228 402.485 72.3059 397.983C76.489 393.481 61.5325 386.95 61.5325 386.95Z" fill="#91BEFF"/>
<path d="M58.1106 413.701C57.2138 411.382 57.1017 406.621 56.5707 402.491C56.0928 398.78 55.4674 394.75 56.376 390.006C54.606 391.092 53.0779 392.207 52.9127 393.293C52.5882 395.458 54.134 408.568 55.5913 413.488C57.0486 418.409 62.5474 422.993 64.6537 423.023C66.8544 423.052 69.3737 422.739 70.3826 421.908C70.2513 421.892 70.1187 421.892 69.9873 421.908C66.3706 422.126 59.6033 417.559 58.1106 413.701Z" fill="#2D44EB"/>
<path d="M79.0613 175.966L72.5713 184.621L82.0113 191.394L79.0613 175.966Z" fill="#C2DBFF"/>
<path d="M105.423 269.115C115.453 304.179 117.253 339.325 113.571 348.765C109.89 358.205 76.4011 392.195 70.6722 400.207C68.3122 403.47 57.6509 391.422 59.3029 388.95C67.8166 376.182 78.1003 360.471 93.3636 339.184C96.1189 335.343 72.9319 264.956 72.9319 264.956L105.423 269.115Z" fill="#91BEFF"/>
<path d="M88.2425 280.254C90.5081 305.034 92.2722 329.106 90.573 339.107C88.8738 349.107 87.0212 373.811 87.0212 383.44C87.0212 393.068 87.0212 403.358 87.0212 408.975C87.0212 414.592 71.6812 413.034 71.6812 410.06C71.6812 407.087 65.8107 367.268 68.7312 338.316C69.2032 333.596 56.5654 290.45 56.5654 290.45L88.2425 280.254Z" fill="#91BEFF"/>
<path d="M80.737 189.719C80.737 184.716 82.507 178.462 82.507 178.462L79.9405 170.833L79.0732 175.966L80.737 189.719Z" fill="#C2DEFF"/>
<path d="M42.7707 186.592C42.3541 186.359 41.8903 186.223 41.4139 186.194C40.9375 186.165 40.4607 186.244 40.019 186.425C39.5773 186.606 39.1821 186.884 38.8628 187.239C38.5435 187.594 38.3082 188.016 38.1746 188.474C36.2217 196.687 40.2455 213.732 44.5879 227.603C50.3109 245.893 50.9127 250.843 55.8982 250.843C60.8837 250.843 85.7935 252.1 96.8324 252.1C107.871 252.1 106.337 242.288 103.246 241.25C100.154 240.211 67.0079 237.597 65.5742 234.942C63.3381 230.812 58.1343 207.118 53.5087 197.772C50.7593 192.25 45.585 188.12 42.7707 186.592Z" fill="url(#paint0_linear_95_10934)"/>
<path d="M79.0613 175.966L72.5713 184.621L82.0113 191.394L79.0613 175.966Z" fill="#6383F7"/>
<path d="M88.1237 145.823L71.6037 154.573L70.5063 154.295C73.2203 149.634 75.9343 147.805 75.6098 144.554C75.2853 141.304 79.4802 139.067 81.6101 140.424C89.581 145.504 90.3893 137.952 92.5605 138.719C92.2655 136.123 91.115 133.498 87.3921 130.377C84.6958 128.123 73.533 126.707 69.8514 127.716C66.7244 128.571 64.8305 130.005 63.4912 138.336C61.8156 148.761 65.1786 153.086 66.099 161.712L90.3421 146.673L88.1237 145.823Z" fill="#2B0838"/>
<path d="M81.6106 140.424C79.4807 139.067 75.2917 141.298 75.6103 144.554C75.9289 147.811 73.2208 149.634 70.5068 154.295L71.6042 154.573L88.1242 145.823L90.3426 146.69L92.5315 145.333C92.4784 142.973 92.8029 140.855 92.561 138.719C90.3898 137.97 89.5815 145.504 81.6106 140.424Z" fill="#2D44EB"/>
<path d="M76.2177 156.219C79.6928 161.251 81.4333 165.966 76.6484 166.839C69.7985 168.084 73.7397 177.565 77.2738 183.949V183.884C78.8196 177.878 80.8787 165.063 81.5454 161.747C82.0056 159.54 79.5689 156.708 76.2177 156.219Z" fill="#6383F7"/>
<path d="M76.6479 166.833C81.4328 165.966 79.6923 161.251 76.2172 156.213C75.6844 156.131 75.1439 156.111 74.6065 156.154C71.3025 154.289 70.0163 153.646 70.0163 153.646C69.6092 152.39 69.621 149.516 67.2964 148.873C62.7357 147.622 63.4673 158.903 65.6916 158.72C68.5531 158.508 63.6325 167.718 57.6558 172.367C53.9683 175.234 75.8809 188.468 77.2733 183.949C73.7392 177.559 69.798 168.06 76.6479 166.833Z" fill="#2D44EB"/>
<path d="M68.9374 154.048C68.3946 150.702 66.6305 150.714 66.0346 152C65.4387 153.286 65.4446 158.844 67.9934 157.452C69.1321 156.85 69.079 154.915 68.9374 154.048Z" fill="#6383F7"/>
<path d="M92.4837 147.457C92.6548 142.212 90.5367 142.613 87.6457 143.687C85.3388 144.548 81.9758 142.92 79.6689 144.554L79.368 144.779C78.7426 147.51 78.4712 150.171 79.1202 152.614C81.5628 161.753 76.9785 162.095 77.8399 165.322C78.3659 167.28 79.2111 169.138 80.3415 170.821C84.1175 170.196 90.106 161.971 90.7432 160.107C92.112 156.083 90.2712 155.576 90.8317 153.752C91.4571 151.699 92.3303 151.634 92.4837 147.457Z" fill="#6383F7"/>
<path d="M79.1207 152.614C78.4717 150.171 78.7431 147.51 79.3685 144.779C77.3271 146.324 77.4097 147.398 75.4332 151.198C72.5422 156.773 66.9254 157.806 69.8754 162.744C74.2119 170.001 75.7754 170.172 79.5219 170.833C79.7932 170.88 80.0706 170.88 80.342 170.833C79.2116 169.15 78.3664 167.292 77.8404 165.334C76.9908 162.095 81.5633 161.753 79.1207 152.614Z" fill="#2D44EB"/>
<path d="M105.423 269.115C115.453 304.179 117.253 339.325 113.571 348.765C109.89 358.205 76.4011 392.195 70.6722 400.207C68.3122 403.47 57.6509 391.422 59.3029 388.95C67.8166 376.182 78.1003 360.471 93.3636 339.184C96.1189 335.343 72.9319 264.956 72.9319 264.956L105.423 269.115Z" fill="#2B0838"/>
<path d="M101.464 181.311C112.119 199.442 124.143 222.11 127.2 225.166C130.256 228.222 147.466 232.954 149.873 233.833C152.281 234.712 151.106 243.863 146.28 242.518C141.454 241.173 119.046 237.391 114.833 234.169C110.621 230.948 97.6406 204.847 97.6406 204.847L101.464 181.311Z" fill="#FF9191"/>
<path d="M114.833 234.169C119.046 237.391 141.454 241.196 146.28 242.518C146.851 242.694 147.461 242.698 148.033 242.527C148.605 242.357 149.114 242.021 149.496 241.562L147.844 238.872C147.844 238.872 119.335 236.305 115.335 232.305C111.553 228.523 104.668 203.454 98.089 193.395L97.6406 204.846C97.6406 204.846 110.621 230.948 114.833 234.169Z" fill="#2D44EB"/>
<path d="M88.2425 280.254C90.5081 305.034 92.2722 329.106 90.573 339.107C88.8738 349.107 87.0212 373.811 87.0212 383.44C87.0212 393.068 87.0212 403.358 87.0212 408.975C87.0212 414.592 71.6812 413.034 71.6812 410.06C71.6812 407.087 65.8107 367.268 68.7312 338.316C69.2032 333.596 56.5654 290.45 56.5654 290.45L88.2425 280.254Z" fill="#2D44EB"/>
<path d="M64.2758 318.032C70.8012 321.46 70.7009 335.832 70.5003 337.844C69.3203 349.402 69.5858 362.683 70.2938 374.666C66.9485 379.664 63.91 384.248 61.078 388.502C59.426 390.974 70.1109 403.016 72.4473 399.759C73.0373 405.157 73.4739 408.768 73.4739 409.582C73.4739 411.352 79.0258 412.65 83.4331 412.155C81.2383 385.221 80.784 370.684 82.9257 350.205C84.7783 332.505 85.1441 325.047 82.613 312.923L63.0604 313.513L64.2758 318.032Z" fill="#2B0838"/>
<path d="M40.7941 184.031C48.0865 180.249 51.4967 179.559 53.4083 177.647C55.3199 175.736 60.0635 168.727 60.0635 168.727C60.0635 168.727 68.9725 176.786 76.3947 180.279C76.3947 180.279 79.8875 188.84 80.8787 189.825L79.2031 176.072L80.0704 170.939C80.0704 170.939 82.8139 171.464 89.0856 171.146C94.5136 170.868 99.0094 176.403 101.476 181.311C103.942 186.22 98.4607 234.47 101.281 249.645C103.128 259.545 107.771 278.272 111.264 287.777C115.588 299.63 103.275 309.66 103.275 309.66C103.275 309.66 95.6051 291.37 93.4811 285.435C91.7996 280.715 88.9971 265.929 88.9971 265.929L92.9678 313.3C92.9678 313.3 64.8248 317.767 53.4378 313.613C47.3313 311.389 44.6586 288.485 44.6586 269.227C44.6586 249.97 52.9658 248.748 42.1098 215.673C40.1156 209.661 33.9914 187.53 40.7941 184.031Z" fill="#FF9191"/>
<path d="M80.737 189.719C80.737 184.716 82.507 178.462 82.507 178.462L79.9405 170.833L79.0732 175.966L80.737 189.719Z" fill="#2D44EB"/>
<path d="M55.1608 313.908C49.0189 311.79 46.3816 287.983 46.3816 268.726C46.3816 254.524 50.901 250.135 48.9186 235.544C48.1811 233.113 47.3374 230.329 46.3344 227.131C42.6764 215.449 37.8502 199.495 38.0272 190.48C37.9859 186.226 40.6291 186.108 42.9891 184.887C50.2815 181.105 53.3436 180.013 55.2552 178.102C56.6594 176.692 59.515 171.612 60.9664 169.494L66.2764 173.824C65.7395 177.571 63.0373 191.394 63.0373 191.394C63.0373 199.023 69.0022 228.511 72.5776 232.104C76.5601 236.087 110.928 239.102 94.5374 245.71C90.4074 247.38 63.3618 239.485 65.0374 251.132C66.713 262.779 78.4245 296.68 78.4245 296.68C80.4659 304.35 81.9645 310.038 82.9911 314.504C82.9911 314.522 63.7512 316.864 55.1608 313.908Z" fill="#2D44EB"/>
<path d="M42.7707 186.592C42.3541 186.359 41.8903 186.223 41.4139 186.194C40.9375 186.165 40.4607 186.244 40.019 186.425C39.5773 186.606 39.1821 186.884 38.8628 187.239C38.5435 187.594 38.3082 188.016 38.1746 188.474C36.2217 196.687 40.2455 213.732 44.5879 227.603C50.3109 245.893 50.9127 250.843 55.8982 250.843C60.8837 250.843 85.7935 252.1 96.8324 252.1C107.871 252.1 106.337 242.288 103.246 241.25C100.154 240.211 67.0079 237.597 65.5742 234.942C63.3381 230.812 58.1343 207.118 53.5087 197.772C50.7593 192.25 45.585 188.12 42.7707 186.592Z" fill="#FF9191"/>
<path d="M105.417 244.612C104.404 244.836 103.352 244.814 102.349 244.548C99.2101 243.403 73.846 240.654 68.949 238.872C64.052 237.09 63.7806 237.798 62.6655 230.683C61.6271 224.057 55.2492 211.98 52.1576 195.465C49.2902 191.105 45.172 187.677 42.7648 186.374C40.9476 185.394 38.3634 186.722 37.915 188.621C35.9562 196.834 40.2396 213.732 44.582 227.603C50.305 245.893 50.9068 250.843 55.8923 250.843C60.8778 250.843 85.7876 252.1 96.8265 252.1C104.131 252.1 105.901 247.822 105.417 244.612Z" fill="#2D44EB"/>
<path d="M94.6903 150.862L81.9168 154.49L69.4619 151.599C69.515 151.747 69.5563 151.906 69.5976 152.071C71.0962 152.744 77.5213 155.611 79.7574 155.912C81.6867 156.183 81.8106 159.977 81.7634 161.812C85.0379 161.741 91.994 159.257 93.882 158.272C95.77 157.287 94.6903 150.862 94.6903 150.862Z" fill="#91BEFF"/>
<path d="M79.7575 155.9C77.5214 155.587 71.0963 152.732 69.5977 152.059C69.7246 152.597 69.8153 153.143 69.8691 153.693C69.8691 153.693 78.3002 161.688 81.4154 161.794H81.7635C81.8107 159.965 81.7104 156.172 79.7575 155.9Z" fill="#2B0838"/>
<path d="M69.2793 150.838C74.7722 152.561 77.0201 152.767 79.5512 153.027C82.7785 153.357 91.8586 150.862 92.13 149.835C92.13 149.835 93.4575 150.425 94.6965 150.862C95.9355 151.298 87.3746 154.23 82.5661 154.879C79.5158 155.287 74.0583 153.31 71.5626 152.401C69.0669 151.493 69.4622 151.587 69.4622 151.587L69.2793 150.838Z" fill="#2B0838"/>
<path d="M145.431 240.783C146.611 241.539 147.79 242.63 149.625 243.067C151.46 243.503 152.021 244.064 153.342 245.769C153.968 246.577 154.375 246.601 156.416 247.911C157.537 248.63 162.741 250.495 163.437 249.409L164.487 247.71C165.056 247.869 165.55 248.222 165.886 248.707C167.556 250.855 168.033 248.796 166.582 246.176C165.131 243.556 164.021 241.84 162.788 241.049C161.555 240.258 158.859 238.943 159.886 239.185C160.912 239.426 163.49 237.951 160.322 237.208C157.154 236.465 152.817 235.745 150.746 235.025C148.227 234.14 144.251 240.04 145.431 240.783Z" fill="#6383F7"/>
<path d="M147.566 236.341C145.914 237.916 144.675 240.311 145.401 240.783C146.581 241.539 147.761 242.63 149.595 243.067C151.43 243.503 151.991 244.064 153.312 245.769C153.938 246.577 154.345 246.601 156.386 247.911C157.507 248.63 162.711 250.495 163.407 249.409L164.493 247.728C165.059 247.888 165.552 248.24 165.885 248.725C165.885 248.725 163.702 243.621 162.115 242.606C160.528 241.592 152.953 238.984 147.566 236.341Z" fill="#2D44EB"/>
<path d="M100.283 250.141C101.682 250.141 103.233 250.43 105.045 249.799C106.856 249.167 107.599 249.344 109.635 250.064C110.597 250.406 110.951 250.206 113.381 250.206C114.703 250.206 120.096 248.961 120.096 247.675V245.675C120.66 245.503 121.267 245.532 121.812 245.757C124.373 246.666 123.665 244.677 121.034 243.256C118.402 241.834 116.526 240.99 115.069 240.99C113.611 240.99 110.62 241.338 111.617 240.99C112.614 240.642 113.977 238.005 110.915 239.09C107.853 240.176 103.835 241.916 101.676 242.43C99.0857 243.049 98.8792 250.141 100.283 250.141Z" fill="#6383F7"/>
<path d="M99.7055 245.238C99.1627 247.45 99.4164 250.141 100.295 250.141C101.694 250.141 103.246 250.43 105.057 249.799C106.868 249.167 107.612 249.344 109.647 250.064C110.609 250.406 110.963 250.206 113.394 250.206C114.715 250.206 120.108 248.961 120.108 247.675V245.675C120.672 245.503 121.279 245.532 121.825 245.757C121.825 245.757 117.228 242.648 115.335 242.648C113.441 242.648 105.67 244.554 99.7055 245.238Z" fill="#2D44EB"/>
<path d="M145.006 245.698L114.833 266.938V444.416L165.809 425.89V266.59C165.81 260.985 167.157 255.463 169.737 250.487C172.318 245.512 176.055 241.229 180.636 237.999L195.976 227.19L145.006 245.698Z" fill="#2D44EB"/>
<path d="M180.636 237.951L195.976 227.143L145 245.698L114.827 266.938V279.11L158.788 264.696C162.257 263.551 163.838 265.97 163.921 270.307L165.803 332.847V266.543C165.805 260.937 167.153 255.415 169.734 250.439C172.315 245.463 176.054 241.181 180.636 237.951Z" fill="#2B0838"/>
<path d="M159.667 460.735L114.827 444.416V283.482C114.826 278.377 116.051 273.347 118.399 268.815C120.747 264.283 124.15 260.382 128.321 257.439L144.982 245.698L141.442 241.196L121.972 255.185C117.863 258.135 114.515 262.022 112.205 266.523C109.896 271.024 108.691 276.01 108.691 281.069V449.643L114.833 451.879L159.673 468.199L159.667 460.735Z" fill="#2B0838"/>
<path d="M159.667 460.735V468.199L210.649 449.643V442.18L159.667 460.735Z" fill="#142F99"/>
<path d="M141.454 241.196L145.006 245.698L195.982 227.143L192.436 222.641L141.454 241.196Z" fill="#2D44EB"/>
<path d="M159.667 460.735L114.833 444.416L165.815 425.86L210.649 442.18L159.667 460.735Z" fill="#2D44EB"/>
<path d="M312.182 494.106C307.346 494.077 302.553 493.196 298.022 491.504L193.002 453.278C192.797 453.188 192.634 453.024 192.545 452.819C192.457 452.614 192.449 452.382 192.524 452.172C192.598 451.961 192.75 451.786 192.948 451.683C193.146 451.58 193.376 451.555 193.592 451.614L298.612 489.84C307.33 493.156 316.963 493.156 325.681 489.84L365.996 472.5C366.751 472.235 367.406 471.744 367.871 471.092C368.336 470.441 368.588 469.662 368.593 468.862C368.599 468.061 368.356 467.279 367.9 466.622C367.443 465.965 366.795 465.465 366.043 465.19L365.329 464.93C363.056 464.104 360.564 464.104 358.291 464.93L323.345 478.99C321.906 479.519 320.361 479.693 318.841 479.497C317.321 479.301 315.87 478.741 314.613 477.864C313.356 476.987 312.329 475.819 311.62 474.46C310.912 473.101 310.542 471.59 310.542 470.058V437.861C310.542 437.626 310.635 437.401 310.801 437.235C310.967 437.069 311.192 436.976 311.427 436.976C311.661 436.976 311.887 437.069 312.053 437.235C312.219 437.401 312.312 437.626 312.312 437.861V470.058C312.312 471.303 312.612 472.53 313.187 473.635C313.762 474.739 314.595 475.689 315.615 476.404C316.635 477.118 317.812 477.576 319.047 477.739C320.282 477.901 321.537 477.764 322.708 477.338L357.659 463.302C360.327 462.333 363.251 462.333 365.919 463.302L366.633 463.562C367.725 463.956 368.668 464.678 369.335 465.628C370.002 466.578 370.36 467.711 370.36 468.872C370.36 470.032 370.002 471.165 369.335 472.115C368.668 473.065 367.725 473.787 366.633 474.182L326.324 491.522C321.799 493.209 317.011 494.084 312.182 494.106V494.106Z" fill="#2D44EB"/>
<path d="M340.372 154.879L152.581 223.225C144.757 226.075 138.421 222.045 138.421 214.216V89C138.421 81.1707 144.763 72.5213 152.581 69.6716L340.372 1.31422C348.195 -1.53548 354.532 2.49422 354.532 10.3235V135.551C354.538 143.374 348.195 152.03 340.372 154.879Z" fill="#2B0838"/>
<path d="M341.901 155.44L154.08 223.791C146.257 226.635 139.92 222.611 139.92 214.776V89.5486C139.92 81.7252 146.262 73.0699 154.08 70.2202L341.901 1.87464C349.724 -0.975058 356.061 3.05464 356.061 10.8839V136.111C356.061 143.941 349.694 152.59 341.901 155.44Z" fill="#142F99"/>
<path d="M341.901 155.44C349.724 152.59 356.061 143.941 356.061 136.111V22.0763C341.311 35.5283 341.954 77.8785 318.017 80.74C293.09 83.69 269.543 86.0087 249.4 121.096C229.258 156.183 228.213 191.495 203.622 197.648C189.433 201.188 182.134 208.965 178.488 214.912L341.901 155.44Z" fill="#2D44EB"/>
<path d="M295.114 96.8529C282.482 101.248 272.21 92.9648 272.21 78.38C272.21 63.7952 282.482 48.349 295.114 43.9535C307.746 39.558 318.018 47.8416 318.018 62.4264C318.018 77.0112 307.746 92.4515 295.114 96.8529ZM295.114 46.4905C283.697 50.4671 274.411 64.4265 274.411 77.613C274.411 90.7995 283.697 98.263 295.114 94.31C306.53 90.357 315.817 76.374 315.817 63.1934C315.817 50.0128 306.53 42.5139 295.114 46.52V46.4905Z" fill="#6383F7"/>
<path d="M295.131 96.847C294.399 97.1029 293.655 97.3195 292.901 97.496C292.311 97.6435 291.85 97.1774 291.909 96.4576C291.934 96.1109 292.059 95.7787 292.268 95.5013C292.477 95.2238 292.763 95.0129 293.089 94.8941C304.453 92.2096 314.595 79.0408 315.698 65.5357C315.723 65.189 315.847 64.8568 316.057 64.5794C316.266 64.3019 316.552 64.091 316.878 63.9722C317.468 63.8306 317.922 64.2967 317.863 65.0165C316.766 79.0703 306.771 92.7937 295.131 96.847Z" fill="white"/>
<path d="M309.48 86.64C309.232 86.744 308.96 86.7748 308.695 86.7288C308.431 86.6827 308.185 86.5618 307.987 86.3804C307.267 85.6783 307.35 84.2092 308.176 83.0882C312.471 77.2413 314.937 70.1082 314.937 63.512C314.937 50.886 306.046 43.7116 295.113 47.523C294.022 47.9006 293.131 47.1867 293.131 45.9241C293.147 45.2949 293.342 44.6834 293.693 44.161C294.044 43.6386 294.537 43.2269 295.113 42.9741C308.229 38.4075 318.902 47.0156 318.902 62.1609C318.902 70.0728 315.952 78.6337 310.784 85.6488C310.458 86.1021 310.004 86.4474 309.48 86.64Z" fill="#FF9191"/>
<path d="M309.185 104.783L304.282 106.494L299.072 93.6139L299.479 93.2776L304.577 105.88L309.185 104.275V104.783Z" fill="#FF9191"/>
<path d="M312.884 49.4524L312.507 49.3226L319.569 33.2451L325.044 31.3394V31.8468L319.817 33.6699L312.884 49.4524Z" fill="#FF9191"/>
<path d="M275.048 66.3558L269.319 58.0014L263.891 59.8894V59.382L269.561 57.4055L275.419 65.9546L275.048 66.3558Z" fill="#6383F7"/>
<path d="M260.475 63.6478L241.736 70.1732V64.0844L260.475 57.559V63.6478Z" fill="#6383F7"/>
<path d="M348.042 26.6253L329.31 33.1507V27.0678L348.042 20.5424V26.6253Z" fill="#FF9191"/>
<path d="M331.428 99.8266L312.695 106.352V100.263L331.428 93.7378V99.8266Z" fill="white"/>
<path d="M153.278 193.813C152.788 193.99 152.387 193.642 152.387 193.029V172.237C152.386 171.94 152.47 171.648 152.627 171.395C152.785 171.143 153.01 170.94 153.278 170.809C153.767 170.632 154.169 170.98 154.169 171.594V192.386C154.169 192.683 154.085 192.975 153.928 193.227C153.77 193.48 153.545 193.683 153.278 193.813V193.813Z" fill="#FF9191"/>
<path d="M167.444 188.657C166.954 188.834 166.559 188.486 166.559 187.872V175.541C166.557 175.244 166.639 174.953 166.796 174.7C166.952 174.448 167.177 174.244 167.444 174.113C167.939 173.936 168.335 174.285 168.335 174.898V187.229C168.336 187.527 168.253 187.819 168.096 188.072C167.938 188.325 167.712 188.528 167.444 188.657V188.657Z" fill="#FF9191"/>
<path d="M181.616 183.5C181.12 183.677 180.725 183.329 180.725 182.716V173.718C180.723 173.419 180.805 173.126 180.963 172.872C181.12 172.619 181.347 172.415 181.616 172.284C182.105 172.107 182.501 172.456 182.501 173.069V182.073C182.502 182.37 182.42 182.661 182.263 182.914C182.107 183.166 181.882 183.37 181.616 183.5Z" fill="#FF9191"/>
<path d="M195.781 178.344C195.291 178.521 194.89 178.173 194.89 177.559V158.201C194.889 157.904 194.973 157.612 195.13 157.359C195.288 157.107 195.513 156.904 195.781 156.773C196.27 156.59 196.671 156.944 196.671 157.552V176.91C196.673 177.209 196.59 177.502 196.432 177.755C196.275 178.009 196.049 178.213 195.781 178.344V178.344Z" fill="#FF9191"/>
<path d="M209.948 173.187C209.458 173.364 209.057 173.016 209.057 172.402V148.496C209.056 148.198 209.14 147.906 209.297 147.654C209.455 147.401 209.68 147.198 209.948 147.068C210.437 146.885 210.838 147.239 210.838 147.847V171.759C210.839 172.057 210.755 172.349 210.598 172.601C210.44 172.854 210.215 173.057 209.948 173.187V173.187Z" fill="#FF9191"/>
<path d="M224.113 168.06C223.623 168.237 223.228 167.889 223.228 167.275V133.716C223.226 133.418 223.308 133.126 223.464 132.872C223.621 132.619 223.845 132.414 224.113 132.282C224.608 132.105 225.003 132.459 225.003 133.067V166.603C225.011 166.906 224.931 167.204 224.773 167.463C224.615 167.721 224.385 167.929 224.113 168.06V168.06Z" fill="#FF9191"/>
<path d="M238.284 162.874C237.795 163.051 237.394 162.703 237.394 162.089V132.589C237.393 132.291 237.476 132 237.633 131.747C237.791 131.494 238.017 131.291 238.284 131.161C238.774 130.978 239.175 131.332 239.175 131.94V161.44C239.177 161.739 239.094 162.032 238.936 162.285C238.779 162.539 238.553 162.743 238.284 162.874V162.874Z" fill="#FF9191"/>
<path d="M158.163 202.835L148.876 206.074V202.304L158.163 199.07V202.835Z" fill="#2D44EB"/>
<path d="M172.317 197.908L163.03 201.141V197.371L172.317 194.138V197.908Z" fill="#2D44EB"/>
<path d="M186.471 192.976L177.185 196.209V192.445L186.471 189.212V192.976Z" fill="#2D44EB"/>
<path d="M200.625 188.049L191.339 191.282V187.512L200.625 184.279V188.049Z" fill="#2D44EB"/>
<path d="M214.78 183.117L205.493 186.35V182.586L214.78 179.353V183.117Z" fill="#2D44EB"/>
<path d="M228.933 178.19L219.646 181.424V177.653L228.933 174.42V178.19Z" fill="#2D44EB"/>
<path d="M243.087 173.258L233.801 176.497V172.727L243.087 169.494V173.258Z" fill="#2D44EB"/>
<path d="M151.054 143.722C150.758 143.722 150.464 143.678 150.181 143.593L150.305 143.168C150.655 143.278 151.025 143.309 151.388 143.258C151.751 143.207 152.099 143.075 152.405 142.873C155.668 140.831 157.272 131.663 158.57 124.306C158.979 121.536 159.553 118.794 160.287 116.093C161.633 111.921 163.562 109.255 166.016 108.169C167.951 107.314 170.188 107.455 172.677 108.582C175.167 109.709 176.807 111.951 178.365 113.951C180.536 116.783 182.253 119.019 184.973 117.314C187.87 115.497 188.784 112.311 189.693 109.225C190.283 107.107 190.873 105.095 192.053 103.597C193.392 101.88 195.304 99.8914 198.254 99.7085C201.611 99.4961 205.511 101.667 210.178 106.328C214.001 110.157 218.762 106.694 223.807 103.036C228.851 99.3781 234.102 95.5549 238.073 100.31C243.383 106.7 252.133 106.021 252.233 106.016L252.274 106.452C252.18 106.452 243.224 107.166 237.748 100.599C234.049 96.1567 229.205 99.6731 224.084 103.39C219.11 107.001 213.971 110.736 209.883 106.641C205.375 102.139 201.463 99.9445 198.295 100.151C195.528 100.322 193.699 102.228 192.395 103.874C191.274 105.314 190.714 107.272 190.118 109.349C189.209 112.512 188.271 115.786 185.233 117.686C182.194 119.586 180.159 116.99 178.04 114.222C176.536 112.258 174.831 110.034 172.518 108.989C170.205 107.945 168.028 107.774 166.223 108.576C163.863 109.603 162.04 112.181 160.73 116.246C159.999 118.929 159.422 121.651 159.001 124.4C157.697 131.852 156.051 141.121 152.641 143.28C152.165 143.575 151.614 143.729 151.054 143.722V143.722Z" fill="#91BEFF"/>
<path d="M154.281 127.94C152.362 127.873 150.46 127.546 148.629 126.967L148.788 126.377C155.166 128.194 159.29 127.911 161.503 121.067C162.771 117.149 163.992 116.175 165.414 115.049C166.91 113.923 168.162 112.506 169.096 110.883C170.553 108.494 170.937 105.626 171.303 102.847C171.792 99.1775 172.253 95.7083 175.173 93.8793C177.822 92.2155 180.513 93.4309 182.884 94.5047C185.374 95.6316 186.961 96.2393 188.165 94.6935C188.513 94.2451 188.902 93.7141 189.345 93.13C191.522 90.121 194.814 85.5839 198.732 85.0293C199.613 84.9275 200.505 85.0091 201.353 85.269C202.201 85.529 202.986 85.9616 203.658 86.5397C205.707 88.0719 207.499 89.92 208.968 92.0149C210.148 93.6374 210.939 94.7053 214.001 95.903C215.288 96.4248 216.651 96.7394 218.037 96.8352C220.084 97.0358 221.016 97.1243 223.824 102.299C225.347 105.095 227.441 106.57 229.884 106.57H229.949C233.341 106.535 236.94 103.62 239.341 98.9651C243.595 90.7051 250.551 89.2242 250.628 89.2124L250.746 89.8024C250.675 89.8024 243.985 91.2656 239.867 99.2424C237.365 104.092 233.565 107.131 229.955 107.166H229.884C228.008 107.166 225.364 106.364 223.311 102.588C220.644 97.6907 219.919 97.6199 218.001 97.4311C216.559 97.323 215.143 96.9947 213.8 96.4576C210.579 95.2009 209.712 94.0091 208.49 92.3689C207.048 90.3187 205.29 88.5104 203.281 87.0117C202.672 86.4816 201.959 86.084 201.188 85.8443C200.417 85.6046 199.605 85.528 198.802 85.6193C195.133 86.1385 191.929 90.5576 189.811 93.4781C189.386 94.0681 188.991 94.6109 188.631 95.0593C187.079 97.0535 184.926 96.08 182.642 95.0593C180.359 94.0386 177.869 92.8999 175.486 94.3985C172.801 96.0741 172.359 99.4135 171.887 102.942C171.509 105.78 171.12 108.712 169.603 111.202C168.635 112.886 167.334 114.355 165.78 115.521C164.382 116.636 163.273 117.515 162.063 121.261C160.458 126.241 157.821 127.94 154.281 127.94Z" fill="#FF9191"/>
<path d="M390.87 91.5725L280.753 131.657C272.015 134.837 264.929 144.501 264.929 153.239V450.599C264.929 459.337 272.009 463.839 280.753 460.659L390.87 420.58C399.608 417.4 406.694 407.736 406.694 398.998V101.638C406.718 92.8941 399.632 88.4101 390.87 91.5725Z" fill="#2D44EB"/>
<path d="M406.718 181.489L264.929 233.09V153.239C264.929 144.501 272.009 134.837 280.753 131.657L390.87 91.5725C399.608 88.3865 406.694 92.8941 406.694 101.603L406.718 181.489Z" fill="#6383F7"/>
<path d="M360.846 303.347L384.676 294.609C387.484 293.577 389.761 290.479 389.761 287.653V258.56C389.761 255.752 387.484 254.306 384.676 255.339L360.846 264.077C358.037 265.109 355.76 268.207 355.76 271.033V300.126C355.76 302.934 358.037 304.35 360.846 303.347Z" fill="#2B0838"/>
<path d="M285.626 417.477L309.45 408.739C312.264 407.712 314.542 404.609 314.542 401.789V372.696C314.542 369.887 312.264 368.442 309.45 369.474L285.62 378.212C282.812 379.239 280.534 382.342 280.534 385.162V414.255C280.54 417.04 282.817 418.509 285.626 417.477Z" fill="#2B0838"/>
<path d="M385.466 298.072L361.636 306.81C358.827 307.843 356.55 310.94 356.55 313.766V342.859C356.55 345.668 358.827 347.113 361.636 346.081L385.466 337.343C388.28 336.31 390.557 333.213 390.557 330.387V301.294C390.557 298.485 388.28 297.046 385.466 298.072Z" fill="#2B0838"/>
<path d="M264.929 342.93L271.844 340.393C274.652 339.367 276.929 340.806 276.929 343.615V372.713C276.929 375.522 274.652 378.613 271.844 379.664L264.764 382.271L264.929 342.93Z" fill="#2B0838"/>
<path d="M385.466 341.603L324.106 364.105C321.298 365.138 319.021 368.235 319.021 371.055V400.148C319.021 402.963 321.298 404.402 324.106 403.376L385.466 380.873C388.281 379.84 390.558 376.743 390.558 373.917V344.824C390.558 342.016 388.281 340.57 385.466 341.603Z" fill="#2B0838"/>
<path d="M286.027 374.637L347.387 352.134C350.196 351.107 352.473 348.004 352.473 345.184V272.738C352.473 269.929 350.196 268.484 347.387 269.516L286.027 292.019C283.219 293.051 280.941 296.149 280.941 298.975V371.415C280.941 374.224 283.219 375.669 286.027 374.637Z" fill="#2B0838"/>
<path d="M349.859 366.719V382.944C349.859 383.117 349.912 383.286 350.01 383.428C350.109 383.57 350.249 383.678 350.411 383.738C350.573 383.798 350.75 383.806 350.917 383.763C351.085 383.719 351.234 383.624 351.346 383.493L360.922 372.283C361.046 372.145 361.136 371.98 361.185 371.801C361.234 371.623 361.24 371.435 361.203 371.253C361.165 371.072 361.086 370.901 360.97 370.756C360.855 370.611 360.707 370.495 360.538 370.418L351.222 365.858C351.077 365.787 350.916 365.755 350.755 365.765C350.594 365.774 350.438 365.824 350.302 365.91C350.165 365.996 350.053 366.116 349.976 366.257C349.898 366.399 349.858 366.558 349.859 366.719V366.719Z" fill="#2B0838"/>
<path d="M277.06 256.442C277.06 260.66 280.482 262.838 284.7 261.304L386.009 224.429C390.227 222.895 393.679 218.228 393.679 214.003V186.244L277.06 228.677V256.442Z" fill="#2B0838"/>
<path d="M386.009 121.586L284.7 158.455C280.482 159.995 277.06 164.662 277.06 168.88V228.677L393.649 186.244V126.447C393.649 122.223 390.227 120.046 386.009 121.586Z" fill="#2D44EB"/>
<path d="M365.654 305.306L389.484 296.568C392.293 295.541 394.57 292.438 394.57 289.618V260.525C394.57 257.716 392.293 256.271 389.484 257.303L365.654 266.041C362.84 267.068 360.562 270.171 360.562 272.992V302.084C360.562 304.893 362.84 306.338 365.654 305.306Z" fill="#6383F7"/>
<path d="M290.434 419.441L314.265 410.703C317.073 409.671 319.35 406.573 319.35 403.747V374.654C319.35 371.846 317.073 370.406 314.265 371.433L290.434 380.171C287.626 381.203 285.349 384.301 285.349 387.127V416.22C285.349 419.028 287.62 420.468 290.434 419.441Z" fill="white"/>
<path d="M390.28 300.037L366.444 308.775C363.636 309.802 361.358 312.905 361.358 315.725V344.818C361.358 347.632 363.636 349.072 366.444 348.04L390.28 339.302C393.089 338.275 395.366 335.172 395.366 332.351V303.259C395.36 300.45 393.083 299.005 390.28 300.037Z" fill="white"/>
<path d="M276.652 342.358L252.81 351.096C250.002 352.128 247.725 355.226 247.725 358.046V387.139C247.725 389.953 250.002 391.393 252.81 390.366L276.652 381.64C279.461 380.608 281.738 377.51 281.738 374.684V345.579C281.72 342.771 279.461 341.325 276.652 342.358Z" fill="#6383F7"/>
<path d="M238.025 315.69L214.189 324.41C211.381 325.443 209.104 328.54 209.104 331.366V360.459C209.104 363.267 211.381 364.713 214.189 363.68L238.025 354.943C240.834 353.91 243.111 350.812 243.111 347.992V318.911C243.111 316.103 240.834 314.663 238.025 315.69Z" fill="#2D44EB"/>
<path d="M390.281 343.567L328.921 366.07C326.112 367.097 323.835 370.2 323.835 373.02V402.113C323.835 404.921 326.112 406.367 328.921 405.334L390.281 382.82C393.089 381.793 395.367 378.69 395.367 375.87V346.789C395.361 343.974 393.083 342.535 390.281 343.567Z" fill="#6383F7"/>
<path d="M290.836 376.601L352.196 354.099C355.004 353.066 357.282 349.969 357.282 347.143V274.703C357.282 271.894 355.004 270.449 352.196 271.481L290.836 293.984C288.027 295.01 285.744 298.114 285.744 300.934V373.38C285.744 376.188 288.027 377.628 290.836 376.601Z" fill="#2D44EB"/>
<path d="M357.294 311.766C350.432 315.843 350.638 327.808 342.461 331.077C334.284 334.346 329.711 309.341 318.177 314.256C306.89 319.053 306.536 349.107 285.727 356.305V373.864C285.73 374.37 285.855 374.868 286.091 375.316C286.327 375.764 286.668 376.149 287.083 376.438C287.499 376.727 287.978 376.912 288.48 376.977C288.982 377.043 289.493 376.987 289.969 376.814L351.978 354.158C353.533 353.59 354.876 352.558 355.825 351.202C356.775 349.847 357.285 348.232 357.288 346.576L357.294 311.766Z" fill="#FF9191"/>
<path d="M354.662 368.66V384.885C354.662 385.058 354.714 385.227 354.813 385.369C354.912 385.511 355.051 385.619 355.214 385.679C355.376 385.739 355.553 385.748 355.72 385.704C355.887 385.66 356.037 385.566 356.149 385.434L365.731 374.224C365.854 374.086 365.942 373.921 365.99 373.743C366.038 373.564 366.043 373.377 366.005 373.196C365.967 373.015 365.887 372.846 365.772 372.702C365.657 372.557 365.509 372.442 365.341 372.365L356.025 367.804C355.88 367.733 355.72 367.699 355.559 367.708C355.397 367.716 355.241 367.765 355.104 367.851C354.968 367.937 354.855 368.056 354.778 368.198C354.7 368.339 354.661 368.499 354.662 368.66Z" fill="white"/>
<path d="M390.811 226.393L289.508 263.262C285.289 264.802 281.838 262.625 281.838 258.401V170.845C281.838 166.62 285.26 161.954 289.508 160.42L390.811 123.545C395.035 122.011 398.481 124.188 398.481 128.406V215.968C398.457 220.187 395.035 224.859 390.811 226.393Z" fill="#FF9191"/>
<path d="M296.671 236.093V243.226L295.243 243.745V237.94L294.01 238.388V237.09L296.671 236.093Z" fill="#2B0838"/>
<path d="M302.589 239.727V241.072L297.928 242.766V241.698L300.288 238.235C300.662 237.801 300.888 237.26 300.931 236.689C300.931 236.128 300.595 235.922 299.946 236.158C299.384 236.371 298.927 236.794 298.671 237.338L297.627 236.942C298.128 235.916 299.005 235.122 300.075 234.724C301.45 234.223 302.365 234.724 302.365 235.998C302.365 236.695 302.199 237.385 301.338 238.63L299.916 240.695L302.589 239.727Z" fill="#2B0838"/>
<path d="M303.373 239.869C303.371 239.594 303.45 239.325 303.602 239.096C303.753 238.867 303.969 238.688 304.223 238.583C304.701 238.406 305.078 238.659 305.078 239.249C305.078 239.527 304.997 239.799 304.845 240.031C304.693 240.264 304.477 240.447 304.223 240.559C303.751 240.73 303.373 240.453 303.373 239.869Z" fill="#2B0838"/>
<path d="M311.049 235.739C311.027 236.452 310.789 237.142 310.368 237.718C309.947 238.294 309.362 238.729 308.689 238.966C306.99 239.586 305.928 238.736 305.928 236.429C305.928 233.963 307.214 232.122 309.072 231.444C309.614 231.21 310.218 231.162 310.789 231.308L310.264 232.712C309.876 232.588 309.456 232.611 309.084 232.777C308.549 232.991 308.095 233.366 307.784 233.85C307.473 234.335 307.321 234.904 307.35 235.479C307.714 234.928 308.252 234.513 308.878 234.299C310.117 233.857 311.049 234.394 311.049 235.739ZM309.668 236.329C309.668 235.68 309.255 235.414 308.618 235.645C308.316 235.753 308.052 235.95 307.863 236.21C307.674 236.47 307.567 236.781 307.556 237.102C307.556 237.692 307.951 238.016 308.636 237.769C308.936 237.663 309.196 237.468 309.38 237.209C309.565 236.95 309.666 236.641 309.668 236.323V236.329Z" fill="#2B0838"/>
<path d="M314.135 234.73L313.474 235.727V237.09L312.1 237.586V230.051L313.474 229.55V233.827L315.48 230.877L317.121 230.287L315.144 233.332L317.298 235.692L315.628 236.282L314.135 234.73Z" fill="#2B0838"/>
<path d="M337.417 226.163C337.388 226.911 337.125 227.632 336.666 228.223C336.207 228.815 335.574 229.248 334.856 229.461C334.107 229.781 333.267 229.812 332.496 229.55L333.086 228.081C333.365 228.202 333.667 228.265 333.971 228.265C334.276 228.265 334.577 228.202 334.856 228.081C335.17 228.01 335.453 227.841 335.665 227.6C335.877 227.358 336.007 227.056 336.036 226.735C336.036 226.175 335.723 225.921 334.602 226.328L333.027 226.918L333.34 222.788L337.104 221.42V222.747L334.532 223.679L334.437 225.072L334.939 224.889C336.697 224.216 337.417 224.901 337.417 226.163Z" fill="#2B0838"/>
<path d="M343.081 219.219V220.287L340.792 227.184L339.24 227.774L341.435 221.16L339.388 221.903V223.083L338.119 223.544V221.036L343.081 219.219Z" fill="#2B0838"/>
<path d="M343.889 225.131C343.887 224.855 343.967 224.586 344.12 224.357C344.272 224.128 344.49 223.949 344.744 223.844C345.222 223.667 345.6 223.921 345.6 224.511C345.599 224.789 345.518 225.061 345.366 225.293C345.214 225.526 344.998 225.709 344.744 225.821C344.26 225.992 343.889 225.715 343.889 225.131Z" fill="#2B0838"/>
<path d="M351.4 219.597C351.4 222.063 350.126 223.904 348.255 224.582C347.717 224.813 347.118 224.861 346.55 224.718L347.075 223.308C347.461 223.444 347.885 223.423 348.255 223.249C348.792 223.034 349.247 222.657 349.558 222.17C349.869 221.683 350.02 221.111 349.99 220.535C349.618 221.082 349.08 221.496 348.456 221.715C347.276 222.145 346.332 221.608 346.332 220.263C346.356 219.551 346.593 218.863 347.014 218.288C347.435 217.713 348.02 217.279 348.692 217.042C350.356 216.44 351.4 217.296 351.4 219.597ZM349.807 218.93C349.807 218.34 349.412 218.015 348.733 218.263C348.435 218.367 348.176 218.561 347.991 218.817C347.806 219.074 347.705 219.381 347.701 219.697C347.701 220.352 348.12 220.617 348.751 220.387C349.053 220.278 349.315 220.081 349.504 219.821C349.692 219.561 349.798 219.251 349.807 218.93V218.93Z" fill="#2B0838"/>
<path d="M354.651 219.98L353.99 220.977V222.375L352.615 222.871V215.313L353.99 214.812V219.089L355.996 216.139L357.636 215.549L355.666 218.594L357.813 220.954L356.149 221.544L354.651 219.98Z" fill="#2B0838"/>
<path d="M374.94 212.499C374.911 213.247 374.648 213.967 374.189 214.559C373.73 215.15 373.097 215.583 372.38 215.797C371.63 216.113 370.791 216.144 370.02 215.885L370.61 214.416C370.889 214.536 371.19 214.598 371.495 214.598C371.799 214.598 372.1 214.536 372.38 214.416C372.693 214.345 372.976 214.177 373.188 213.935C373.4 213.694 373.53 213.391 373.56 213.071C373.56 212.511 373.247 212.257 372.126 212.664L370.551 213.254L370.869 209.124L374.627 207.755V209.083L371.99 210.003L371.896 211.396L372.397 211.213C374.244 210.54 374.94 211.236 374.94 212.499Z" fill="#2B0838"/>
<path d="M375.784 210.876C375.784 208.516 376.911 206.776 378.427 206.221C379.944 205.667 381.071 206.599 381.071 208.953C381.071 211.307 379.95 213.048 378.427 213.602C376.905 214.157 375.784 213.23 375.784 210.876ZM379.631 209.472C379.631 207.856 379.141 207.36 378.451 207.62C377.761 207.879 377.271 208.729 377.271 210.351C377.271 211.974 377.761 212.463 378.451 212.204C379.141 211.944 379.66 211.095 379.66 209.472H379.631Z" fill="#2B0838"/>
<path d="M387.088 208.074C387.064 208.786 386.827 209.474 386.406 210.049C385.985 210.624 385.4 211.058 384.728 211.295C383.029 211.915 381.973 211.065 381.973 208.764C381.973 206.298 383.259 204.457 385.117 203.779C385.659 203.544 386.263 203.497 386.834 203.643L386.303 205.047C385.925 204.923 385.514 204.946 385.153 205.112C384.616 205.321 384.16 205.695 383.848 206.179C383.537 206.663 383.386 207.233 383.418 207.808C383.784 207.26 384.318 206.845 384.94 206.628C386.15 206.192 387.088 206.729 387.088 208.074ZM385.707 208.664C385.707 208.015 385.294 207.743 384.663 207.973C384.36 208.084 384.096 208.282 383.906 208.542C383.716 208.803 383.607 209.114 383.595 209.437C383.595 210.027 383.99 210.351 384.681 210.097C384.98 209.993 385.239 209.798 385.422 209.54C385.606 209.283 385.706 208.974 385.707 208.658V208.664Z" fill="#2B0838"/>
<path d="M317.292 243.686L294.141 252.389V248.619L317.292 239.922V243.686Z" fill="#2B0838"/>
<path d="M355.789 229.638L332.632 238.341V234.571L355.789 225.868V229.638Z" fill="#2B0838"/>
<path d="M384.545 219.431L370.421 224.741V220.971L384.545 215.667V219.431Z" fill="#2B0838"/>
<path d="M286.099 274.98C286.099 276.213 285.243 277.281 283.862 277.788L282.682 278.219V279.835L281.709 280.189V274.59L283.874 273.806C285.261 273.304 286.099 273.741 286.099 274.98ZM285.113 275.34C285.113 274.638 284.671 274.39 283.815 274.702L282.671 275.115V277.34L283.815 276.921C284.174 276.834 284.495 276.633 284.729 276.347C284.963 276.062 285.098 275.708 285.113 275.34V275.34Z" fill="#91BEFF"/>
<path d="M286.635 276.254C286.657 275.607 286.871 274.98 287.25 274.455C287.63 273.929 288.157 273.529 288.765 273.304C290.015 272.85 290.906 273.428 290.906 274.708C290.883 275.357 290.666 275.984 290.285 276.51C289.904 277.035 289.374 277.435 288.765 277.658C287.532 278.119 286.635 277.535 286.635 276.254ZM289.962 275.074C289.962 274.26 289.449 273.894 288.782 274.177C288.43 274.319 288.129 274.564 287.918 274.88C287.708 275.196 287.598 275.568 287.602 275.947C287.602 276.762 288.116 277.127 288.782 276.85C289.143 276.709 289.452 276.459 289.666 276.136C289.88 275.813 289.99 275.432 289.98 275.045L289.962 275.074Z" fill="#91BEFF"/>
<path d="M296.017 272.838C296.017 273.478 295.823 274.104 295.459 274.631C295.096 275.158 294.58 275.561 293.981 275.788C293.778 275.889 293.552 275.933 293.326 275.914C293.1 275.895 292.884 275.815 292.701 275.682V277.753L291.763 278.095V272.254L292.654 271.929V272.49C292.96 271.987 293.428 271.602 293.981 271.398C295.155 270.974 296.017 271.522 296.017 272.838ZM295.067 273.186C295.067 272.372 294.553 272.036 293.887 272.283C293.535 272.426 293.235 272.672 293.025 272.987C292.814 273.303 292.704 273.674 292.707 274.053C292.707 274.868 293.226 275.198 293.887 274.956C294.238 274.813 294.538 274.568 294.749 274.252C294.959 273.937 295.07 273.565 295.067 273.186V273.186Z" fill="#91BEFF"/>
<path d="M300.754 268.985V273.251L299.858 273.576V273.033C299.56 273.525 299.105 273.901 298.566 274.101C297.539 274.478 296.843 274.101 296.843 272.844V270.407L297.781 270.065V272.366C297.781 273.145 298.123 273.387 298.719 273.168C299.059 273.042 299.349 272.81 299.547 272.506C299.744 272.202 299.839 271.843 299.816 271.481V269.328L300.754 268.985Z" fill="#91BEFF"/>
<path d="M301.893 266.909L302.831 266.566V272.49L301.893 272.832V266.909Z" fill="#91BEFF"/>
<path d="M307.344 268.36V270.862L306.459 271.186V270.667C306.187 271.161 305.735 271.53 305.197 271.7C304.282 272.036 303.704 271.7 303.704 270.968C303.704 270.236 304.153 269.534 305.374 269.086L306.406 268.708V268.649C306.406 268.059 306.076 267.841 305.409 268.059C304.936 268.239 304.518 268.538 304.194 268.927L303.822 268.337C304.278 267.804 304.863 267.398 305.521 267.157C306.678 266.779 307.344 267.121 307.344 268.36ZM306.406 269.871V269.375L305.439 269.729C304.802 269.959 304.63 270.278 304.63 270.59C304.63 270.903 304.914 271.08 305.391 270.903C305.63 270.819 305.846 270.681 306.022 270.5C306.198 270.319 306.329 270.099 306.406 269.859V269.871Z" fill="#91BEFF"/>
<path d="M310.778 265.286V266.236C310.704 266.251 310.631 266.27 310.56 266.295C310.203 266.421 309.895 266.658 309.683 266.971C309.471 267.284 309.364 267.657 309.38 268.036V270.13L308.441 270.472V266.177L309.338 265.853V266.478C309.488 266.194 309.692 265.943 309.939 265.738C310.186 265.534 310.471 265.38 310.778 265.286Z" fill="#91BEFF"/>
<path d="M318.177 263.304C318.177 264.537 317.315 265.605 315.935 266.112L314.755 266.543V268.159L313.781 268.513V262.92L315.941 262.13C317.315 261.628 318.177 262.065 318.177 263.304ZM317.191 263.664C317.191 262.961 316.749 262.714 315.893 263.026L314.749 263.439V265.664L315.893 265.251C316.256 265.162 316.58 264.956 316.815 264.665C317.049 264.374 317.182 264.014 317.191 263.64V263.664Z" fill="#91BEFF"/>
<path d="M318.708 264.584C318.731 263.936 318.947 263.309 319.327 262.784C319.707 262.259 320.235 261.858 320.844 261.634C322.089 261.18 322.986 261.758 322.986 263.038C322.962 263.687 322.746 264.314 322.364 264.84C321.983 265.365 321.453 265.765 320.844 265.988C319.611 266.443 318.708 265.859 318.708 264.584ZM322.036 263.369C322.036 262.555 321.528 262.224 320.856 262.472C320.502 262.612 320.2 262.857 319.989 263.173C319.779 263.489 319.669 263.862 319.676 264.242C319.676 265.056 320.183 265.392 320.856 265.145C321.209 265.003 321.512 264.758 321.722 264.441C321.933 264.123 322.042 263.75 322.036 263.369V263.369Z" fill="#91BEFF"/>
<path d="M323.434 264.572L323.793 263.681C324.257 263.801 324.746 263.772 325.192 263.599C325.782 263.38 326.035 263.115 326.035 262.82C326.035 262.006 323.552 263.675 323.552 261.97C323.552 261.162 324.236 260.389 325.322 259.994C325.798 259.799 326.318 259.738 326.826 259.817L326.466 260.708C326.073 260.615 325.66 260.648 325.286 260.802C324.696 261.015 324.448 261.31 324.448 261.593C324.448 262.454 326.926 260.784 326.926 262.454C326.926 263.257 326.236 264.024 325.109 264.437C324.579 264.658 323.992 264.705 323.434 264.572V264.572Z" fill="#91BEFF"/>
<path d="M330.254 262.283C330.007 262.552 329.696 262.755 329.351 262.873C328.472 263.198 327.97 262.873 327.97 261.941V259.888L327.31 260.124V259.327L327.97 259.085V258.112L328.908 257.77V258.743L329.982 258.354V259.15L328.908 259.545V261.575C328.908 261.988 329.103 262.165 329.463 262.012C329.667 261.938 329.848 261.812 329.988 261.646L330.254 262.283Z" fill="#91BEFF"/>
<path d="M330.69 261.935L331.05 261.044C331.513 261.167 332.003 261.138 332.449 260.961C333.039 260.743 333.286 260.478 333.286 260.183C333.286 259.368 330.808 261.038 330.808 259.333C330.808 258.525 331.493 257.752 332.578 257.356C333.055 257.162 333.575 257.101 334.083 257.179L333.723 258.07C333.33 257.978 332.917 258.011 332.543 258.165C331.953 258.377 331.705 258.672 331.705 258.955C331.705 259.817 334.183 258.147 334.183 259.817C334.183 260.619 333.493 261.386 332.366 261.799C331.836 262.02 331.249 262.068 330.69 261.935V261.935Z" fill="#91BEFF"/>
<path d="M324.902 159.417L323.327 160.007V158.915L327.628 157.352V158.425L326.047 159.015V163.647L324.902 164.06V159.417Z" fill="#2B0838"/>
<path d="M331.28 159.883L328.407 160.927C328.513 161.434 328.914 161.623 329.493 161.411C329.888 161.268 330.224 160.999 330.448 160.644L331.038 161.163C330.684 161.76 330.131 162.214 329.475 162.443C328.159 162.921 327.304 162.278 327.304 160.974C327.31 160.33 327.506 159.703 327.867 159.17C328.228 158.637 328.738 158.222 329.333 157.977C330.448 157.576 331.304 158.124 331.304 159.535C331.316 159.629 331.28 159.8 331.28 159.883ZM328.395 160.195L330.266 159.511C330.268 159.4 330.242 159.29 330.19 159.192C330.137 159.094 330.06 159.011 329.967 158.952C329.873 158.892 329.765 158.858 329.654 158.853C329.543 158.848 329.433 158.871 329.333 158.921C329.077 159.028 328.856 159.203 328.693 159.428C328.531 159.653 328.434 159.919 328.413 160.195H328.395Z" fill="#2B0838"/>
<path d="M331.693 161.169L332.059 160.119C332.491 160.247 332.954 160.228 333.375 160.065C333.882 159.877 334.077 159.652 334.077 159.411C334.077 158.691 331.782 160.26 331.782 158.508C331.782 157.676 332.431 156.856 333.552 156.455C334.012 156.26 334.519 156.207 335.009 156.301L334.643 157.34C334.281 157.246 333.898 157.273 333.552 157.416C333.056 157.593 332.844 157.847 332.844 158.077C332.844 158.826 335.139 157.269 335.139 158.998C335.139 159.812 334.484 160.626 333.369 161.039C332.84 161.266 332.251 161.312 331.693 161.169V161.169Z" fill="#2B0838"/>
<path d="M335.47 159.8L335.836 158.75C336.268 158.878 336.731 158.86 337.151 158.697C337.659 158.508 337.853 158.284 337.853 158.042C337.853 157.322 335.558 158.891 335.558 157.139C335.558 156.307 336.207 155.487 337.328 155.086C337.788 154.891 338.295 154.838 338.786 154.933L338.42 155.971C338.057 155.877 337.674 155.904 337.328 156.048C336.833 156.225 336.62 156.478 336.62 156.708C336.62 157.458 338.915 155.9 338.915 157.629C338.915 158.443 338.26 159.257 337.145 159.67C336.616 159.897 336.027 159.943 335.47 159.8V159.8Z" fill="#2B0838"/>
<path d="M341.27 157.523L341.659 156.39C342.181 156.6 342.765 156.6 343.287 156.39C343.966 156.142 344.243 155.8 344.243 155.434C344.243 154.366 341.37 156.142 341.37 154.03C341.37 153.056 342.048 152.006 343.453 151.493C343.994 151.265 344.596 151.223 345.164 151.375L344.81 152.508C344.36 152.375 343.88 152.392 343.441 152.555C342.768 152.803 342.503 153.192 342.503 153.546C342.503 154.602 345.376 152.826 345.376 154.921C345.376 155.876 344.692 156.938 343.281 157.452C342.645 157.735 341.924 157.761 341.27 157.523Z" fill="#2B0838"/>
<path d="M352.521 151.487V154L351.423 154.396V152.083C351.423 151.375 351.146 151.151 350.704 151.31C350.425 151.431 350.193 151.637 350.042 151.9C349.89 152.162 349.826 152.466 349.86 152.767V154.968L348.762 155.369V153.05C348.762 152.342 348.503 152.112 348.043 152.278C347.766 152.399 347.536 152.607 347.386 152.869C347.237 153.131 347.175 153.435 347.211 153.735V155.93L346.107 156.331V151.947L347.158 151.564V152.071C347.424 151.611 347.84 151.256 348.338 151.068C348.542 150.957 348.78 150.923 349.008 150.97C349.235 151.018 349.439 151.144 349.583 151.328C349.881 150.774 350.366 150.343 350.951 150.112C351.854 149.77 352.521 150.154 352.521 151.487Z" fill="#2B0838"/>
<path d="M353.299 148C353.304 147.79 353.372 147.587 353.494 147.417C353.616 147.246 353.786 147.116 353.983 147.044C354.39 146.891 354.668 147.085 354.668 147.475C354.665 147.689 354.599 147.897 354.477 148.073C354.355 148.248 354.183 148.383 353.983 148.46C353.57 148.59 353.299 148.407 353.299 148ZM353.429 149.274L354.532 148.873V153.257L353.429 153.652V149.274Z" fill="#2B0838"/>
<path d="M357.96 151.8C357.718 152.071 357.409 152.274 357.064 152.39C356.167 152.72 355.648 152.39 355.648 151.334V149.534L355.058 149.746V148.767L355.648 148.555V147.493L356.751 147.091V148.153L357.695 147.811V148.791L356.751 149.133V150.903C356.751 151.275 356.928 151.416 357.223 151.31C357.397 151.24 357.549 151.126 357.665 150.98L357.96 151.8Z" fill="#2B0838"/>
<path d="M362.403 147.888V150.395L361.305 150.797V148.484C361.305 147.77 361.022 147.552 360.533 147.729C360.234 147.845 359.982 148.056 359.814 148.328C359.646 148.6 359.571 148.92 359.6 149.239V151.404L358.503 151.806V145.764L359.6 145.363V147.481C359.888 147.037 360.312 146.699 360.81 146.519C361.724 146.195 362.403 146.549 362.403 147.888Z" fill="#2B0838"/>
<path d="M358.404 199.625C364.591 188.32 363.251 175.677 355.41 171.386C347.569 167.095 336.198 172.781 330.011 184.086C323.824 195.391 325.165 208.034 333.005 212.325C340.846 216.616 352.218 210.93 358.404 199.625Z" fill="#E3EEFA"/>
<path d="M349.912 184.468C349.912 180.981 347.464 179.046 344.443 180.143C341.422 181.241 338.95 184.963 338.95 188.45C338.95 191.937 341.399 195.241 344.42 194.144C347.44 193.046 349.912 187.955 349.912 184.468Z" fill="#2B0838"/>
<path d="M354.391 198.616C354.391 195.666 349.936 194.917 344.443 196.917C338.951 198.917 334.502 202.917 334.502 205.855C334.502 208.794 338.951 210.699 344.443 208.699C349.936 206.699 354.391 201.548 354.391 198.616Z" fill="#2B0838"/>
<path d="M284.806 155.186C284.658 155.185 284.516 155.13 284.405 155.033L281.296 152.13C281.194 152.035 281.13 151.907 281.113 151.769C281.097 151.63 281.13 151.491 281.207 151.375L284.316 146.655C284.403 146.525 284.537 146.436 284.689 146.405C284.842 146.374 285 146.404 285.131 146.49C285.261 146.575 285.352 146.709 285.384 146.861C285.416 147.014 285.386 147.173 285.302 147.304L282.464 151.617L285.207 154.171C285.322 154.277 285.39 154.424 285.397 154.58C285.403 154.736 285.348 154.888 285.243 155.003C285.186 155.062 285.119 155.109 285.043 155.14C284.968 155.172 284.887 155.188 284.806 155.186Z" fill="white"/>
<path d="M354.898 160.13L331.746 168.833V165.069L354.898 156.366V160.13Z" fill="#2B0838"/>
<path d="M305.297 279.889L282.14 288.591V284.821L305.297 276.119V279.889Z" fill="#6383F7"/>
<path d="M350.107 410.243C350.107 410.438 264.929 441.1 264.929 441.1V451.331C264.929 453.027 265.339 454.697 266.122 456.201C266.906 457.704 268.041 458.997 269.431 459.968C270.82 460.94 272.424 461.562 274.105 461.782C275.786 462.002 277.496 461.813 279.089 461.231L390.097 420.828C394.971 419.054 399.181 415.824 402.157 411.576C405.132 407.328 406.728 402.267 406.729 397.08V389.735L350.107 410.243Z" fill="#2B0838"/>
<path d="M389.932 404.172L383.053 406.756L383.047 405.936L389.926 403.352L389.932 404.172Z" fill="white"/>
<path d="M389.938 407.624L383.059 410.208L383.053 409.388L389.938 406.803V407.624Z" fill="white"/>
<path d="M389.944 411.075L383.064 413.659V412.839L389.944 410.255V411.075Z" fill="white"/>
<path d="M364.109 421.129L359.082 423.011C358.946 423.073 358.793 423.085 358.65 423.045C358.506 423.005 358.381 422.916 358.297 422.793C358.21 422.637 358.157 422.463 358.144 422.285C358.131 422.106 358.157 421.927 358.22 421.76C358.698 420.226 359.766 417.547 361.583 416.863C363.401 416.179 364.48 418.043 364.958 419.223C365.019 419.401 365.044 419.589 365.032 419.776C365.019 419.963 364.97 420.146 364.887 420.315C364.739 420.674 364.461 420.964 364.109 421.129V421.129ZM361.583 417.683C360.15 418.22 359.223 420.527 358.84 421.849C358.82 421.893 358.81 421.941 358.81 421.99C358.81 422.039 358.82 422.087 358.84 422.132C358.863 422.166 358.898 422.192 358.938 422.202C358.978 422.213 359.021 422.209 359.058 422.191L364.085 420.303C364.184 420.26 364.263 420.179 364.303 420.079C364.342 419.984 364.342 419.878 364.303 419.784C363.926 418.769 363.017 417.146 361.583 417.683V417.683Z" fill="white"/>
<path d="M361.582 417.512C360.32 417.984 359.287 417.117 359.281 415.571C359.275 414.025 360.308 412.385 361.57 411.907C362.833 411.429 363.871 412.302 363.871 413.848C363.871 415.394 362.851 417.04 361.582 417.512ZM361.582 412.733C361.098 412.97 360.691 413.338 360.405 413.794C360.119 414.251 359.967 414.779 359.966 415.317C359.966 416.409 360.697 417.022 361.594 416.686C362.078 416.447 362.484 416.077 362.768 415.618C363.052 415.159 363.201 414.63 363.199 414.09C363.199 413.01 362.467 412.397 361.57 412.733H361.582Z" fill="white"/>
<path d="M320.572 435.761L314.082 438.192C314.051 438.206 314.018 438.214 313.984 438.216C313.95 438.217 313.915 438.212 313.883 438.2C313.852 438.187 313.822 438.169 313.798 438.145C313.773 438.122 313.753 438.093 313.74 438.062C313.709 437.981 313.696 437.894 313.702 437.807C313.708 437.72 313.733 437.636 313.775 437.56L314.212 436.705C314.636 435.875 314.864 434.958 314.879 434.026V432.457C314.879 430.799 315.982 429.035 317.345 428.521C318.708 428.008 319.811 428.946 319.817 430.604V431.477C319.776 432.673 320.126 433.85 320.814 434.829L320.873 434.911C320.916 434.98 320.942 435.059 320.948 435.14C320.955 435.221 320.941 435.303 320.909 435.377C320.883 435.461 320.84 435.539 320.782 435.605C320.724 435.671 320.652 435.724 320.572 435.761V435.761ZM314.855 436.982L319.87 435.1C319.32 434.085 319.043 432.944 319.068 431.79V430.923C319.068 429.743 318.295 429.123 317.351 429.477C316.84 429.726 316.409 430.114 316.107 430.596C315.806 431.078 315.646 431.635 315.646 432.203V433.772C315.628 434.888 315.357 435.986 314.855 436.982V436.982Z" fill="white"/>
<path d="M317.339 439.206C316.46 439.537 315.74 438.929 315.734 437.855L316.495 437.572C316.495 438.162 316.873 438.457 317.339 438.28C317.59 438.158 317.801 437.967 317.948 437.73C318.095 437.493 318.173 437.22 318.171 436.941L318.932 436.657C318.931 437.189 318.781 437.709 318.499 438.159C318.218 438.609 317.816 438.972 317.339 439.206V439.206Z" fill="white"/>
<path d="M294.488 446.54L286.281 449.62C286.092 449.691 285.944 449.567 285.944 449.337V441.967C285.944 441.855 285.975 441.745 286.034 441.65C286.094 441.555 286.179 441.479 286.281 441.431L294.488 438.351C294.67 438.28 294.824 438.41 294.824 438.634V446.003C294.825 446.115 294.793 446.225 294.734 446.321C294.674 446.416 294.589 446.492 294.488 446.54ZM286.617 448.676L294.145 445.844V439.301L286.611 442.127L286.617 448.676Z" fill="white"/>
<path d="M290.376 444.375C290.344 444.388 290.31 444.395 290.276 444.395C290.241 444.395 290.207 444.388 290.175 444.375L286.045 442.227C285.983 442.181 285.937 442.116 285.915 442.041C285.892 441.967 285.895 441.887 285.921 441.814C285.941 441.728 285.98 441.647 286.035 441.577C286.09 441.508 286.16 441.452 286.24 441.413L294.447 438.333C294.478 438.319 294.513 438.313 294.547 438.314C294.581 438.315 294.615 438.323 294.646 438.339C294.676 438.355 294.703 438.378 294.724 438.405C294.744 438.433 294.759 438.465 294.765 438.498C294.785 438.585 294.784 438.676 294.764 438.763C294.744 438.849 294.704 438.931 294.647 439L290.571 444.221C290.518 444.287 290.452 444.339 290.376 444.375V444.375ZM287.29 441.82L290.376 443.431L293.45 439.507L287.29 441.82Z" fill="white"/>
<path d="M342.159 426.657C337.439 428.427 333.628 425.194 333.616 419.459C333.604 413.724 337.416 407.63 342.118 405.889C346.82 404.149 350.644 407.352 350.655 413.087C350.667 418.822 346.856 424.893 342.159 426.657Z" fill="#2D44EB"/>
<path d="M342.426 420.562L341.865 420.775L341.848 411.96L342.408 411.754L342.426 420.562Z" fill="url(#paint1_linear_95_10934)"/>
<path d="M345.747 415.246L338.525 417.96V417.276L345.747 414.562V415.246Z" fill="url(#paint2_linear_95_10934)"/>
<path d="M376.038 242.701C374.315 245.261 374.722 247.02 374.268 248.76C373.814 250.501 372.858 252.182 373.2 253.976C373.542 255.769 367.206 256.991 366.35 255.262C365.495 253.533 362.627 248.182 362.45 246.412C362.273 244.642 363.253 242.022 364.745 240.512C366.238 239.002 366.981 238.86 367.046 237.562C367.111 236.264 365.329 230.86 366.037 229.243C366.745 227.626 367.737 230.258 368.987 234.341C369.823 237.226 370.844 240.054 372.044 242.807C372.604 243.94 372.421 242.618 373.743 241.179C375.064 239.739 376.439 239.32 377.006 239.769C377.572 240.217 377.011 241.249 376.038 242.701Z" fill="#6383F7"/>
<path d="M461.953 508.903C466.526 506.921 468.396 507.015 471.087 507.646C473.777 508.278 480.397 507.375 481.889 505.511C482.677 504.578 483.18 503.44 483.341 502.23C481.799 499.581 480.405 496.849 479.164 494.047C476.615 496.779 471.328 499.298 465.004 495.976C465.004 499.587 459.475 501.109 455.434 501.286C452 501.428 451.304 504.348 451.965 506.201C454.03 507.646 457.989 510.614 461.953 508.903Z" fill="#2B0838"/>
<path d="M471.11 507.646C468.42 507.015 466.55 506.921 461.977 508.903C458.012 510.614 454.053 507.646 451.982 506.189C452.133 506.698 452.443 507.145 452.867 507.464C461.57 513.269 464.024 509.487 477.057 509.676C482.019 509.747 484.893 505.157 483.96 503.363C483.783 503.021 483.577 502.643 483.37 502.23C483.21 503.44 482.706 504.578 481.919 505.511C480.397 507.375 473.777 508.272 471.11 507.646Z" fill="#6383F7"/>
<path d="M479.164 494.047C478.856 493.311 478.594 492.556 478.38 491.787C477.264 487.657 464.81 494.778 464.81 494.778C464.924 495.161 464.984 495.559 464.987 495.958C471.329 499.298 476.615 496.779 479.164 494.047Z" fill="#142F99"/>
<path d="M474.296 369.693C466.815 395.11 456.513 415.441 459.505 421.436C462.496 427.43 469.617 435.513 472.851 453.762C476.084 472.01 477.175 486.347 477.989 490.784C478.804 495.221 465.304 497.734 464.762 494.43C464.219 491.126 450.985 446.983 446.472 435.861C441.958 424.74 437.592 416.22 438.501 410.491C439.409 404.762 447.699 361.816 447.699 361.816L474.296 369.693Z" fill="#2D44EB"/>
<path d="M464.438 493.032C465.096 491.822 465.333 490.427 465.11 489.067C464.52 484.648 460.65 462.14 458.195 453.012C456.001 444.847 452.779 441.018 448.118 440.298C453.133 454.405 462.526 485.639 464.438 493.032Z" fill="#6383F7"/>
<path d="M427.178 518.668C430.77 518.071 434.456 518.776 437.574 520.656C439.987 521.96 448.348 521.96 449.84 520.101C450.261 519.581 450.601 519 450.849 518.378C450.101 515.401 449.535 512.38 449.156 509.334C447.976 510.708 445.504 511.936 442.377 511.812C439.781 511.706 435.745 510.13 434.548 508.478C432.223 511.741 423.928 512.909 420.222 512.071C416.759 511.293 415.845 514.207 416.423 516.048C420.264 518.349 422.323 519.364 427.178 518.668Z" fill="#2B0838"/>
<path d="M437.575 520.656C434.458 518.776 430.771 518.071 427.18 518.667C422.324 519.364 420.265 518.349 416.424 516.048C416.544 516.488 416.795 516.881 417.144 517.175C424.029 522.485 430.236 520.585 442.744 524.149C447.499 525.506 451.558 521.836 451.169 519.871C451.08 519.429 450.974 518.927 450.85 518.378C450.602 519 450.262 519.581 449.841 520.101C448.349 521.96 439.988 521.96 437.575 520.656Z" fill="#6383F7"/>
<path d="M442.377 511.812C445.504 511.936 447.988 510.708 449.156 509.334C449.09 508.651 449.061 507.966 449.068 507.28C449.077 507.058 449.036 506.836 448.947 506.631C448.858 506.427 448.724 506.245 448.555 506.1C448.173 505.881 447.779 505.684 447.375 505.51C443.663 504.472 435.179 506.69 435.179 506.69C435.158 507.344 434.931 507.973 434.53 508.49C435.746 510.13 439.781 511.705 442.377 511.812Z" fill="#142F99"/>
<path d="M422.335 357.928C422.011 366.554 421.267 373.15 421.332 379.758C421.692 414.91 427.014 419.53 427.698 427.754C428.512 437.531 431.049 449.921 431.049 451.484C431.049 453.048 435.805 497.575 435.179 506.626C434.861 511.186 448.684 510.201 449.009 507.806C449.977 500.578 453.351 468.028 453.894 458.464C454.437 448.9 451.357 433.778 450.631 428.221C449.906 422.663 453.269 394.449 457.428 389.546C468.013 377.068 475.335 369.486 472.344 353.863C469.352 338.24 422.335 357.928 422.335 357.928Z" fill="#2D44EB"/>
<path d="M462.555 316.74C464.603 297.53 470.615 288.373 470.922 278.343C471.287 266.614 462.968 255.64 458.531 255.274C449.333 254.513 430.666 263.215 421.403 270.401C421.403 270.401 416.954 280.278 416.801 287.742C416.647 295.205 413.851 300.226 418.128 306.439C428.872 322.08 421.261 355.373 421.261 377.392C421.261 380.053 421.32 391.759 422.123 398.278C436.672 405.075 456 401.6 466.172 393.9C468.131 388.443 474.296 371.48 474.544 368.147C476.338 343.927 461.771 324.086 462.555 316.74Z" fill="#2B0838"/>
<path d="M438.336 264.336C435.386 267.286 434.76 267.487 430.129 267.941L420.37 271.145C420.37 271.145 427.869 265.563 433.155 263.074C434.943 263.189 436.696 263.616 438.336 264.336V264.336Z" fill="#91BEFF"/>
<path d="M425.238 292.037C423.716 287.966 406.505 303.99 394.983 310.374C387.56 314.504 386.233 311.359 384.363 309.017C372.45 293.96 373.023 281.877 366.173 254.53C368.256 253.421 370.646 253.025 372.976 253.404C372.976 253.404 379.365 269.109 384.138 279.906C389.372 291.754 391.478 295.541 391.478 295.541C391.478 295.541 411.821 277.216 421.391 270.378C445.634 253.079 432.878 312.409 425.238 292.037Z" fill="#6383F7"/>
<path d="M437.575 249.958L435.575 245.557C435.541 245.663 435.514 245.771 435.492 245.881C434.814 249.822 437.746 258.33 436.047 260.041C434.348 261.752 432.755 263.286 432.755 263.286L433.138 263.085C434.907 263.343 436.647 263.766 438.336 264.348C441.174 259.451 440.608 254.867 437.575 249.958Z" fill="#6383F7"/>
<path d="M438.336 264.336C442.861 265.823 448.318 268.466 451.374 271.9C455.788 276.85 464.355 273.528 463.405 266.313C462.313 257.817 459.658 255.74 456.673 255.215C453.687 254.69 449.811 245.132 448.1 242.005C446.448 238.966 436.725 241.775 435.562 245.545L437.563 249.946C440.607 254.867 441.173 259.451 438.336 264.336Z" fill="#2D44EB"/>
<path d="M483.749 288.473C482.704 279.228 475.43 280.567 476.332 273.523C477.235 266.478 480.462 267.068 478.297 258.773C476.132 250.477 472.397 251.763 473.577 244.967C474.757 238.17 472.22 234.878 465.83 230.158C459.441 225.438 466.102 220.364 454.414 212.888C452.559 211.695 450.523 210.81 448.384 210.269C449.723 211.449 450.325 212.593 448.526 212.977C444.101 213.927 431.941 213.797 429.309 215.514C426.678 217.231 421.049 218.959 426.265 230.748C427.534 232.651 429.339 234.135 431.451 235.013C432.069 235.291 432.623 235.693 433.08 236.193L434.531 236.931L426.914 226.6C424.507 226.6 424.094 219.579 430.017 220.11C436.915 220.747 433.935 224.912 440.46 229.444C446.986 233.975 442.042 239.096 447.346 246.158C454.467 255.651 445.664 253.492 443.511 261.717C442.632 265.056 444.154 267.699 445.753 271.747C446.304 272.464 446.573 273.358 446.508 274.26C446.237 277.387 443.635 276.62 441.281 282.573C438.926 288.526 443.228 294.668 452.201 295.075C461.175 295.482 460.898 300.22 468.238 301.99C475.577 303.76 484.887 298.556 483.749 288.473Z" fill="#2B0838"/>
<path d="M443.528 261.752C445.682 253.527 454.484 255.687 447.363 246.194C442.053 239.114 447.003 234.01 440.478 229.479C433.952 224.948 436.938 220.782 430.035 220.145C424.135 219.597 424.524 226.635 426.931 226.635L434.531 236.948L433.079 236.211C434.548 237.739 435.693 240.199 436.832 242.111C438.141 244.318 440.779 247.421 440.879 251.551C440.991 255.988 436.566 257.893 440.006 264.566C441.817 268.106 444.478 269.929 445.758 271.829C444.171 267.735 442.649 265.091 443.528 261.752Z" fill="#FF9191"/>
<path d="M429.327 215.52C431.958 213.803 444.118 213.933 448.543 212.983C450.313 212.599 449.723 211.472 448.401 210.275C438.602 207.802 429.173 213.337 426.052 216.458C422.754 219.762 421.409 223.414 426.282 230.753C421.084 218.965 426.701 217.242 429.327 215.52Z" fill="#FF9191"/>
<path d="M430.99 234.37C432.117 233.243 432.105 232.394 431.775 229.686C430.005 225.556 429.208 225.556 426.925 226.618C426.925 226.618 428.536 230.311 428.3 232.282C427.881 235.763 426.294 236.229 426.707 239.774C426.966 241.999 428.99 253.935 432.89 253.87C433.132 253.87 433.368 253.87 433.604 253.834C429.421 247.657 426.63 238.736 430.99 234.37Z" fill="#6383F7"/>
<path d="M430.991 234.37C426.625 238.736 429.415 247.657 433.604 253.84C435.115 253.716 436.625 253.25 440.891 251.551C441.233 251.415 440.944 246.642 438.041 243.745C439.811 241.474 438.979 237.946 438.118 235.845C435.475 229.432 434.124 235.603 433.398 233.662C432.773 232.04 432.253 230.712 431.799 229.691C432.112 232.37 432.124 233.243 430.991 234.37ZM436.59 235.355C437.31 236.589 438.419 242.323 436.13 241.255C435.121 240.789 434.779 238.807 434.714 237.887C434.484 234.376 435.87 234.14 436.596 235.355H436.59Z" fill="#2D44EB"/>
<path d="M436.135 241.273C438.424 242.323 437.315 236.588 436.595 235.373C435.875 234.158 434.483 234.394 434.719 237.922C434.784 238.825 435.12 240.807 436.135 241.273Z" fill="#6383F7"/>
<path d="M433.828 401.535C430.99 392.018 426.459 383.699 426.459 377.51C426.459 368.749 431.179 351.202 436.625 333.16C441.935 315.59 427.852 307.07 416.063 301.837C416.446 303.544 417.149 305.164 418.134 306.61C426.011 318.085 423.651 338.847 422.028 357.898C421.993 357.898 420.884 371.881 420.884 377.368C420.89 384.349 421.306 391.323 422.129 398.254C422.129 398.254 426.666 400.803 433.828 401.535Z" fill="#FF9191"/>
<path d="M439.687 447.059C431.61 432.817 440.129 419.37 433.828 401.535L421.904 395.287C423.373 416.609 427.132 420.952 427.698 427.772C428.512 437.548 431.049 449.938 431.049 451.502C431.049 453.065 435.805 497.593 435.179 506.643C435.073 508.154 436.53 509.056 438.525 509.499C439.799 501.64 438.177 486.035 437.533 476.884C436.831 466.889 444.82 456.116 439.687 447.059Z" fill="#6383F7"/>
<path d="M374.794 245.468C370.587 245.468 368.793 244.542 368.203 248.978C367.613 253.415 372.392 267.268 375.283 279.417C378.174 291.565 384.133 304.427 388.104 308.675C392.075 312.923 396.464 309.754 400.299 307.088C404.134 304.421 418.518 293.653 422.082 292.007C425.646 290.361 424.336 292.597 426.1 294.745C427.864 296.892 429.05 297.394 430.95 295.217C432.85 293.04 436.49 285.588 435.51 274.862C434.531 264.136 427.25 268.372 425.25 270.679C423.25 272.986 417.911 277.021 413.987 282.52C410.064 288.019 403.267 286.65 398.458 293.376C393.65 300.102 391.496 295.547 391.496 295.547C391.496 295.547 374.829 257.876 373.602 254.896C372.87 253.126 373.478 251.492 373.914 250.347C374.628 248.465 374.469 247.238 374.794 245.468Z" fill="#2D44EB"/>
<defs>
<linearGradient id="paint0_linear_95_10934" x1="65.5093" y1="219.591" x2="-28.1945" y2="230.128" gradientUnits="userSpaceOnUse">
<stop stop-color="white"/>
<stop offset="1" stop-color="white"/>
</linearGradient>
<linearGradient id="paint1_linear_95_10934" x1="341.848" y1="416.261" x2="342.426" y2="416.261" gradientUnits="userSpaceOnUse">
<stop stop-color="white"/>
<stop offset="1" stop-color="#F2F5FA"/>
</linearGradient>
<linearGradient id="paint2_linear_95_10934" x1="5424.55" y1="2979.27" x2="5512.94" y2="2979.27" gradientUnits="userSpaceOnUse">
<stop stop-color="white"/>
<stop offset="1" stop-color="#F2F5FA"/>
</linearGradient>
</defs>
</svg>
