<?xml version="1.0" encoding="UTF-8"?>
<svg width="63px" height="98px" viewBox="0 0 63 98" version="1.1" xmlns="http://www.w3.org/2000/svg" xmlns:xlink="http://www.w3.org/1999/xlink">
    <!-- Generator: Sketch 62 (91390) - https://sketch.com -->
    <title>Group 3</title>
    <desc>Created with Sketch.</desc>
    <defs>
        <polygon id="path-1" points="0 0 63 0 63 98 0 98"></polygon>
    </defs>
    <g id="THINGS-WE-MAKE" stroke="none" stroke-width="1" fill="none" fill-rule="evenodd">
        <g id="Things-We-Make" transform="translate(-720.000000, -4164.000000)">
            <g id="Group-3" transform="translate(720.000000, 4164.000000)">
                <mask id="mask-2" fill="white">
                    <use xlink:href="#path-1"></use>
                </mask>
                <g id="Clip-2"></g>
                <path d="M44.869946,47.8806744 C44.869946,49.6108949 43.4498613,51.0129702 41.6974164,51.0129702 L23.5686761,51.0129702 C21.8162312,51.0129702 20.3961465,49.6108949 20.3961465,47.8806744 C20.3961465,46.151751 21.8162312,44.7483787 23.5686761,44.7483787 L41.6974164,44.7483787 C43.4498613,44.7483787 44.869946,46.151751 44.869946,47.8806744 M63,3.13229572 C63,4.86251621 61.5786017,6.26459144 59.8274704,6.26459144 L23.5686761,6.26459144 C21.8162312,6.26459144 20.3961465,4.86251621 20.3961465,3.13229572 C20.3961465,1.40207523 21.8162312,0 23.5686761,0 L59.8274704,0 C61.5786017,0 63,1.40207523 63,3.13229572 M6.34505912,59.0687419 L6.34505912,94.8677043 C6.34505912,96.5979248 4.92497446,98 3.17252956,98 C1.42008466,98 0,96.5979248 0,94.8677043 L0,59.0687419 C0,57.3385214 1.42008466,55.9364462 3.17252956,55.9364462 C4.92497446,55.9364462 6.34505912,57.3385214 6.34505912,59.0687419 M0,23.2684825 C0,21.538262 1.42008466,20.1361868 3.17252956,20.1361868 C4.92497446,20.1361868 6.34505912,21.538262 6.34505912,23.2684825 C6.34505912,24.998703 4.92497446,26.4007782 3.17252956,26.4007782 C1.42008466,26.4007782 0,24.998703 0,23.2684825 M0,3.13229572 C0,1.40207523 1.42008466,0 3.17252956,0 C4.92497446,0 6.34505912,1.40207523 6.34505912,3.13229572 C6.34505912,4.86251621 4.92497446,6.26459144 3.17252956,6.26459144 C1.42008466,6.26459144 0,4.86251621 0,3.13229572" id="Fill-1" fill="#00FF7F" mask="url(#mask-2)"></path>
            </g>
        </g>
    </g>
</svg>