<?xml version="1.0" encoding="UTF-8"?>
<svg width="96px" height="115px" viewBox="0 0 96 115" version="1.1" xmlns="http://www.w3.org/2000/svg" xmlns:xlink="http://www.w3.org/1999/xlink">
    <!-- Generator: Sketch 62 (91390) - https://sketch.com -->
    <title>Group 30</title>
    <desc>Created with Sketch.</desc>
    <defs>
        <polygon id="path-1" points="0 0.736138282 16.4787205 0.736138282 16.4787205 34.157 0 34.157"></polygon>
    </defs>
    <g id="THINGS-WE-MAKE" stroke="none" stroke-width="1" fill="none" fill-rule="evenodd">
        <g id="Things-We-Make" transform="translate(-685.000000, -3987.000000)">
            <g id="Group-30" transform="translate(685.000000, 3987.000000)">
                <g id="Group-3" transform="translate(0.000000, 17.794000)">
                    <mask id="mask-2" fill="white">
                        <use xlink:href="#path-1"></use>
                    </mask>
                    <g id="Clip-2"></g>
                    <path d="M12.7469,34.157 C13.1459,34.157 13.5479,34.025 13.8819,33.756 C14.6589,33.128 14.7789,31.99 14.1519,31.214 C5.1779,20.107 1.5519,10.705 4.6899,6.677 C6.6719,4.133 11.0839,4.128 14.4339,4.569 C15.4199,4.698 16.3319,4.004 16.4629,3.014 C16.5939,2.024 15.8969,1.116 14.9079,0.985 C7.1429,-0.042 3.5129,2.305 1.8369,4.456 C-2.5151,10.044 0.9489,20.625 11.3399,33.485 C11.6969,33.928 12.2199,34.157 12.7469,34.157" id="Fill-1" fill="#00FF7F" mask="url(#mask-2)"></path>
                </g>
                <path d="M20.8338,54.0672 C13.7658,60.4952 4.0208,70.5002 1.0078,83.1092 C0.7748,84.0802 1.3748,85.0552 2.3458,85.2872 C2.4868,85.3212 2.6278,85.3372 2.7668,85.3372 C3.5838,85.3372 4.3248,84.7792 4.5228,83.9492 C7.3048,72.3112 16.5528,62.8472 23.2668,56.7412 C24.0048,56.0702 24.0588,54.9262 23.3878,54.1882 C22.7148,53.4482 21.5728,53.3942 20.8338,54.0672" id="Fill-4" fill="#00FF7F"></path>
                <path d="M31.9017,44.0613 C33.1617,44.0613 34.1837,43.0403 34.1837,41.7803 C34.1837,40.5193 33.1617,39.4993 31.9017,39.4993 C30.6417,39.4993 29.6197,40.5193 29.6197,41.7803 C29.6197,43.0403 30.6417,44.0613 31.9017,44.0613" id="Fill-6" fill="#00FF7F"></path>
                <path d="M34.0604,19.2391 C34.2544,19.3051 34.4524,19.3371 34.6464,19.3371 C35.3974,19.3371 36.0994,18.8651 36.3564,18.1151 C38.1164,12.9791 40.2604,7.8291 44.0034,4.9361 C45.4234,3.8381 46.8334,3.4321 48.3044,3.6851 C50.5104,4.0691 52.8514,5.9731 54.7264,8.9091 C55.2654,9.7511 56.3834,9.9981 57.2234,9.4601 C58.0644,8.9231 58.3104,7.8041 57.7734,6.9641 C56.3504,4.7361 53.3094,0.8861 48.9234,0.1241 C46.4654,-0.2999 43.9984,0.3711 41.7924,2.0751 C37.2954,5.5511 34.8784,11.2751 32.9364,16.9431 C32.6124,17.8871 33.1164,18.9161 34.0604,19.2391" id="Fill-8" fill="#00FF7F"></path>
                <path d="M31.1375,27.7898 C37.2465,30.6398 43.3205,34.0748 49.1885,37.9998 C49.4965,38.2068 49.8465,38.3058 50.1915,38.3058 C50.7745,38.3058 51.3465,38.0238 51.6955,37.5028 C52.2505,36.6728 52.0285,35.5508 51.1985,34.9958 C45.1775,30.9678 38.9415,27.4408 32.6655,24.5148 C31.7595,24.0898 30.6855,24.4828 30.2635,25.3888 C29.8415,26.2928 30.2325,27.3678 31.1375,27.7898" id="Fill-10" fill="#00FF7F"></path>
                <path d="M45.554,58.9461 C45.554,60.2071 46.575,61.2281 47.836,61.2281 C49.096,61.2281 50.117,60.2071 50.117,58.9461 C50.117,57.6861 49.096,56.6651 47.836,56.6651 C46.575,56.6651 45.554,57.6861 45.554,58.9461" id="Fill-12" fill="#00FF7F"></path>
                <path d="M15.9432,93.5984 C13.3002,94.3434 10.4452,94.1464 7.9062,93.0434 C6.9912,92.6464 5.9262,93.0654 5.5282,93.9824 C5.1302,94.8974 5.5502,95.9624 6.4662,96.3604 C8.4512,97.2214 10.5842,97.6574 12.7182,97.6574 C14.1342,97.6574 15.5502,97.4654 16.9232,97.0784 C17.8842,96.8074 18.4442,95.8094 18.1732,94.8484 C17.9022,93.8884 16.9052,93.3274 15.9432,93.5984" id="Fill-14" fill="#00FF7F"></path>
                <path d="M82.7557,71.7479 C82.7557,73.0089 83.7777,74.0289 85.0377,74.0289 C86.2977,74.0289 87.3197,73.0089 87.3197,71.7479 C87.3197,70.4879 86.2977,69.4669 85.0377,69.4669 C83.7777,69.4669 82.7557,70.4879 82.7557,71.7479" id="Fill-16" fill="#00FF7F"></path>
                <path d="M94.3758,82.1297 C94.0698,81.1787 93.0508,80.6527 92.1018,80.9627 C91.1508,81.2687 90.6288,82.2867 90.9348,83.2367 C91.3908,84.6557 92.6358,89.4887 89.4778,92.0727 C86.4908,94.5187 81.5278,93.8827 77.0688,92.9387 C76.0948,92.7327 75.1338,93.3557 74.9268,94.3327 C74.7198,95.3097 75.3448,96.2687 76.3208,96.4757 C78.6898,96.9767 81.1948,97.3907 83.6128,97.3907 C86.6038,97.3907 89.4618,96.7567 91.7678,94.8707 C95.0918,92.1507 96.0668,87.3877 94.3758,82.1297" id="Fill-18" fill="#00FF7F"></path>
                <path d="M78.4197,62.6873 C78.8537,62.6873 79.2877,62.5323 79.6337,62.2173 C80.3737,61.5463 80.4287,60.4043 79.7577,59.6653 C75.8947,55.4093 71.7527,51.3393 67.4077,47.5053 C67.6597,47.1703 67.8027,46.7513 67.7717,46.3003 C67.2757,39.1263 66.3877,32.6953 65.1007,26.8213 C65.3077,26.7913 65.5137,26.7303 65.7077,26.6243 C76.4207,20.7683 84.7437,19.8193 90.4567,23.7993 C93.4217,30.8983 89.3177,36.6523 84.9767,42.7373 C83.4637,44.8583 81.8987,47.0523 80.6827,49.2833 C80.2047,50.1603 80.5277,51.2573 81.4047,51.7353 C81.6797,51.8853 81.9757,51.9563 82.2687,51.9563 C82.9087,51.9563 83.5287,51.6153 83.8567,51.0133 C84.9687,48.9743 86.4017,46.9643 87.9197,44.8363 C92.5227,38.3833 97.7397,31.0713 93.5607,21.8763 L93.3697,21.4563 L92.9997,21.1783 C86.0997,16.0033 76.4287,16.7223 64.2617,23.3013 C63.8357,21.6463 63.3837,20.0233 62.8857,18.4573 C62.5817,17.5043 61.5647,16.9813 60.6147,17.2823 C59.6637,17.5843 59.1377,18.6013 59.4407,19.5523 C61.7427,26.7873 63.2347,35.0143 64.0087,44.6133 C63.5147,44.2013 63.0327,43.7733 62.5337,43.3673 C61.7597,42.7403 60.6217,42.8563 59.9907,43.6303 C59.3617,44.4053 59.4797,45.5433 60.2537,46.1733 C66.2567,51.0493 71.9177,56.4073 77.0807,62.0943 C77.4377,62.4873 77.9277,62.6873 78.4197,62.6873" id="Fill-20" fill="#00FF7F"></path>
                <path d="M64.4124,83.5945 C63.4294,83.4215 62.4914,84.0775 62.3184,85.0605 C60.8974,93.1145 58.7584,99.6945 55.7784,105.1785 C55.3014,106.0555 55.6264,107.1535 56.5034,107.6295 C56.7774,107.7795 57.0734,107.8495 57.3654,107.8495 C58.0064,107.8495 58.6274,107.5075 58.9544,106.9055 C62.1244,101.0725 64.3894,94.1325 65.8784,85.6895 C66.0524,84.7055 65.3954,83.7685 64.4124,83.5945" id="Fill-22" fill="#00FF7F"></path>
                <path d="M47.8358,110.2313 C46.5758,110.2313 45.5538,111.2523 45.5538,112.5123 C45.5538,113.7733 46.5758,114.7933 47.8358,114.7933 C49.0958,114.7933 50.1178,113.7733 50.1178,112.5123 C50.1178,111.2523 49.0958,110.2313 47.8358,110.2313" id="Fill-24" fill="#00FF7F"></path>
                <path d="M23.4388,21.4119 C22.1788,21.4119 21.1568,22.4329 21.1568,23.6929 C21.1568,24.9529 22.1788,25.9739 23.4388,25.9739 C24.6988,25.9739 25.7208,24.9529 25.7208,23.6929 C25.7208,22.4329 24.6988,21.4119 23.4388,21.4119" id="Fill-26" fill="#00FF7F"></path>
                <path d="M69.1878,61.6082 C57.6028,72.6112 45.6378,81.1932 33.5458,87.1852 C31.9498,79.4272 30.9788,70.5002 30.8008,61.1922 C30.7798,60.1142 30.7698,59.0282 30.7698,57.9342 C30.7698,56.9362 29.9598,56.1272 28.9618,56.1272 C27.9638,56.1272 27.1548,56.9362 27.1548,57.9342 C27.1548,59.0512 27.1648,60.1612 27.1868,61.2612 C27.3778,71.2502 28.4168,80.6562 30.1608,88.7902 C29.4708,89.1032 28.7798,89.4162 28.0888,89.7122 C27.1718,90.1072 26.7488,91.1702 27.1428,92.0872 C27.4368,92.7722 28.1038,93.1812 28.8038,93.1812 C29.0418,93.1812 29.2838,93.1342 29.5168,93.0352 C30.0108,92.8222 30.5048,92.5952 30.9988,92.3752 C32.2798,97.4412 33.8518,101.9212 35.6868,105.5992 C36.0028,106.2342 36.6418,106.6002 37.3058,106.6002 C37.5768,106.6002 37.8518,106.5402 38.1108,106.4102 C39.0038,105.9642 39.3668,104.8792 38.9218,103.9862 C37.1398,100.4122 35.5988,95.9302 34.3518,90.8142 C47.0418,84.6422 59.5758,75.7222 71.6768,64.2292 C72.4008,63.5422 72.4308,62.3982 71.7428,61.6732 C71.0558,60.9502 69.9118,60.9212 69.1878,61.6082" id="Fill-28" fill="#00FF7F"></path>
            </g>
        </g>
    </g>
</svg>