<svg class="svg-icon-speech-bubble" xmlns="http://www.w3.org/2000/svg" width="72" height="61.14" viewBox="0 0 72 61.14">
  <defs>
    <style>
      .svg-icon-speech-bubble__background {
        fill: #fff;
      }

      .svg-icon-speech-bubble__path {
        fill: #030d11;
      }
    </style>
  </defs>
  <g>
    <path class="svg-icon-speech-bubble__background" d="M41.43,0A30.57,30.57,0,0,0,10.86,30.57a31,31,0,0,0,3,13.16L0,61.14H41.43A30.57,30.57,0,0,0,41.43,0Z"/>
    <path class="svg-icon-speech-bubble__path" d="M51.61,29h-19a1.37,1.37,0,0,0,0,2.73h19A1.37,1.37,0,0,0,53,30.35,1.4,1.4,0,0,0,51.61,29M32.55,34.78a1.37,1.37,0,0,0-1.3,1.44,1.4,1.4,0,0,0,1.3,1.29h14a1.37,1.37,0,1,0,.14-2.73H32.55Zm18.63-9.1a1.37,1.37,0,0,0,0-2.73h-14a1.37,1.37,0,0,0,0,2.73Zm-18.6,0a1.37,1.37,0,1,0-1.36-1.37h0a1.36,1.36,0,0,0,1.36,1.37M54.81,49.05a1.37,1.37,0,1,0,1.37,1.37h0a1.38,1.38,0,0,0-1.37-1.37m4.57-31.61A1.37,1.37,0,1,0,58,16.08h0a1.39,1.39,0,0,0,1.37,1.36m-18-11.25A24.36,24.36,0,0,0,21.11,44L12.44,55H41.5A24.57,24.57,0,0,0,51,53.08a1.1,1.1,0,1,0-.87-2,22.34,22.34,0,0,1-8.66,1.76H16.87l6.9-8.74-.47-.68A22.23,22.23,0,0,1,55,12.91a1.07,1.07,0,0,0,1.41-1.62s-.08,0-.11-.07a23.8,23.8,0,0,0-14.82-5M65.81,30.57a24.39,24.39,0,0,1-7,17.12,1,1,0,0,1-1.51,0h0a1,1,0,0,1,0-1.51,22.34,22.34,0,0,0,4.75-24,1.08,1.08,0,0,1,.57-1.4,1.1,1.1,0,0,1,1.41.58h0a24.67,24.67,0,0,1,1.79,9.24"/>
  </g>
</svg>
