<svg class="svg-logo-entropy-large" xmlns="http://www.w3.org/2000/svg" width="200" height="44.74" viewBox="0 0 200 44.74">
  <defs>
    <style>
      .svg-logo-entropy-large__white { fill: #030d11; }
    </style>
  </defs>
  <path class="svg-logo-entropy-large__white" d="M48.51,23.74h5.07V32H48.51ZM29.55,32h5.08V23.74H29.55ZM13,28.08a8.12,8.12,0,0,1-7.21-4.34H.65A12.63,12.63,0,0,0,12.93,32.5,13.14,13.14,0,0,0,23.5,27.79l-3.32-3.15A8.85,8.85,0,0,1,13,28.08Zm58.86-.37a4.66,4.66,0,0,1-3.48-1.35,4.31,4.31,0,0,1-.74-2.62h-5a9,9,0,0,0,2,5.81,9.08,9.08,0,0,0,7.09,2.95A13.84,13.84,0,0,0,75.64,32l-1-4.59A11.68,11.68,0,0,1,71.88,27.71Zm68,0A8.62,8.62,0,0,1,133,24.15v-.41h-5.07v21H133V29.8a11.13,11.13,0,0,0,7.57,2.7,13,13,0,0,0,6.31-1.64,13,13,0,0,0,5.69-7.08H147a8.23,8.23,0,0,1-7.12,3.93Zm22.23-4,2.66,5.61L158,44.74h5.36l9.13-21ZM81,32h5.07V23.74H81Zm28.65-4.26a7.58,7.58,0,0,1-6.79-4H97.38a13,13,0,0,0,24.56,0h-5.48A7.6,7.6,0,0,1,109.66,27.71Z"/>
  <path class="svg-logo-entropy-large__white" d="M0,19.53v-.05c0-7.53,5.12-13,12.2-13s12,5.65,12,13.05v.05Zm5.32-3.28H19a7,7,0,0,0-6.59-5.44A7.31,7.31,0,0,0,5.32,16.25Zm29.31,3.28V14.78a9.26,9.26,0,0,1,7.2-3.56A6.65,6.65,0,0,1,47,13.67c.9,1.11,1.47,2.62,1.47,5.81v.05h5.08c0-4.18-.86-6.72-2.46-8.68A11.63,11.63,0,0,0,42,6.43a10.81,10.81,0,0,0-7.54,2.94V7H29.51V19.53Zm28,0H67.7V11.46h8V6.92h-8V0H62.63V6.92H56.24v4.54h6.39Zm23.41,0v-4.1a8.4,8.4,0,0,1,6.76-4.21,8.16,8.16,0,0,1,2,.2l.61-4.87a10.8,10.8,0,0,0-2-.16,9.28,9.28,0,0,0-7.53,3.39V6.92H81V19.48Zm15.72,0v-.05c0-4.58,3.23-8.26,7.9-8.26s7.9,3.68,7.9,8.26v.05h5.08v-.05a12.94,12.94,0,1,0-25.87,0v.05Zm31.23,0V14.78a8.9,8.9,0,0,1,7.12-3.56,8,8,0,0,1,8.07,8.26v.05h5.07v-.05A13.18,13.18,0,0,0,146.79,8a11.92,11.92,0,0,0-6.14-1.59,11.65,11.65,0,0,0-7.82,2.82V7h-4.91V19.53Zm41.39,0L179.86,7h-5.32l-5.49,12.57Zm-8.93,0L159.48,7H154l6,12.57Z"/>
  <rect class="svg-logo-entropy-large__white" x="176.05" y="29.76" width="23.95" height="2.78"/>
</svg>
