<?xml version="1.0" encoding="UTF-8"?>
<svg width="286px" height="64px" viewBox="0 0 286 64" version="1.1" xmlns="http://www.w3.org/2000/svg" xmlns:xlink="http://www.w3.org/1999/xlink">
    <!-- Generator: Sketch 62 (91390) - https://sketch.com -->
    <title>Group 32</title>
    <desc>Created with Sketch.</desc>
    <defs>
        <polygon id="path-1" points="0 0.0183558946 89.3490789 0.0183558946 89.3490789 62.9151756 0 62.9151756"></polygon>
    </defs>
    <g id="Desktop" stroke="none" stroke-width="1" fill="none" fill-rule="evenodd">
        <g id="What-We-Do" transform="translate(-141.000000, -4663.000000)">
            <g id="Clients" transform="translate(132.000000, 4663.000000)">
                <g id="Dictionay">
                    <g id="Group-32" transform="translate(9.000000, 0.000000)">
                        <path d="M177.769989,40.7800526 C176.248643,40.8569757 175.411903,41.164668 175.107634,42.7800526 C175.107634,42.9338988 175.031567,43.164668 175.031567,43.4723603 C175.031567,44.3185142 175.335836,45.2415911 176.933249,45.2415911 C177.998191,45.2415911 178.987066,44.9338988 179.823806,44.4723603 C179.975941,44.3954373 180.128075,44.164668 180.128075,44.0108219 L180.508412,41.5492834 C180.584479,41.3185142 180.508412,41.164668 180.356277,41.0108219 C180.204143,40.8569757 180.052008,40.7031296 179.823806,40.7031296 L177.769989,40.7800526 Z M182.25796,48.3954373 C181.345152,48.3954373 180.128075,48.3185142 179.44347,48.2415911 C179.519537,47.9338988 179.671672,47.164668 179.747739,46.4723603 L179.823806,46.164668 L179.747739,46.164668 L179.671672,46.2415911 C178.682797,47.7031296 177.617855,48.2415911 176.096509,48.2415911 L175.564038,48.2415911 C172.445279,48.0108219 171,46.7800526 171,44.0108219 C171,43.6262065 171,43.2415911 171.076067,42.7800526 C171.760673,39.164668 174.346961,38.3954373 178.30246,38.164668 L180.736614,38.087745 C181.040883,38.087745 181.345152,37.7800526 181.345152,37.5492834 L181.725489,35.4723603 C181.801556,35.087745 181.497287,34.6262065 181.11695,34.4723603 C180.204143,34.164668 179.139201,34.0108219 178.150326,34.0108219 C177.009316,34.0108219 175.411903,34.2415911 174.270894,34.4723603 C174.118759,34.4723603 174.118759,34.3954373 174.042692,34.3185142 C174.042692,34.0108219 173.966624,33.7031296 173.966624,33.2415911 C173.966624,32.5492834 173.966624,31.8569757 174.118759,31.164668 C174.118759,31.087745 174.194826,31.0108219 174.346961,30.9338988 C175.791479,30.6262065 177.389653,30.3954373 178.987066,30.3954373 C181.421219,30.3954373 184.007507,30.9338988 185.528853,31.8569757 C185.833122,32.087745 186.061324,32.5492834 185.985257,32.9338988 C185.985257,33.0108219 184.311777,42.7031296 184.159642,43.7031296 C184.159642,43.7800526 183.703238,47.087745 183.627171,48.164668 C183.322902,48.3954373 182.790431,48.3954373 182.25796,48.3954373 L182.25796,48.3954373 Z" id="Fill-1" fill="#D636FC"></path>
                        <g id="Group-5" transform="translate(0.000000, 0.395437)">
                            <mask id="mask-2" fill="white">
                                <use xlink:href="#path-1"></use>
                            </mask>
                            <g id="Clip-4"></g>
                            <path d="M69.2964474,59.2975485 C56.9017105,59.2975485 46.7175,49.46704 46.7175,37.3558536 C46.7175,25.2446671 56.8227632,15.3355146 69.2964474,15.3355146 C74.9806579,15.3355146 80.1911842,17.3802603 84.1385526,20.8405993 L89.3490789,20.8405993 C84.5332895,15.3355146 77.3490789,11.7965315 69.3753947,11.7965315 C65.0332895,11.7965315 60.9280263,12.8189044 57.2964474,14.706362 L47.9017105,0.865006102 C47.3490789,-7.86440678e-05 46.2438158,-0.236010847 45.3753947,0.314497627 C44.5069737,0.865006102 44.3490789,1.96602305 44.9017105,2.8311078 L54.1385526,16.5151756 C52.7964474,17.3802603 51.6122368,18.4812773 50.4280263,19.6609383 L27.3753947,0.865006102 C26.5859211,0.235853559 25.4017105,0.314497627 24.7701316,1.10093831 C24.1385526,1.88737898 24.2175,3.06704 25.0069737,3.69619254 L48.0596053,22.4134807 C47.1911842,23.5144976 46.4806579,24.6941586 45.8490789,25.9524637 L2.66486842,3.77483661 C1.7175,3.3029722 0.691184211,3.61754847 0.2175,4.56127729 C-0.256184211,5.5050061 0.0596052632,6.52737898 1.00697368,6.99924339 L44.4280263,29.2555146 C43.9543421,30.7497519 43.4806579,32.4799214 43.3227632,34.1314468 L6.37539474,25.2446671 C5.34907895,25.0087349 4.40171053,25.5592434 4.08592105,26.5816163 C3.92802632,27.5253451 4.48065789,28.4690739 5.42802632,28.7836502 L43.0069737,37.7490739 C43.0069737,39.4792434 43.2438158,41.2094129 43.6385526,42.7822942 L17.9017105,44.4338197 C16.8753947,44.5124637 16.1648684,45.2989044 16.1648684,46.3999214 C16.2438158,47.3436502 17.1122368,48.1300908 18.1385526,48.0514468 L44.8227632,46.3999214 C48.6122368,55.9944976 58.1648684,62.9151756 69.3753947,62.9151756 C77.1122368,62.9151756 83.9806579,59.6907688 88.7964474,54.5002603 L83.4280263,54.5002603 C79.4806579,57.4887349 74.5859211,59.2975485 69.2964474,59.2975485" id="Fill-3" fill="#D636FC" mask="url(#mask-2)"></path>
                        </g>
                        <path d="M72.1903635,27.7193366 C71.3776726,27.7193366 70.1586362,27.7193366 69.1834071,27.8765693 L69.020869,27.8765693 L66.0951817,43.8356888 L66.338989,43.8356888 C67.0704108,43.9143052 68.7770617,43.9929215 69.6710217,43.9929215 C74.465898,43.9929215 77.3915852,39.9048712 77.3915852,33.0652486 C77.3915852,29.6847454 75.5223961,27.7193366 72.1903635,27.7193366 M68.8583308,48.3954373 C66.1764508,48.3954373 62.2755345,48.2382046 60,47.9237391 L64.4697999,23.8671354 C66.7453344,23.55267 70.890058,23.3954373 73.2468616,23.3954373 C79.5858506,23.3954373 82.9991524,26.9331731 82.9991524,33.379714 C83.0804215,42.3419781 77.3103161,48.3954373 68.8583308,48.3954373" id="Fill-6" fill="#D636FC"></path>
                        <path d="M90.8909091,28.331743 C89.3363636,28.331743 88.8454545,27.2967111 88.8454545,26.3412971 C88.8454545,24.5897048 90.1545455,23.3954373 91.9545455,23.3954373 C93.5090909,23.3954373 94,24.4304691 94,25.3858831 C94,27.1374755 92.7727273,28.331743 90.8909091,28.331743 L90.8909091,28.331743 Z M85,48.3954373 L88.2727273,30.720278 L92.6909091,30.720278 L89.4181818,48.3954373 L85,48.3954373 Z" id="Fill-8" fill="#D636FC"></path>
                        <path d="M102.235955,48.3954373 C97.6741573,48.3954373 95,45.8240087 95,41.5382944 C95,40.7590736 95.0786517,39.9798528 95.2359551,39.12271 C96.258427,33.3564762 99.247191,30.3954373 104.280899,30.3954373 C105.853933,30.3954373 107.741573,30.7071256 109,31.096736 C108.764045,32.1876451 108.370787,33.6681645 107.820225,34.9149178 C106.876404,34.6032295 105.696629,34.3694632 104.516854,34.3694632 C101.921348,34.3694632 100.662921,35.7720606 100.033708,39.2785541 C99.8764045,40.135697 99.7977528,40.7590736 99.7977528,41.3824502 C99.7977528,43.6421905 100.820225,44.5772554 103.337079,44.5772554 C104.359551,44.5772554 105.775281,44.2655671 106.876404,43.7201126 C107.11236,45.12271 107.191011,46.3694632 107.191011,47.5382944 C106.011236,47.9279048 103.651685,48.3954373 102.235955,48.3954373" id="Fill-10" fill="#D636FC"></path>
                        <path d="M115.842105,48 C112.447368,48 110.710526,46.4558304 110.710526,43.3674912 C110.710526,42.7173145 110.789474,42.1484099 110.868421,41.6607774 L112.289474,33.3710247 L110,33.3710247 L110.631579,29.6325088 L112.921053,29.6325088 L113.631579,25.7314488 C114.973684,25.4063604 116.631579,25.0812721 118.052632,25 L117.263158,29.5512367 L122,29.5512367 C121.842105,30.6077739 121.605263,31.9893993 121.131579,33.2897527 L116.631579,33.2897527 L115.131579,41.8233216 C115.052632,42.0671378 115.052632,42.229682 115.052632,42.3922261 C115.052632,43.8551237 116.078947,44.0176678 117.263158,44.0176678 C118.052632,44.0176678 119.078947,43.7738516 119.789474,43.5300353 C119.789474,43.9363958 119.868421,44.4240283 119.868421,44.9116608 C119.868421,45.8056537 119.789474,46.6996466 119.710526,47.2685512 C118.684211,47.7561837 116.868421,48 115.842105,48" id="Fill-12" fill="#D636FC"></path>
                        <path d="M128.890909,28.331743 C127.336364,28.331743 126.845455,27.2967111 126.845455,26.3412971 C126.845455,24.5897048 128.154545,23.3954373 129.954545,23.3954373 C131.509091,23.3954373 132,24.4304691 132,25.3858831 C131.918182,27.1374755 130.772727,28.331743 128.890909,28.331743 L128.890909,28.331743 Z M123,48.3954373 L126.272727,30.720278 L130.690909,30.720278 L127.418182,48.3954373 L123,48.3954373 Z" id="Fill-14" fill="#D636FC"></path>
                        <path d="M142.258216,33.8240087 C139.86385,33.8240087 138.586854,35.4603723 137.948357,39.2785541 C137.788732,40.135697 137.70892,40.9149178 137.70892,41.5382944 C137.70892,43.7201126 138.746479,44.8110217 140.742582,44.8110217 C143.136948,44.8110217 144.334131,43.2525801 145.051643,39.3564762 C145.211268,38.5772554 145.29108,37.7201126 145.29108,37.096736 C145.211268,34.9149178 144.253521,33.8240087 142.258216,33.8240087 M140.422535,48.3954373 C135.713615,48.3954373 133,45.9019308 133,41.5382944 C133,40.6811515 133.159624,39.6681645 133.239437,38.9668658 C134.197183,33.5123204 137.469484,30.3954373 142.577465,30.3954373 C147.286385,30.3954373 150,32.8889438 150,37.2525801 C150,37.9538788 149.920986,38.8889438 149.760563,39.8240087 C148.802817,45.3564762 145.531315,48.3954373 140.422535,48.3954373" id="Fill-16" fill="#D636FC"></path>
                        <path d="M161.137615,48.3954373 L163.243119,36.3954373 C163.321101,36.0796478 163.321101,36.0007004 163.321101,35.8428057 C163.321101,34.6585952 162.463303,34.0270162 160.90367,34.0270162 C159.889128,34.0270162 158.798165,34.3428057 157.62844,34.9743846 L157.549679,35.053332 L155.210229,48.3164899 L151,48.3164899 L154.119266,30.9480688 C155.366972,30.7901741 157.004587,30.7112267 158.408257,30.6322794 L158.09633,32.4480688 L158.719404,32.4480688 L158.798165,32.3691215 C160.513761,30.553332 162.073394,30.3954373 163.555046,30.3954373 C165.270642,30.3954373 168,30.8691215 168,34.3428057 C168,34.6585952 167.922018,35.1322794 167.844037,35.6849109 L165.582569,48.2375425 L161.137615,48.2375425 L161.137615,48.3954373 Z" id="Fill-18" fill="#D636FC"></path>
                        <path d="M189,48.3954373 L192.13253,30.9505033 C193.385542,30.791913 195.029337,30.7126179 196.439759,30.6333227 L196.048193,32.9328822 L196.204036,32.9328822 L196.283133,32.853587 C198.006024,30.7126179 199.963855,30.3954373 200.981928,30.3954373 C201.294398,30.3954373 201.76506,30.4747324 202,30.5540276 C201.685964,31.9813403 201.294398,33.6465386 200.825301,34.9945562 C200.355422,34.8359659 199.807229,34.8359659 199.180723,34.8359659 C198.006024,34.8359659 196.674699,35.1531465 195.57753,35.7082126 L195.5,35.7875077 L193.228133,48.3161421 L189,48.3161421 L189,48.3954373 Z" id="Fill-20" fill="#D636FC"></path>
                        <path d="M202.271375,56.3954373 C201.6171,56.3954373 199.981413,56.3168209 199,55.8451228 C199.327138,54.4300285 199.736059,53.0935505 200.226766,52.0715379 C200.962825,52.3073869 202.189591,52.3860033 203.089219,52.3860033 C204.479554,52.3860033 205.133829,51.9929215 206.034275,50.5778272 L207.01487,49.1627329 L207.01487,49.0841165 C205.869888,45.1532989 204.398587,38.3136763 204.152416,31.7099027 C205.379182,31.55267 207.096654,31.4740536 208.405204,31.3954373 L209.550186,41.9300285 C209.63197,42.2444939 209.714572,43.1092737 209.714572,43.9740536 L209.714572,44.2099027 L210.36803,44.2099027 L210.449814,44.05267 C210.695167,43.4237391 210.941338,42.716192 211.35026,42.0086448 L216.666245,31.3954373 C217.893011,31.3954373 219.773234,31.4740536 221,31.6312863 L211.759182,48.6910347 C208.405204,55.1375756 205.70632,56.3954373 202.271375,56.3954373" id="Fill-22" fill="#D636FC"></path>
                        <path d="M221.176154,48.3954373 C219.805983,48.3954373 219,47.7954373 219,46.7954373 C219,45.0621039 220.611966,44.3954373 221.982137,44.3954373 C223.191111,44.3954373 223.997094,45.0621039 223.997094,46.0621039 C224.077692,47.7287706 222.465726,48.3954373 221.176154,48.3954373" id="Fill-24" fill="#D636FC"></path>
                        <path d="M234.235955,48.3954373 C229.674157,48.3954373 227,45.8240087 227,41.5382944 C227,40.7590736 227.077865,39.9798528 227.235955,39.12271 C228.25764,33.3564762 231.246404,30.3954373 236.280899,30.3954373 C237.853933,30.3954373 239.741573,30.7071256 241,31.096736 C240.764045,32.1876451 240.370787,33.6681645 239.820225,34.9149178 C238.875618,34.6032295 237.695843,34.3694632 236.516067,34.3694632 C233.921348,34.3694632 232.662921,35.7720606 232.032921,39.2785541 C231.876404,40.135697 231.796966,40.7590736 231.796966,41.3824502 C231.796966,43.6421905 232.819438,44.5772554 235.336292,44.5772554 C236.438202,44.5772554 237.695843,44.2655671 238.640449,43.8759567 C238.797753,45.12271 238.875618,46.5253074 238.875618,47.7720606 C237.617978,48.083749 235.573034,48.3954373 234.235955,48.3954373" id="Fill-26" fill="#D636FC"></path>
                        <path d="M251.258216,33.8240087 C248.86385,33.8240087 247.586854,35.4603723 246.949155,39.2785541 C246.788732,40.135697 246.709718,40.9149178 246.709718,41.5382944 C246.709718,43.7201126 247.747277,44.8110217 249.742582,44.8110217 C252.136948,44.8110217 253.334131,43.2525801 254.051643,39.3564762 C254.211268,38.5772554 254.291878,37.7201126 254.291878,37.096736 C254.211268,34.9149178 253.253521,33.8240087 251.258216,33.8240087 M249.422535,48.3954373 C244.714413,48.3954373 242,45.9019308 242,41.5382944 C242,40.6811515 242.160423,39.6681645 242.239437,38.9668658 C243.197183,33.5123204 246.469484,30.3954373 251.577465,30.3954373 C256.287183,30.3954373 259,32.8889438 259,37.2525801 C259,37.9538788 258.920986,38.8889438 258.760563,39.8240087 C257.802817,45.3564762 254.531315,48.3954373 249.422535,48.3954373" id="Fill-28" fill="#D636FC"></path>
                        <path d="M279.265263,48.3954373 L281.379657,36.6292035 C281.457968,36.3954373 281.457968,36.3175152 281.457968,36.083749 C281.457968,35.2266061 281.143941,34.2915412 279.265263,34.2915412 C278.325532,34.2915412 277.228397,34.6811515 276.289449,35.2266061 L276.211138,35.3045282 L273.861811,48.3175152 L269.633023,48.3175152 L271.746634,36.4733593 C271.825728,36.161671 271.825728,36.0058269 271.825728,35.8499827 C271.825728,35.0707619 271.512485,34.135697 269.711334,34.135697 C268.693292,34.135697 267.831089,34.4473853 266.656426,35.0707619 L266.578898,35.148684 L264.229571,48.161671 L260,48.161671 L263.132436,31.0188139 C264.386193,30.8629697 266.030722,30.7850477 267.439535,30.7071256 L267.127074,32.4993334 L267.753562,32.4993334 L267.831089,32.4214113 C269.476401,30.7850477 270.807687,30.4733593 272.529743,30.4733593 C274.487515,30.4733593 275.662179,31.2525801 275.897895,32.6551775 L275.976206,33.0447879 L276.289449,32.7330996 C278.011506,31.096736 279.577724,30.3954373 281.535496,30.3954373 C283.180808,30.3954373 286,30.8629697 286,34.2915412 C286,34.6811515 285.921689,35.2266061 285.842595,35.6162165 L283.41574,48.161671 L279.265263,48.161671 L279.265263,48.3954373 Z" id="Fill-30" fill="#D636FC"></path>
                    </g>
                </g>
            </g>
        </g>
    </g>
</svg>