<svg class="svg-logo-entropy" xmlns="http://www.w3.org/2000/svg" width="144" height="32.21" viewBox="0 0 144 32.21">
    <linearGradient id="svg-logo-entropy__orange-purple" x2="1" y2="1">
        <stop offset="0%" stop-color="#FFCC40" />
        <stop offset="100%" stop-color="#D636FC" />
    </linearGradient>
    <linearGradient id="svg-logo-entropy__blue-green" x2="1" y2="1">
        <stop offset="0%" stop-color="#29FAFF" />
        <stop offset="100%" stop-color="#0FFF8C" />
    </linearGradient>
    <path class="svg-logo-entropy__text-bottom -white" style="fill: #fff;" d="M34.92,17.09h3.66V23H34.92ZM21.28,23h3.65V17.09H21.28ZM9.37,20.22a5.82,5.82,0,0,1-5.18-3.13H.47A9.09,9.09,0,0,0,9.31,23.4,9.46,9.46,0,0,0,16.92,20l-2.39-2.27A6.39,6.39,0,0,1,9.37,20.22ZM51.75,20a3.33,3.33,0,0,1-2.5-1,3.07,3.07,0,0,1-.53-1.89H45.09a6.46,6.46,0,0,0,1.45,4.19,6.51,6.51,0,0,0,5.09,2.12A10.23,10.23,0,0,0,54.46,23l-.73-3.3A9.1,9.1,0,0,1,51.75,20Zm49,0a6.21,6.21,0,0,1-5-2.56v-.3H92.1V32.21h3.65V21.46a8,8,0,0,0,5.46,1.94,9.37,9.37,0,0,0,4.54-1.18,9.35,9.35,0,0,0,4.09-5.1h-4A5.93,5.93,0,0,1,100.71,20Zm16-2.86,1.91,4-4.86,11.08h3.86l6.57-15.12ZM58.33,23H62V17.09H58.33ZM79,20a5.47,5.47,0,0,1-4.9-2.86h-4a9.35,9.35,0,0,0,17.69,0h-4A5.45,5.45,0,0,1,79,20Z"/>
    <path class="svg-logo-entropy__text-bottom -blue-green" style="fill: url(#svg-logo-entropy__blue-green);" d="M34.92,17.09h3.66V23H34.92ZM21.28,23h3.65V17.09H21.28ZM9.37,20.22a5.82,5.82,0,0,1-5.18-3.13H.47A9.09,9.09,0,0,0,9.31,23.4,9.46,9.46,0,0,0,16.92,20l-2.39-2.27A6.39,6.39,0,0,1,9.37,20.22ZM51.75,20a3.33,3.33,0,0,1-2.5-1,3.07,3.07,0,0,1-.53-1.89H45.09a6.46,6.46,0,0,0,1.45,4.19,6.51,6.51,0,0,0,5.09,2.12A10.23,10.23,0,0,0,54.46,23l-.73-3.3A9.1,9.1,0,0,1,51.75,20Zm49,0a6.21,6.21,0,0,1-5-2.56v-.3H92.1V32.21h3.65V21.46a8,8,0,0,0,5.46,1.94,9.37,9.37,0,0,0,4.54-1.18,9.35,9.35,0,0,0,4.09-5.1h-4A5.93,5.93,0,0,1,100.71,20Zm16-2.86,1.91,4-4.86,11.08h3.86l6.57-15.12ZM58.33,23H62V17.09H58.33ZM79,20a5.47,5.47,0,0,1-4.9-2.86h-4a9.35,9.35,0,0,0,17.69,0h-4A5.45,5.45,0,0,1,79,20Z"/>
    <path class="svg-logo-entropy__text-bottom -orange-purple" style="fill: url(#svg-logo-entropy__orange-purple);" d="M34.92,17.09h3.66V23H34.92ZM21.28,23h3.65V17.09H21.28ZM9.37,20.22a5.82,5.82,0,0,1-5.18-3.13H.47A9.09,9.09,0,0,0,9.31,23.4,9.46,9.46,0,0,0,16.92,20l-2.39-2.27A6.39,6.39,0,0,1,9.37,20.22ZM51.75,20a3.33,3.33,0,0,1-2.5-1,3.07,3.07,0,0,1-.53-1.89H45.09a6.46,6.46,0,0,0,1.45,4.19,6.51,6.51,0,0,0,5.09,2.12A10.23,10.23,0,0,0,54.46,23l-.73-3.3A9.1,9.1,0,0,1,51.75,20Zm49,0a6.21,6.21,0,0,1-5-2.56v-.3H92.1V32.21h3.65V21.46a8,8,0,0,0,5.46,1.94,9.37,9.37,0,0,0,4.54-1.18,9.35,9.35,0,0,0,4.09-5.1h-4A5.93,5.93,0,0,1,100.71,20Zm16-2.86,1.91,4-4.86,11.08h3.86l6.57-15.12ZM58.33,23H62V17.09H58.33ZM79,20a5.47,5.47,0,0,1-4.9-2.86h-4a9.35,9.35,0,0,0,17.69,0h-4A5.45,5.45,0,0,1,79,20Z"/>
    <path class="svg-logo-entropy__text-top" d="M0,14.06v0c0-5.42,3.68-9.4,8.78-9.4s8.67,4.06,8.67,9.4v0ZM3.83,11.7h9.82A5.06,5.06,0,0,0,8.9,7.78,5.26,5.26,0,0,0,3.83,11.7Zm21.1,2.36V10.64a6.66,6.66,0,0,1,5.19-2.56,4.77,4.77,0,0,1,3.71,1.76c.65.8,1.06,1.89,1.06,4.19v0h3.66c0-3-.62-4.84-1.77-6.25a8.41,8.41,0,0,0-6.57-3.18,7.72,7.72,0,0,0-5.42,2.12V5H21.25v9.05Zm20.16,0h3.66V8.25h5.74V5H48.75V0H45.09V5h-4.6V8.25h4.6Zm16.86,0v-3a6,6,0,0,1,4.86-3,5.71,5.71,0,0,1,1.42.14l.44-3.5a7.46,7.46,0,0,0-1.41-.12A6.72,6.72,0,0,0,61.83,7V5H58.3v9Zm11.32,0v0a5.69,5.69,0,1,1,11.37,0v0H88.3v0a9.32,9.32,0,1,0-18.63,0v0Zm22.48,0V10.64a6.42,6.42,0,0,1,5.13-2.56A5.79,5.79,0,0,1,106.69,14v0h3.65v0a9.5,9.5,0,0,0-4.65-8.25,8.51,8.51,0,0,0-4.42-1.15,8.34,8.34,0,0,0-5.63,2V5H92.1v9.05Zm29.8,0,4-9h-3.83l-4,9.05Zm-6.42,0-4.31-9H110.9l4.34,9.05Z"/>
    <rect class="svg-logo-entropy__cursor" x="126.76" y="21.43" width="17.24" height="2"/>
</svg>
