<svg width="3991" height="1334" viewBox="0 0 3991 1334" fill="none" xmlns="http://www.w3.org/2000/svg">
<path d="M1314.91 338.03C1320.4 296.303 1380.79 267.753 1421.42 267.753C1475.22 267.753 1526.83 306.186 1526.83 356.697V361.089H1677.27V338.03C1677.27 216.143 1535.62 128.297 1421.42 128.297C1299.53 128.297 1164.47 218.339 1164.47 345.716C1164.47 589.49 1522.44 541.174 1522.44 669.649C1522.44 719.063 1459.85 757.496 1411.54 757.496C1363.22 757.496 1295.14 722.357 1295.14 671.846V668.551H1200.71V669.649C1200.71 768.476 1309.41 844.244 1404.95 844.244C1500.48 844.244 1616.88 777.261 1616.88 675.14C1616.88 466.505 1319.3 527.997 1266.59 389.64H1286.36C1339.06 507.134 1635.54 458.818 1635.54 675.14C1635.54 786.046 1511.46 861.813 1406.05 861.813C1299.53 861.813 1182.04 779.457 1182.04 670.748V669.649L1144.7 668.551V671.846C1144.7 799.223 1280.86 896.952 1404.95 896.952C1530.13 896.952 1672.88 808.007 1672.88 675.14C1672.88 424.778 1329.18 471.995 1314.91 354.501H1220.47C1232.55 563.136 1579.54 481.878 1579.54 671.846C1579.54 752.005 1486.21 809.105 1409.34 809.105C1343.46 809.105 1258.9 768.477 1242.43 703.69H1262.2C1278.67 757.496 1353.34 792.634 1409.34 792.634C1476.32 792.634 1560.87 742.123 1560.87 671.846C1560.87 497.251 1201.8 575.215 1201.8 345.716C1201.8 239.203 1319.3 163.435 1421.42 163.435C1515.85 163.435 1627.86 229.32 1638.84 325.951H1563.07C1552.09 269.949 1477.42 232.614 1421.42 232.614C1374.2 232.614 1306.12 258.968 1286.36 302.891H1266.59C1287.45 247.987 1364.32 215.045 1421.42 215.045C1480.72 215.045 1559.78 251.282 1578.44 308.382H1616.88C1597.11 230.418 1499.38 181.005 1421.42 181.005C1331.38 181.005 1225.96 244.693 1220.47 338.03H1314.91Z" fill="#E2E2E2"/>
<path d="M1906.18 338.03C1911.67 296.303 1972.06 267.753 2012.69 267.753C2066.5 267.753 2118.11 306.186 2118.11 356.697V361.089H2268.54V338.03C2268.54 216.143 2126.89 128.297 2012.69 128.297C1890.81 128.297 1755.74 218.339 1755.74 345.716C1755.74 589.49 2113.72 541.174 2113.72 669.649C2113.72 719.063 2051.12 757.496 2002.81 757.496C1954.49 757.496 1886.41 722.357 1886.41 671.846V668.551H1791.98V669.649C1791.98 768.476 1900.69 844.244 1996.22 844.244C2091.75 844.244 2208.15 777.261 2208.15 675.14C2208.15 466.505 1910.57 527.997 1857.86 389.64H1877.63C1930.34 507.134 2226.82 458.818 2226.82 675.14C2226.82 786.046 2102.73 861.813 1997.32 861.813C1890.81 861.813 1773.31 779.457 1773.31 670.748V669.649L1735.98 668.551V671.846C1735.98 799.223 1872.14 896.952 1996.22 896.952C2121.4 896.952 2264.15 808.007 2264.15 675.14C2264.15 424.778 1920.45 471.995 1906.18 354.501H1811.74C1823.82 563.136 2170.82 481.878 2170.82 671.846C2170.82 752.005 2077.48 809.105 2000.61 809.105C1934.73 809.105 1850.18 768.477 1833.71 703.69H1853.47C1869.94 757.496 1944.61 792.634 2000.61 792.634C2067.6 792.634 2152.15 742.123 2152.15 671.846C2152.15 497.251 1793.08 575.215 1793.08 345.716C1793.08 239.203 1910.57 163.435 2012.69 163.435C2107.13 163.435 2219.13 229.32 2230.11 325.951H2154.34C2143.36 269.949 2068.69 232.614 2012.69 232.614C1965.47 232.614 1897.39 258.968 1877.63 302.891H1857.86C1878.73 247.987 1955.59 215.045 2012.69 215.045C2071.99 215.045 2151.05 251.282 2169.72 308.382H2208.15C2188.38 230.418 2090.66 181.005 2012.69 181.005C1922.65 181.005 1817.23 244.693 1811.74 338.03H1906.18Z" fill="#E2E2E2"/>
<path d="M967.32 896.952H1002.46V163.435H1072.74V861.813H1055.17V181.005H1020.03V896.952H1107.87V128.297H967.32V896.952Z" fill="#E2E2E2"/>
<path d="M2335.53 886.905H2370.67V153.389H2440.94V851.766H2423.37V170.958H2388.24V886.905H2476.08V118.25H2335.53V886.905Z" fill="#E2E2E2"/>
<path d="M798.303 896.952V285.322L489.743 861.813H469.977L815.872 215.045V896.952H903.718V128.297H763.164L451.31 711.376L139.456 128.297H0V896.952H139.456V424.778L392.014 896.952L441.427 804.713L108.71 181.005H52.7077V844.244H87.8463V215.045L401.897 804.713L392.014 822.282L105.415 285.322V861.813H35.1385V163.435H118.592L451.31 786.046L784.028 163.435H868.58V861.813H851.011V181.005H795.009L411.779 896.952H510.606L763.164 424.778V896.952H798.303Z" fill="#E2E2E2"/>
<path d="M3104.28 315.532C3083.53 295.433 3059.34 277.317 3033.69 264.62C2896.58 196.745 2725.51 254.526 2657.63 391.64C2589.76 528.753 2647.54 699.823 2784.65 767.699C2920.78 835.086 3092.83 777.792 3159.73 642.652C3204.66 551.9 3195.84 438.228 3138.41 355.76L3111.42 378.018C3160.44 450.183 3167.23 548.112 3129.14 625.053C3071.03 742.438 2917.66 794.242 2800.28 736.133C2682.89 678.024 2631.09 524.651 2689.2 407.266C2747.31 289.881 2900.68 238.077 3019.05 296.674C3050.62 312.3 3078.28 335.818 3101.52 363.291L3169.23 308.382C3138.56 271.094 3100.04 239.744 3056.64 218.258C2893.88 137.687 2691.84 205.929 2611.27 368.689C2530.7 531.45 2598.94 733.489 2761.7 814.061C2923.47 894.144 3126.5 826.39 3206.1 665.602C3254.44 567.946 3251.5 447.359 3198.94 352.566L3212.68 342.174C3270.18 441.87 3273.15 569.841 3221.88 673.415C3137.89 843.081 2924.54 914.321 2753.89 829.843C2583.24 745.366 2511.01 531.528 2595.49 360.876C2679.96 190.224 2893.8 117.997 3064.45 202.475C3109.83 224.938 3151.31 257.753 3182.97 297.99L3210.94 276.22C3175.32 231.568 3130.39 195.814 3080.08 170.91C2891.67 77.6422 2657.19 156.843 2563.92 345.25C2470.65 533.658 2549.85 768.142 2738.26 861.409C2925.68 954.188 3161.15 875.476 3253.44 689.041C3315.95 562.779 3303.5 404.327 3221.33 289.962L3152.64 344.382C3214.52 432.739 3222.38 553.307 3174.53 649.976C3103.24 793.995 2922.33 854.277 2777.33 782.495C2632.32 710.713 2571.05 529.32 2642.84 384.315C2714.62 239.31 2896.01 178.042 3041.01 249.824C3069.62 263.985 3096.27 282.092 3118.51 304.154L3104.28 315.532Z" fill="#E2E2E2"/>
<path fill-rule="evenodd" clip-rule="evenodd" d="M2610.19 743.791C2560.62 800.791 2532.41 837.604 2536.57 842.057C2540.73 846.51 2586.44 817.713 2656.8 766.947C2734.58 711.135 2836.71 627.415 2945.07 529.149C3053.43 430.883 3146.35 337.07 3209.59 265.226C3266.59 199.913 3299.84 157.164 3295.68 152.711C3291.52 148.257 3245.81 177.054 3175.45 227.82C3170.99 231.086 3166.24 234.351 3161.49 237.914C3169.51 244.742 3179.82 257.804 3187.25 265.226C3179.53 274.132 3172.22 280.965 3163.31 290.465C3160.93 288.09 3154.96 282.148 3152.59 280.07C3085.49 213.866 3004.74 181.804 2910.63 181.804C2816.82 181.804 2736.07 214.163 2668.98 280.07C2602.48 345.383 2568.93 424.649 2568.93 517.868C2568.93 603.962 2600.4 684.163 2656.8 746.507C2644.32 755.584 2624.99 768.657 2624.99 768.657C2624.99 768.657 2623.31 768.657 2610.19 743.791ZM3196.52 332.617C3199.6 337.127 3202.54 341.691 3205.36 346.309C3236.28 397.009 3251.74 454.172 3251.74 517.571C3251.74 610.79 3218.49 689.759 3152.29 755.369C3085.2 821.572 3004.45 853.635 2910.34 853.635C2829.59 853.635 2758.63 829.588 2697.77 780.901C2774.07 724.494 2869.07 646.118 2968.82 555.571C3056.99 475.711 3135.66 398.227 3196.52 332.617ZM2910.34 891.041C2978.02 891.041 3042.15 875.01 3100.63 840.869C3157.63 807.619 3203.65 762.494 3237.49 706.087C3272.23 648.493 3288.56 585.259 3288.56 517.868C3288.56 450.477 3272.23 387.242 3237.49 329.648C3236 327.181 3234.47 324.714 3232.92 322.263C3229.25 316.454 3225.43 310.732 3221.46 305.304C3226.51 299.961 3231.26 294.321 3235.71 289.274C3306.07 209.117 3340.21 149.444 3321.81 128.96C3303.4 108.475 3240.46 136.976 3154.07 199.023C3146.95 204.07 3139.52 209.711 3132.1 215.055C3122.01 207.93 3111.62 201.101 3100.63 194.866C3042.15 160.726 2978.02 144.694 2910.34 144.694C2842.94 144.694 2779.41 160.726 2720.93 194.866C2663.93 228.117 2617.91 273.242 2584.07 329.648C2549.33 387.242 2533.01 450.774 2533.01 517.868C2533.01 585.259 2549.33 648.493 2584.07 706.087C2585.55 708.759 2587.33 711.134 2588.82 713.806C2523.21 790.103 2491.74 846.509 2509.55 866.4C2527.37 885.994 2585.85 860.76 2667.19 803.463C2683.82 817.416 2701.63 829.885 2720.93 841.166C2779.41 875.01 2842.94 891.041 2910.34 891.041Z" fill="#FFC08D"/>
<path fill-rule="evenodd" clip-rule="evenodd" d="M3205.36 346.309C3205.17 346.011 3204.99 345.713 3204.81 345.416C3203.69 343.591 3202.55 341.774 3201.39 339.966C3199.8 337.501 3198.18 335.052 3196.52 332.618C3193.13 336.279 3189.68 339.976 3186.17 343.709C3126.86 406.881 3052.07 480.167 2968.82 555.571C2874.35 641.326 2784.14 716.163 2710.04 771.76C2705.9 774.868 2701.81 777.915 2697.77 780.901C2701.8 784.124 2705.87 787.239 2709.99 790.246C2768.07 832.667 2834.93 853.635 2910.34 853.635C3004.44 853.635 3085.19 821.573 3152.29 755.369C3218.49 689.76 3251.74 610.79 3251.74 517.571C3251.74 454.173 3236.28 397.01 3205.36 346.309ZM3141.89 744.86C3205.32 682.002 3236.96 606.805 3236.96 517.571C3236.96 457.792 3222.68 404.196 3194.32 356.625C3135.11 419.491 3061.02 492.005 2978.75 566.516C2885.5 651.171 2796.27 725.315 2722.4 780.965C2776.96 819.673 2839.52 838.854 2910.34 838.854C3000.67 838.854 3077.65 808.243 3141.89 744.86ZM3235.71 289.274C3234.45 290.703 3233.17 292.178 3231.86 293.681C3228.55 297.49 3225.08 301.473 3221.46 305.305C3225.43 310.733 3229.25 316.455 3232.92 322.263C3234.26 324.376 3235.57 326.5 3236.87 328.626C3237.08 328.967 3237.29 329.308 3237.49 329.649C3272.23 387.243 3288.55 450.478 3288.55 517.868C3288.55 585.259 3272.23 648.494 3237.49 706.088C3203.65 762.494 3157.63 807.62 3100.63 840.87C3042.15 875.011 2978.02 891.042 2910.34 891.042C2842.94 891.042 2779.41 875.011 2720.93 841.167C2701.63 829.886 2683.82 817.416 2667.19 803.463C2585.85 860.76 2527.36 885.995 2509.55 866.401C2491.74 846.51 2523.21 790.104 2588.82 713.807C2588.08 712.471 2587.26 711.209 2586.44 709.948C2585.63 708.686 2584.81 707.424 2584.07 706.088C2549.33 648.494 2533.01 585.259 2533.01 517.868C2533.01 450.774 2549.33 387.243 2584.07 329.649C2617.91 273.243 2663.93 228.117 2720.93 194.867C2779.41 160.726 2842.94 144.695 2910.34 144.695C2978.02 144.695 3042.15 160.726 3100.63 194.867C3111.62 201.101 3122.01 207.93 3132.1 215.055C3135.38 212.693 3138.66 210.272 3141.92 207.87C3146.03 204.84 3150.1 201.839 3154.07 199.024C3240.46 136.977 3303.4 108.476 3321.8 128.96C3340.21 149.445 3306.07 209.118 3235.71 289.274ZM3145.49 186.989C3188.99 155.745 3227.33 132.393 3257.62 119.45C3272.69 113.01 3286.69 108.742 3298.84 107.803C3310.89 106.871 3323.83 109.099 3332.8 119.081C3341.71 128.999 3342.67 142.032 3340.57 153.941C3338.46 165.943 3332.88 179.45 3325.02 193.83C3309.22 222.734 3282.27 258.641 3246.82 299.026L3246.81 299.04L3246.8 299.054C3245.67 300.33 3244.47 301.71 3243.21 303.156C3242.27 304.236 3241.3 305.353 3240.3 306.49C3242.05 309.101 3243.75 311.733 3245.41 314.363C3247.02 316.902 3248.59 319.446 3250.13 321.978L3250.15 322.015C3286.37 382.077 3303.34 447.985 3303.34 517.868C3303.34 587.751 3286.37 653.658 3250.15 713.718C3215.01 772.28 3167.19 819.158 3108.08 853.636C3047.17 889.194 2980.44 905.824 2910.34 905.824C2840.5 905.824 2774.39 889.182 2713.52 853.961L2713.5 853.945L2713.47 853.928C2696.84 844.207 2681.24 833.611 2666.5 821.963C2629.3 847.607 2596.52 866.687 2570.13 877.453C2555.93 883.247 2542.67 887.017 2531.07 887.65C2519.48 888.283 2507.24 885.829 2498.61 876.344L2498.58 876.303L2498.54 876.262C2489.94 866.655 2488.77 854.131 2490.6 842.582C2492.43 831.003 2497.57 818.052 2504.84 804.336C2518.4 778.751 2540.99 747.493 2570.61 712.388C2534.94 652.685 2518.22 587.235 2518.22 517.868C2518.22 448.294 2535.18 382.094 2571.4 322.031C2606.54 263.464 2654.37 216.582 2713.48 182.101C2774.36 146.557 2840.5 129.913 2910.34 129.913C2980.41 129.913 3047.12 146.529 3108.01 182.056C3116.3 186.763 3124.21 191.765 3131.86 196.923C3132.19 196.675 3132.53 196.427 3132.87 196.178C3137.17 193.009 3141.57 189.767 3145.49 186.989ZM2599.83 755.777C2603.17 751.889 2606.63 747.893 2610.19 743.792C2612.91 748.934 2615.13 753.013 2616.95 756.248C2617.22 756.733 2617.49 757.198 2617.74 757.646C2618.14 758.348 2618.52 759.005 2618.88 759.62C2624.13 768.657 2624.99 768.657 2624.99 768.657C2624.99 769.678 2624.99 770.628 2624.99 771.513C2624.99 771.512 2624.99 771.512 2624.99 771.512V768.657C2624.99 768.657 2634.62 762.147 2644.67 755.125C2648.86 752.196 2653.13 749.179 2656.8 746.508C2653.48 742.832 2650.24 739.093 2647.09 735.295C2596.79 674.685 2568.93 598.886 2568.93 517.868C2568.93 424.649 2602.47 345.383 2668.97 280.07C2736.07 214.164 2816.82 181.804 2910.63 181.804C3004.74 181.804 3085.49 213.867 3152.59 280.07C3152.62 280.103 3152.66 280.136 3152.7 280.17C3155.15 282.332 3160.97 288.127 3163.31 290.465C3163.31 290.465 3163.31 290.465 3163.31 290.466C3166.74 286.807 3169.93 283.545 3173 280.407C3173.19 280.212 3173.38 280.018 3173.57 279.824C3178.26 275.03 3182.68 270.491 3187.25 265.227C3184.31 262.294 3180.93 258.48 3177.41 254.519C3175.64 252.519 3173.83 250.482 3172.03 248.5C3168.37 244.475 3164.74 240.682 3161.49 237.914C3164.26 235.836 3167.04 233.858 3169.75 231.922C3171.1 230.958 3172.44 230.005 3173.75 229.055C3174.32 228.643 3174.88 228.232 3175.45 227.821C3220.86 195.05 3256.02 171.434 3276.35 160.007C3278.26 158.931 3280.04 157.963 3281.69 157.105C3289.65 152.963 3294.46 151.403 3295.68 152.711C3296.9 154.024 3294.88 158.662 3289.96 166.224C3288.94 167.779 3287.81 169.458 3286.55 171.258C3273.21 190.393 3246.33 223.121 3209.59 265.227C3146.35 337.071 3053.43 430.884 2945.07 529.15C2836.71 627.416 2734.58 711.135 2656.8 766.948C2610.97 800.015 2575.6 823.761 2555.35 835.069C2553.64 836.028 2552.03 836.897 2550.53 837.675C2542.59 841.808 2537.79 843.364 2536.57 842.058C2535.25 840.646 2537.19 835.98 2542.03 828.448C2542.95 827.01 2543.98 825.467 2545.11 823.823C2555.42 808.875 2574.26 785.516 2599.83 755.777ZM2607.54 769.491C2597.13 781.658 2587.95 792.638 2580.14 802.293C2590.22 795.641 2601.67 787.843 2614.34 778.995C2614.09 778.755 2613.88 778.535 2613.71 778.347C2612.53 777.08 2611.38 775.52 2610.19 773.712C2609.45 772.598 2608.58 771.216 2607.54 769.491ZM3251.32 192.998C3237.56 210.047 3219.72 231.134 3198.47 255.48C3198.46 255.492 3198.45 255.504 3198.44 255.516L3197.7 254.774C3195.11 252.183 3192.12 248.822 3188.66 244.922C3187.68 243.822 3186.67 242.68 3185.61 241.5C3185.12 240.943 3184.61 240.378 3184.1 239.806C3184.11 239.796 3184.13 239.785 3184.14 239.774C3210.37 220.847 3233.05 205.073 3251.32 192.998ZM3155.12 303.178L3152.86 300.918C3150.3 298.357 3144.76 292.864 3142.85 291.195L3142.52 290.903L3142.2 290.592C3077.96 227.201 3000.97 196.586 2910.63 196.586C2820.62 196.586 2743.61 227.473 2679.33 290.616L2679.33 290.616C2615.64 353.173 2583.71 428.649 2583.71 517.868C2583.71 600.276 2613.8 676.948 2667.76 736.591L2669.98 739.039C2744.04 684.177 2836.94 607.252 2935.14 518.2C3020.5 440.794 3096.15 366.243 3155.12 303.178Z" fill="#030D11"/>
<path d="M3469.59 181.005H3414.69V844.244H3449.82V212.849L3902.23 861.813H3881.37L3467.39 268.851V861.813H3397.12V163.435H3478.37L3882.47 742.123V163.435H3956.04V786.046L3938.47 760.79V181.005H3900.04V766.28L3990.08 896.952V128.297H3847.33V630.119L3497.04 128.297H3361.98V896.952H3502.53V379.757L3862.7 896.952H3969.22L3469.59 181.005Z" fill="#E2E2E2"/>
<path d="M1309.58 1102.84H1404.85V1134.6H1309.58C1287.67 1134.6 1268.93 1142.38 1253.37 1157.94C1237.91 1173.4 1230.18 1192.08 1230.18 1213.99C1230.18 1235.91 1237.91 1254.64 1253.37 1270.21C1268.93 1285.66 1287.67 1293.39 1309.58 1293.39H1404.85V1325.15H1309.58C1278.88 1325.15 1252.68 1314.3 1230.98 1292.59C1209.28 1270.89 1198.43 1244.69 1198.43 1213.99C1198.43 1183.29 1209.28 1157.09 1230.98 1135.39C1252.68 1113.69 1278.88 1102.84 1309.58 1102.84Z" fill="#E2E2E2"/>
<path d="M1518.54 1301.33C1542.68 1301.33 1563.27 1292.81 1580.31 1275.76C1597.36 1258.72 1605.88 1238.13 1605.88 1213.99C1605.88 1189.86 1597.36 1169.27 1580.31 1152.23C1563.27 1135.18 1542.68 1126.66 1518.54 1126.66C1494.41 1126.66 1473.82 1135.18 1456.78 1152.23C1439.73 1169.27 1431.21 1189.86 1431.21 1213.99C1431.21 1238.13 1439.73 1258.72 1456.78 1275.76C1473.82 1292.81 1494.41 1301.33 1518.54 1301.33ZM1518.54 1333.09C1485.62 1333.09 1457.52 1321.49 1434.23 1298.31C1411.04 1275.02 1399.45 1246.92 1399.45 1213.99C1399.45 1181.07 1411.04 1153.02 1434.23 1129.84C1457.52 1106.55 1485.62 1094.9 1518.54 1094.9C1551.47 1094.9 1579.52 1106.55 1602.7 1129.84C1625.99 1153.02 1637.64 1181.07 1637.64 1213.99C1637.64 1246.92 1625.99 1275.02 1602.7 1298.31C1579.52 1321.49 1551.47 1333.09 1518.54 1333.09Z" fill="#E2E2E2"/>
<path d="M1693.21 1154.45V1325.15H1661.45V1102.84H1691.15L1836.12 1273.54V1102.84H1867.88V1325.15H1838.19L1693.21 1154.45Z" fill="#E2E2E2"/>
<path d="M2004.12 1325.15H1972.36V1166.36H2004.12V1325.15ZM2083.52 1134.6H1892.97V1102.84H2083.52V1134.6Z" fill="#E2E2E2"/>
<path d="M2140.05 1134.6V1325.15H2108.29V1102.84H2251.2C2268.77 1102.84 2283.75 1109.03 2296.13 1121.42C2308.52 1133.81 2314.71 1148.78 2314.71 1166.36C2314.71 1183.93 2308.52 1198.91 2296.13 1211.29C2283.75 1223.68 2268.77 1229.87 2251.2 1229.87H2226.11L2321.38 1325.15H2276.29L2149.25 1198.12H2251.2C2259.98 1198.12 2267.45 1195.05 2273.59 1188.91C2279.83 1182.66 2282.96 1175.14 2282.96 1166.36C2282.96 1157.57 2279.83 1150.11 2273.59 1143.97C2267.45 1137.72 2259.98 1134.6 2251.2 1134.6H2140.05Z" fill="#E2E2E2"/>
<path d="M2451.27 1301.33C2475.41 1301.33 2496 1292.81 2513.04 1275.76C2530.08 1258.72 2538.61 1238.13 2538.61 1213.99C2538.61 1189.86 2530.08 1169.27 2513.04 1152.23C2496 1135.18 2475.41 1126.66 2451.27 1126.66C2427.14 1126.66 2406.55 1135.18 2389.5 1152.23C2372.46 1169.27 2363.94 1189.86 2363.94 1213.99C2363.94 1238.13 2372.46 1258.72 2389.5 1275.76C2406.55 1292.81 2427.14 1301.33 2451.27 1301.33ZM2451.27 1333.09C2418.35 1333.09 2390.24 1321.49 2366.95 1298.31C2343.77 1275.02 2332.18 1246.92 2332.18 1213.99C2332.18 1181.07 2343.77 1153.02 2366.95 1129.84C2390.24 1106.55 2418.35 1094.9 2451.27 1094.9C2484.19 1094.9 2512.25 1106.55 2535.43 1129.84C2558.72 1153.02 2570.36 1181.07 2570.36 1213.99C2570.36 1246.92 2558.72 1275.02 2535.43 1298.31C2512.25 1321.49 2484.19 1333.09 2451.27 1333.09Z" fill="#E2E2E2"/>
<path d="M2594.18 1102.84H2625.94V1293.39H2784.73V1325.15H2594.18V1102.84Z" fill="#E2E2E2"/>
</svg>
