<svg width="655" height="655" viewBox="0 0 655 655" fill="none" xmlns="http://www.w3.org/2000/svg">
<path d="M339.867 217.571C180.977 141.559 108.73 181.913 108.73 275.663C108.73 435.922 260.625 589.624 406.068 537.945C639.641 454.95 484.7 286.89 339.867 217.571Z" fill="white" fill-opacity="0.06"/>
<path d="M370.854 73.4124C253 73.4124 157.455 113.184 157.455 162.243V316.273C157.455 293.879 177.367 273.43 210.209 257.801C225.66 250.452 243.981 244.164 264.443 239.258C295.765 231.739 332.104 227.468 370.854 227.468C409.604 227.468 445.943 231.765 477.265 239.258C497.341 244.073 515.347 250.21 530.622 257.415L531.499 257.834V103.778C492.383 85.15 434.92 73.4124 370.854 73.4124Z" fill="#2D44EB"/>
<path d="M370.435 75.1941C253.472 75.1941 158.654 114.664 158.654 163.351V316.214C158.654 293.99 178.409 273.692 211.002 258.188C226.342 250.891 244.525 244.656 264.83 239.782C295.916 232.322 331.98 228.058 370.435 228.058C408.89 228.058 444.955 232.322 476.041 239.782C495.966 244.564 513.841 250.662 528.998 257.782L529.869 258.195V105.324C491.047 86.8531 434.016 75.1941 370.435 75.1941Z" fill="#2B0838"/>
<path opacity="0.67" d="M158.654 163.35V316.214C158.654 338.438 178.409 358.737 211.002 374.241V221.39C178.409 205.866 158.654 185.568 158.654 163.35Z" fill="#2D44EB"/>
<path d="M157.455 163.35V316.214C157.455 338.438 177.216 358.737 209.809 374.241V221.39C177.21 205.866 157.455 185.568 157.455 163.35Z" fill="#6383F7"/>
<path opacity="0.2" d="M245.185 156.041C245.442 156.231 245.642 156.488 245.764 156.783C245.886 157.078 245.926 157.401 245.88 157.717C263.093 166.147 287.754 141.952 281.545 122.734C280.778 120.356 276.174 108.625 260.814 110.662C260.43 111.339 259.802 111.843 259.058 112.07C246.057 116.361 241.321 127.338 239.887 131.858C238.642 135.768 235.354 149.091 245.185 156.041Z" fill="#2D44EB"/>
<path opacity="0.2" d="M227.94 176.902C247.492 169.121 270.306 162.898 295.405 158.68V95.0994C270.306 99.3176 247.492 105.54 227.94 113.315V176.902ZM239.776 123.382C246.654 111.527 258.915 105.913 260.88 108.114C282.875 105.121 293.008 128.544 278.081 147.886C270.286 157.999 255.843 165.728 244.433 160.147C244.245 160.274 244.04 160.376 243.824 160.449C239.534 161.556 227.561 144.48 239.802 123.382H239.776Z" fill="#2D44EB"/>
<path opacity="0.2" d="M362.948 88.9752V102.979C366.027 102.918 369.123 102.89 372.236 102.894C378.834 102.894 385.358 103.023 391.808 103.28V89.27C385.362 89.0167 378.839 88.8879 372.236 88.8835C369.123 88.8835 366.027 88.9141 362.948 88.9752Z" fill="#2D44EB"/>
<path d="M356.805 113.112V117.815C361.901 117.658 367.045 117.579 372.236 117.579C374.459 117.579 376.673 117.594 378.878 117.625V112.916C376.669 112.889 374.455 112.876 372.236 112.876C367.049 112.876 361.905 112.955 356.805 113.112Z" fill="#2D44EB"/>
<path opacity="0.2" d="M360.354 167.261V217.349C364.284 217.257 368.245 217.209 372.236 217.204C422.828 217.204 469.333 224.881 506.02 237.726V187.638C485.708 181.068 438.149 165.715 360.354 167.261ZM402.825 211.48C402.816 211.613 402.78 211.743 402.72 211.862C402.659 211.98 402.575 212.086 402.473 212.171C402.371 212.257 402.253 212.321 402.125 212.36C401.998 212.399 401.863 212.411 401.731 212.397C401.449 212.388 401.18 212.274 400.976 212.078C400.773 211.882 400.65 211.617 400.63 211.336V174.538C400.755 173.398 402.13 173.405 402.635 174.112C402.749 174.281 402.815 174.478 402.825 174.682V211.48ZM420.032 212.954C420.029 213.083 419.999 213.211 419.944 213.329C419.888 213.446 419.808 213.55 419.708 213.634C419.609 213.717 419.493 213.779 419.368 213.814C419.243 213.849 419.112 213.857 418.984 213.838C418.7 213.817 418.434 213.695 418.234 213.494C418.033 213.293 417.911 213.027 417.89 212.744V172.324C418.106 171.014 419.56 171.427 419.901 172.055C419.972 172.208 420.014 172.372 420.025 172.54L420.032 212.954ZM436.734 215.023C436.735 215.151 436.707 215.278 436.652 215.394C436.598 215.51 436.518 215.612 436.419 215.693C436.319 215.774 436.203 215.832 436.079 215.862C435.954 215.893 435.825 215.895 435.699 215.868V215.868C435.421 215.828 435.166 215.692 434.977 215.484C434.789 215.276 434.678 215.009 434.664 214.729V182.948C434.782 181.834 435.974 181.959 436.433 182.489C436.621 182.696 436.728 182.963 436.734 183.243V215.023ZM452.867 217.643C452.871 217.766 452.847 217.889 452.796 218.001C452.745 218.113 452.67 218.212 452.575 218.291C452.48 218.369 452.368 218.425 452.249 218.453C452.129 218.482 452.004 218.483 451.884 218.456C451.607 218.406 451.356 218.264 451.171 218.052C450.986 217.84 450.88 217.571 450.869 217.29V189.583C450.987 188.476 452.113 188.64 452.572 189.184C452.755 189.393 452.859 189.659 452.867 189.937V217.643ZM468.371 220.814C468.378 220.934 468.357 221.054 468.309 221.164C468.26 221.275 468.186 221.372 468.092 221.447C467.999 221.523 467.888 221.575 467.77 221.599C467.652 221.624 467.53 221.619 467.414 221.586C467.148 221.512 466.912 221.355 466.741 221.139C466.569 220.923 466.47 220.657 466.458 220.381V212.318C466.504 211.401 467.46 211.283 468.023 211.899C468.237 212.13 468.36 212.43 468.371 212.744V220.814ZM483.187 224.482C483.108 225.353 482.479 225.274 482.289 225.235C482.037 225.144 481.819 224.977 481.664 224.758C481.51 224.539 481.426 224.278 481.425 224.01V201.412C481.53 200.312 482.551 200.548 482.977 201.124C483.144 201.347 483.236 201.618 483.239 201.897L483.187 224.482ZM497.269 228.647C497.184 229.597 496.437 229.374 496.405 229.361C496.153 229.258 495.937 229.083 495.783 228.858C495.63 228.634 495.545 228.369 495.54 228.097V197.928C495.632 196.926 496.47 197.07 496.889 197.528C497.12 197.79 497.255 198.123 497.269 198.471V228.647Z" fill="#2D44EB"/>
<path d="M244.466 225.909C247.839 227.58 251.147 228.071 255.542 227.56C251.186 228.064 247.872 227.573 244.466 225.909Z" fill="#2D44EB"/>
<path d="M272.29 174.78C267.541 172.979 263.389 173.542 260.906 173.876C261.127 174.252 261.239 174.682 261.231 175.117C261.223 175.553 261.095 175.978 260.86 176.346C283.032 174.21 288.678 197.234 275.473 213.307C271.73 217.864 266.885 221.39 261.397 223.551H261.594C262.904 223.624 262.714 224.973 262.144 225.615C261.962 225.814 261.739 225.971 261.489 226.073C288.986 214.768 292.189 182.326 272.29 174.78Z" fill="#2D44EB"/>
<path d="M261.397 223.552C258.646 223.486 256.223 225.084 253.498 225.143C256.202 225.06 258.872 224.522 261.397 223.552Z" fill="#2D44EB"/>
<path d="M261.417 226.093C260.565 226.401 259.878 226.617 259.046 226.846C259.891 226.63 260.579 226.394 261.417 226.093Z" fill="#2D44EB"/>
<path d="M261.109 223.676C257.219 225.084 251.422 226.191 245.881 223.479C245.833 223.962 245.682 224.429 245.438 224.849C245.194 225.268 244.862 225.63 244.466 225.91C251.88 229.532 263.461 227.115 262.531 224.18C262.446 223.905 262.138 223.303 261.109 223.676Z" fill="#6383F7"/>
<path d="M259.059 173.293C232.787 181.979 227.999 217.532 242.514 226.093C244.092 227.023 246.346 224.724 245.822 222.72C245.664 222.143 245.592 222.065 244.381 221.233C243.169 220.401 237.529 215.796 238.42 204.648C239.223 196.551 242.974 189.03 248.959 183.518C251.857 180.891 255.309 178.95 259.059 177.839C259.514 177.697 259.929 177.45 260.271 177.118C262.184 175.186 261.018 172.737 259.059 173.293Z" fill="#E5EFFF"/>
<path d="M244.466 160.147C247.839 161.811 251.147 162.309 255.542 161.798C251.186 162.302 247.872 161.785 244.466 160.147Z" fill="#2D44EB"/>
<path d="M261.397 157.789C258.646 157.717 256.223 159.316 253.498 159.381C256.201 159.294 258.871 158.757 261.397 157.789Z" fill="#2D44EB"/>
<path d="M272.29 109.012C267.541 107.21 263.389 107.774 260.906 108.114C261.127 108.489 261.24 108.917 261.232 109.352C261.223 109.787 261.095 110.211 260.86 110.577C283.032 108.442 288.678 131.465 275.473 147.545C271.728 152.1 266.883 155.626 261.397 157.789C261.463 157.789 261.528 157.789 261.594 157.789C262.904 157.861 262.714 159.204 262.144 159.853C261.96 160.05 261.737 160.206 261.489 160.311C288.986 149.006 292.189 116.59 272.29 109.012Z" fill="#2D44EB"/>
<path d="M261.417 160.331C260.565 160.632 259.878 160.855 259.046 161.084C259.891 160.848 260.579 160.632 261.417 160.331Z" fill="#2D44EB"/>
<path d="M261.109 157.907C257.212 159.316 251.415 160.429 245.881 157.718C245.834 158.2 245.684 158.666 245.439 159.085C245.195 159.503 244.863 159.864 244.466 160.141C251.88 163.763 263.461 161.346 262.531 158.418C262.446 158.143 262.138 157.534 261.109 157.907Z" fill="#E5EFFF"/>
<path d="M259.059 107.531C232.78 116.217 227.992 151.77 242.514 160.331C244.092 161.261 246.345 158.962 245.821 156.958C245.664 156.375 245.592 156.303 244.38 155.464C243.169 154.626 237.529 150.034 238.42 138.86C239.223 130.761 242.973 123.238 248.959 117.723C251.856 115.096 255.309 113.155 259.059 112.044C259.515 111.909 259.931 111.663 260.271 111.33C262.183 109.424 261.017 106.975 259.059 107.531Z" fill="#6383F7"/>
<path d="M191.004 144.048C190.899 144.224 190.801 144.408 190.696 144.598C190.795 144.414 190.899 144.231 191.004 144.048Z" fill="#2D44EB"/>
<path d="M190.697 144.598C190.625 144.722 190.56 144.847 190.494 144.971L190.697 144.598Z" fill="#2D44EB"/>
<path d="M190.343 145.266L190.009 145.921C190.12 145.685 190.231 145.475 190.343 145.266Z" fill="#2D44EB"/>
<path d="M190.494 144.971L190.343 145.267C190.389 145.168 190.441 145.07 190.494 144.971Z" fill="#2D44EB"/>
<path d="M191.103 143.871L191.005 144.048L191.103 143.871Z" fill="#2D44EB"/>
<path d="M191.824 142.659L191.745 142.783L191.824 142.659Z" fill="#2D44EB"/>
<path d="M191.561 143.078L191.103 143.871L191.561 143.078Z" fill="#2D44EB"/>
<path d="M196.107 134.779C194.475 136.288 193.03 137.988 191.804 139.842C193.03 137.988 194.475 136.288 196.107 134.779V134.779Z" fill="#2D44EB"/>
<path d="M188.732 148.757C188.659 148.94 188.581 149.117 188.509 149.307L188.732 148.757Z" fill="#2D44EB"/>
<path d="M188.509 149.34C188.371 149.7 188.227 150.061 188.09 150.44C188.227 150.028 188.371 149.668 188.509 149.34Z" fill="#2D44EB"/>
<path d="M188.993 148.135C188.902 148.338 188.817 148.547 188.731 148.79C188.817 148.547 188.908 148.331 188.993 148.135Z" fill="#2D44EB"/>
<path d="M210.254 170.667C198.071 188.43 188.142 186.865 185.574 175.088C184.749 171.276 183.95 163.075 187.926 150.925C187.526 151.98 186.956 152.176 186.72 151.639C186.585 151.188 186.601 150.705 186.766 150.263C179.823 172.042 184.048 192.773 198.687 185.024C201.812 183.367 206.547 179.732 211.519 171.8C210.995 171.839 210.458 171.734 210.254 170.667Z" fill="#2D44EB"/>
<path d="M189.504 146.969C189.38 147.244 189.256 147.519 189.138 147.801L189.504 146.969Z" fill="#2D44EB"/>
<path d="M189.138 147.801C189.086 147.912 189.04 148.023 188.994 148.135C189.04 148.03 189.086 147.912 189.138 147.801Z" fill="#2D44EB"/>
<path d="M189.95 146C189.806 146.281 189.668 146.569 189.537 146.858C189.694 146.563 189.832 146.275 189.95 146Z" fill="#2D44EB"/>
<path d="M189.557 146.857C189.557 146.897 189.557 146.936 189.505 146.969L189.557 146.857Z" fill="#2D44EB"/>
<path d="M190.009 145.914L189.97 146L190.009 145.914Z" fill="#2D44EB"/>
<path d="M196.847 134.137C190.356 139.548 185.287 151.547 186.977 151.927C187.029 151.927 187.514 152.019 187.926 150.86C188.987 147.815 190.396 144.902 192.125 142.181C193.474 140.06 195.129 138.151 197.037 136.515C196.54 135.854 196.664 134.858 196.847 134.137Z" fill="#E5EFFF"/>
<path d="M199.166 131.472C195.236 133.843 196.913 136.712 197.535 136.803C197.846 136.805 198.146 136.693 198.38 136.489C202.965 133.371 206.64 134.341 208.002 134.904C211.231 136.214 213.74 139.528 214.88 143.936C216.137 148.803 216.432 156.99 210.681 168.401C209.751 170.248 210.249 172.042 211.618 171.774C215.463 171.021 224.993 145.449 214.362 133.489C212.456 131.347 207.157 126.854 199.166 131.472Z" fill="#6383F7"/>
<path d="M197.77 209.843C196.957 210.541 196.208 211.311 195.53 212.142C196.329 211.428 197.43 211.002 197.77 209.843Z" fill="#2D44EB"/>
<path d="M195.19 212.521C194.164 213.828 193.264 215.229 192.505 216.707C191.798 218.068 191.204 219.486 190.729 220.945C191.823 217.754 193.459 214.776 195.563 212.141C195.428 212.256 195.303 212.384 195.19 212.521Z" fill="#2D44EB"/>
<path d="M193.468 216.995C193.54 216.864 193.618 216.733 193.697 216.602C193.618 216.733 193.54 216.864 193.468 216.995Z" fill="#2D44EB"/>
<path d="M195.066 214.48L195.02 214.546C195.033 214.522 195.048 214.5 195.066 214.48V214.48Z" fill="#2D44EB"/>
<path d="M206.672 234.438C200.397 241.97 199.27 243.326 195.602 243.267C190.585 243.175 189.649 236.854 189.478 234.136C189.247 228.168 190.625 222.248 193.467 216.995C192.806 218.158 192.232 219.369 191.751 220.617C190.978 222.648 190.67 221.272 190.664 221.272C190.667 221.171 190.678 221.07 190.697 220.971C186.891 231.634 187.801 244.479 194.699 245.081C197.823 245.356 202.814 242.88 207.471 235.112C207.15 235.106 206.862 235.073 206.672 234.438Z" fill="#2D44EB"/>
<path d="M194.169 215.816C194.437 215.384 194.719 214.964 195.014 214.552C194.719 214.964 194.437 215.384 194.169 215.816Z" fill="#2D44EB"/>
<path d="M193.696 216.602C193.845 216.331 194.002 216.069 194.168 215.816C194.004 216.071 193.88 216.333 193.696 216.602Z" fill="#2D44EB"/>
<path d="M197.764 209.849C193.094 213.825 189.629 221.639 190.965 221.731C191.312 221.731 191.509 221.252 191.751 220.617C192.603 218.397 194.528 214.257 197.895 211.447C197.762 211.205 197.682 210.937 197.659 210.662C197.637 210.387 197.672 210.11 197.764 209.849Z" fill="#2D44EB"/>
<path d="M199.336 208.061C196.624 209.698 197.803 211.585 198.235 211.637C198.444 211.638 198.647 211.563 198.805 211.427C201.786 209.417 204.085 209.882 205.198 210.34C207.301 211.205 208.925 213.399 209.665 216.347C210.484 219.622 210.674 225.124 206.947 232.807C206.259 234.221 206.79 235.23 207.471 235.086C210.202 234.523 215.848 216.851 209.331 209.338C208.106 207.93 204.681 204.976 199.336 208.061Z" fill="#2D44EB"/>
<path d="M496.424 197.201C495.907 197.096 495.612 197.345 495.56 197.928V228.104C495.664 229.296 496.719 229.695 497.138 229.158C497.235 229.008 497.287 228.833 497.289 228.654V198.465C497.287 198.192 497.204 197.926 497.05 197.701C496.896 197.475 496.678 197.301 496.424 197.201V197.201Z" fill="#6383F7"/>
<path d="M482.29 200.659C481.74 200.574 481.445 200.823 481.393 201.413V224.01C481.504 225.261 482.703 225.51 483.056 224.999C483.153 224.846 483.205 224.669 483.207 224.488V201.897C483.204 201.621 483.114 201.352 482.95 201.129C482.785 200.907 482.554 200.742 482.29 200.659Z" fill="#6383F7"/>
<path d="M467.434 211.565C467.318 211.534 467.196 211.53 467.078 211.556C466.96 211.581 466.85 211.634 466.756 211.71C466.663 211.786 466.589 211.883 466.541 211.993C466.492 212.104 466.471 212.224 466.478 212.344V220.414C466.53 221.449 467.644 221.966 468.174 221.423C468.315 221.264 468.392 221.059 468.391 220.846V212.744C468.373 212.473 468.272 212.213 468.101 212.002C467.929 211.791 467.696 211.638 467.434 211.565Z" fill="#6383F7"/>
<path d="M451.878 188.771C451.757 188.745 451.632 188.747 451.512 188.777C451.392 188.806 451.281 188.862 451.185 188.941C451.09 189.02 451.014 189.119 450.963 189.231C450.912 189.344 450.886 189.466 450.889 189.59V217.296C450.879 217.512 450.932 217.727 451.043 217.912C451.154 218.098 451.317 218.247 451.512 218.341C451.707 218.435 451.925 218.469 452.139 218.439C452.354 218.409 452.554 218.317 452.716 218.174C452.82 218.018 452.879 217.837 452.887 217.65V189.95C452.879 189.667 452.775 189.396 452.591 189.182C452.408 188.967 452.156 188.822 451.878 188.771V188.771Z" fill="#6383F7"/>
<path d="M435.705 182.09C435.581 182.067 435.452 182.072 435.329 182.104C435.206 182.136 435.092 182.195 434.995 182.276C434.897 182.357 434.819 182.459 434.765 182.574C434.711 182.689 434.683 182.815 434.684 182.942V214.722C434.684 214.941 434.748 215.156 434.868 215.339C434.988 215.522 435.159 215.667 435.36 215.754C435.561 215.842 435.783 215.869 435.999 215.832C436.215 215.796 436.416 215.697 436.577 215.547C436.685 215.391 436.746 215.207 436.753 215.017V183.243C436.742 182.958 436.631 182.687 436.439 182.476C436.248 182.265 435.988 182.128 435.705 182.09V182.09Z" fill="#6383F7"/>
<path d="M418.977 171.44C418.848 171.418 418.715 171.424 418.589 171.459C418.462 171.493 418.344 171.554 418.244 171.638C418.143 171.722 418.061 171.827 418.005 171.945C417.948 172.063 417.918 172.193 417.916 172.324V212.744C417.928 212.972 418.009 213.192 418.148 213.374C418.288 213.555 418.479 213.691 418.697 213.762C418.914 213.832 419.148 213.836 419.368 213.771C419.588 213.706 419.782 213.577 419.927 213.399C419.999 213.256 420.041 213.1 420.051 212.94V172.527C420.037 172.245 419.92 171.979 419.722 171.778C419.524 171.577 419.259 171.457 418.977 171.44V171.44Z" fill="#6383F7"/>
<path d="M401.738 173.621C400.749 173.621 400.677 174.322 400.65 174.538V211.336C400.672 211.566 400.763 211.784 400.91 211.963C401.057 212.142 401.254 212.272 401.476 212.337C401.698 212.403 401.934 212.401 402.155 212.331C402.376 212.261 402.57 212.126 402.714 211.945C402.787 211.8 402.831 211.642 402.845 211.48V174.682C402.822 174.4 402.697 174.136 402.493 173.941C402.289 173.745 402.02 173.631 401.738 173.621V173.621Z" fill="#6383F7"/>
<path d="M306.324 154.089C311.306 153.412 316.187 152.13 320.859 150.27C325.817 148.305 325.817 148.305 327.906 145.489C319.837 149.772 314.806 151.475 306.324 152.779V154.089Z" fill="#72ABFE"/>
<path d="M488.237 129.598C487.863 129.782 487.628 129.9 487.241 130.116C493.031 136.712 498.298 140.399 506.013 143.262V141.952C498.658 139.227 493.673 135.768 488.237 129.598Z" fill="#72ABFE"/>
<path d="M357.774 135.768C340.089 136.613 330.867 143.805 329.026 146.248C334.43 144.441 339.022 140.877 344.452 139.142C348.777 137.846 353.26 137.147 357.774 137.065C365.51 136.829 369.977 138.022 371.654 138.467C376.651 139.777 380.915 142.823 385.749 144.526C385.422 144.159 377.451 135.172 357.774 135.768Z" fill="#72ABFE"/>
<path d="M470.021 104.263C466.604 100.604 462.109 98.131 457.189 97.2021C445.53 95.8397 439.007 103.451 427.865 119.931C417.575 135.146 407.855 149.517 387.059 143.583C388.683 147.218 402.595 147.238 411.759 141.218C414.929 139.135 414.929 139.135 435.339 111.854C445.74 97.9422 452.788 96.7894 460.785 99.5011C463.949 100.562 467.676 103.254 470.506 106.529C476.519 113.479 480.54 121.824 486.271 128.963L487.26 128.432C481.064 120.703 476.957 111.475 470.021 104.263Z" fill="#72ABFE"/>
<path d="M496.215 126.415C494.399 126.393 492.588 126.613 490.831 127.07C483.213 128.93 478.864 136.175 471.652 138.709C461.591 142.253 451.17 136.378 441.11 139.875C434.324 142.233 430.178 148.469 423.89 151.56C419.96 153.486 399.511 161.883 382.323 137.668C376.926 130.07 369.544 119.662 355.436 122.013C331.62 125.983 329.976 157.436 306.311 161.608V162.918C329.93 158.667 331.731 127.28 355.573 123.31C368.719 121.116 375.727 130.961 380.358 137.471C399.871 164.89 421.826 154.397 426.031 152.019C431.599 148.862 435.509 143.301 441.751 141.153C451.825 137.701 462.259 143.511 472.327 139.96C479.276 137.511 483.396 130.483 490.706 128.616L492.547 128.144C493.924 127.883 495.324 127.764 496.726 127.791C499.887 127.923 503.009 128.544 505.981 129.631V128.321C504.271 127.764 500.741 126.598 497.4 126.461C497.073 126.415 496.582 126.415 496.215 126.415Z" fill="#6383F7"/>
<path d="M259.06 189.17C246.988 193.1 243.647 208.978 251.494 213.582C260.252 218.711 273.457 206.98 271.144 196.146C269.933 190.605 264.745 187.625 259.06 189.17Z" fill="#2D44EB"/>
<path opacity="0.2" d="M306.324 98.4988C322.567 96.2234 338.919 94.8088 355.312 94.261V89.1716C338.919 89.7162 322.567 91.1308 306.324 93.4095V98.4988Z" fill="#2D44EB"/>
<path opacity="0.2" d="M306.324 107.715C322.567 105.44 338.919 104.03 355.312 103.49V98.4006C338.919 98.9463 322.567 100.359 306.324 102.632V107.715Z" fill="#2D44EB"/>
<path opacity="0.2" d="M306.324 116.931C314.721 115.738 323.332 114.776 332.157 114.042V108.953C323.341 109.686 314.73 110.647 306.324 111.835V116.931Z" fill="#2D44EB"/>
<path d="M164.458 216.039V221.128C168.591 228.15 174.525 234.844 182.025 241.125V236.036C174.525 229.755 168.591 223.054 164.458 216.039Z" fill="#2D44EB"/>
<path d="M164.458 225.255V230.337C168.591 237.352 174.525 244.053 182.025 250.335V245.252C174.525 238.97 168.591 232.27 164.458 225.255Z" fill="#2D44EB"/>
<path d="M164.458 234.49V239.573C168.591 246.588 174.525 253.289 182.025 259.57V254.468C174.525 248.186 168.591 241.486 164.458 234.49Z" fill="#2D44EB"/>
<path d="M164.458 254.14V259.229C171.329 269.349 171.525 269.539 182.025 279.227V274.137C174.525 267.895 168.591 261.181 164.458 254.14Z" fill="#2D44EB"/>
<path d="M164.458 263.382V268.472C168.591 275.487 174.525 282.187 182.025 288.469V283.379C174.525 277.098 168.591 270.397 164.458 263.382Z" fill="#2D44EB"/>
<path d="M168.047 278.009V283.098C172.219 288.633 172.403 288.803 182.025 297.685V292.595C176.805 288.303 172.113 283.406 168.047 278.009Z" fill="#2D44EB"/>
<path d="M158.976 287.611V292.7C161.962 304.575 169.966 315.71 182.025 325.817V320.727C169.966 310.627 161.962 299.446 158.976 287.611Z" fill="#2D44EB"/>
<path d="M158.976 296.827V301.916C161.962 313.758 169.966 324.933 182.025 335.033V329.943C169.966 319.843 161.962 308.663 158.976 296.827Z" fill="#2D44EB"/>
<path d="M168.047 324.572V329.662C172.113 335.059 176.805 339.956 182.025 344.248V339.159C176.805 334.867 172.113 329.97 168.047 324.572V324.572Z" fill="#2D44EB"/>
<path d="M299.335 177.865C296.65 176.889 291.41 176.555 289.582 174.708C287.755 172.861 287.08 169.966 285.083 167.968C283.085 165.971 279.43 166.423 283.412 170.405C287.395 174.387 286.962 186.053 283.969 184.959C280.976 183.865 280.255 183.61 279.175 184.684C278.094 185.758 288.58 190.35 291.063 198.819L302.041 197.057C302.041 197.057 299.335 191.575 299.335 188.64C299.335 185.706 302.001 178.848 299.335 177.865Z" fill="#6383F7"/>
<path d="M245.514 244.97C243.948 245.527 242.972 247.793 243.025 249.018C243.077 250.243 237.261 245.088 233.304 241.544C229.348 238.001 220.912 236.874 219.89 237.47C218.868 238.066 219.052 240.988 225.294 242.088C223.128 242.704 221.004 243.456 218.934 244.341C216.576 245.461 216.641 254.068 220.742 254.651C224.842 255.234 229.663 258.764 232.944 260.939C236.226 263.114 242.815 266.356 242.815 266.356L251.245 258.07C247.728 254.31 247.073 244.394 245.514 244.97Z" fill="#6383F7"/>
<path d="M380.32 572.293C385.049 570.57 394.854 564.544 394.854 548.183L397.435 545.307L388.92 546.532C391.54 557.097 384.066 564.217 379.75 567.138C376.174 569.536 371.569 569.699 368.137 572.85C372.283 573.125 377.66 573.262 380.32 572.293Z" fill="#E5EFFF"/>
<path d="M380.32 572.293C377.66 573.263 372.283 573.138 368.084 572.85C367.291 573.575 366.607 574.411 366.054 575.332C362.615 581.018 378.066 582.046 384.394 580.5C390.328 579.04 395.411 572.477 402.786 571.199C403.441 572.654 404.273 574.664 404.784 576.02C405.661 578.332 413.954 575.555 413.954 573.918C413.895 571.743 414.687 565.835 414.013 563.621C413.995 563.56 413.966 563.502 413.928 563.451C413.822 562.745 413.626 562.056 413.345 561.401C411.19 556.403 403.86 544.371 403.86 544.371L397.487 545.288L394.906 548.163C394.854 564.545 385.049 570.571 380.32 572.293Z" fill="#FF9191"/>
<path d="M389.607 486.927C387.4 475.137 378.249 454.832 363.204 439.269C361.751 437.763 360.834 435.82 360.598 433.741C360.361 431.661 360.816 429.562 361.894 427.767C368.117 417.353 383.378 406.152 394.827 397.572C399.321 389.332 403.342 382.31 404.718 379.54C414.687 359.53 397.408 351.447 388.343 331.672C379.278 311.898 364.108 359.392 357.866 384.361C346.161 430.944 349.659 433.643 353.281 444.332C357.558 457.033 364.966 472.648 365.477 474.724C365.988 476.801 386.836 534.329 388.959 546.532C389.398 549.067 392.057 549.715 395.011 549.368C393.74 533.825 391.69 498.128 389.607 486.927Z" fill="#6383F7"/>
<path d="M361.868 427.767C360.791 429.561 360.335 431.661 360.572 433.74C360.809 435.82 361.725 437.763 363.178 439.269C378.243 454.825 387.374 475.111 389.581 486.927C391.69 498.127 393.741 533.825 394.965 549.368C399.197 548.877 404.037 546.348 403.828 544.39C402.747 534.486 400.409 489.37 398.005 476.486C395.601 463.602 381.217 443.802 378.44 436.656C376.639 432.031 386.549 412.735 394.815 397.572C383.352 406.172 368.11 417.353 361.868 427.767Z" fill="#2D44EB"/>
<path d="M405.858 490.595C414.943 494.977 420.864 511.693 419.181 522.454C418.565 526.384 413.908 537.919 418.119 538.633C417.576 537.205 417.838 535.41 419.488 533.111C424.951 525.5 428.56 511.07 430.957 506.073C431.704 504.507 432.647 501.245 434.756 497.918L438.863 500.656L439.577 500.001C444.496 495.219 444.359 491.335 436.014 488.683C428.043 486.148 413.646 478.491 413.646 478.491L404.705 481.89L405.858 490.595Z" fill="#6383F7"/>
<path d="M430.99 506.059C428.592 511.057 424.983 525.487 419.521 533.098C417.87 535.397 417.608 537.192 418.152 538.62C418.483 538.678 418.822 538.678 419.154 538.62C427.557 537.31 435.28 519.435 435.175 509.184C435.116 503.046 435.031 504.271 438.895 500.669L434.789 497.931C432.647 501.232 431.704 504.494 430.99 506.059Z" fill="#2D44EB"/>
<path d="M339.604 464.834C328.757 453.987 328.01 454.55 325.908 450.424C324.67 448 334.37 423.759 335.844 422.154C337.318 420.549 346.324 420.425 351.695 418.702C357.066 416.979 357.44 417.792 362.11 412.486C366.099 407.967 393.281 384.374 392.528 348.152L350.641 359.398C350.641 359.398 299.655 442.917 309.821 455.683C314.753 461.899 324.113 464.853 339.794 469.714C341.759 470.316 344.15 471.024 346.894 471.888C343.94 469.098 341.451 466.681 339.604 464.834Z" fill="#6383F7"/>
<path d="M362.11 412.506C357.44 417.811 357.047 416.999 351.696 418.722C346.344 420.444 337.286 420.575 335.845 422.174C334.404 423.772 324.67 448.02 325.908 450.443C328.011 454.55 328.758 453.987 339.604 464.853C341.451 466.7 343.94 469.117 346.894 471.934C366.322 477.829 402.386 488.597 405.845 490.601C405.845 490.601 406.938 481.051 413.632 478.471C408.242 475.491 403.65 469.792 381.57 457.393C359.49 444.994 353.707 447.568 344.779 445.511C335.851 443.454 434.01 372.446 413.646 342.506L392.528 348.172C393.282 384.393 366.099 407.986 362.11 412.506Z" fill="#2D44EB"/>
<path d="M317.825 246.935C314.982 245.887 309.644 241.04 301.895 219.425C297.861 208.172 295.162 200.764 292.869 195.701C292.449 196 292.051 196.328 291.677 196.683C288.92 199.303 295.751 217.198 297.867 229.984C299.983 242.769 304.109 252.496 307.731 253.826C311.354 255.155 325.652 256.76 325.652 256.76L331.233 249.372C325.246 248.435 319.181 247.4 317.825 246.935Z" fill="#6383F7"/>
<path d="M317.826 246.935C319.182 247.426 325.247 248.461 331.234 249.398L339.094 238.996C339.094 238.996 322.916 240.614 320.296 236.652C317.021 231.68 304.019 201.216 304.019 201.216C300.862 192.157 295.903 193.454 292.884 195.655C295.176 200.718 297.875 208.1 301.91 219.379C309.645 241.001 314.984 245.861 317.826 246.935Z" fill="#E5EFFF"/>
<path d="M375.138 228.313C378.367 230.508 384.02 232.42 388.69 233.75C387.125 224.403 384.76 223.741 380.981 223.106C376.913 222.418 370.363 207.347 368.025 203.109C367.317 201.832 365.837 201.36 364.095 201.465C364.782 208.12 367.199 222.903 375.138 228.313Z" fill="#FF9191"/>
<path d="M356.281 233.593C359.857 228.117 359.314 216.766 355.98 211.447L353.871 209.043C353.032 214.48 353.943 225.346 351.768 227.73C347.949 231.916 346.62 232.315 346.456 232.315L349.279 231.798C351.671 232.14 354.019 232.742 356.281 233.593Z" fill="#6383F7"/>
<path d="M356.281 233.593C361.966 235.623 368.595 239.193 372.715 243.752C378.774 250.439 390.354 245.848 389.031 236.042C388.919 235.224 388.808 234.464 388.69 233.75C384.02 232.44 378.367 230.508 375.138 228.313C367.2 222.903 364.783 208.12 364.088 201.458C360.027 201.707 354.519 205.074 353.903 208.827C353.899 208.897 353.899 208.967 353.903 209.037L356.012 211.441C359.313 216.766 359.857 228.117 356.281 233.593Z" fill="#2D44EB"/>
<path d="M342.565 269.86C342.705 269.708 342.836 269.548 342.958 269.382V269.382L342.565 269.86Z" fill="#FF9191"/>
<path d="M290.166 291.377C299.093 290.676 312.907 266.644 315.285 263.972C317.663 261.299 331.3 241.047 339.094 238.97C350.884 235.8 355.777 231.942 357.329 230.455C356.449 230.523 355.574 230.646 354.709 230.822C349.083 231.995 346.469 232.165 339.389 233.94C327.861 236.835 317.964 257.002 311.486 263.638C305.008 270.273 294.58 282.633 292.006 280.203C281.526 270.181 256.525 260.166 251.396 256.361C246.739 252.922 242.357 258.221 242.285 263.389C255.922 271.17 282.961 291.934 290.166 291.377Z" fill="#E5EFFF"/>
<path d="M387.976 427.328C387.976 427.328 374.221 413.862 349.94 432.333C363.781 423.667 377.267 428.311 388.441 433.132C388.129 431.213 387.973 429.272 387.976 427.328V427.328Z" fill="#FF9191"/>
<path d="M403.362 236.913C399.203 229.8 390.38 224.331 381.996 223.355C381.112 223.257 380.686 225.078 380.273 226.964C388.631 229.492 397.127 234.077 404.777 239.448C404.292 238.544 403.814 237.693 403.362 236.913Z" fill="#FF9191"/>
<path d="M343.443 369.42C384.249 352.704 375.97 336.015 377.28 318.919C377.935 310.11 376.625 301.785 352.744 290.099C339.067 283.418 346.548 264.869 342.919 269.329C342.775 269.546 342.035 271.026 341.19 279.757C340.784 283.929 342.447 290.145 350.602 296.171C357.08 300.953 365.313 315.258 357.807 329.314C355.449 333.742 342.251 350.641 339.054 353.903C309.926 383.627 260.146 364.625 285.75 412.774C286.405 414.084 288.442 416.613 291.475 419.619C305.073 401.449 328.443 375.551 343.443 369.42Z" fill="#E5EFFF"/>
<path d="M349.94 432.333C374.215 413.862 387.976 427.328 387.976 427.328C387.976 360.25 374.215 413.862 349.94 432.333Z" fill="#FF9191"/>
<path d="M387.977 427.328C387.974 429.272 388.129 431.213 388.442 433.132C398.476 437.461 406.651 441.928 411.557 437.022C411.557 437.022 412.107 414.982 414.255 398.908C418.133 369.878 423.759 346.6 411.878 326.347C400.743 307.391 409.605 296.741 411.524 276.921C413.247 259.236 408.727 246.955 404.777 239.461C397.127 234.09 388.632 229.505 380.274 226.977C379.822 228.89 379.324 230.868 378.204 231.032C370.999 232.066 363.964 229.905 357.323 230.435C355.77 231.942 350.897 235.8 339.087 238.95C331.293 241.04 317.675 261.293 315.278 263.965C312.881 266.637 299.087 290.676 290.165 291.377C282.96 291.933 255.929 271.157 242.233 263.369C242.177 264.469 242.378 265.567 242.819 266.576C243.26 267.585 243.929 268.478 244.774 269.185C251.946 274.936 279.561 292.929 285.351 297.173C296.047 305.001 297.868 301.758 299.696 300.33C301.523 298.903 306.979 295.451 314.178 289.733C321.062 284.27 338.878 273.895 342.565 269.86L342.965 269.375C346.574 264.915 339.094 283.464 352.79 290.145C376.652 301.811 378.008 310.136 377.326 318.965C375.97 336.015 384.25 352.704 343.443 369.42C328.444 375.557 305.073 401.456 291.508 419.678C302.375 430.453 326.413 447.083 349.941 432.339C374.215 413.862 387.977 360.25 387.977 427.328Z" fill="#6383F7"/>
<path d="M383.333 232.525C368.923 228.503 363.938 213.294 361.521 207.812C356.877 197.28 345.205 192.695 343.371 192.033C348.166 197.214 356.203 206.332 357.283 210.419C359.864 220.146 360.558 222.274 366.84 230.35C371.458 236.304 387.571 235.97 393.859 245.867C396.016 249.252 398.051 252.339 399.963 255.129C396.42 244.178 391.245 234.746 383.333 232.525Z" fill="#2D44EB"/>
<path d="M342.454 173.437C351.847 172.579 348.677 179.391 358.737 183.328C390.38 195.701 374.215 213.189 409.67 216.019C432.235 217.814 424.971 240.509 451.282 241.512C458.441 241.787 464.002 241.918 467.795 242.363C468.62 235.047 465.319 225.045 458.494 218.482C442.119 202.762 437.829 223.571 427.001 185.732C424.152 197.718 415.316 179.241 395.496 188.66C389.942 191.28 373.671 148.875 340.371 167.457C336.638 169.54 330.192 174.106 340.07 188.588C340.555 189.085 341.616 190.186 342.978 191.653L339.048 182.391C335.858 182.961 334.398 174.171 342.454 173.437Z" fill="#2D44EB"/>
<path d="M361.52 207.831C363.937 213.314 368.909 228.523 383.332 232.545C391.244 234.745 396.432 244.177 399.962 255.149C413.233 274.386 421.577 279.737 430.872 274.55C443.88 267.345 437.35 251.585 458.939 251.69C464.323 251.69 467.185 247.76 467.794 242.363C464.002 241.918 458.441 241.787 451.282 241.512C424.97 240.509 432.234 217.814 409.669 216.019C374.214 213.189 390.38 195.714 358.737 183.328C348.676 179.398 351.846 172.579 342.453 173.437C334.397 174.171 335.857 182.961 339.067 182.365L342.997 191.627L343.39 192.053C345.185 192.714 356.876 197.299 361.52 207.831Z" fill="#2B0838"/>
<path d="M340.37 167.431C373.671 148.849 389.941 191.273 395.495 188.633C415.316 179.215 424.151 197.692 427.001 185.706C424.42 176.673 407.01 175.586 397.296 170.857C387.583 166.128 390.779 164.785 373.291 157.685C355.802 150.585 340.318 163.527 336.218 169.475C332.622 174.715 331.731 179.955 340.069 188.542C330.192 174.079 336.67 169.514 340.37 167.431Z" fill="#6383F7"/>
<path d="M344.668 192.871C346.272 191.247 342.67 190.369 340.299 185.706C340.794 187.101 341.027 188.575 340.987 190.055C340.449 194.797 338.301 195.445 338.891 200.26C339.264 203.286 342.12 219.536 347.406 219.379C347.74 219.379 348.061 219.379 348.375 219.327C342.644 210.962 338.766 198.851 344.668 192.871Z" fill="#6383F7"/>
<path d="M344.668 192.871C338.773 198.851 342.644 210.962 348.395 219.327C350.451 219.15 352.501 218.501 358.292 216.15C358.75 215.96 358.482 209.312 354.781 204.897C357.145 201.792 355.573 197.653 354.375 194.81C350.726 186.105 348.945 194.515 347.91 191.882C343.62 180.983 342.952 180.505 339.067 182.365C339.538 183.456 339.949 184.571 340.299 185.706C342.67 190.369 346.272 191.26 344.668 192.871ZM352.292 194.181C353.287 195.852 354.846 203.639 351.722 202.231C350.346 201.576 349.862 198.91 349.757 197.646C349.416 192.852 351.303 192.491 352.292 194.168V194.181Z" fill="#2D44EB"/>
<path d="M351.735 202.218C354.859 203.626 353.3 195.838 352.305 194.168C351.309 192.498 349.429 192.858 349.783 197.646C349.862 198.897 350.346 201.596 351.735 202.218Z" fill="#6383F7"/>
<path d="M351.735 202.218C354.859 203.626 353.3 195.838 352.305 194.168C351.309 192.498 349.429 192.858 349.783 197.646C349.862 198.897 350.346 201.596 351.735 202.218Z" fill="#6383F7"/>
<path d="M441.595 491.905C439.734 490.536 430.754 500.374 434.619 503.695C435.988 504.88 438.929 505.758 441.018 507.088C443.108 508.417 448.754 502.68 447.739 501.396C446.389 499.699 443.435 493.267 441.595 491.905Z" fill="#FF9191"/>
<path d="M441.595 491.905C439.734 490.536 430.754 500.374 434.619 503.695C435.988 504.88 438.929 505.758 441.018 507.088C443.108 508.417 448.754 502.68 447.739 501.396C446.389 499.699 443.435 493.267 441.595 491.905Z" fill="#6383F7"/>
<path d="M441.018 507.101C442.872 508.555 448.072 503.381 447.856 501.756C447.45 498.704 439.917 506.23 441.018 507.101Z" fill="#2D44EB"/>
<path d="M360.551 313.987L359.955 324.048C371.313 345.919 409.604 321.991 409.604 321.991C408.497 319.758 406.984 313.987 406.984 313.987C376.743 332.504 360.551 321.153 360.551 313.987Z" fill="#2B0838"/>
<path d="M360.551 313.987L359.955 324.048C363.623 331.109 370.094 333.395 377.182 333.218V324.048C366.243 323.956 360.551 318.238 360.551 313.987Z" fill="#2D44EB"/>
</svg>
