<svg width="1033" height="1033" viewBox="0 0 1033 1033" fill="none" xmlns="http://www.w3.org/2000/svg">
<path d="M711.272 315.532C690.517 295.433 666.325 277.317 640.678 264.62C503.565 196.745 332.495 254.526 264.62 391.64C196.744 528.753 254.526 699.823 391.639 767.699C527.766 835.086 699.823 777.792 766.721 642.652C811.646 551.9 802.825 438.228 745.397 355.76L718.412 378.018C767.431 450.183 774.221 548.112 736.132 625.053C678.023 742.438 524.65 794.242 407.265 736.133C289.88 678.024 238.076 524.651 296.186 407.266C354.295 289.881 507.667 238.077 626.039 296.674C657.604 312.3 685.264 335.818 708.508 363.291L776.219 308.382C745.552 271.094 707.032 239.744 663.629 218.258C500.868 137.687 298.829 205.929 218.258 368.689C137.686 531.45 205.928 733.489 368.689 814.061C530.463 894.144 733.489 826.39 813.083 665.602C861.426 567.946 858.485 447.359 805.93 352.566L819.671 342.174C877.168 441.87 880.139 569.841 828.866 673.415C744.877 843.081 531.528 914.321 360.876 829.843C190.224 745.366 117.997 531.528 202.475 360.876C286.953 190.224 500.79 117.997 671.442 202.475C716.818 224.938 758.297 257.753 789.96 297.99L817.931 276.22C782.312 231.568 737.376 195.814 687.068 170.91C498.66 77.6422 264.177 156.843 170.909 345.25C77.6416 533.658 156.842 768.142 345.25 861.409C532.671 954.188 768.141 875.476 860.432 689.041C922.936 562.779 910.491 404.327 828.323 289.962L759.626 344.382C821.508 432.739 829.372 553.307 781.518 649.976C710.224 793.995 529.32 854.277 384.315 782.495C239.31 710.713 178.042 529.32 249.823 384.315C321.605 239.31 502.998 178.042 648.003 249.824C676.609 263.985 703.263 282.092 725.501 304.154L711.272 315.532Z" fill="#E2E2E2"/>
<path fill-rule="evenodd" clip-rule="evenodd" d="M217.182 743.791C167.603 800.791 139.401 837.604 143.557 842.057C147.713 846.51 193.432 817.713 263.792 766.947C341.573 711.135 443.698 627.415 552.058 529.149C660.418 430.883 753.34 337.07 816.575 265.226C873.575 199.913 906.825 157.164 902.669 152.711C898.512 148.257 852.794 177.054 782.434 227.82C777.981 231.086 773.231 234.351 768.481 237.914C776.497 244.742 786.813 257.804 794.235 265.226C786.516 274.132 779.204 280.965 770.298 290.465C767.923 288.09 761.95 282.148 759.575 280.07C692.481 213.866 611.73 181.804 517.62 181.804C423.807 181.804 343.058 214.163 275.964 280.07C209.463 345.383 175.916 424.649 175.916 517.868C175.916 603.962 207.385 684.163 263.792 746.507C251.311 755.584 231.976 768.657 231.976 768.657C231.976 768.657 230.3 768.657 217.182 743.791ZM803.512 332.617C806.585 337.127 809.529 341.691 812.346 346.309C843.269 397.009 858.732 454.172 858.732 517.571C858.732 610.79 825.481 689.759 759.278 755.369C692.184 821.572 611.434 853.635 517.324 853.635C436.574 853.635 365.62 829.588 304.761 780.901C381.058 724.494 476.058 646.118 575.809 555.571C663.981 475.711 742.653 398.227 803.512 332.617ZM517.324 891.041C585.012 891.041 649.137 875.01 707.622 840.869C764.622 807.619 810.637 762.494 844.481 706.087C879.216 648.493 895.544 585.259 895.544 517.868C895.544 450.477 879.216 387.242 844.481 329.648C842.983 327.181 841.459 324.714 839.909 322.263C836.236 316.454 832.416 310.732 828.45 305.304C833.496 299.961 838.247 294.321 842.7 289.274C913.06 209.117 947.2 149.444 928.794 128.96C910.388 108.475 847.45 136.976 761.059 199.023C753.934 204.07 746.512 209.711 739.091 215.055C728.997 207.93 718.606 201.101 707.622 194.866C649.137 160.726 585.012 144.694 517.324 144.694C449.933 144.694 386.401 160.726 327.917 194.866C270.917 228.117 224.9 273.242 191.057 329.648C156.322 387.242 139.995 450.774 139.995 517.868C139.995 585.259 156.322 648.493 191.057 706.087C192.541 708.759 194.322 711.134 195.807 713.806C130.197 790.103 98.7286 846.509 116.541 866.4C134.354 885.994 192.838 860.76 274.182 803.463C290.807 817.416 308.62 829.885 327.917 841.166C386.401 875.01 449.933 891.041 517.324 891.041Z" fill="#FFC08D"/>
<path fill-rule="evenodd" clip-rule="evenodd" d="M812.345 346.309C812.163 346.011 811.981 345.713 811.798 345.416C810.677 343.591 809.535 341.774 808.374 339.966C806.79 337.501 805.169 335.052 803.511 332.618C800.116 336.279 796.665 339.976 793.16 343.709C733.844 406.881 659.061 480.167 575.808 555.571C481.338 641.326 391.128 716.163 317.031 771.76C312.89 774.868 308.799 777.915 304.76 780.901C308.788 784.124 312.861 787.239 316.978 790.246C375.056 832.667 441.918 853.635 517.323 853.635C611.433 853.635 692.183 821.573 759.277 755.369C825.481 689.76 858.731 610.79 858.731 517.571C858.731 454.173 843.269 397.01 812.345 346.309ZM748.882 744.86C812.305 682.002 843.949 606.805 843.949 517.571C843.949 457.792 829.666 404.196 801.305 356.625C742.103 419.491 668.01 492.005 585.743 566.516C492.484 651.171 403.26 725.315 329.386 780.965C383.952 819.673 446.505 838.854 517.323 838.854C607.659 838.854 684.64 808.243 748.882 744.86ZM842.699 289.274C841.439 290.703 840.155 292.178 838.847 293.681C835.534 297.49 832.068 301.473 828.449 305.305C832.416 310.733 836.235 316.455 839.908 322.263C841.244 324.376 842.561 326.5 843.858 328.626C844.066 328.967 844.273 329.308 844.48 329.649C879.215 387.243 895.543 450.478 895.543 517.868C895.543 585.259 879.215 648.494 844.48 706.088C810.637 762.494 764.621 807.62 707.621 840.87C649.136 875.011 585.011 891.042 517.323 891.042C449.932 891.042 386.401 875.011 327.916 841.167C308.619 829.886 290.807 817.416 274.182 803.463C192.838 860.76 134.353 885.995 116.541 866.401C98.728 846.51 130.196 790.104 195.806 713.807C195.064 712.471 194.247 711.209 193.431 709.948C192.615 708.686 191.798 707.424 191.056 706.088C156.321 648.494 139.994 585.259 139.994 517.868C139.994 450.774 156.321 387.243 191.056 329.649C224.9 273.243 270.916 228.117 327.916 194.867C386.401 160.726 449.932 144.695 517.323 144.695C585.011 144.695 649.136 160.726 707.621 194.867C718.605 201.101 728.996 207.93 739.09 215.055C742.371 212.693 745.652 210.272 748.908 207.87C753.016 204.84 757.083 201.839 761.058 199.024C847.449 136.977 910.387 108.476 928.793 128.96C947.2 149.445 913.059 209.118 842.699 289.274ZM752.476 186.989C795.981 155.745 834.32 132.393 864.612 119.45C879.683 113.01 893.678 108.742 905.829 107.803C917.883 106.871 930.819 109.099 939.788 119.081C948.701 128.999 949.654 142.032 947.559 153.941C945.447 165.943 939.863 179.45 932.004 193.83C916.207 222.734 889.257 258.641 853.808 299.026L853.796 299.04L853.783 299.054C852.658 300.33 851.457 301.71 850.199 303.156C849.259 304.236 848.287 305.353 847.291 306.49C849.035 309.101 850.739 311.733 852.402 314.363C854.007 316.902 855.579 319.446 857.116 321.978L857.139 322.015C893.361 382.077 910.325 447.985 910.325 517.868C910.325 587.751 893.362 653.658 857.141 713.718C821.998 772.28 774.177 819.158 715.073 853.636C654.16 889.194 587.43 905.824 517.323 905.824C447.486 905.824 381.376 889.182 320.513 853.961L320.484 853.945L320.456 853.928C303.828 844.207 288.225 833.611 273.49 821.963C236.287 847.607 203.508 866.687 177.12 877.453C162.918 883.247 149.656 887.017 138.054 887.65C126.464 888.283 114.225 885.829 105.603 876.344L105.566 876.303L105.529 876.262C96.9255 866.655 95.7546 854.131 97.5852 842.582C99.4203 831.003 104.561 818.052 111.828 804.336C125.384 778.751 147.981 747.493 177.597 712.388C141.925 652.685 125.212 587.235 125.212 517.868C125.212 448.294 142.169 382.094 178.388 322.031C213.532 263.464 261.356 216.582 320.464 182.101C381.353 146.557 447.484 129.913 517.323 129.913C587.4 129.913 654.104 146.529 714.996 182.056C723.284 186.763 731.202 191.765 738.846 196.923C739.182 196.675 739.519 196.427 739.856 196.178C744.155 193.009 748.555 189.767 752.476 186.989ZM206.816 755.777C210.158 751.889 213.614 747.893 217.181 743.792C219.894 748.934 222.117 753.013 223.938 756.248C224.21 756.733 224.474 757.198 224.729 757.646C225.129 758.348 225.507 759.005 225.865 759.62C231.122 768.657 231.975 768.657 231.975 768.657C231.975 769.678 231.975 770.628 231.974 771.513C231.974 771.512 231.975 771.512 231.975 771.512V768.657C231.975 768.657 241.605 762.147 251.659 755.125C255.851 752.196 260.118 749.179 263.791 746.508C260.465 742.832 257.225 739.093 254.074 735.295C203.783 674.685 175.916 598.886 175.916 517.868C175.916 424.649 209.463 345.383 275.963 280.07C343.057 214.164 423.807 181.804 517.62 181.804C611.729 181.804 692.48 213.867 759.574 280.07C759.611 280.103 759.649 280.136 759.688 280.17C762.134 282.332 767.958 288.127 770.297 290.465C770.297 290.465 770.297 290.465 770.297 290.466C773.727 286.807 776.92 283.545 779.991 280.407C780.181 280.212 780.371 280.018 780.561 279.824C785.252 275.03 789.672 270.491 794.234 265.227C791.301 262.294 787.917 258.48 784.401 254.519C782.625 252.519 780.817 250.482 779.016 248.5C775.357 244.475 771.73 240.682 768.48 237.914C771.252 235.836 774.024 233.858 776.737 231.922C778.088 230.958 779.424 230.005 780.738 229.055C781.308 228.643 781.873 228.232 782.434 227.821C827.853 195.05 863.003 171.434 883.335 160.007C885.249 158.931 887.033 157.963 888.681 157.105C896.642 152.963 901.447 151.403 902.668 152.711C903.893 154.024 901.869 158.662 896.946 166.224C895.933 167.779 894.798 169.458 893.543 171.258C880.197 190.393 853.321 223.121 816.574 265.227C753.339 337.071 660.417 430.884 552.057 529.15C443.698 627.416 341.572 711.135 263.791 766.948C217.961 800.015 182.586 823.761 162.342 835.069C160.625 836.028 159.018 836.897 157.522 837.675C149.574 841.808 144.776 843.364 143.556 842.058C142.238 840.646 144.174 835.98 149.013 828.448C149.938 827.01 150.968 825.467 152.101 823.823C162.403 808.875 181.252 785.516 206.816 755.777ZM214.528 769.491C204.117 781.658 194.943 792.638 187.125 802.293C197.21 795.641 208.659 787.843 221.327 778.995C221.081 778.755 220.87 778.535 220.695 778.347C219.514 777.08 218.371 775.52 217.174 773.712C216.436 772.598 215.564 771.216 214.528 769.491ZM858.309 192.998C844.544 210.047 826.707 231.134 805.46 255.48C805.45 255.492 805.439 255.504 805.429 255.516L804.686 254.774C802.095 252.183 799.111 248.822 795.649 244.922C794.672 243.822 793.658 242.68 792.603 241.5C792.106 240.943 791.6 240.378 791.085 239.806C791.1 239.796 791.115 239.785 791.129 239.774C817.363 220.847 840.037 205.073 858.309 192.998ZM762.105 303.178L759.845 300.918C757.284 298.357 751.748 292.864 749.84 291.195L749.507 290.903L749.192 290.592C684.948 227.201 607.962 196.586 517.62 196.586C427.611 196.586 350.602 227.473 286.321 290.616L286.321 290.616C222.626 353.173 190.698 428.649 190.698 517.868C190.698 600.276 220.79 676.948 274.752 736.591L276.967 739.039C351.024 684.177 443.928 607.252 542.127 518.2C627.484 440.794 703.14 366.243 762.105 303.178Z" fill="#030D11"/>
</svg>
