<?xml version="1.0" encoding="UTF-8"?>
<svg width="767px" height="316px" viewBox="0 0 767 316" version="1.1" xmlns="http://www.w3.org/2000/svg" xmlns:xlink="http://www.w3.org/1999/xlink">
    <!-- Generator: Sketch 62 (91390) - https://sketch.com -->
    <title>christian-wiediger-WkfDrhxDMC8-unsplash Copy</title>
    <desc>Created with Sketch.</desc>
    <defs>
        <linearGradient x1="50%" y1="0%" x2="50%" y2="100%" id="linearGradient-1">
            <stop stop-color="#FFCC40" offset="0%"></stop>
            <stop stop-color="#D636FC" offset="100%"></stop>
        </linearGradient>
        <path d="M429.342527,309.208038 C445.637202,309.208038 458.845821,322.364691 458.845821,338.594438 L458.845821,338.594438 L458.845821,511.612778 C458.845821,527.842524 445.637202,541 429.342527,541 C413.048677,541 399.840058,527.842524 399.840058,511.612778 L399.840058,511.612778 L399.840058,338.594438 C399.840058,322.364691 413.048677,309.208038 429.342527,309.208038 Z M511.496704,409.258865 C527.791176,409.258865 541,422.434414 541,438.685992 C541,454.93757 527.791176,468.112293 511.496704,468.112293 C495.20306,468.112293 481.994236,454.93757 481.994236,438.685992 C481.994236,422.434414 495.20306,409.258865 511.496704,409.258865 Z M511.04364,157.094563 C527.33749,157.094563 540.54611,170.251216 540.54611,186.481785 L540.54611,359.499303 C540.54611,375.729049 527.33749,388.886525 511.04364,388.886525 C494.748965,388.886525 481.540346,375.729049 481.540346,359.499303 L481.540346,186.481785 C481.540346,170.251216 494.748965,157.094563 511.04364,157.094563 Z M338.110537,278.875887 C354.405009,278.875887 367.613833,292.050609 367.613833,308.302187 C367.613833,324.554592 354.405009,337.729314 338.110537,337.729314 C321.816893,337.729314 308.608069,324.554592 308.608069,308.302187 C308.608069,292.050609 321.816893,278.875887 338.110537,278.875887 Z M428.889463,229.98227 C445.183107,229.98227 458.391931,243.156992 458.391931,259.409396 C458.391931,275.660975 445.183107,288.835697 428.889463,288.835697 C412.594991,288.835697 399.386167,275.660975 399.386167,259.409396 C399.386167,243.156992 412.594991,229.98227 428.889463,229.98227 Z M337.657473,26.7115839 C353.951323,26.7115839 367.159942,39.8682841 367.159942,56.0980881 L367.159942,56.0980881 L367.159942,229.117042 C367.159942,245.346846 353.951323,258.503546 337.657473,258.503546 C321.362798,258.503546 308.154179,245.346846 308.154179,229.117042 L308.154179,229.117042 L308.154179,56.0980881 C308.154179,39.8682841 321.362798,26.7115839 337.657473,26.7115839 Z M429.342527,-23.0874704 C445.637202,-23.0874704 458.845821,-9.92999463 458.845821,6.2997518 L458.845821,6.2997518 L458.845821,179.318092 C458.845821,195.547838 445.637202,208.704492 429.342527,208.704492 C413.048677,208.704492 399.840058,195.547838 399.840058,179.318092 L399.840058,179.318092 L399.840058,6.2997518 C399.840058,-9.92999463 413.048677,-23.0874704 429.342527,-23.0874704 Z M255.502468,99.5992908 C271.796111,99.5992908 285.005764,112.774014 285.005764,129.025592 C285.005764,145.27717 271.796111,158.452719 255.502468,158.452719 C239.208824,158.452719 226,145.27717 226,129.025592 C226,112.774014 239.208824,99.5992908 255.502468,99.5992908 Z M511.04364,-94.6170213 C527.33749,-94.6170213 540.54611,-81.4595455 540.54611,-65.229799 L540.54611,-65.229799 L540.54611,107.787719 C540.54611,124.018287 527.33749,137.174941 511.04364,137.174941 C494.748965,137.174941 481.540346,124.018287 481.540346,107.787719 L481.540346,107.787719 L481.540346,-65.229799 C481.540346,-81.4595455 494.748965,-94.6170213 511.04364,-94.6170213 Z M255.95636,-153.470449 C272.251035,-153.470449 285.459654,-140.313749 285.459654,-124.083945 L285.459654,-124.083945 L285.459654,48.9341865 C285.459654,65.1648128 272.251035,78.321513 255.95636,78.321513 C239.66251,78.321513 226.45389,65.1648128 226.45389,48.9341865 L226.45389,48.9341865 L226.45389,-124.083945 C226.45389,-140.313749 239.66251,-153.470449 255.95636,-153.470449 Z M337.657473,-225 C353.951323,-225 367.159942,-211.842524 367.159942,-195.612778 L367.159942,-195.612778 L367.159942,-22.5952601 C367.159942,-6.36551365 353.951323,6.79196217 337.657473,6.79196217 C321.362798,6.79196217 308.154179,-6.36551365 308.154179,-22.5952601 L308.154179,-22.5952601 L308.154179,-195.612778 C308.154179,-211.842524 321.362798,-225 337.657473,-225 Z" id="path-2"></path>
    </defs>
    <g id="Desktop" stroke="none" stroke-width="1" fill="none" fill-rule="evenodd">
        <g id="Remarkable" transform="translate(-210.000000, -1575.000000)">
            <g id="Case-Studies" transform="translate(3.000000, 1575.000000)">
                <g id="christian-wiediger-WkfDrhxDMC8-unsplash-Copy" transform="translate(590.500000, 158.000000) rotate(-180.000000) translate(-590.500000, -158.000000) translate(207.000000, 0.000000)">
                    <mask id="mask-3" fill="white">
                        <use xlink:href="#path-2"></use>
                    </mask>
                    <use id="Mask" fill="url(#linearGradient-1)" transform="translate(383.500000, 158.000000) rotate(90.000000) translate(-383.500000, -158.000000) " xlink:href="#path-2"></use>
                </g>
            </g>
        </g>
    </g>
</svg>