<?xml version="1.0" encoding="UTF-8"?>
<svg width="1010px" height="415px" viewBox="0 0 1010 415" version="1.1" xmlns="http://www.w3.org/2000/svg" xmlns:xlink="http://www.w3.org/1999/xlink">
    <!-- Generator: Sketch 62 (91390) - https://sketch.com -->
    <title>Mask</title>
    <desc>Created with Sketch.</desc>
    <defs>
        <linearGradient x1="57.2646695%" y1="83.6449972%" x2="57.2646695%" y2="-69.7230557%" id="linearGradient-1">
            <stop stop-color="#FFCC40" offset="0%"></stop>
            <stop stop-color="#D636FC" offset="100%"></stop>
        </linearGradient>
        <path d="M565.250178,406.676123 C586.666037,406.676123 604.025937,424.006493 604.025937,445.38484 L604.025937,445.38484 L604.025937,673.290199 C604.025937,694.668547 586.666037,712 565.250178,712 C543.835404,712 526.475504,694.668547 526.475504,673.290199 L526.475504,673.290199 L526.475504,445.38484 C526.475504,424.006493 543.835404,406.676123 565.250178,406.676123 Z M673.22424,538.466312 C694.639831,538.466312 712,555.821572 712,577.228676 C712,598.635781 694.639831,615.989953 673.22424,615.989953 C651.809737,615.989953 634.449568,598.635781 634.449568,577.228676 C634.449568,555.821572 651.809737,538.466312 673.22424,538.466312 Z M672.628785,206.307329 C694.043559,206.307329 711.403458,223.637699 711.403458,245.017129 L711.403458,472.921405 C711.403458,494.299753 694.043559,511.631206 672.628785,511.631206 C651.212925,511.631206 633.853026,494.299753 633.853026,472.921405 L633.853026,245.017129 C633.853026,223.637699 651.212925,206.307329 672.628785,206.307329 Z M445.345277,366.721631 C466.760869,366.721631 484.121037,384.075803 484.121037,405.482908 C484.121037,426.8911 466.760869,444.245272 445.345277,444.245272 C423.930774,444.245272 406.570605,426.8911 406.570605,405.482908 C406.570605,384.075803 423.930774,366.721631 445.345277,366.721631 Z M564.654723,302.317376 C586.069226,302.317376 603.429395,319.671547 603.429395,341.07974 C603.429395,362.486845 586.069226,379.841017 564.654723,379.841017 C543.239131,379.841017 525.878963,362.486845 525.878963,341.07974 C525.878963,319.671547 543.239131,302.317376 564.654723,302.317376 Z M444.749822,34.5626478 C466.164596,34.5626478 483.524496,51.8930792 483.524496,73.2715025 L483.524496,73.2715025 L483.524496,301.17767 C483.524496,322.556093 466.164596,339.886525 444.749822,339.886525 C423.333963,339.886525 405.974063,322.556093 405.974063,301.17767 L405.974063,301.17767 L405.974063,73.2715025 C405.974063,51.8930792 423.333963,34.5626478 444.749822,34.5626478 Z M565.250178,-31.034279 C586.666037,-31.034279 604.025937,-13.7028258 604.025937,7.67552162 L604.025937,7.67552162 L604.025937,235.580881 C604.025937,256.959228 586.666037,274.289598 565.250178,274.289598 C543.835404,274.289598 526.475504,256.959228 526.475504,235.580881 L526.475504,235.580881 L526.475504,7.67552162 C526.475504,-13.7028258 543.835404,-31.034279 565.250178,-31.034279 Z M336.774672,130.572695 C358.189175,130.572695 375.550432,147.926866 375.550432,169.333971 C375.550432,190.741076 358.189175,208.096336 336.774672,208.096336 C315.360169,208.096336 298,190.741076 298,169.333971 C298,147.926866 315.360169,130.572695 336.774672,130.572695 Z M672.628785,-125.255319 C694.043559,-125.255319 711.403458,-107.923866 711.403458,-86.5455186 L711.403458,-86.5455186 L711.403458,141.358757 C711.403458,162.738188 694.043559,180.068558 672.628785,180.068558 C651.212925,180.068558 633.853026,162.738188 633.853026,141.358757 L633.853026,141.358757 L633.853026,-86.5455186 C633.853026,-107.923866 651.212925,-125.255319 672.628785,-125.255319 Z M337.371215,-202.77896 C358.787075,-202.77896 376.146974,-185.448528 376.146974,-164.070105 L376.146974,-164.070105 L376.146974,63.8349793 C376.146974,85.2144859 358.787075,102.544917 337.371215,102.544917 C315.956441,102.544917 298.596542,85.2144859 298.596542,63.8349793 L298.596542,63.8349793 L298.596542,-164.070105 C298.596542,-185.448528 315.956441,-202.77896 337.371215,-202.77896 Z M444.749822,-297 C466.164596,-297 483.524496,-279.668547 483.524496,-258.290199 L483.524496,-258.290199 L483.524496,-30.3859235 C483.524496,-9.00757607 466.164596,8.32387707 444.749822,8.32387707 C423.333963,8.32387707 405.974063,-9.00757607 405.974063,-30.3859235 L405.974063,-30.3859235 L405.974063,-258.290199 C405.974063,-279.668547 423.333963,-297 444.749822,-297 Z" id="path-2"></path>
    </defs>
    <g id="Desktop" stroke="none" stroke-width="1" fill="none" fill-rule="evenodd">
        <g id="Case-Studies-Landing" transform="translate(-289.000000, -1951.000000)">
            <g id="MediaCom" transform="translate(129.000000, 1890.000000)">
                <g id="christian-wiediger-WkfDrhxDMC8-unsplash-Copy-2" transform="translate(160.000000, 61.000000)">
                    <mask id="mask-3" fill="white">
                        <use xlink:href="#path-2"></use>
                    </mask>
                    <use id="Mask" fill="url(#linearGradient-1)" transform="translate(505.000000, 207.500000) rotate(90.000000) translate(-505.000000, -207.500000) " xlink:href="#path-2"></use>
                </g>
            </g>
        </g>
    </g>
</svg>