<?xml version="1.0" encoding="UTF-8"?>
<svg width="939px" height="285px" viewBox="0 0 939 285" version="1.1" xmlns="http://www.w3.org/2000/svg" xmlns:xlink="http://www.w3.org/1999/xlink">
    <!-- Generator: Sketch 62 (91390) - https://sketch.com -->
    <title>Combined Shape</title>
    <desc>Created with Sketch.</desc>
    <defs>
        <linearGradient x1="50%" y1="100%" x2="50%" y2="-2.48949813e-15%" id="linearGradient-1">
            <stop stop-color="#D636FC" offset="0%"></stop>
            <stop stop-color="#FFCC40" offset="100%"></stop>
        </linearGradient>
    </defs>
    <g id="Desktop" stroke="none" stroke-width="1" fill="none" fill-rule="evenodd">
        <g id="What-We-Do" transform="translate(-220.000000, -4275.000000)" fill="url(#linearGradient-1)">
            <g id="Who-We-Work-With" transform="translate(130.000000, 3949.000000)">
                <path d="M665.999496,654 C685.882582,654 702,670.120014 702,690.005293 L702,690.005293 L702,901.993699 C702,921.878979 685.882582,938 665.999496,938 C646.117418,938 630,921.878979 630,901.993699 L630,901.993699 L630,690.005293 C630,670.120014 646.117418,654 665.999496,654 Z M452.999496,494 C472.882582,494 489,510.121021 489,530.006301 L489,530.006301 L489,741.993699 C489,761.879986 472.882582,778 452.999496,778 C433.117418,778 417,761.879986 417,741.993699 L417,741.993699 L417,530.006301 C417,510.121021 433.117418,494 452.999496,494 Z M553.999495,617 C573.882331,617 590,633.117669 590,652.999495 C590,672.882331 573.882331,689 553.999495,689 C534.117669,689 518,672.882331 518,652.999495 C518,633.117669 534.117669,617 553.999495,617 Z M665.000505,557 C684.882331,557 701,573.117669 701,593.000505 C701,612.882331 684.882331,629 665.000505,629 C645.117669,629 629,612.882331 629,593.000505 C629,573.117669 645.117669,557 665.000505,557 Z M553.000504,308 C572.882582,308 589,324.120071 589,344.005421 L589,344.005421 L589,555.994579 C589,575.879929 572.882582,592 553.000504,592 C533.117418,592 517,575.879929 517,555.994579 L517,555.994579 L517,344.005421 C517,324.120071 533.117418,308 553.000504,308 Z M665.999496,247 C685.882582,247 702,263.121021 702,283.006301 L702,283.006301 L702,494.994707 C702,514.879986 685.882582,531 665.999496,531 C646.117418,531 630,514.879986 630,494.994707 L630,494.994707 L630,283.006301 C630,263.121021 646.117418,247 665.999496,247 Z M452.999495,397 C472.881321,397 489,413.117669 489,432.999495 C489,452.881321 472.881321,469 452.999495,469 C433.117669,469 417,452.881321 417,432.999495 C417,413.117669 433.117669,397 452.999495,397 Z M452.999496,87 C472.882582,87 489,103.120071 489,123.005421 L489,123.005421 L489,334.993571 C489,354.879929 472.882582,371 452.999496,371 C433.117418,371 417,354.879929 417,334.993571 L417,334.993571 L417,123.005421 C417,103.120071 433.117418,87 452.999496,87 Z M553.000504,-1 C572.882582,-1 589,15.1210212 589,35.0063008 L589,35.0063008 L589,246.993699 C589,266.878979 572.882582,283 553.000504,283 C533.117418,283 517,266.878979 517,246.993699 L517,246.993699 L517,35.0063008 C517,15.1210212 533.117418,-1 553.000504,-1 Z" id="Combined-Shape" transform="translate(559.500000, 468.500000) rotate(-270.000000) translate(-559.500000, -468.500000) "></path>
            </g>
        </g>
    </g>
</svg>