<?xml version="1.0" encoding="UTF-8"?>
<svg width="939px" height="285px" viewBox="0 0 939 285" version="1.1" xmlns="http://www.w3.org/2000/svg" xmlns:xlink="http://www.w3.org/1999/xlink">
    <!-- Generator: Sketch 62 (91390) - https://sketch.com -->
    <title>Combined Shape</title>
    <desc>Created with Sketch.</desc>
    <defs>
        <linearGradient x1="50%" y1="0%" x2="50%" y2="100%" id="linearGradient-1">
            <stop stop-color="#0FFF8C" offset="0%"></stop>
            <stop stop-color="#29FAFF" offset="100%"></stop>
        </linearGradient>
    </defs>
    <g id="Desktop" stroke="none" stroke-width="1" fill="none" fill-rule="evenodd">
        <g id="Who-We-Are" transform="translate(-287.000000, -888.000000)" fill="url(#linearGradient-1)">
            <g id="Main-Banner" transform="translate(141.000000, 319.000000)">
                <path d="M721.999496,897 C741.882582,897 758,913.120014 758,933.005293 L758,933.005293 L758,1144.9937 C758,1164.87898 741.882582,1181 721.999496,1181 C702.117418,1181 686,1164.87898 686,1144.9937 L686,1144.9937 L686,933.005293 C686,913.120014 702.117418,897 721.999496,897 Z M508.999496,737 C528.882582,737 545,753.121021 545,773.006301 L545,773.006301 L545,984.993699 C545,1004.87999 528.882582,1021 508.999496,1021 C489.117418,1021 473,1004.87999 473,984.993699 L473,984.993699 L473,773.006301 C473,753.121021 489.117418,737 508.999496,737 Z M609.999495,860 C629.882331,860 646,876.117669 646,895.999495 C646,915.882331 629.882331,932 609.999495,932 C590.117669,932 574,915.882331 574,895.999495 C574,876.117669 590.117669,860 609.999495,860 Z M721.000505,800 C740.882331,800 757,816.117669 757,836.000505 C757,855.882331 740.882331,872 721.000505,872 C701.117669,872 685,855.882331 685,836.000505 C685,816.117669 701.117669,800 721.000505,800 Z M609.000504,551 C628.882582,551 645,567.120071 645,587.005421 L645,587.005421 L645,798.994579 C645,818.879929 628.882582,835 609.000504,835 C589.117418,835 573,818.879929 573,798.994579 L573,798.994579 L573,587.005421 C573,567.120071 589.117418,551 609.000504,551 Z M721.999496,490 C741.882582,490 758,506.121021 758,526.006301 L758,526.006301 L758,737.994707 C758,757.879986 741.882582,774 721.999496,774 C702.117418,774 686,757.879986 686,737.994707 L686,737.994707 L686,526.006301 C686,506.121021 702.117418,490 721.999496,490 Z M508.999495,640 C528.881321,640 545,656.117669 545,675.999495 C545,695.881321 528.881321,712 508.999495,712 C489.117669,712 473,695.881321 473,675.999495 C473,656.117669 489.117669,640 508.999495,640 Z M508.999496,330 C528.882582,330 545,346.120071 545,366.005421 L545,366.005421 L545,577.993571 C545,597.879929 528.882582,614 508.999496,614 C489.117418,614 473,597.879929 473,577.993571 L473,577.993571 L473,366.005421 C473,346.120071 489.117418,330 508.999496,330 Z M609.000504,242 C628.882582,242 645,258.121021 645,278.006301 L645,278.006301 L645,489.993699 C645,509.878979 628.882582,526 609.000504,526 C589.117418,526 573,509.878979 573,489.993699 L573,489.993699 L573,278.006301 C573,258.121021 589.117418,242 609.000504,242 Z" id="Combined-Shape" transform="translate(615.500000, 711.500000) rotate(-90.000000) translate(-615.500000, -711.500000) "></path>
            </g>
        </g>
    </g>
</svg>