<?xml version="1.0" encoding="UTF-8"?>
<svg width="939px" height="285px" viewBox="0 0 939 285" version="1.1" xmlns="http://www.w3.org/2000/svg" xmlns:xlink="http://www.w3.org/1999/xlink">
    <!-- Generator: Sketch 62 (91390) - https://sketch.com -->
    <title>Combined Shape</title>
    <desc>Created with Sketch.</desc>
    <defs>
        <linearGradient x1="50%" y1="100%" x2="50%" y2="-2.48949813e-15%" id="linearGradient-1">
            <stop stop-color="#D636FC" offset="0%"></stop>
            <stop stop-color="#FFCC40" offset="100%"></stop>
        </linearGradient>
    </defs>
    <g id="Desktop" stroke="none" stroke-width="1" fill="none" fill-rule="evenodd">
        <g id="What-We-Do" transform="translate(-261.000000, -554.000000)" fill="url(#linearGradient-1)">
            <g id="Main-Banner" transform="translate(135.000000, 319.000000)">
                <path d="M701.999496,563 C721.882582,563 738,579.120014 738,599.005293 L738,599.005293 L738,810.993699 C738,830.878979 721.882582,847 701.999496,847 C682.117418,847 666,830.878979 666,810.993699 L666,810.993699 L666,599.005293 C666,579.120014 682.117418,563 701.999496,563 Z M488.999496,403 C508.882582,403 525,419.121021 525,439.006301 L525,439.006301 L525,650.993699 C525,670.879986 508.882582,687 488.999496,687 C469.117418,687 453,670.879986 453,650.993699 L453,650.993699 L453,439.006301 C453,419.121021 469.117418,403 488.999496,403 Z M589.999495,526 C609.882331,526 626,542.117669 626,561.999495 C626,581.882331 609.882331,598 589.999495,598 C570.117669,598 554,581.882331 554,561.999495 C554,542.117669 570.117669,526 589.999495,526 Z M701.000505,466 C720.882331,466 737,482.117669 737,502.000505 C737,521.882331 720.882331,538 701.000505,538 C681.117669,538 665,521.882331 665,502.000505 C665,482.117669 681.117669,466 701.000505,466 Z M589.000504,217 C608.882582,217 625,233.120071 625,253.005421 L625,253.005421 L625,464.994579 C625,484.879929 608.882582,501 589.000504,501 C569.117418,501 553,484.879929 553,464.994579 L553,464.994579 L553,253.005421 C553,233.120071 569.117418,217 589.000504,217 Z M701.999496,156 C721.882582,156 738,172.121021 738,192.006301 L738,192.006301 L738,403.994707 C738,423.879986 721.882582,440 701.999496,440 C682.117418,440 666,423.879986 666,403.994707 L666,403.994707 L666,192.006301 C666,172.121021 682.117418,156 701.999496,156 Z M488.999495,306 C508.881321,306 525,322.117669 525,341.999495 C525,361.881321 508.881321,378 488.999495,378 C469.117669,378 453,361.881321 453,341.999495 C453,322.117669 469.117669,306 488.999495,306 Z M488.999496,-4 C508.882582,-4 525,12.1200708 525,32.005421 L525,32.005421 L525,243.993571 C525,263.879929 508.882582,280 488.999496,280 C469.117418,280 453,263.879929 453,243.993571 L453,243.993571 L453,32.005421 C453,12.1200708 469.117418,-4 488.999496,-4 Z M589.000504,-92 C608.882582,-92 625,-75.8789788 625,-55.9936992 L625,-55.9936992 L625,155.993699 C625,175.878979 608.882582,192 589.000504,192 C569.117418,192 553,175.878979 553,155.993699 L553,155.993699 L553,-55.9936992 C553,-75.8789788 569.117418,-92 589.000504,-92 Z" id="Combined-Shape" transform="translate(595.500000, 377.500000) rotate(90.000000) translate(-595.500000, -377.500000) "></path>
            </g>
        </g>
    </g>
</svg>