<?xml version="1.0" encoding="UTF-8"?>
<svg width="766px" height="314px" viewBox="0 0 766 314" version="1.1" xmlns="http://www.w3.org/2000/svg" xmlns:xlink="http://www.w3.org/1999/xlink">
    <!-- Generator: Sketch 62 (91390) - https://sketch.com -->
    <title>christian-wiediger-WkfDrhxDMC8-unsplash</title>
    <desc>Created with Sketch.</desc>
    <defs>
        <linearGradient x1="50%" y1="0%" x2="50%" y2="100%" id="linearGradient-1">
            <stop stop-color="#0FFF8C" offset="0%"></stop>
            <stop stop-color="#29FAFF" offset="100%"></stop>
        </linearGradient>
        <path d="M428.696995,308.208038 C444.939941,308.208038 458.106628,321.364691 458.106628,337.594438 L458.106628,337.594438 L458.106628,510.612778 C458.106628,526.842524 444.939941,540 428.696995,540 C412.454871,540 399.288184,526.842524 399.288184,510.612778 L399.288184,510.612778 L399.288184,337.594438 C399.288184,321.364691 412.454871,308.208038 428.696995,308.208038 Z M510.590365,408.258865 C526.833109,408.258865 540,421.434414 540,437.685992 C540,453.93757 526.833109,467.112293 510.590365,467.112293 C494.348448,467.112293 481.181556,453.93757 481.181556,437.685992 C481.181556,421.434414 494.348448,408.258865 510.590365,408.258865 Z M510.13874,156.094563 C526.380863,156.094563 539.54755,169.251216 539.54755,185.481785 L539.54755,358.499303 C539.54755,374.729049 526.380863,387.886525 510.13874,387.886525 C493.895794,387.886525 480.729107,374.729049 480.729107,358.499303 L480.729107,185.481785 C480.729107,169.251216 493.895794,156.094563 510.13874,156.094563 Z M337.75463,277.875887 C353.997374,277.875887 367.164265,291.050609 367.164265,307.302187 C367.164265,323.554592 353.997374,336.729314 337.75463,336.729314 C321.512713,336.729314 308.345821,323.554592 308.345821,307.302187 C308.345821,291.050609 321.512713,277.875887 337.75463,277.875887 Z M428.24537,228.98227 C444.487287,228.98227 457.654179,242.156992 457.654179,258.409396 C457.654179,274.660975 444.487287,287.835697 428.24537,287.835697 C412.002626,287.835697 398.835735,274.660975 398.835735,258.409396 C398.835735,242.156992 412.002626,228.98227 428.24537,228.98227 Z M337.303005,25.7115839 C353.545129,25.7115839 366.711816,38.8682841 366.711816,55.0980881 L366.711816,55.0980881 L366.711816,228.117042 C366.711816,244.346846 353.545129,257.503546 337.303005,257.503546 C321.060059,257.503546 307.893372,244.346846 307.893372,228.117042 L307.893372,228.117042 L307.893372,55.0980881 C307.893372,38.8682841 321.060059,25.7115839 337.303005,25.7115839 Z M428.696995,-24.0874704 C444.939941,-24.0874704 458.106628,-10.9299946 458.106628,5.2997518 L458.106628,5.2997518 L458.106628,178.318092 C458.106628,194.547838 444.939941,207.704492 428.696995,207.704492 C412.454871,207.704492 399.288184,194.547838 399.288184,178.318092 L399.288184,178.318092 L399.288184,5.2997518 C399.288184,-10.9299946 412.454871,-24.0874704 428.696995,-24.0874704 Z M255.408809,98.5992908 C271.650727,98.5992908 284.818444,111.774014 284.818444,128.025592 C284.818444,144.27717 271.650727,157.452719 255.408809,157.452719 C239.166891,157.452719 226,144.27717 226,128.025592 C226,111.774014 239.166891,98.5992908 255.408809,98.5992908 Z M510.13874,-95.6170213 C526.380863,-95.6170213 539.54755,-82.4595455 539.54755,-66.229799 L539.54755,-66.229799 L539.54755,106.787719 C539.54755,123.018287 526.380863,136.174941 510.13874,136.174941 C493.895794,136.174941 480.729107,123.018287 480.729107,106.787719 L480.729107,106.787719 L480.729107,-66.229799 C480.729107,-82.4595455 493.895794,-95.6170213 510.13874,-95.6170213 Z M255.86126,-154.470449 C272.104206,-154.470449 285.270893,-141.313749 285.270893,-125.083945 L285.270893,-125.083945 L285.270893,47.9341865 C285.270893,64.1648128 272.104206,77.321513 255.86126,77.321513 C239.619137,77.321513 226.45245,64.1648128 226.45245,47.9341865 L226.45245,47.9341865 L226.45245,-125.083945 C226.45245,-141.313749 239.619137,-154.470449 255.86126,-154.470449 Z M337.303005,-226 C353.545129,-226 366.711816,-212.842524 366.711816,-196.612778 L366.711816,-196.612778 L366.711816,-23.5952601 C366.711816,-7.36551365 353.545129,5.79196217 337.303005,5.79196217 C321.060059,5.79196217 307.893372,-7.36551365 307.893372,-23.5952601 L307.893372,-23.5952601 L307.893372,-196.612778 C307.893372,-212.842524 321.060059,-226 337.303005,-226 Z" id="path-2"></path>
    </defs>
    <g id="Desktop" stroke="none" stroke-width="1" fill="none" fill-rule="evenodd">
        <g id="Remarkable" transform="translate(-264.000000, -2035.000000)">
            <g id="Case-Studies" transform="translate(-237.000000, 1586.000000)">
                <g id="christian-wiediger-WkfDrhxDMC8-unsplash" transform="translate(501.000000, 449.000000)">
                    <mask id="mask-3" fill="white">
                        <use xlink:href="#path-2"></use>
                    </mask>
                    <use id="Mask" fill="url(#linearGradient-1)" transform="translate(383.000000, 157.000000) rotate(90.000000) translate(-383.000000, -157.000000) " xlink:href="#path-2"></use>
                </g>
            </g>
        </g>
    </g>
</svg>