<svg width="152" height="34" viewBox="0 0 152 34" fill="none" xmlns="http://www.w3.org/2000/svg">
<path d="M97.5559 26.5401C97.0491 26.5401 96.3733 26.4979 95.9932 26.4557C96.0355 26.2867 96.1199 25.8644 96.1622 25.4843L96.2044 25.3153H96.1622L96.1199 25.3576C95.5709 26.16 94.9796 26.4557 94.1349 26.4557H93.8393C92.1076 26.329 91.3052 25.6532 91.3052 24.1328C91.3052 23.9216 91.3052 23.7104 91.3474 23.457C91.7275 21.472 93.1635 21.0496 95.3597 20.9229L96.7112 20.8807C96.8802 20.8807 97.0491 20.7118 97.0491 20.5851L97.2603 19.4447C97.3025 19.2335 97.1336 18.9801 96.9224 18.8957C96.4156 18.7267 95.8243 18.6423 95.2752 18.6423C94.6417 18.6423 93.7548 18.769 93.1213 18.8957C93.0368 18.8957 93.0368 18.8534 92.9946 18.8112C92.9946 18.6423 92.9523 18.4733 92.9523 18.2199C92.9523 17.8398 92.9523 17.4597 93.0368 17.0796C93.0368 17.0373 93.079 16.9951 93.1635 16.9529C93.966 16.7839 94.8529 16.6572 95.7398 16.6572C97.0913 16.6572 98.5273 16.9529 99.372 17.4597C99.5409 17.5864 99.6676 17.8398 99.6254 18.051C99.6254 18.0932 98.6963 23.4148 98.6118 23.9638C98.6118 24.0061 98.3584 25.8222 98.3161 26.4134C98.1472 26.5401 97.8516 26.5401 97.5559 26.5401V26.5401ZM95.0641 22.3589C94.2194 22.4011 93.7548 22.5701 93.5859 23.457C93.5859 23.5415 93.5436 23.6682 93.5436 23.8371C93.5436 24.3017 93.7126 24.8085 94.5995 24.8085C95.1908 24.8085 95.7398 24.6396 96.2044 24.3862C96.2889 24.3439 96.3733 24.2172 96.3733 24.1328L96.5845 22.7813C96.6267 22.6546 96.5845 22.5701 96.5 22.4856C96.4156 22.4011 96.3311 22.3167 96.2044 22.3167L95.0641 22.3589Z" fill="white"/>
<path d="M37.0757 31.9464C30.4449 31.9464 24.9966 26.6671 24.9966 20.1629C24.9966 13.6588 30.4026 8.33719 37.0757 8.33719C40.1166 8.33719 42.9041 9.4353 45.0158 11.2936H47.8033C45.227 8.33719 41.3836 6.43663 37.1179 6.43663C34.795 6.43663 32.5988 6.98568 30.656 7.99932L25.6301 0.56601C25.3344 0.101428 24.7432 -0.025276 24.2786 0.270367C23.814 0.56601 23.7295 1.1573 24.0252 1.62188L28.9666 8.97071C28.2486 9.4353 27.6151 10.0266 26.9816 10.6601L14.6491 0.56601C14.2267 0.228132 13.5932 0.270367 13.2553 0.692714C12.9174 1.11506 12.9597 1.74858 13.382 2.08646L25.7146 12.1383C25.25 12.7296 24.8699 13.3631 24.532 14.0389L1.42961 2.12869C0.922789 1.87529 0.373738 2.04422 0.12033 2.55104C-0.133078 3.05786 0.0358604 3.60691 0.542677 3.86032L23.7718 15.8127C23.5184 16.6152 23.2649 17.5444 23.1805 18.4313L3.41464 13.6588C2.86559 13.5321 2.35877 13.8277 2.18983 14.3768C2.10536 14.8836 2.401 15.3904 2.90782 15.5593L23.0115 20.3741C23.0115 21.3032 23.1382 22.2324 23.3494 23.0771L9.5809 23.964C9.03185 24.0063 8.65174 24.4286 8.65174 25.0199C8.69397 25.5267 9.15856 25.9491 9.70761 25.9068L23.9829 25.0199C26.0102 30.1725 31.1206 33.8892 37.1179 33.8892C41.2569 33.8892 44.9314 32.1576 47.5077 29.3701H44.6357C42.524 30.975 39.9054 31.9464 37.0757 31.9464V31.9464Z" fill="white"/>
<path d="M37.2025 26.498C35.8087 26.498 33.7814 26.4136 32.5989 26.2446L34.9218 13.3208C36.1044 13.1519 38.2583 13.0674 39.4831 13.0674C42.7774 13.0674 44.5513 14.9679 44.5513 18.4312C44.5935 23.2459 41.5949 26.498 37.2025 26.498V26.498ZM38.9341 15.3903C38.5117 15.3903 37.8782 15.3903 37.3714 15.4748H37.2869L35.7665 24.0484H35.8932C36.2733 24.0906 37.1602 24.1329 37.6248 24.1329C40.1167 24.1329 41.6371 21.9367 41.6371 18.2623C41.6371 16.4462 40.6657 15.3903 38.9341 15.3903V15.3903Z" fill="white"/>
<path d="M45.5225 26.3291L47.2118 16.953H49.4925L47.8031 26.3291H45.5225ZM48.5634 15.6859C47.7609 15.6859 47.5075 15.1369 47.5075 14.6301C47.5075 13.7009 48.1832 13.0674 49.1124 13.0674C49.9149 13.0674 50.1683 13.6164 50.1683 14.1233C50.1683 15.0524 49.5348 15.6859 48.5634 15.6859Z" fill="white"/>
<path d="M54.5609 26.5404C52.1113 26.5404 50.6753 25.1467 50.6753 22.8237C50.6753 22.4014 50.7175 21.979 50.802 21.5145C51.351 18.3891 52.956 16.7842 55.659 16.7842C56.5037 16.7842 57.5173 16.9531 58.1931 17.1643C58.0664 17.7556 57.8552 18.558 57.5596 19.2338C57.0527 19.0649 56.4192 18.9381 55.7857 18.9381C54.3919 18.9381 53.7162 19.6984 53.3783 21.5989C53.2938 22.0635 53.2516 22.4014 53.2516 22.7393C53.2516 23.9641 53.8007 24.4709 55.1522 24.4709C55.7012 24.4709 56.4615 24.302 57.0527 24.0063C57.1794 24.7665 57.2217 25.4423 57.2217 26.0758C56.5882 26.287 55.3211 26.5404 54.5609 26.5404V26.5404Z" fill="white"/>
<path d="M62.2474 26.5403C60.4313 26.5403 59.5022 25.7379 59.5022 24.1329C59.5022 23.7951 59.5444 23.4994 59.5867 23.246L60.3469 18.9381H59.1221L59.4599 16.9953H60.6848L61.0649 14.968C61.7829 14.7991 62.6698 14.6301 63.43 14.5879L63.0077 16.953H65.5417C65.4573 17.5021 65.3306 18.2201 65.0772 18.8958H62.6698L61.8673 23.3305C61.8251 23.4572 61.8251 23.5416 61.8251 23.6261C61.8251 24.3863 62.3741 24.4708 63.0077 24.4708C63.43 24.4708 63.9791 24.3441 64.3592 24.2174C64.3592 24.4286 64.4014 24.682 64.4014 24.9354C64.4014 25.4 64.3592 25.8646 64.3169 26.1602C63.7679 26.4136 62.7965 26.5403 62.2474 26.5403Z" fill="white"/>
<path d="M65.9219 26.3291L67.6113 16.953H69.8919L68.2025 26.3291H65.9219ZM68.9628 15.6859C68.1603 15.6859 67.9069 15.1369 67.9069 14.6301C67.9069 13.7009 68.5827 13.0674 69.5118 13.0674C70.3143 13.0674 70.5677 13.6164 70.5677 14.1233C70.5255 15.0524 69.9342 15.6859 68.9628 15.6859Z" fill="white"/>
<path d="M75.0023 26.5404C72.5104 26.5404 71.0745 25.1889 71.0745 22.8237C71.0745 22.3592 71.1589 21.8101 71.2012 21.43C71.708 18.4736 73.4396 16.7842 76.1426 16.7842C78.6345 16.7842 80.0705 18.1357 80.0705 20.5008C80.0705 20.8809 80.0282 21.3878 79.9438 21.8946C79.4369 24.8932 77.7053 26.5404 75.0023 26.5404V26.5404ZM75.9737 18.6425C74.7066 18.6425 74.0309 19.5294 73.693 21.5989C73.6085 22.0635 73.5663 22.4859 73.5663 22.8237C73.5663 24.0063 74.1154 24.5976 75.1712 24.5976C76.4383 24.5976 77.0718 23.7529 77.4519 21.6412C77.5364 21.2188 77.5786 20.7542 77.5786 20.4164C77.5364 19.2338 77.0296 18.6425 75.9737 18.6425Z" fill="white"/>
<path d="M86.4903 26.3287L87.6306 19.9091C87.6728 19.7401 87.6728 19.6979 87.6728 19.6134C87.6728 18.9799 87.2083 18.642 86.3636 18.642C85.8145 18.642 85.2232 18.811 84.5897 19.1488L84.5475 19.1911L83.2804 26.2865H80.9998L82.6891 16.9949C83.3649 16.9104 84.2518 16.8682 85.0121 16.8259L84.8431 17.7973H85.181L85.2232 17.7551C86.1524 16.7837 86.9971 16.6992 87.7995 16.6992C88.7287 16.6992 90.2069 16.9526 90.2069 18.811C90.2069 18.9799 90.1647 19.2333 90.1224 19.5289L88.8976 26.2443H86.4903V26.3287Z" fill="white"/>
<path d="M100.935 26.3295L102.624 17.0378C103.3 16.9534 104.187 16.9111 104.947 16.8689L104.736 18.0937H104.82L104.862 18.0515C105.792 16.9111 106.847 16.7422 107.396 16.7422C107.565 16.7422 107.819 16.7844 107.946 16.8267C107.777 17.5869 107.565 18.4738 107.312 19.1918C107.059 19.1073 106.763 19.1073 106.425 19.1073C105.792 19.1073 105.074 19.2763 104.482 19.5719L104.44 19.6141L103.215 26.2872H100.935V26.3295Z" fill="white"/>
<path d="M107.861 30.3418C107.523 30.3418 106.678 30.2995 106.172 30.0461C106.341 29.2859 106.552 28.5679 106.805 28.0189C107.185 28.1456 107.819 28.1878 108.283 28.1878C109.001 28.1878 109.339 27.9766 109.804 27.2164L110.311 26.4562V26.4139C109.719 24.3022 108.959 20.6278 108.832 17.0801C109.466 16.9956 110.353 16.9534 111.029 16.9111L111.62 22.5706C111.662 22.7395 111.704 23.2041 111.704 23.6687V23.7954H112.042L112.084 23.7109C112.211 23.373 112.338 22.9929 112.549 22.6128L115.294 16.9111C115.928 16.9111 116.899 16.9534 117.533 17.0378L112.76 26.2028C111.029 29.666 109.635 30.3418 107.861 30.3418Z" fill="white"/>
<path d="M117.195 26.5399C116.477 26.5399 116.054 26.1598 116.054 25.5263C116.054 24.4282 116.899 24.0059 117.617 24.0059C118.251 24.0059 118.673 24.4282 118.673 25.0617C118.715 26.1176 117.871 26.5399 117.195 26.5399Z" fill="white"/>
<path d="M124.29 26.5404C121.841 26.5404 120.405 25.1467 120.405 22.8237C120.405 22.4014 120.447 21.979 120.531 21.5145C121.081 18.3891 122.685 16.7842 125.388 16.7842C126.233 16.7842 127.247 16.9531 127.923 17.1643C127.796 17.7556 127.585 18.558 127.289 19.2338C126.782 19.0649 126.149 18.9381 125.515 18.9381C124.121 18.9381 123.446 19.6984 123.108 21.5989C123.023 22.0635 122.981 22.4014 122.981 22.7393C122.981 23.9641 123.53 24.4709 124.882 24.4709C125.473 24.4709 126.149 24.302 126.656 24.0908C126.74 24.7665 126.782 25.5268 126.782 26.2025C126.106 26.3715 125.008 26.5404 124.29 26.5404V26.5404Z" fill="white"/>
<path d="M132.146 26.5404C129.654 26.5404 128.218 25.1889 128.218 22.8237C128.218 22.3592 128.303 21.8101 128.345 21.43C128.852 18.4736 130.583 16.7842 133.286 16.7842C135.778 16.7842 137.214 18.1357 137.214 20.5008C137.214 20.8809 137.172 21.3878 137.088 21.8946C136.581 24.8932 134.849 26.5404 132.146 26.5404V26.5404ZM133.117 18.6425C131.85 18.6425 131.175 19.5294 130.837 21.5989C130.752 22.0635 130.71 22.4859 130.71 22.8237C130.71 24.0063 131.259 24.5976 132.315 24.5976C133.582 24.5976 134.216 23.7529 134.596 21.6412C134.68 21.2188 134.722 20.7542 134.722 20.4164C134.68 19.2338 134.173 18.6425 133.117 18.6425Z" fill="white"/>
<path d="M148.364 26.3295L149.504 19.952C149.547 19.8253 149.547 19.7831 149.547 19.6564C149.547 19.1918 149.378 18.685 148.364 18.685C147.857 18.685 147.266 18.8962 146.759 19.1918L146.717 19.234L145.45 26.2872H143.169L144.31 19.8675C144.352 19.6986 144.352 19.6141 144.352 19.5297C144.352 19.1073 144.183 18.6005 143.211 18.6005C142.662 18.6005 142.198 18.7694 141.564 19.1073L141.522 19.1496L140.255 26.2028H137.974L139.664 16.9111C140.34 16.8267 141.226 16.7844 141.987 16.7422L141.818 17.7136H142.156L142.198 17.6713C143.085 16.7844 143.803 16.6155 144.732 16.6155C145.788 16.6155 146.421 17.0378 146.548 17.798L146.59 18.0092L146.759 17.8403C147.688 16.9534 148.533 16.5732 149.589 16.5732C150.476 16.5732 151.996 16.8267 151.996 18.685C151.996 18.8962 151.954 19.1918 151.912 19.403L150.603 26.2028H148.364V26.3295Z" fill="white"/>
</svg>
