<svg width="140" height="42" viewBox="0 0 140 42" fill="none" xmlns="http://www.w3.org/2000/svg">
<path fill-rule="evenodd" clip-rule="evenodd" d="M56.0762 1.78369C55.4377 1.78369 55.1546 2.16281 54.9176 2.7053C40.0133 36.9361 38.7626 39.6422 38.7626 39.6422C47.2087 39.6422 47.2087 39.6422 47.2087 39.6422C48.9665 35.3477 48.9665 35.3477 48.9665 35.3477C61.6917 35.3477 61.6917 35.3477 61.6917 35.3477C63.456 39.6422 63.456 39.6422 63.456 39.6422C73.3899 39.6422 73.3899 39.6422 73.3899 39.6422C73.3899 39.6422 72.5406 37.8839 57.2348 2.7053C56.9978 2.16281 56.7149 1.78369 56.0762 1.78369M51.6524 28.7983C55.3192 19.8371 55.3192 19.8371 55.3192 19.8371C58.9991 28.7983 58.9991 28.7983 58.9991 28.7983H51.6524ZM98.2675 22.4452C101.171 20.7195 103.369 17.7062 103.369 13.3856C103.369 9.99324 102.007 7.19571 99.6368 5.3069C97.2341 3.38511 94.456 2.34572 88.7746 2.34572C76.6222 2.34572 76.6222 2.34572 76.6222 2.34572C76.6222 39.6422 76.6222 39.6422 76.6222 39.6422C85.6016 39.6422 85.6016 39.6422 85.6016 39.6422C85.6016 25.7589 85.6016 25.7589 85.6016 25.7589C88.3862 25.7589 88.3862 25.7589 88.3862 25.7589C91.4145 25.7589 92.9419 26.9027 94.2123 29.9292C95.2854 32.4913 96.0424 35.5308 97.03 39.6422C107.043 39.6422 107.043 39.6422 107.043 39.6422C105.621 35.4131 104.91 33.4129 103.844 30.4325C102.382 26.3539 100.611 23.8439 98.2675 22.4452M92.5271 17.8697C91.4409 18.6997 90.0387 18.9612 87.5173 18.9612C85.6016 18.9612 85.6016 18.9612 85.6016 18.9612C85.6016 18.9612 85.5819 9.01953 85.6016 9.01953C87.5173 9.01953 87.5173 9.01953 87.5173 9.01953C90.1505 9.01953 91.4606 9.30706 92.5205 10.1044C93.7318 11.0195 94.2716 12.3921 94.2716 13.9805C94.2716 15.7126 93.666 16.9871 92.5271 17.8697ZM18.6181 18.1507C3.36497 2.99948 3.36497 2.99948 3.36497 2.99948C2.90417 2.54844 2.44336 2.22821 1.71924 2.22821C1.71924 39.6422 1.71924 39.6422 1.71924 39.6422C9.55982 39.6422 9.55982 39.6422 9.55982 39.6422C9.55982 21.7522 9.55982 21.7522 9.55982 21.7522C18.6181 30.7462 18.6181 30.7462 18.6181 30.7462C27.6831 21.7522 27.6831 21.7522 27.6831 21.7522C27.6831 39.6422 27.6831 39.6422 27.6831 39.6422C35.5237 39.6422 35.5237 39.6422 35.5237 39.6422C35.5237 2.22821 35.5237 2.22821 35.5237 2.22821C34.7995 2.22821 34.3387 2.54844 33.8779 2.99948L18.6181 18.1507ZM135.002 21.0332C130.999 17.2553 123.738 16.608 120.868 14.3858C119.742 13.5165 119.34 12.2353 119.709 11.013C120.163 9.49662 121.684 8.50309 123.915 8.50309C126.99 8.50309 129.748 9.89528 131.657 12.1503C136.785 6.82324 136.785 6.82324 136.785 6.82324C133.764 3.63356 128.938 1.71191 123.856 1.71191C117.931 1.71191 113.462 4.55517 111.467 9.09131C109.92 12.6144 110.453 16.2878 112.356 18.9286C116.035 24.0399 123.804 24.1968 127.167 26.8178C128.366 27.7526 129.037 29.2624 128.32 30.89C127.701 32.3149 126.141 33.2822 123.586 33.3476C120.045 33.4326 116.885 31.7854 114.561 28.903C109.426 34.2366 109.426 34.2366 109.426 34.2366C112.823 38.3218 117.879 40.2893 123.988 40.2893C129.926 40.2893 135.14 37.9951 137.266 33.1057C139.129 28.831 138.458 24.2884 135.002 21.0332" fill="white"/>
</svg>
