<svg width="158" height="64" viewBox="0 0 158 64" fill="none" xmlns="http://www.w3.org/2000/svg">
<path d="M157.683 0.314453H0.317383V63.685H157.683V0.314453Z" fill="black"/>
<path d="M157.683 63.685V0.314453H0.317383V63.685H157.683ZM63.5831 6.42708L52.7201 57.4326H35.6746L24.96 22.1366H24.8116L17.686 57.4326H4.7534L15.7038 6.42708H32.8104L43.3154 41.8018H43.4638L50.6593 6.42708H63.5831ZM112.344 6.42708L101.691 57.4326H87.9638L92.5221 35.5843H76.2799L71.7304 57.4326H58.0032L68.6566 6.42708H82.3838L78.3495 25.9439H94.5742L98.6173 6.42708H112.344ZM151.788 7.81553L148.479 17.9712C145.833 16.74 142.235 15.6397 137.171 15.6397C131.739 15.6397 127.329 16.4343 127.329 20.5385C127.329 27.7689 147.23 25.0706 147.23 40.5618C147.23 54.6558 134.079 58.3146 122.186 58.3146C116.903 58.3146 110.799 57.0659 106.328 55.6774L109.559 45.3034C112.266 47.0586 117.715 48.2288 122.186 48.2288C126.447 48.2288 133.127 47.4254 133.127 42.1598C133.127 33.9776 113.226 37.0426 113.226 22.6605C113.226 9.50087 124.832 5.55385 136.07 5.55385C142.392 5.55385 148.33 6.21751 151.788 7.81553" fill="white"/>
</svg>
