<svg width="150" height="22" viewBox="0 0 150 22" fill="none" xmlns="http://www.w3.org/2000/svg">
<path d="M23.0132 21.3936H17.0743V6.54509H17.0139L13.2245 21.3936H9.16463L5.25689 6.54509H5.19651V21.3936H0.407227V0.606188H8.74198L11.7102 11.6339H11.7706L14.6181 0.606188H23.0132V21.3936Z" fill="white"/>
<path d="M40.2509 21.3936H24.644V0.606188H40.2509V5.39306H30.8873V8.42409H38.4612V13.0588H30.8873V16.4231H40.2509V21.3936Z" fill="white"/>
<path d="M49.0496 16.6057C49.8973 16.6057 50.4431 16.6637 51.2305 16.241C51.8077 15.9077 52.2617 15.4537 52.5926 14.8765C53.322 13.6665 53.5635 12.2729 53.5635 10.8769C53.5635 9.48338 53.1698 7.66475 52.2907 6.51272C51.2908 5.27132 50.3224 5.3317 48.866 5.3317H48.139V16.6057H49.0496ZM41.7461 0.605212H49.4118C52.4139 0.605212 54.8049 0.998885 57.0486 3.1508C59.2295 5.21094 60.2294 8.05843 60.2294 11.0291C60.2294 13.7558 59.2609 16.6057 57.3529 18.5741C55.2904 20.726 52.7158 21.3926 49.8369 21.3926H41.7461V0.605212V0.605212Z" fill="white"/>
<path d="M67.7828 21.3948H61.3584V0.607422H67.7828V21.3948Z" fill="white"/>
<path d="M79.7545 12.7555L78.0567 6.72479L76.3612 12.7555H79.7545ZM80.8462 17.3032H75.2986L74.0282 21.3945H68.8452L75.2986 0.604749H82.0272L88.5433 21.3945H82.0272L80.8462 17.3032V17.3032Z" fill="white"/>
<path d="M105.351 13.818C104.957 18.6049 101.472 21.6963 96.6828 21.6963C90.442 21.6963 87.1694 17.1799 87.1694 11.2724C87.1694 5.27072 90.0483 0.302716 96.5934 0.302716C101.895 0.302716 104.926 3.4521 105.351 8.63505L99.4119 8.93695C99.4723 7.18112 98.8057 4.96882 96.6538 4.96882C93.8353 4.96882 93.7145 9.30164 93.7145 11.2724C93.7145 13.364 93.8353 16.907 96.7142 16.907C98.685 16.907 99.4409 15.1802 99.5327 13.4533L105.351 13.818Z" fill="white"/>
<path d="M112.936 11.0889C112.936 13.0886 113.146 16.936 116.056 16.936C118.964 16.936 119.177 13.0886 119.177 11.0889C119.177 9.06012 118.875 4.9978 116.056 4.9978C113.238 4.9978 112.936 9.06012 112.936 11.0889ZM125.995 11.0599C125.995 16.9698 122.358 21.6963 116.056 21.6963C109.753 21.6963 106.118 16.9698 106.118 11.0599C106.118 4.84806 109.724 0.302716 116.056 0.302716C122.389 0.302716 125.995 4.84806 125.995 11.0599" fill="white"/>
<path d="M149.593 21.3936H143.654V6.54509H143.593L139.804 21.3936H135.744L131.834 6.54509H131.773V21.3936H126.984V0.606188H135.319L138.29 11.6339H138.35L141.197 0.606188H149.593V21.3936Z" fill="white"/>
</svg>
