<svg width="138" height="32" viewBox="0 0 138 32" fill="none" xmlns="http://www.w3.org/2000/svg">
<g clip-path="url(#clip0_149_20389)">
<path d="M26.3313 17.5151C26.284 17.8188 26.223 18.1177 26.1482 18.4117C28.4013 16.9543 30.4153 15.1569 32.1187 13.0835C31.9843 12.3606 31.7992 11.6481 31.5649 10.9512C30.2907 13.476 28.509 15.7106 26.3313 17.5151V17.5151Z" fill="white"/>
<path d="M26.4461 15.7571C28.2426 13.7691 29.7072 11.5048 30.7836 9.05106C30.4515 8.3732 30.0711 7.72006 29.6455 7.09668C29.0943 9.86021 27.9816 12.4812 26.3765 14.7973C26.4149 15.1128 26.4381 15.4328 26.4461 15.7571Z" fill="white"/>
<path d="M32.3689 15.2502C31.052 17.1121 28.276 18.991 25.4258 20.359C25.2915 20.6286 25.1453 20.8909 24.9873 21.1459C27.43 20.3599 29.7464 19.2254 31.865 17.7776C31.6854 18.7723 31.3906 19.7429 30.9868 20.6696C28.6635 21.7553 26.1918 22.49 23.6526 22.8497C23.4172 23.0902 23.1695 23.3186 22.9107 23.5338C25.3451 23.5265 27.7628 23.1327 30.0737 22.3672C29.4595 23.3149 28.715 24.1715 27.8621 24.9119C25.6831 25.1024 23.4883 24.9986 21.337 24.6033C21.0597 24.7547 20.7745 24.8928 20.4815 25.0177C22.2219 25.7191 24.0588 26.152 25.9292 26.3017C25.1831 26.7407 24.3976 27.1091 23.5831 27.4023C21.9044 26.9462 20.2713 26.3361 18.7046 25.5797C18.3419 25.6572 17.975 25.714 17.6058 25.7498C18.8758 26.6083 20.2234 27.3458 21.6311 27.9526C20.8386 28.1176 20.0321 28.2071 19.2227 28.2199C19.0606 28.2219 18.8989 28.2207 18.7377 28.2163C17.6872 27.4689 16.6919 26.6469 15.7594 25.7567C15.311 25.7165 14.8658 25.6455 14.4271 25.544C15.1812 26.4243 15.9939 27.2525 16.8599 28.0229C15.9312 27.8554 15.0247 27.5823 14.1579 27.2092C13.6451 26.4982 13.1748 25.7574 12.7495 24.9909C12.3283 24.8081 11.9204 24.5959 11.529 24.3558C11.8392 25.0486 12.1853 25.7248 12.5659 26.3816C11.7352 25.87 10.9692 25.2601 10.2845 24.565C9.94163 23.9316 9.64643 23.2735 9.40133 22.5963C8.41374 21.512 7.682 20.22 7.26006 18.8154C6.83811 17.4108 6.7367 15.9294 6.9633 14.4804C7.1899 13.0314 7.73874 11.6517 8.56937 10.4429C9.39999 9.23422 10.4912 8.22727 11.7627 7.49629C13.0342 6.76532 14.4535 6.32895 15.916 6.21933C17.3785 6.10971 18.847 6.32965 20.2132 6.86293C21.5794 7.39621 22.8086 8.22924 23.8101 9.30065C24.8116 10.3721 25.56 11.6545 26.0001 13.0536C27.1329 10.522 27.8007 7.80718 27.9715 5.03898C27.4637 4.51168 26.9199 4.02022 26.3441 3.56812C26.7351 6.19301 26.5597 8.87119 25.8297 11.4227C25.5244 10.7999 25.1668 10.2042 24.7608 9.64193C24.8987 7.07636 24.6296 4.50513 23.9635 2.0237C23.3154 1.68204 22.6441 1.38637 21.9545 1.13886C23.1452 3.48719 23.8413 6.05491 23.9996 8.68309C23.5356 8.15192 23.0318 7.65681 22.4927 7.20204C21.7474 4.81959 20.6853 2.54811 19.3349 0.448614C18.6528 0.331003 17.9636 0.258457 17.272 0.231445C18.8954 1.9993 20.2172 4.02196 21.1846 6.21855C20.483 5.75048 19.7423 5.34373 18.9708 5.0028C17.7468 3.2826 16.3204 1.71581 14.7223 0.33616C14.0479 0.418405 13.3795 0.544504 12.7215 0.713656C14.3383 1.70794 15.8087 2.92256 17.0905 4.32249C16.2629 4.08599 15.4153 3.92649 14.5584 3.84604C13.3132 2.92698 11.9918 2.116 10.6085 1.42195C9.94496 1.69847 9.30123 2.02033 8.68188 2.38525C10.0556 2.58712 11.3724 3.07178 12.5492 3.80859C11.7817 3.85141 11.0194 3.96074 10.2709 4.13537C9.26936 3.80791 8.24589 3.55187 7.20815 3.36919C6.60731 3.82112 6.03942 4.31527 5.50878 4.84788C6.35074 4.72729 7.20442 4.71169 8.05023 4.80145C6.44856 5.38218 4.94002 6.19311 3.57211 7.2087C2.19476 9.25132 1.31568 11.5885 1.00549 14.0325C0.695306 16.4765 0.962659 18.9592 1.78607 21.2811C2.60949 23.6031 3.96601 25.6995 5.74666 27.402C7.52732 29.1046 9.68247 30.3657 12.039 31.0842C14.3955 31.8027 16.8877 31.9585 19.3153 31.5391C21.7429 31.1196 24.0384 30.1367 26.0172 28.6691C27.996 27.2016 29.603 25.2904 30.7092 23.0891C31.8153 20.8878 32.3898 18.4577 32.3864 15.9941C32.3864 15.7447 32.3806 15.4967 32.3689 15.2502Z" fill="white"/>
<path d="M70.8031 4.71289H68.5363L64.8831 9.82917L61.2292 4.71289H58.9631L63.4669 10.7921L58.9185 16.9324H61.1845L64.8831 11.7134L68.581 16.9324H70.8478L66.2993 10.7921L70.8031 4.71289Z" fill="white"/>
<path d="M116.791 12.6021C117.542 12.3114 118.183 11.7931 118.625 11.1197C119.066 10.4464 119.286 9.6518 119.254 8.84715C119.254 6.19949 117.381 4.71289 114.305 4.71289H108.96V16.9325H110.976V13.063H114.639C115.803 14.1751 116.759 15.4853 117.464 16.9325H119.927C119.115 15.3338 118.056 13.8725 116.791 12.6021ZM110.976 6.50505H114.244C116.036 6.50505 117.177 7.3198 117.177 8.92853C117.177 10.558 116.057 11.3114 114.366 11.3114H110.976V6.50505Z" fill="white"/>
<path d="M130.596 4.71289H126.034V16.9325H130.596C134.547 16.9325 137.093 14.4683 137.093 10.8228C137.093 7.17705 134.547 4.71289 130.596 4.71289ZM130.454 15.1405H128.051V6.50503H130.454C133.061 6.50503 135.036 8.05281 135.036 10.8227C135.036 13.5925 133.061 15.1405 130.454 15.1405V15.1405Z" fill="white"/>
<path d="M47.6002 4.41897C45.891 4.41395 44.2484 5.08162 43.0275 6.27772C41.8065 7.47381 41.1051 9.10227 41.075 10.8112C41.1101 12.5185 41.813 14.1441 43.0329 15.3391C44.2528 16.5341 45.8925 17.2034 47.6001 17.2034C49.3078 17.2034 50.9475 16.5341 52.1674 15.3391C53.3872 14.1441 54.0902 12.5185 54.1253 10.8112C54.0952 9.10229 53.3939 7.47383 52.1729 6.27774C50.952 5.08164 49.3094 4.41396 47.6002 4.41897V4.41897ZM47.6002 15.3594C46.3874 15.3606 45.223 14.8839 44.3593 14.0326C43.4955 13.1812 43.002 12.0239 42.9855 10.8112C43.0029 9.59882 43.4968 8.44196 44.3603 7.59075C45.2238 6.73954 46.3877 6.26235 47.6002 6.26235C48.8128 6.26235 49.9766 6.73954 50.8401 7.59075C51.7036 8.44196 52.1975 9.59882 52.2149 10.8112C52.1985 12.0239 51.7049 13.1812 50.8411 14.0325C49.9774 14.8838 48.813 15.3605 47.6002 15.3594V15.3594Z" fill="white"/>
<path d="M96.4999 4.41897C94.7906 4.41396 93.1481 5.08163 91.9271 6.27772C90.7061 7.47381 90.0048 9.10228 89.9746 10.8112C90.0098 12.5185 90.7127 14.1441 91.9326 15.3391C93.1525 16.5341 94.7921 17.2034 96.4998 17.2034C98.2075 17.2034 99.8471 16.5341 101.067 15.3391C102.287 14.1441 102.99 12.5185 103.025 10.8112C102.995 9.10229 102.294 7.47383 101.073 6.27774C99.8516 5.08164 98.209 4.41396 96.4999 4.41897V4.41897ZM96.4999 15.3594C95.2871 15.3606 94.1227 14.8839 93.2589 14.0326C92.3952 13.1812 91.9016 12.0239 91.8852 10.8112C91.9028 9.59895 92.3967 8.4423 93.2602 7.59126C94.1237 6.74021 95.2874 6.26313 96.4998 6.26313C97.7122 6.26313 98.8759 6.74021 99.7395 7.59126C100.603 8.4423 101.097 9.59895 101.115 10.8112C101.098 12.0239 100.605 13.1812 99.7408 14.0325C98.877 14.8838 97.7126 15.3605 96.4999 15.3594V15.3594Z" fill="white"/>
<path d="M76.271 16.9325H78.2874V12.5324H84.1717C84.5358 11.9898 84.8249 11.4004 85.031 10.7804H78.2874V6.50497H85.7534V4.71289H76.271L76.271 16.9325Z" fill="white"/>
<path d="M116.779 23.8285C116.779 22.7096 115.978 22.0977 114.672 22.0977H112.399V27.2628H113.261V25.6372H114.795C115.283 26.105 115.684 26.6553 115.981 27.2628H117.036C116.695 26.592 116.252 25.9785 115.722 25.4442C116.047 25.3228 116.325 25.1005 116.515 24.8099C116.706 24.5192 116.798 24.1753 116.779 23.8285V23.8285ZM114.637 24.8881H113.261V22.8551H114.637C115.403 22.8551 115.899 23.1829 115.899 23.863C115.899 24.5948 115.412 24.8881 114.637 24.8881V24.8881Z" fill="white"/>
<path d="M45.9969 25.0764C46.0073 25.268 45.9785 25.4598 45.9123 25.64C45.8462 25.8202 45.7439 25.985 45.6119 26.1243C45.4799 26.2637 45.3209 26.3747 45.1446 26.4506C44.9683 26.5264 44.7783 26.5655 44.5864 26.5655C44.3944 26.5655 44.2045 26.5264 44.0282 26.4506C43.8518 26.3747 43.6928 26.2637 43.5608 26.1243C43.4288 25.985 43.3266 25.8202 43.2604 25.64C43.1942 25.4598 43.1655 25.268 43.1759 25.0764V22.0977H42.3139V25.0764C42.2929 25.3826 42.3373 25.6897 42.4441 25.9774C42.5509 26.2651 42.7178 26.5268 42.9336 26.745C43.1494 26.9632 43.4091 27.133 43.6956 27.2431C43.9821 27.3532 44.2887 27.401 44.5951 27.3834C44.901 27.4022 45.2073 27.355 45.4934 27.245C45.7794 27.1351 46.0386 26.965 46.2532 26.7463C46.4678 26.5275 46.633 26.2652 46.7375 25.9771C46.842 25.689 46.8833 25.3819 46.8588 25.0764V22.0977H45.9969V25.0764Z" fill="white"/>
<path d="M126.594 23.3896C126.594 23.0252 126.924 22.7676 127.585 22.7676C128.111 22.7866 128.622 22.9466 129.065 23.2308L129.51 22.5296C128.938 22.172 128.277 21.9821 127.602 21.9814C126.48 21.9814 125.67 22.4934 125.67 23.4375C125.67 25.3752 128.744 24.7024 128.744 25.8658C128.744 26.2645 128.32 26.5931 127.732 26.5931C127.09 26.5876 126.475 26.3431 126.004 25.9076L125.527 26.5803C126.139 27.0973 126.916 27.3804 127.717 27.3793C128.823 27.3793 129.694 26.7443 129.694 25.8216C129.701 23.9778 126.594 24.5357 126.594 23.3896Z" fill="white"/>
<path d="M81.1658 23.3896C81.1658 23.0252 81.4951 22.7676 82.1569 22.7676C82.6828 22.7866 83.194 22.9466 83.6369 23.2308L84.0818 22.5296C83.5095 22.172 82.8483 21.9821 82.1734 21.9814C81.0514 21.9814 80.2411 22.4934 80.2411 23.4375C80.2411 25.3752 83.3152 24.7024 83.3152 25.8658C83.3152 26.2645 82.8917 26.5931 82.3031 26.5931C81.662 26.5876 81.046 26.3431 80.5756 25.9076L80.0984 26.5803C80.711 27.0973 81.4871 27.3804 82.2887 27.3793C83.3942 27.3793 84.2656 26.7443 84.2656 25.8216C84.2729 23.9778 81.1658 24.5357 81.1658 23.3896Z" fill="white"/>
<path d="M132.754 23.3896C132.754 23.0252 133.083 22.7676 133.745 22.7676C134.271 22.7866 134.782 22.9466 135.225 23.2308L135.67 22.5296C135.098 22.172 134.437 21.9821 133.762 21.9814C132.64 21.9814 131.829 22.4934 131.829 23.4375C131.829 25.3752 134.904 24.7024 134.904 25.8658C134.904 26.2645 134.48 26.5931 133.891 26.5931C133.25 26.5876 132.634 26.3431 132.164 25.9076L131.687 26.5803C132.299 27.0973 133.075 27.3804 133.877 27.3793C134.983 27.3793 135.854 26.7443 135.854 25.8216C135.861 23.9778 132.754 24.5357 132.754 23.3896Z" fill="white"/>
<path d="M53.0336 25.8059L49.9192 22.0977H49.1943V27.2631H50.0561V23.5027L53.1705 27.2631H53.8954V22.0977H53.0336V25.8059Z" fill="white"/>
<path d="M57.4525 22.0977H56.5906V27.2628H57.4525V22.0977Z" fill="white"/>
<path d="M87.6542 22.0977H86.7922V27.2628H87.6542V22.0977Z" fill="white"/>
<path d="M89.8677 22.8552H91.6262V27.2631H92.488V22.8552H94.2472V22.0977H89.8677V22.8552Z" fill="white"/>
<path d="M77.9009 23.8285C77.9009 22.7096 77.0998 22.0977 75.7939 22.0977H73.5215V27.2628H74.3835V25.6372H75.9173C76.4051 26.105 76.8064 26.6554 77.1026 27.2628H78.1582C77.8172 26.592 77.3737 25.9785 76.8438 25.4442C77.1692 25.3228 77.4473 25.1005 77.6375 24.8098C77.8277 24.5192 77.92 24.1753 77.9009 23.8285ZM75.7591 24.8881H74.3835V22.8551H75.7591C76.5253 22.8551 77.0215 23.1829 77.0215 23.863C77.0215 24.5948 76.5341 24.8881 75.7591 24.8881H75.7591Z" fill="white"/>
<path d="M98.4401 24.5003C97.9192 23.7295 97.4467 22.9271 97.0254 22.0977H96.0242C96.6195 23.2288 97.2823 24.3231 98.0091 25.3746V27.2628H98.8712V25.3746C99.598 24.3231 100.261 23.2288 100.856 22.0977H99.8548C99.4335 22.9271 98.961 23.7295 98.4401 24.5003V24.5003Z" fill="white"/>
<path d="M62.2874 26.2957C61.6079 24.9495 61.0519 23.5444 60.6265 22.0977H59.689C60.2202 23.8872 60.9325 25.6179 61.815 27.2628H62.7088C63.5912 25.6179 64.3036 23.8872 64.8348 22.0977H63.9485C63.523 23.5444 62.9671 24.9495 62.2874 26.2957V26.2957Z" fill="white"/>
<path d="M67.0713 27.2628H71.0327V26.5055H67.9332V25.0346H70.3768C70.5253 24.8099 70.6437 24.5667 70.7288 24.3112H67.9332V22.8551H71.0327V22.0977H67.0713V27.2628Z" fill="white"/>
<path d="M119.37 27.2628H123.332V26.5055H120.232V25.0346H122.676C122.824 24.8099 122.943 24.5667 123.028 24.3112H120.232V22.8551H123.332V22.0977H119.37V27.2628Z" fill="white"/>
<path d="M107.907 22.0977H105.635V27.2628H106.497V22.8551H107.873C108.639 22.8551 109.135 23.1995 109.135 23.8796C109.135 24.6114 108.648 24.9213 107.873 24.9213H107.092L106.76 25.6704H107.855C109.144 25.6704 110.014 25.0334 110.014 23.8451C110.014 22.7262 109.213 22.0977 107.907 22.0977Z" fill="white"/>
</g>
<defs>
<clipPath id="clip0_149_20389">
<rect width="136.186" height="32" fill="white" transform="translate(0.906982)"/>
</clipPath>
</defs>
</svg>
