<svg class="svg-icon-speech-bubble" xmlns="http://www.w3.org/2000/svg" width="72" height="61.14"><path d="M41.43 0a30.57 30.57 0 00-30.57 30.57 31 31 0 003 13.16L0 61.14h41.43a30.57 30.57 0 000-61.14z" fill="#fff"/><path d="M51.61 29h-19a1.37 1.37 0 000 2.73h19A1.37 1.37 0 0053 30.35 1.4 1.4 0 0051.61 29m-19.06 5.78a1.37 1.37 0 00-1.3 1.44 1.4 1.4 0 001.3 1.29h14a1.37 1.37 0 10.14-2.73H32.55zm18.63-9.1a1.37 1.37 0 000-2.73h-14a1.37 1.37 0 000 2.73zm-18.6 0a1.37 1.37 0 10-1.36-1.37 1.36 1.36 0 001.36 1.37m22.23 23.37a1.37 1.37 0 101.37 1.37 1.38 1.38 0 00-1.37-1.37m4.57-31.61A1.37 1.37 0 1058 16.08a1.39 1.39 0 001.37 1.36m-18-11.25A24.36 24.36 0 0021.11 44l-8.67 11H41.5a24.57 24.57 0 009.5-1.92 1.1 1.1 0 10-.87-2 22.34 22.34 0 01-8.66 1.76h-24.6l6.9-8.74-.47-.68A22.23 22.23 0 0155 12.91a1.07 1.07 0 001.41-1.62s-.08 0-.11-.07a23.8 23.8 0 00-14.82-5m24.33 24.35a24.39 24.39 0 01-7 17.12 1 1 0 01-1.51 0 1 1 0 010-1.51 22.34 22.34 0 004.75-24 1.08 1.08 0 01.57-1.4 1.1 1.1 0 011.41.58 24.67 24.67 0 011.79 9.24" fill="#030d11"/></svg>