<svg width="96" height="115" xmlns="http://www.w3.org/2000/svg" xmlns:xlink="http://www.w3.org/1999/xlink"><defs><path id="path-1" d="M0 .736h16.479v33.421H0z"/></defs><g id="THINGS-WE-MAKE" stroke="none" stroke-width="1" fill="none" fill-rule="evenodd"><g id="Things-We-Make" transform="translate(-685 -3987)"><g id="Group-30" transform="translate(685 3987)"><g id="Group-3" transform="translate(0 17.794)"><mask id="mask-2" fill="#fff"><use xlink:href="#path-1"/></mask><path d="M12.747 34.157a1.806 1.806 0 001.405-2.943C5.178 20.107 1.552 10.705 4.69 6.677c1.982-2.544 6.394-2.549 9.744-2.108a1.808 1.808 0 00.474-3.584C7.143-.042 3.513 2.305 1.837 4.456c-4.352 5.588-.888 16.169 9.503 29.029.357.443.88.672 1.407.672" id="Fill-1" fill="#00FF7F" mask="url(#mask-2)"/></g><path d="M20.834 54.067C13.766 60.495 4.02 70.5 1.008 83.11a1.807 1.807 0 103.515.84c2.782-11.638 12.03-21.102 18.744-27.208a1.808 1.808 0 00-2.433-2.674" id="Fill-4" fill="#00FF7F"/><path d="M31.902 44.061a2.282 2.282 0 100-4.563 2.282 2.282 0 000 4.563" id="Fill-6" fill="#00FF7F"/><path d="M34.06 19.24a1.809 1.809 0 002.296-1.124c1.76-5.137 3.904-10.287 7.647-13.18 1.42-1.098 2.83-1.504 4.301-1.25 2.206.383 4.547 2.287 6.422 5.223a1.808 1.808 0 103.047-1.945C56.35 4.736 53.31.886 48.923.124c-2.458-.424-4.925.247-7.13 1.951-4.498 3.476-6.915 9.2-8.857 14.868a1.808 1.808 0 001.124 2.296" id="Fill-8" fill="#00FF7F"/><path d="M31.137 27.79c6.11 2.85 12.184 6.285 18.051 10.21a1.807 1.807 0 102.01-3.004c-6.02-4.028-12.257-7.555-18.532-10.481a1.803 1.803 0 00-2.402.874 1.806 1.806 0 00.873 2.4" id="Fill-10" fill="#00FF7F"/><path d="M45.554 58.946a2.281 2.281 0 104.562.002 2.281 2.281 0 00-4.562-.002" id="Fill-12" fill="#00FF7F"/><path d="M15.943 93.598a12.036 12.036 0 01-8.037-.555 1.808 1.808 0 00-1.44 3.317 15.725 15.725 0 006.252 1.297c1.416 0 2.832-.192 4.205-.579a1.808 1.808 0 10-.98-3.48" id="Fill-14" fill="#00FF7F"/><path d="M82.756 71.748a2.28 2.28 0 002.282 2.28 2.28 2.28 0 100-4.561 2.282 2.282 0 00-2.282 2.28" id="Fill-16" fill="#00FF7F"/><path d="M94.376 82.13a1.804 1.804 0 00-2.274-1.167 1.807 1.807 0 00-1.167 2.274c.456 1.419 1.7 6.252-1.457 8.836-2.987 2.446-7.95 1.81-12.41.866a1.809 1.809 0 00-.747 3.537c2.369.5 4.874.915 7.292.915 2.99 0 5.849-.634 8.155-2.52 3.324-2.72 4.299-7.483 2.608-12.741" id="Fill-18" fill="#00FF7F"/><path d="M78.42 62.687c.434 0 .868-.155 1.214-.47.74-.67.795-1.813.124-2.552a156.846 156.846 0 00-12.35-12.16c.252-.335.395-.754.364-1.205-.496-7.174-1.384-13.605-2.671-19.479.207-.03.413-.09.607-.197C76.42 20.768 84.744 19.82 90.457 23.8c2.965 7.1-1.14 12.853-5.48 18.938-1.513 2.121-3.078 4.315-4.294 6.546a1.807 1.807 0 103.174 1.73c1.112-2.039 2.545-4.049 4.063-6.177 4.603-6.453 9.82-13.765 5.64-22.96l-.19-.42-.37-.278c-6.9-5.175-16.571-4.456-28.738 2.123a90.334 90.334 0 00-1.376-4.844 1.807 1.807 0 10-3.445 1.095c2.302 7.235 3.794 15.462 4.568 25.061-.494-.412-.976-.84-1.475-1.246a1.811 1.811 0 00-2.543.263 1.81 1.81 0 00.263 2.543 153.572 153.572 0 0116.826 15.92c.357.393.847.593 1.339.593" id="Fill-20" fill="#00FF7F"/><path d="M64.412 83.594a1.808 1.808 0 00-2.094 1.467c-1.42 8.053-3.56 14.633-6.54 20.117a1.807 1.807 0 103.176 1.728c3.17-5.834 5.435-12.774 6.924-21.217a1.808 1.808 0 00-1.466-2.094" id="Fill-22" fill="#00FF7F"/><path d="M47.836 110.231a2.282 2.282 0 10-.001 4.563 2.282 2.282 0 000-4.563" id="Fill-24" fill="#00FF7F"/><path d="M23.439 21.412a2.282 2.282 0 10-.001 4.563 2.282 2.282 0 000-4.563" id="Fill-26" fill="#00FF7F"/><path d="M69.188 61.608c-11.585 11.003-23.55 19.585-35.642 25.577C31.95 79.427 30.979 70.5 30.8 61.192a167.297 167.297 0 01-.031-3.258 1.808 1.808 0 00-3.615 0c0 1.117.01 2.227.032 3.327.19 9.99 1.23 19.395 2.974 27.53-.69.312-1.381.625-2.072.921a1.808 1.808 0 001.428 3.323c.494-.213.988-.44 1.482-.66 1.28 5.066 2.853 9.546 4.688 13.224a1.805 1.805 0 002.424.811 1.808 1.808 0 00.81-2.424c-1.781-3.574-3.322-8.056-4.57-13.172 12.69-6.172 25.225-15.092 37.326-26.585a1.808 1.808 0 10-2.49-2.62" id="Fill-28" fill="#00FF7F"/></g></g></g></svg>