<svg class="svg-icon-menu" xmlns="http://www.w3.org/2000/svg" width="90" height="90"><linearGradient id="svg-icon-menu__blue-green" x2="1" y2="1"><stop offset="0%" stop-color="#29FAFF"/><stop offset="100%" stop-color="#0FFF8C"/></linearGradient><linearGradient id="svg-icon-menu__orange-purple" x2="1" y2="1"><stop offset="0%" stop-color="#FFCC40"/><stop offset="100%" stop-color="#D636FC"/></linearGradient><g class="svg-icon-menu__icon"><path class="svg-icon-menu__icon-bottom -white" d="M68.14 53.1C65 62.9 56.1 69.59 45 69.59S25 62.92 21.86 53.1H32.2a14.72 14.72 0 0025.6 0z" fill="#ffff"/><path class="svg-icon-menu__icon-bottom -blue-green" d="M68.14 53.1C65 62.9 56.1 69.59 45 69.59S25 62.92 21.86 53.1H32.2a14.72 14.72 0 0025.6 0z" fill="url(#svg-icon-menu__blue-green)"/><path class="svg-icon-menu__icon-bottom -orange-purple" d="M68.14 53.1C65 62.9 56.1 69.59 45 69.59S25 62.92 21.86 53.1H32.2a14.72 14.72 0 0025.6 0z" fill="url(#svg-icon-menu__orange-purple)"/><path class="svg-icon-menu__icon-top" d="M20.61 45.12V45C20.61 31 31 20.41 45 20.41S69.39 30.94 69.39 45v.12h-9.53V45c0-8.63-6.13-15.55-14.86-15.55S30.14 36.37 30.14 45v.12z"/></g><g class="svg-icon-menu__label"><circle class="svg-icon-menu__label-background" cx="45" cy="45" r="45"/><path class="svg-icon-menu__label-text" d="M66.35 8.76l-3.47 7.53-1.88-.84 2.16-4.72-3.79 4-1.55-.73.53-5.47-2.17 4.67-1.83-.83 3.47-7.53 2.24 1-.37 6.18 4.43-4.33zm6.49 6.55l-1.25 1.22 2 2-1.08 1.06-2-2-1.33 1.31 2.23 2.26-1.14 1.15-3.64-3.7 5.94-5.85 3.63 3.69-1.14 1.12zm3.65 16.61l-.9-1.8 3.06-5.3-4.57 2.3-.9-1.79 7.45-3.76.9 1.8-3.1 5.34L83 26.39l.9 1.79zm9.92 4.88l-4.76.69a1.91 1.91 0 00-1.2.55 1.56 1.56 0 00.31 2.14 1.79 1.79 0 001.3.19l4.76-.7.28 2-4.75.7a4 4 0 01-2-.17 3 3 0 01-1.39-1.06 4.1 4.1 0 01-.68-1.71 3.64 3.64 0 01.15-1.82 3 3 0 011-1.37 4.34 4.34 0 011.92-.71l4.75-.69z"/></g></svg>