<svg width="63" height="98" xmlns="http://www.w3.org/2000/svg" xmlns:xlink="http://www.w3.org/1999/xlink"><defs><path id="path-1" d="M0 0h63v98H0z"/></defs><g id="THINGS-WE-MAKE" stroke="none" stroke-width="1" fill="none" fill-rule="evenodd"><g id="Things-We-Make" transform="translate(-720 -4164)"><g id="Group-3" transform="translate(720 4164)"><mask id="mask-2" fill="#fff"><use xlink:href="#path-1"/></mask><path d="M44.87 47.88c0 1.73-1.42 3.133-3.173 3.133H23.57c-1.753 0-3.173-1.402-3.173-3.132 0-1.73 1.42-3.133 3.173-3.133h18.128c1.753 0 3.173 1.404 3.173 3.133M63 3.132c0 1.73-1.421 3.133-3.173 3.133H23.57c-1.753 0-3.173-1.402-3.173-3.133 0-1.73 1.42-3.132 3.173-3.132h36.258C61.58 0 63 1.402 63 3.132M6.345 59.07v35.799c0 1.73-1.42 3.132-3.172 3.132C1.42 98 0 96.598 0 94.868v-35.8c0-1.73 1.42-3.132 3.173-3.132 1.752 0 3.172 1.403 3.172 3.133M0 23.269c0-1.73 1.42-3.133 3.173-3.133 1.752 0 3.172 1.402 3.172 3.132 0 1.73-1.42 3.133-3.172 3.133C1.42 26.4 0 24.999 0 23.268M0 3.132C0 1.402 1.42 0 3.173 0c1.752 0 3.172 1.402 3.172 3.132 0 1.73-1.42 3.133-3.172 3.133C1.42 6.265 0 4.863 0 3.132" id="Fill-1" fill="#00FF7F" mask="url(#mask-2)"/></g></g></g></svg>