<svg class="svg-logo-entropy" xmlns="http://www.w3.org/2000/svg" width="144" height="32.21"><linearGradient id="svg-logo-entropy__orange-purple" x2="1" y2="1"><stop offset="0%" stop-color="#FFCC40"/><stop offset="100%" stop-color="#D636FC"/></linearGradient><linearGradient id="svg-logo-entropy__blue-green" x2="1" y2="1"><stop offset="0%" stop-color="#29FAFF"/><stop offset="100%" stop-color="#0FFF8C"/></linearGradient><path class="svg-logo-entropy__text-bottom -white" d="M34.92 17.09h3.66V23h-3.66zM21.28 23h3.65v-5.91h-3.65zM9.37 20.22a5.82 5.82 0 01-5.18-3.13H.47a9.09 9.09 0 008.84 6.31 9.46 9.46 0 007.61-3.4l-2.39-2.27a6.39 6.39 0 01-5.16 2.49zM51.75 20a3.33 3.33 0 01-2.5-1 3.07 3.07 0 01-.53-1.89h-3.63a6.46 6.46 0 001.45 4.19 6.51 6.51 0 005.09 2.12 10.23 10.23 0 002.83-.42l-.73-3.3a9.1 9.1 0 01-1.98.3zm49 0a6.21 6.21 0 01-5-2.56v-.3H92.1v15.07h3.65V21.46a8 8 0 005.46 1.94 9.37 9.37 0 004.54-1.18 9.35 9.35 0 004.09-5.1h-4a5.93 5.93 0 01-5.13 2.88zm16-2.86l1.91 4-4.86 11.08h3.86l6.57-15.12zM58.33 23H62v-5.91h-3.67zM79 20a5.47 5.47 0 01-4.9-2.86h-4a9.35 9.35 0 0017.69 0h-4A5.45 5.45 0 0179 20z" fill="#fff"/><path class="svg-logo-entropy__text-bottom -blue-green" d="M34.92 17.09h3.66V23h-3.66zM21.28 23h3.65v-5.91h-3.65zM9.37 20.22a5.82 5.82 0 01-5.18-3.13H.47a9.09 9.09 0 008.84 6.31 9.46 9.46 0 007.61-3.4l-2.39-2.27a6.39 6.39 0 01-5.16 2.49zM51.75 20a3.33 3.33 0 01-2.5-1 3.07 3.07 0 01-.53-1.89h-3.63a6.46 6.46 0 001.45 4.19 6.51 6.51 0 005.09 2.12 10.23 10.23 0 002.83-.42l-.73-3.3a9.1 9.1 0 01-1.98.3zm49 0a6.21 6.21 0 01-5-2.56v-.3H92.1v15.07h3.65V21.46a8 8 0 005.46 1.94 9.37 9.37 0 004.54-1.18 9.35 9.35 0 004.09-5.1h-4a5.93 5.93 0 01-5.13 2.88zm16-2.86l1.91 4-4.86 11.08h3.86l6.57-15.12zM58.33 23H62v-5.91h-3.67zM79 20a5.47 5.47 0 01-4.9-2.86h-4a9.35 9.35 0 0017.69 0h-4A5.45 5.45 0 0179 20z" fill="url(#svg-logo-entropy__blue-green)"/><path class="svg-logo-entropy__text-bottom -orange-purple" d="M34.92 17.09h3.66V23h-3.66zM21.28 23h3.65v-5.91h-3.65zM9.37 20.22a5.82 5.82 0 01-5.18-3.13H.47a9.09 9.09 0 008.84 6.31 9.46 9.46 0 007.61-3.4l-2.39-2.27a6.39 6.39 0 01-5.16 2.49zM51.75 20a3.33 3.33 0 01-2.5-1 3.07 3.07 0 01-.53-1.89h-3.63a6.46 6.46 0 001.45 4.19 6.51 6.51 0 005.09 2.12 10.23 10.23 0 002.83-.42l-.73-3.3a9.1 9.1 0 01-1.98.3zm49 0a6.21 6.21 0 01-5-2.56v-.3H92.1v15.07h3.65V21.46a8 8 0 005.46 1.94 9.37 9.37 0 004.54-1.18 9.35 9.35 0 004.09-5.1h-4a5.93 5.93 0 01-5.13 2.88zm16-2.86l1.91 4-4.86 11.08h3.86l6.57-15.12zM58.33 23H62v-5.91h-3.67zM79 20a5.47 5.47 0 01-4.9-2.86h-4a9.35 9.35 0 0017.69 0h-4A5.45 5.45 0 0179 20z" fill="url(#svg-logo-entropy__orange-purple)"/><path class="svg-logo-entropy__text-top" d="M0 14.06c0-5.42 3.68-9.4 8.78-9.4s8.67 4.06 8.67 9.4zm3.83-2.36h9.82A5.06 5.06 0 008.9 7.78a5.26 5.26 0 00-5.07 3.92zm21.1 2.36v-3.42a6.66 6.66 0 015.19-2.56 4.77 4.77 0 013.71 1.76c.65.8 1.06 1.89 1.06 4.19h3.66c0-3-.62-4.84-1.77-6.25a8.41 8.41 0 00-6.57-3.18 7.72 7.72 0 00-5.42 2.12V5h-3.54v9.05zm20.16 0h3.66V8.25h5.74V5h-5.74V0h-3.66v5h-4.6v3.25h4.6zm16.86 0v-3a6 6 0 014.86-3 5.71 5.71 0 011.42.14l.44-3.5a7.46 7.46 0 00-1.41-.12A6.72 6.72 0 0061.83 7V5H58.3v9zm11.32 0a5.69 5.69 0 1111.37 0h3.66a9.32 9.32 0 10-18.63 0zm22.48 0v-3.42a6.42 6.42 0 015.13-2.56 5.79 5.79 0 015.81 5.92h3.65a9.5 9.5 0 00-4.65-8.25 8.51 8.51 0 00-4.42-1.15 8.34 8.34 0 00-5.63 2V5H92.1v9.05zm29.8 0l4-9h-3.83l-4 9.05zm-6.42 0l-4.31-9h-3.92l4.34 9.05z"/><path class="svg-logo-entropy__cursor" d="M126.76 21.43H144v2h-17.24z"/></svg>