<svg width="286" height="64" xmlns="http://www.w3.org/2000/svg" xmlns:xlink="http://www.w3.org/1999/xlink"><defs><path id="path-1" d="M0 .018h89.35v62.897H0z"/></defs><g id="Desktop" stroke="none" stroke-width="1" fill="none" fill-rule="evenodd"><g id="What-We-Do" transform="translate(-141 -4663)"><g id="Clients" transform="translate(132 4663)"><g id="Dictionay"><g id="Group-32" transform="translate(9)"><path d="M177.77 40.78c-1.521.077-2.358.385-2.662 2 0 .154-.076.385-.076.692 0 .847.304 1.77 1.901 1.77a6 6 0 002.89-.77c.153-.077.305-.307.305-.461l.38-2.462c.076-.23 0-.384-.152-.538-.152-.154-.304-.308-.532-.308l-2.054.077zm4.488 7.615c-.913 0-2.13-.076-2.815-.153a15.81 15.81 0 00.305-1.77l.076-.307h-.076l-.076.077c-.99 1.461-2.054 2-3.575 2h-.533C172.445 48.01 171 46.78 171 44.01c0-.385 0-.77.076-1.23.685-3.616 3.271-4.386 7.226-4.616l2.435-.077c.304 0 .608-.308.608-.539l.38-2.077c.077-.384-.228-.846-.608-1-.913-.307-1.978-.461-2.967-.461-1.14 0-2.738.23-3.88.461-.151 0-.151-.077-.227-.153 0-.308-.076-.616-.076-1.077 0-.693 0-1.385.152-2.077 0-.077.076-.154.228-.231 1.444-.308 3.043-.539 4.64-.539 2.434 0 5.02.539 6.542 1.462.304.23.532.692.456 1.077 0 .077-1.673 9.77-1.825 10.77 0 .076-.457 3.384-.533 4.46-.304.231-.837.231-1.369.231z" id="Fill-1" fill="#D636FC"/><g id="Group-5" transform="translate(0 .395)"><mask id="mask-2" fill="#fff"><use xlink:href="#path-1"/></mask><path d="M69.296 59.298c-12.394 0-22.579-9.831-22.579-21.942s10.106-22.02 22.58-22.02c5.684 0 10.894 2.044 14.842 5.505h5.21a26.54 26.54 0 00-19.974-9.044c-4.342 0-8.447 1.022-12.079 2.91L47.902.864c-.553-.864-1.658-1.1-2.527-.549-.868.55-1.026 1.651-.473 2.516l9.237 13.684c-1.343.865-2.527 1.966-3.711 3.146L27.375.865c-.79-.63-1.973-.55-2.605.236-.631.786-.552 1.966.237 2.595L48.06 22.413c-.869 1.101-1.58 2.281-2.21 3.54L2.664 3.774C1.717 3.303.69 3.618.217 4.56c-.473.945-.157 1.967.79 2.44l43.421 22.257c-.474 1.494-.947 3.224-1.105 4.875L6.375 25.245c-1.026-.236-1.973.314-2.29 1.337a1.982 1.982 0 001.343 2.202l37.579 8.965c0 1.73.237 3.46.632 5.033l-25.737 1.652c-1.027.078-1.737.865-1.737 1.966.079.944.947 1.73 1.974 1.651L44.823 46.4c3.79 9.594 13.342 16.515 24.552 16.515 7.737 0 14.606-3.224 19.421-8.415h-5.368c-3.947 2.989-8.842 4.798-14.132 4.798" id="Fill-3" fill="#D636FC" mask="url(#mask-2)"/></g><path d="M72.19 27.72c-.812 0-2.031 0-3.007.157h-.162l-2.926 15.959h.244c.731.078 2.438.157 3.332.157 4.795 0 7.72-4.088 7.72-10.928 0-3.38-1.869-5.346-5.2-5.346m-3.333 20.676c-2.682 0-6.582-.157-8.858-.471l4.47-24.057c2.275-.314 6.42-.472 8.777-.472 6.339 0 9.752 3.538 9.752 9.985.081 8.962-5.689 15.015-14.14 15.015" id="Fill-6" fill="#D636FC"/><path d="M90.89 28.332c-1.554 0-2.045-1.035-2.045-1.99 0-1.752 1.31-2.947 3.11-2.947 1.554 0 2.045 1.035 2.045 1.99 0 1.752-1.227 2.947-3.11 2.947zM85 48.395l3.273-17.675h4.418l-3.273 17.675H85z" id="Fill-8" fill="#D636FC"/><path d="M102.236 48.395c-4.562 0-7.236-2.571-7.236-6.857 0-.779.079-1.558.236-2.415 1.022-5.767 4.011-8.728 9.045-8.728 1.573 0 3.46.312 4.719.702-.236 1.09-.63 2.571-1.18 3.818a10.848 10.848 0 00-3.303-.546c-2.596 0-3.854 1.403-4.483 4.91-.158.857-.236 1.48-.236 2.103 0 2.26 1.022 3.195 3.54 3.195 1.022 0 2.437-.311 3.538-.857a22.64 22.64 0 01.315 3.818c-1.18.39-3.54.857-4.955.857" id="Fill-10" fill="#D636FC"/><path d="M115.842 48c-3.395 0-5.131-1.544-5.131-4.633 0-.65.078-1.219.157-1.706l1.421-8.29H110l.632-3.738h2.29l.71-3.902c1.342-.325 3-.65 4.42-.731l-.789 4.551H122c-.158 1.057-.395 2.438-.868 3.739h-4.5l-1.5 8.533c-.08.244-.08.407-.08.57 0 1.462 1.027 1.625 2.211 1.625.79 0 1.816-.244 2.526-.488 0 .406.08.894.08 1.382 0 .894-.08 1.788-.158 2.357-1.027.487-2.843.731-3.869.731" id="Fill-12" fill="#D636FC"/><path d="M128.89 28.332c-1.554 0-2.045-1.035-2.045-1.99 0-1.752 1.31-2.947 3.11-2.947 1.554 0 2.045 1.035 2.045 1.99-.082 1.752-1.227 2.947-3.11 2.947zM123 48.395l3.273-17.675h4.418l-3.273 17.675H123z" id="Fill-14" fill="#D636FC"/><path d="M142.258 33.824c-2.394 0-3.671 1.636-4.31 5.455-.16.857-.24 1.636-.24 2.26 0 2.181 1.038 3.272 3.035 3.272 2.394 0 3.591-1.558 4.309-5.455.16-.779.24-1.636.24-2.26-.08-2.181-1.038-3.272-3.034-3.272m-1.835 14.571c-4.71 0-7.423-2.493-7.423-6.857 0-.857.16-1.87.24-2.571.957-5.455 4.23-8.572 9.337-8.572 4.71 0 7.423 2.494 7.423 6.858 0 .7-.079 1.636-.24 2.571-.957 5.532-4.229 8.571-9.337 8.571" id="Fill-16" fill="#D636FC"/><path d="M161.138 48.395l2.105-12c.078-.315.078-.394.078-.552 0-1.184-.858-1.816-2.417-1.816-1.015 0-2.106.316-3.276.947l-.078.08-2.34 13.262H151l3.12-17.368c1.247-.158 2.885-.237 4.288-.316l-.312 1.816h.623l.08-.079c1.715-1.816 3.274-1.974 4.756-1.974 1.716 0 4.445.474 4.445 3.948 0 .316-.078.79-.156 1.342l-2.261 12.553h-4.445v.157z" id="Fill-18" fill="#D636FC"/><path d="M189 48.395l3.133-17.444c1.253-.16 2.896-.238 4.307-.318l-.392 2.3h.156l.08-.08c1.722-2.14 3.68-2.458 4.698-2.458.312 0 .783.08 1.018.159-.314 1.427-.706 3.093-1.175 4.44-.47-.158-1.018-.158-1.644-.158-1.175 0-2.506.317-3.603.872l-.078.08-2.272 12.528H189v.08z" id="Fill-20" fill="#D636FC"/><path d="M202.271 56.395c-.654 0-2.29-.078-3.271-.55.327-1.415.736-2.751 1.227-3.773.736.235 1.963.314 2.862.314 1.39 0 2.045-.393 2.945-1.808l.98-1.415v-.079c-1.144-3.93-2.615-10.77-2.862-17.374 1.227-.157 2.945-.236 4.253-.315l1.145 10.535c.082.314.165 1.18.165 2.044v.236h.653l.082-.157c.245-.63.491-1.337.9-2.044l5.316-10.614c1.227 0 3.107.08 4.334.236l-9.24 17.06c-3.355 6.447-6.054 7.704-9.489 7.704" id="Fill-22" fill="#D636FC"/><path d="M221.176 48.395c-1.37 0-2.176-.6-2.176-1.6 0-1.733 1.612-2.4 2.982-2.4 1.21 0 2.015.667 2.015 1.667.08 1.667-1.531 2.333-2.82 2.333" id="Fill-24" fill="#D636FC"/><path d="M234.236 48.395c-4.562 0-7.236-2.571-7.236-6.857 0-.779.078-1.558.236-2.415 1.022-5.767 4.01-8.728 9.045-8.728 1.573 0 3.46.312 4.719.702-.236 1.09-.63 2.571-1.18 3.818a10.857 10.857 0 00-3.304-.546c-2.595 0-3.853 1.403-4.483 4.91-.157.857-.236 1.48-.236 2.103 0 2.26 1.022 3.195 3.54 3.195 1.101 0 2.359-.311 3.303-.701.158 1.247.236 2.65.236 3.896-1.258.312-3.303.623-4.64.623" id="Fill-26" fill="#D636FC"/><path d="M251.258 33.824c-2.394 0-3.671 1.636-4.309 5.455-.16.857-.24 1.636-.24 2.26 0 2.181 1.038 3.272 3.034 3.272 2.394 0 3.591-1.558 4.309-5.455.16-.779.24-1.636.24-2.26-.08-2.181-1.038-3.272-3.034-3.272m-1.835 14.571c-4.709 0-7.423-2.493-7.423-6.857 0-.857.16-1.87.24-2.571.957-5.455 4.23-8.572 9.337-8.572 4.71 0 7.423 2.494 7.423 6.858 0 .7-.079 1.636-.24 2.571-.957 5.532-4.229 8.571-9.337 8.571" id="Fill-28" fill="#D636FC"/><path d="M279.265 48.395l2.115-11.766c.078-.234.078-.311.078-.545 0-.857-.314-1.792-2.193-1.792-.94 0-2.037.39-2.976.935l-.078.078-2.35 13.013h-4.228l2.114-11.845c.079-.311.079-.467.079-.623 0-.78-.314-1.714-2.115-1.714-1.018 0-1.88.311-3.055.935l-.077.078-2.35 13.013H260l3.132-17.143c1.254-.156 2.899-.234 4.308-.312l-.313 1.792h.627l.077-.078c1.645-1.636 2.977-1.948 4.699-1.948 1.958 0 3.132.78 3.368 2.182l.078.39.313-.312c1.723-1.636 3.289-2.338 5.246-2.338 1.646 0 4.465.468 4.465 3.897 0 .39-.078.935-.157 1.324l-2.427 12.546h-4.15v.233z" id="Fill-30" fill="#D636FC"/></g></g></g></g></g></svg>