<svg class="svg-logo-entropy-large" xmlns="http://www.w3.org/2000/svg" width="200" height="44.74"><path d="M48.51 23.74h5.07V32h-5.07zM29.55 32h5.08v-8.26h-5.08zM13 28.08a8.12 8.12 0 01-7.21-4.34H.65a12.63 12.63 0 0012.28 8.76 13.14 13.14 0 0010.57-4.71l-3.32-3.15A8.85 8.85 0 0113 28.08zm58.86-.37a4.66 4.66 0 01-3.48-1.35 4.31 4.31 0 01-.74-2.62h-5a9 9 0 002 5.81 9.08 9.08 0 007.09 2.95 13.84 13.84 0 003.91-.5l-1-4.59a11.68 11.68 0 01-2.76.3zm68 0a8.62 8.62 0 01-6.86-3.56v-.41h-5.07v21H133V29.8a11.13 11.13 0 007.57 2.7 13 13 0 006.31-1.64 13 13 0 005.69-7.08H147a8.23 8.23 0 01-7.12 3.93zm22.23-4l2.66 5.61L158 44.74h5.36l9.13-21zM81 32h5.07v-8.26H81zm28.65-4.26a7.58 7.58 0 01-6.79-4h-5.48a13 13 0 0024.56 0h-5.48a7.6 7.6 0 01-6.8 3.97zM0 19.53v-.05c0-7.53 5.12-13 12.2-13s12 5.65 12 13.05v.05zm5.32-3.28H19a7 7 0 00-6.59-5.44 7.31 7.31 0 00-7.09 5.44zm29.31 3.28v-4.75a9.26 9.26 0 017.2-3.56A6.65 6.65 0 0147 13.67c.9 1.11 1.47 2.62 1.47 5.81v.05h5.08c0-4.18-.86-6.72-2.46-8.68A11.63 11.63 0 0042 6.43a10.81 10.81 0 00-7.54 2.94V7h-4.95v12.53zm28 0h5.07v-8.07h8V6.92h-8V0h-5.07v6.92h-6.39v4.54h6.39zm23.41 0v-4.1a8.4 8.4 0 016.76-4.21 8.16 8.16 0 012 .2l.61-4.87a10.8 10.8 0 00-2-.16 9.28 9.28 0 00-7.53 3.39V6.92H81v12.56zm15.72 0v-.05c0-4.58 3.23-8.26 7.9-8.26s7.9 3.68 7.9 8.26v.05h5.08v-.05a12.94 12.94 0 10-25.87 0v.05zm31.23 0v-4.75a8.9 8.9 0 017.12-3.56 8 8 0 018.07 8.26v.05h5.07v-.05A13.18 13.18 0 00146.79 8a11.92 11.92 0 00-6.14-1.59 11.65 11.65 0 00-7.82 2.82V7h-4.91v12.53zm41.39 0L179.86 7h-5.32l-5.49 12.57zm-8.93 0L159.48 7H154l6 12.57zm10.6 10.23H200v2.78h-23.95z" fill="#030d11"/></svg>