<svg width="1010" height="415" xmlns="http://www.w3.org/2000/svg" xmlns:xlink="http://www.w3.org/1999/xlink"><defs><linearGradient x1="57.265%" y1="83.645%" x2="57.265%" y2="-69.723%" id="linearGradient-1"><stop stop-color="#FFCC40" offset="0%"/><stop stop-color="#D636FC" offset="100%"/></linearGradient><path d="M565.25 406.676c21.416 0 38.776 17.33 38.776 38.709V673.29c0 21.379-17.36 38.71-38.776 38.71-21.415 0-38.774-17.331-38.774-38.71V445.385c0-21.379 17.36-38.709 38.774-38.709zm107.974 131.79c21.416 0 38.776 17.356 38.776 38.763 0 21.407-17.36 38.761-38.776 38.761-21.414 0-38.774-17.354-38.774-38.761 0-21.407 17.36-38.763 38.774-38.763zm-.595-332.159c21.415 0 38.774 17.33 38.774 38.71v227.904c0 21.379-17.36 38.71-38.774 38.71-21.416 0-38.776-17.331-38.776-38.71V245.017c0-21.38 17.36-38.71 38.776-38.71zM445.345 366.722c21.416 0 38.776 17.354 38.776 38.76 0 21.41-17.36 38.763-38.776 38.763-21.414 0-38.774-17.354-38.774-38.762 0-21.407 17.36-38.761 38.774-38.761zm119.31-64.405c21.414 0 38.774 17.355 38.774 38.763 0 21.407-17.36 38.761-38.774 38.761-21.416 0-38.776-17.354-38.776-38.761 0-21.408 17.36-38.763 38.776-38.763zM444.75 34.563c21.415 0 38.774 17.33 38.774 38.709v227.906c0 21.378-17.36 38.709-38.774 38.709-21.416 0-38.776-17.33-38.776-38.71V73.273c0-21.379 17.36-38.71 38.776-38.71zm120.5-65.597c21.416 0 38.776 17.331 38.776 38.71V235.58c0 21.378-17.36 38.709-38.776 38.709-21.415 0-38.774-17.33-38.774-38.71V7.677c0-21.379 17.36-38.71 38.774-38.71zM336.775 130.573c21.414 0 38.775 17.354 38.775 38.761 0 21.407-17.36 38.762-38.775 38.762S298 190.741 298 169.334s17.36-38.761 38.775-38.761zm335.854-255.828c21.415 0 38.774 17.331 38.774 38.71v227.904c0 21.38-17.36 38.71-38.774 38.71-21.416 0-38.776-17.33-38.776-38.71V-86.546c0-21.378 17.36-38.71 38.776-38.71zM337.37-202.78c21.416 0 38.776 17.33 38.776 38.709V63.835c0 21.38-17.36 38.71-38.776 38.71-21.415 0-38.774-17.33-38.774-38.71V-164.07c0-21.379 17.36-38.709 38.774-38.709zM444.75-297c21.415 0 38.774 17.331 38.774 38.71v227.904c0 21.378-17.36 38.71-38.774 38.71-21.416 0-38.776-17.332-38.776-38.71V-258.29c0-21.379 17.36-38.71 38.776-38.71z" id="path-2"/></defs><g id="Desktop" stroke="none" stroke-width="1" fill="none" fill-rule="evenodd"><g id="Case-Studies-Landing" transform="translate(-289 -1951)"><g id="MediaCom" transform="translate(129 1890)"><g id="christian-wiediger-WkfDrhxDMC8-unsplash-Copy-2" transform="translate(160 61)"><mask id="mask-3" fill="#fff"><use xlink:href="#path-2"/></mask><use id="Mask" fill="url(#linearGradient-1)" transform="rotate(90 505 207.5)" xlink:href="#path-2"/></g></g></g></g></svg>