<svg width="939" height="285" xmlns="http://www.w3.org/2000/svg"><defs><linearGradient x1="50%" y1="100%" x2="50%" y2="0%" id="linearGradient-1"><stop stop-color="#D636FC" offset="0%"/><stop stop-color="#FFCC40" offset="100%"/></linearGradient></defs><g id="Desktop" stroke="none" stroke-width="1" fill="none" fill-rule="evenodd"><g id="What-We-Do" transform="translate(-220 -4275)" fill="url(#linearGradient-1)"><g id="Who-We-Work-With" transform="translate(130 3949)"><path d="M666 654c19.883 0 36 16.12 36 36.005v211.989C702 921.879 685.883 938 666 938s-36-16.121-36-36.006V690.005C630 670.12 646.117 654 666 654zM453 494c19.883 0 36 16.121 36 36.006v211.988C489 761.88 472.883 778 453 778s-36-16.12-36-36.006V530.006C417 510.121 433.117 494 453 494zm101 123c19.882 0 36 16.118 36 36s-16.118 36-36 36-36-16.118-36-36 16.118-36 36-36zm111-60c19.882 0 36 16.118 36 36s-16.118 36-36 36-36-16.118-36-36 16.118-36 36-36zM553 308c19.883 0 36 16.12 36 36.005v211.99C589 575.88 572.883 592 553 592s-36-16.12-36-36.005v-211.99C517 324.12 533.117 308 553 308zm113-61c19.883 0 36 16.121 36 36.006v211.989C702 514.88 685.883 531 666 531s-36-16.12-36-36.005V283.006C630 263.121 646.117 247 666 247zM453 397c19.881 0 36 16.118 36 36 0 19.881-16.119 36-36 36-19.882 0-36-16.119-36-36 0-19.882 16.118-36 36-36zm0-310c19.883 0 36 16.12 36 36.005v211.989C489 354.88 472.883 371 453 371s-36-16.12-36-36.006V123.005C417 103.12 433.117 87 453 87zM553-1c19.883 0 36 16.121 36 36.006v211.988C589 266.879 572.883 283 553 283s-36-16.121-36-36.006V35.006C517 15.121 533.117-1 553-1z" id="Combined-Shape" transform="rotate(90 559.5 468.5)"/></g></g></g></svg>