<svg width="766" height="314" xmlns="http://www.w3.org/2000/svg" xmlns:xlink="http://www.w3.org/1999/xlink"><defs><linearGradient x1="50%" y1="0%" x2="50%" y2="100%" id="linearGradient-1"><stop stop-color="#0FFF8C" offset="0%"/><stop stop-color="#29FAFF" offset="100%"/></linearGradient><path d="M428.697 308.208c16.243 0 29.41 13.157 29.41 29.386v173.019c0 16.23-13.167 29.387-29.41 29.387-16.242 0-29.409-13.157-29.409-29.387V337.594c0-16.23 13.167-29.386 29.409-29.386zm81.893 100.05c16.243 0 29.41 13.176 29.41 29.428 0 16.252-13.167 29.426-29.41 29.426-16.242 0-29.408-13.174-29.408-29.426s13.166-29.427 29.408-29.427zm-.451-252.163c16.242 0 29.409 13.156 29.409 29.387v173.017c0 16.23-13.167 29.388-29.41 29.388-16.242 0-29.409-13.158-29.409-29.388V185.482c0-16.23 13.167-29.387 29.41-29.387zm-172.384 121.78c16.242 0 29.41 13.176 29.41 29.427 0 16.253-13.168 29.427-29.41 29.427s-29.41-13.174-29.41-29.427c0-16.251 13.168-29.426 29.41-29.426zm90.49-48.893c16.242 0 29.41 13.175 29.41 29.427s-13.168 29.427-29.41 29.427-29.41-13.175-29.41-29.427 13.168-29.427 29.41-29.427zm-90.942-203.27c16.242 0 29.409 13.156 29.409 29.386v173.019c0 16.23-13.167 29.387-29.409 29.387-16.243 0-29.41-13.157-29.41-29.387V55.098c0-16.23 13.167-29.386 29.41-29.386zm91.394-49.8c16.243 0 29.41 13.158 29.41 29.388v173.018c0 16.23-13.167 29.386-29.41 29.386-16.242 0-29.409-13.156-29.409-29.386V5.3c0-16.23 13.167-29.387 29.409-29.387zM255.409 98.6c16.242 0 29.41 13.175 29.41 29.427 0 16.251-13.168 29.427-29.41 29.427S226 144.277 226 128.026c0-16.252 13.167-29.427 29.409-29.427zm254.73-194.216c16.242 0 29.409 13.157 29.409 29.387v173.018c0 16.23-13.167 29.387-29.41 29.387-16.242 0-29.409-13.157-29.409-29.387V-66.23c0-16.23 13.167-29.387 29.41-29.387zM255.86-154.47c16.243 0 29.41 13.156 29.41 29.386V47.934c0 16.23-13.167 29.388-29.41 29.388-16.242 0-29.409-13.157-29.409-29.388v-173.018c0-16.23 13.167-29.386 29.41-29.386zM337.303-226c16.242 0 29.409 13.157 29.409 29.387v173.018c0 16.23-13.167 29.387-29.409 29.387-16.243 0-29.41-13.158-29.41-29.387v-173.018c0-16.23 13.167-29.387 29.41-29.387z" id="path-2"/></defs><g id="Desktop" stroke="none" stroke-width="1" fill="none" fill-rule="evenodd"><g id="Remarkable" transform="translate(-264 -2035)"><g id="Case-Studies" transform="translate(-237 1586)"><g id="christian-wiediger-WkfDrhxDMC8-unsplash" transform="translate(501 449)"><mask id="mask-3" fill="#fff"><use xlink:href="#path-2"/></mask><use id="Mask" fill="url(#linearGradient-1)" transform="rotate(90 383 157)" xlink:href="#path-2"/></g></g></g></g></svg>