<svg width="939" height="285" xmlns="http://www.w3.org/2000/svg"><defs><linearGradient x1="50%" y1="100%" x2="50%" y2="0%" id="linearGradient-1"><stop stop-color="#D636FC" offset="0%"/><stop stop-color="#FFCC40" offset="100%"/></linearGradient></defs><g id="Desktop" stroke="none" stroke-width="1" fill="none" fill-rule="evenodd"><g id="What-We-Do" transform="translate(-261 -554)" fill="url(#linearGradient-1)"><g id="Main-Banner" transform="translate(135 319)"><path d="M702 563c19.883 0 36 16.12 36 36.005v211.989C738 830.879 721.883 847 702 847s-36-16.121-36-36.006V599.005C666 579.12 682.117 563 702 563zM489 403c19.883 0 36 16.121 36 36.006v211.988C525 670.88 508.883 687 489 687s-36-16.12-36-36.006V439.006C453 419.121 469.117 403 489 403zm101 123c19.882 0 36 16.118 36 36s-16.118 36-36 36-36-16.118-36-36 16.118-36 36-36zm111-60c19.882 0 36 16.118 36 36s-16.118 36-36 36-36-16.118-36-36 16.118-36 36-36zM589 217c19.883 0 36 16.12 36 36.005v211.99C625 484.88 608.883 501 589 501s-36-16.12-36-36.005v-211.99C553 233.12 569.117 217 589 217zm113-61c19.883 0 36 16.121 36 36.006v211.989C738 423.88 721.883 440 702 440s-36-16.12-36-36.005V192.006C666 172.121 682.117 156 702 156zM489 306c19.881 0 36 16.118 36 36 0 19.881-16.119 36-36 36-19.882 0-36-16.119-36-36 0-19.882 16.118-36 36-36zm0-310c19.883 0 36 16.12 36 36.005v211.989C525 263.88 508.883 280 489 280s-36-16.12-36-36.006V32.005C453 12.12 469.117-4 489-4zm100-88c19.883 0 36 16.121 36 36.006v211.988C625 175.879 608.883 192 589 192s-36-16.121-36-36.006V-55.994C553-75.879 569.117-92 589-92z" id="Combined-Shape" transform="rotate(90 595.5 377.5)"/></g></g></g></svg>