<svg width="939" height="285" xmlns="http://www.w3.org/2000/svg"><defs><linearGradient x1="50%" y1="0%" x2="50%" y2="100%" id="linearGradient-1"><stop stop-color="#0FFF8C" offset="0%"/><stop stop-color="#29FAFF" offset="100%"/></linearGradient></defs><g id="Desktop" stroke="none" stroke-width="1" fill="none" fill-rule="evenodd"><g id="Who-We-Are" transform="translate(-287 -888)" fill="url(#linearGradient-1)"><g id="Main-Banner" transform="translate(141 319)"><path d="M722 897c19.883 0 36 16.12 36 36.005v211.989c0 19.885-16.117 36.006-36 36.006s-36-16.121-36-36.006V933.005C686 913.12 702.117 897 722 897zM509 737c19.883 0 36 16.121 36 36.006v211.988c0 19.886-16.117 36.006-36 36.006s-36-16.12-36-36.006V773.006C473 753.121 489.117 737 509 737zm101 123c19.882 0 36 16.118 36 36s-16.118 36-36 36-36-16.118-36-36 16.118-36 36-36zm111-60c19.882 0 36 16.118 36 36s-16.118 36-36 36-36-16.118-36-36 16.118-36 36-36zM609 551c19.883 0 36 16.12 36 36.005v211.99C645 818.88 628.883 835 609 835s-36-16.12-36-36.005v-211.99C573 567.12 589.117 551 609 551zm113-61c19.883 0 36 16.121 36 36.006v211.989C758 757.88 741.883 774 722 774s-36-16.12-36-36.005V526.006C686 506.121 702.117 490 722 490zM509 640c19.881 0 36 16.118 36 36 0 19.881-16.119 36-36 36-19.882 0-36-16.119-36-36 0-19.882 16.118-36 36-36zm0-310c19.883 0 36 16.12 36 36.005v211.989C545 597.88 528.883 614 509 614s-36-16.12-36-36.006V366.005C473 346.12 489.117 330 509 330zm100-88c19.883 0 36 16.121 36 36.006v211.988C645 509.879 628.883 526 609 526s-36-16.121-36-36.006V278.006C573 258.121 589.117 242 609 242z" id="Combined-Shape" transform="rotate(-90 615.5 711.5)"/></g></g></g></svg>