<svg width="767" height="316" xmlns="http://www.w3.org/2000/svg" xmlns:xlink="http://www.w3.org/1999/xlink"><defs><linearGradient x1="50%" y1="0%" x2="50%" y2="100%" id="linearGradient-1"><stop stop-color="#FFCC40" offset="0%"/><stop stop-color="#D636FC" offset="100%"/></linearGradient><path d="M429.343 309.208c16.294 0 29.503 13.157 29.503 29.386v173.019c0 16.23-13.209 29.387-29.503 29.387s-29.503-13.157-29.503-29.387V338.594c0-16.23 13.209-29.386 29.503-29.386zm82.154 100.05c16.294 0 29.503 13.176 29.503 29.428 0 16.252-13.209 29.426-29.503 29.426s-29.503-13.174-29.503-29.426 13.21-29.427 29.503-29.427zm-.453-252.163c16.293 0 29.502 13.156 29.502 29.387v173.017c0 16.23-13.209 29.388-29.502 29.388-16.295 0-29.504-13.158-29.504-29.388V186.482c0-16.23 13.209-29.387 29.504-29.387zM338.11 278.875c16.294 0 29.503 13.176 29.503 29.427 0 16.253-13.209 29.427-29.503 29.427s-29.503-13.174-29.503-29.427c0-16.251 13.209-29.426 29.503-29.426zm90.778-48.893c16.294 0 29.503 13.175 29.503 29.427s-13.209 29.427-29.503 29.427-29.503-13.175-29.503-29.427 13.209-29.427 29.503-29.427zm-91.232-203.27c16.294 0 29.503 13.156 29.503 29.386v173.019c0 16.23-13.209 29.387-29.503 29.387s-29.503-13.157-29.503-29.387V56.098c0-16.23 13.209-29.386 29.503-29.386zm91.686-49.8c16.294 0 29.503 13.158 29.503 29.388v173.018c0 16.23-13.209 29.386-29.503 29.386s-29.503-13.156-29.503-29.386V6.3c0-16.23 13.209-29.387 29.503-29.387zM255.503 99.6c16.293 0 29.503 13.175 29.503 29.427 0 16.251-13.21 29.427-29.504 29.427-16.293 0-29.502-13.176-29.502-29.427 0-16.252 13.209-29.427 29.502-29.427zm255.54-194.216c16.294 0 29.503 13.157 29.503 29.387v173.018c0 16.23-13.209 29.387-29.502 29.387-16.295 0-29.504-13.157-29.504-29.387V-65.23c0-16.23 13.209-29.387 29.504-29.387zM255.957-153.47c16.295 0 29.504 13.156 29.504 29.386V48.934c0 16.23-13.209 29.388-29.504 29.388-16.293 0-29.502-13.157-29.502-29.388v-173.018c0-16.23 13.209-29.386 29.502-29.386zm81.7-71.53c16.294 0 29.503 13.157 29.503 29.387v173.018c0 16.23-13.209 29.387-29.503 29.387s-29.503-13.158-29.503-29.387v-173.018c0-16.23 13.209-29.387 29.503-29.387z" id="path-2"/></defs><g id="Desktop" stroke="none" stroke-width="1" fill="none" fill-rule="evenodd"><g id="Remarkable" transform="translate(-210 -1575)"><g id="Case-Studies" transform="translate(3 1575)"><g id="christian-wiediger-WkfDrhxDMC8-unsplash-Copy" transform="rotate(-180 487 158)"><mask id="mask-3" fill="#fff"><use xlink:href="#path-2"/></mask><use id="Mask" fill="url(#linearGradient-1)" transform="rotate(90 383.5 158)" xlink:href="#path-2"/></g></g></g></g></svg>