<svg width="230" height="73" viewBox="0 0 230 73" fill="none" xmlns="http://www.w3.org/2000/svg">
<path d="M75.6911 19.4588C76.0071 17.0568 79.4836 15.4134 81.8224 15.4134C84.9197 15.4134 87.8905 17.6257 87.8905 20.5334V20.7862H96.5503V19.4588C96.5503 12.4425 88.3962 7.38574 81.8224 7.38574C74.8061 7.38574 67.0313 12.5689 67.0313 19.9013C67.0313 33.9338 87.6377 31.1526 87.6377 38.5481C87.6377 41.3926 84.0348 43.6049 81.2535 43.6049C78.4723 43.6049 74.5533 41.5822 74.5533 38.6746V38.4849H69.1173V38.5481C69.1173 44.237 75.375 48.5985 80.8743 48.5985C86.3735 48.5985 93.0737 44.7427 93.0737 38.8642C93.0737 26.8543 75.9439 30.3941 72.9098 22.4297H74.0476C77.0817 29.1931 94.1483 26.4119 94.1483 38.8642C94.1483 45.2484 87.0056 49.6099 80.9375 49.6099C74.8061 49.6099 68.0427 44.8691 68.0427 38.6114V38.5481L65.8936 38.4849V38.6746C65.8936 46.0069 73.7316 51.6326 80.8743 51.6326C88.0802 51.6326 96.2974 46.5126 96.2974 38.8642C96.2974 24.4524 76.5128 27.1704 75.6911 20.407H70.255C70.9503 32.4168 90.9246 27.7393 90.9246 38.6746C90.9246 43.2889 85.5518 46.5758 81.1271 46.5758C77.3345 46.5758 72.4674 44.237 71.5192 40.5077H72.657C73.6051 43.6049 77.9034 45.6276 81.1271 45.6276C84.9829 45.6276 89.85 42.72 89.85 38.6746C89.85 28.6242 69.1805 33.1121 69.1805 19.9013C69.1805 13.7699 75.9439 9.40845 81.8224 9.40845C87.2584 9.40845 93.7058 13.201 94.3379 18.7635H89.9765C89.3444 15.5398 85.0461 13.3907 81.8224 13.3907C79.1044 13.3907 75.1854 14.9077 74.0476 17.4361H72.9098C74.1108 14.2756 78.5355 12.3793 81.8224 12.3793C85.2357 12.3793 89.7868 14.4652 90.8614 17.7521H93.0737C91.936 13.2642 86.3103 10.4198 81.8224 10.4198C76.6392 10.4198 70.5711 14.086 70.255 19.4588H75.6911Z" fill="#E2E2E2"/>
<path d="M109.727 19.4588C110.043 17.0568 113.52 15.4134 115.859 15.4134C118.956 15.4134 121.927 17.6257 121.927 20.5334V20.7862H130.586V19.4588C130.586 12.4425 122.432 7.38574 115.859 7.38574C108.842 7.38574 101.067 12.5689 101.067 19.9013C101.067 33.9338 121.674 31.1526 121.674 38.5481C121.674 41.3926 118.071 43.6049 115.29 43.6049C112.508 43.6049 108.589 41.5822 108.589 38.6746V38.4849H103.153V38.5481C103.153 44.237 109.411 48.5985 114.91 48.5985C120.41 48.5985 127.11 44.7427 127.11 38.8642C127.11 26.8543 109.98 30.3941 106.946 22.4297H108.084C111.118 29.1931 128.184 26.4119 128.184 38.8642C128.184 45.2484 121.042 49.6099 114.974 49.6099C108.842 49.6099 102.079 44.8691 102.079 38.6114V38.5481L99.9297 38.4849V38.6746C99.9297 46.0069 107.768 51.6326 114.91 51.6326C122.116 51.6326 130.334 46.5126 130.334 38.8642C130.334 24.4524 110.549 27.1704 109.727 20.407H104.291C104.986 32.4168 124.961 27.7393 124.961 38.6746C124.961 43.2889 119.588 46.5758 115.163 46.5758C111.371 46.5758 106.504 44.237 105.555 40.5077H106.693C107.641 43.6049 111.94 45.6276 115.163 45.6276C119.019 45.6276 123.886 42.72 123.886 38.6746C123.886 28.6242 103.217 33.1121 103.217 19.9013C103.217 13.7699 109.98 9.40845 115.859 9.40845C121.295 9.40845 127.742 13.201 128.374 18.7635H124.013C123.381 15.5398 119.082 13.3907 115.859 13.3907C113.141 13.3907 109.222 14.9077 108.084 17.4361H106.946C108.147 14.2756 112.572 12.3793 115.859 12.3793C119.272 12.3793 123.823 14.4652 124.898 17.7521H127.11C125.972 13.2642 120.346 10.4198 115.859 10.4198C110.675 10.4198 104.607 14.086 104.291 19.4588H109.727Z" fill="#E2E2E2"/>
<path d="M55.6831 51.6326H57.7058V9.40845H61.7512V49.6099H60.7399V10.4198H58.7172V51.6326H63.774V7.38574H55.6831V51.6326Z" fill="#E2E2E2"/>
<path d="M134.442 51.0535H136.465V8.82935H140.511V49.0308H139.499V9.84071H137.476V51.0535H142.533V6.80664H134.442V51.0535Z" fill="#E2E2E2"/>
<path d="M45.9535 51.6326V16.4247L28.1915 49.6099H27.0538L46.9648 12.3793V51.6326H52.0216V7.38574H43.9308L25.9792 40.9501L8.02764 7.38574H0V51.6326H8.02764V24.4524L22.5659 51.6326L25.4103 46.3229L6.25776 10.4198H3.03407V48.5985H5.05678V12.3793L23.1348 46.3229L22.5659 47.3343L6.06813 16.4247V49.6099H2.02271V9.40845H6.82665L25.9792 45.2484L45.1318 9.40845H49.9989V49.6099H48.9875V10.4198H45.7639L23.7037 51.6326H29.3925L43.9308 24.4524V51.6326H45.9535Z" fill="#E2E2E2"/>
<path d="M178.695 18.1634C177.5 17.0064 176.108 15.9636 174.631 15.2327C166.739 11.3256 156.891 14.6517 152.984 22.5445C149.077 30.4373 152.403 40.2847 160.296 44.1919C168.132 48.071 178.036 44.7729 181.887 36.9937C184.473 31.7697 183.965 25.2263 180.659 20.4791L179.106 21.7604C181.928 25.9144 182.319 31.5516 180.126 35.9807C176.781 42.7378 167.952 45.7198 161.195 42.3749C154.438 39.0299 151.456 30.2011 154.801 23.444C158.146 16.6868 166.975 13.7048 173.789 17.0779C175.606 17.9774 177.198 19.3311 178.536 20.9126L182.434 17.7518C180.668 15.6054 178.451 13.8007 175.953 12.5639C166.583 7.92593 154.953 11.8542 150.315 21.2233C145.677 30.5925 149.606 42.2227 158.975 46.8607C168.287 51.4706 179.974 47.5704 184.556 38.3148C187.339 32.6934 187.169 25.7519 184.144 20.2952L184.935 19.697C188.245 25.4359 188.416 32.8024 185.464 38.7646C180.63 48.5312 168.348 52.6321 158.525 47.7692C148.701 42.9063 144.544 30.597 149.407 20.7736C154.27 10.9502 166.579 6.79253 176.402 11.6554C179.014 12.9484 181.402 14.8374 183.225 17.1536L184.835 15.9005C182.784 13.3301 180.198 11.2719 177.302 9.83837C166.456 4.46952 152.959 9.02861 147.59 19.8741C142.221 30.7196 146.78 44.2174 157.625 49.5863C168.414 54.927 181.969 50.396 187.281 39.6641C190.879 32.3959 190.163 23.2748 185.433 16.6915L181.479 19.8241C185.041 24.9103 185.493 31.8506 182.739 37.4154C178.635 45.7056 168.221 49.1757 159.874 45.0436C151.527 40.9116 148 30.4699 152.132 22.1228C156.264 13.7758 166.706 10.2489 175.053 14.381C176.7 15.1961 178.234 16.2384 179.514 17.5084L178.695 18.1634Z" fill="#E2E2E2"/>
<path fill-rule="evenodd" clip-rule="evenodd" d="M150.253 42.8154C147.399 46.0966 145.776 48.2157 146.015 48.472C146.254 48.7283 148.886 47.0707 152.936 44.1484C157.414 40.9356 163.293 36.1164 169.53 30.4598C175.768 24.8032 181.117 19.4029 184.757 15.2673C188.038 11.5077 189.952 9.04682 189.713 8.79048C189.473 8.53414 186.842 10.1918 182.792 13.1141C182.535 13.3021 182.262 13.4901 181.988 13.6951C182.45 14.0882 183.044 14.8401 183.471 15.2673C183.027 15.78 182.606 16.1733 182.093 16.7202C181.956 16.5835 181.612 16.2414 181.476 16.1218C177.613 12.3109 172.965 10.4652 167.548 10.4652C162.148 10.4652 157.499 12.3279 153.637 16.1218C149.809 19.8814 147.878 24.4443 147.878 29.8104C147.878 34.7663 149.689 39.383 152.936 42.9718C152.218 43.4943 151.105 44.2468 151.105 44.2468C151.105 44.2468 151.008 44.2468 150.253 42.8154ZM184.005 19.1466C184.182 19.4063 184.351 19.669 184.513 19.9348C186.293 22.8533 187.184 26.1438 187.184 29.7933C187.184 35.1593 185.27 39.7051 181.459 43.4819C177.596 47.2928 172.948 49.1385 167.531 49.1385C162.882 49.1385 158.798 47.7543 155.295 44.9516C159.687 41.7046 165.155 37.193 170.897 31.9807C175.973 27.3837 180.502 22.9234 184.005 19.1466ZM167.531 51.2917C171.427 51.2917 175.118 50.3689 178.485 48.4036C181.766 46.4896 184.415 43.892 186.363 40.645C188.363 37.3297 189.303 33.6897 189.303 29.8104C189.303 25.9311 188.363 22.2911 186.363 18.9757C186.277 18.8337 186.189 18.6917 186.1 18.5506C185.889 18.2162 185.669 17.8868 185.44 17.5744C185.731 17.2668 186.004 16.9421 186.261 16.6516C190.311 12.0375 192.276 8.60247 191.217 7.4233C190.157 6.24414 186.534 7.88474 181.561 11.4564C181.151 11.7469 180.724 12.0717 180.297 12.3793C179.715 11.9691 179.117 11.576 178.485 11.2171C175.118 9.25187 171.427 8.32904 167.531 8.32904C163.651 8.32904 159.994 9.25187 156.628 11.2171C153.347 13.1312 150.698 15.7288 148.749 18.9757C146.75 22.2911 145.81 25.9482 145.81 29.8104C145.81 33.6897 146.75 37.3297 148.749 40.645C148.835 40.7988 148.937 40.9356 149.023 41.0894C145.246 45.4814 143.435 48.7283 144.46 49.8733C145.485 51.0012 148.852 49.5486 153.535 46.2504C154.492 47.0536 155.517 47.7713 156.628 48.4207C159.994 50.3689 163.651 51.2917 167.531 51.2917Z" fill="#FFC08D"/>
<path fill-rule="evenodd" clip-rule="evenodd" d="M184.513 19.9348C184.503 19.9177 184.492 19.9006 184.482 19.8834C184.417 19.7784 184.352 19.6738 184.285 19.5697C184.194 19.4278 184.1 19.2868 184.005 19.1467C183.809 19.3574 183.611 19.5703 183.409 19.7852C179.994 23.4216 175.69 27.6403 170.897 31.9808C165.459 36.9172 160.266 41.2251 156.001 44.4255C155.763 44.6044 155.527 44.7798 155.295 44.9517C155.527 45.1372 155.761 45.3165 155.998 45.4896C159.341 47.9315 163.19 49.1386 167.531 49.1386C172.948 49.1386 177.596 47.2929 181.458 43.482C185.269 39.7052 187.183 35.1594 187.183 29.7934C187.183 26.1439 186.293 22.8534 184.513 19.9348ZM180.86 42.877C184.511 39.2587 186.333 34.93 186.333 29.7934C186.333 26.3522 185.51 23.267 183.878 20.5287C180.47 24.1475 176.205 28.3217 171.469 32.6108C166.101 37.4839 160.965 41.7519 156.712 44.9554C159.853 47.1836 163.454 48.2877 167.531 48.2877C172.731 48.2877 177.162 46.5256 180.86 42.877ZM186.261 16.6517C186.188 16.7339 186.114 16.8189 186.039 16.9054C185.848 17.1246 185.649 17.3539 185.44 17.5745C185.669 17.8869 185.888 18.2163 186.1 18.5507C186.177 18.6723 186.253 18.7946 186.327 18.9169C186.339 18.9366 186.351 18.9562 186.363 18.9758C188.363 22.2912 189.302 25.9312 189.302 29.8105C189.302 33.6898 188.363 37.3298 186.363 40.6451C184.415 43.8921 181.766 46.4897 178.485 48.4037C175.118 50.369 171.427 51.2918 167.531 51.2918C163.651 51.2918 159.994 50.369 156.628 48.4208C155.517 47.7714 154.491 47.0536 153.534 46.2504C148.852 49.5487 145.485 51.0013 144.46 49.8734C143.435 48.7284 145.246 45.4814 149.023 41.0895C148.98 41.0126 148.933 40.9399 148.886 40.8673C148.839 40.7947 148.792 40.722 148.749 40.6451C146.75 37.3298 145.81 33.6898 145.81 29.8105C145.81 25.9483 146.75 22.2912 148.749 18.9758C150.698 15.7288 153.346 13.1312 156.628 11.2172C159.994 9.25196 163.651 8.32913 167.531 8.32913C171.427 8.32913 175.118 9.25196 178.485 11.2172C179.117 11.5761 179.715 11.9692 180.296 12.3794C180.485 12.2434 180.674 12.104 180.862 11.9658C181.098 11.7913 181.332 11.6186 181.561 11.4565C186.534 7.88483 190.157 6.24422 191.216 7.42339C192.276 8.60256 190.311 12.0376 186.261 16.6517ZM181.067 10.7637C183.571 8.96522 185.778 7.62099 187.522 6.87592C188.39 6.50523 189.195 6.25955 189.895 6.20547C190.588 6.15181 191.333 6.28009 191.849 6.85468C192.362 7.42563 192.417 8.17583 192.297 8.86137C192.175 9.55223 191.854 10.3298 191.401 11.1575C190.492 12.8214 188.941 14.8883 186.9 17.213L186.899 17.2138L186.899 17.2147C186.834 17.2881 186.765 17.3675 186.692 17.4507C186.638 17.5129 186.582 17.5772 186.525 17.6427C186.625 17.793 186.723 17.9445 186.819 18.0959C186.912 18.242 187.002 18.3885 187.09 18.5342L187.092 18.5364C189.177 21.9938 190.153 25.7877 190.153 29.8105C190.153 33.8332 189.177 37.627 187.092 41.0843C185.069 44.4554 182.316 47.1539 178.914 49.1386C175.408 51.1855 171.566 52.1427 167.531 52.1427C163.511 52.1427 159.705 51.1847 156.201 49.1573L156.2 49.1564L156.198 49.1554C155.241 48.5958 154.343 47.9859 153.495 47.3154C151.353 48.7915 149.466 49.8899 147.947 50.5096C147.13 50.8431 146.366 51.0601 145.698 51.0966C145.031 51.133 144.327 50.9917 143.83 50.4458L143.828 50.4434L143.826 50.441C143.331 49.888 143.263 49.1671 143.369 48.5023C143.474 47.8358 143.77 47.0902 144.189 46.3007C144.969 44.8279 146.27 43.0286 147.975 41.0078C145.921 37.571 144.959 33.8035 144.959 29.8105C144.959 25.8055 145.935 21.9947 148.02 18.5373C150.043 15.1659 152.796 12.4672 156.199 10.4824C159.704 8.43632 163.51 7.47823 167.531 7.47823C171.565 7.47823 175.404 8.43469 178.909 10.4798C179.387 10.7508 179.842 11.0387 180.282 11.3356C180.302 11.3213 180.321 11.307 180.341 11.2927C180.588 11.1103 180.841 10.9237 181.067 10.7637ZM149.657 43.5054C149.849 43.2816 150.048 43.0516 150.253 42.8155C150.409 43.1115 150.537 43.3463 150.642 43.5326C150.658 43.5604 150.673 43.5873 150.688 43.613C150.711 43.6534 150.733 43.6912 150.753 43.7267C151.056 44.2469 151.105 44.2469 151.105 44.2469C151.105 44.3056 151.105 44.3603 151.105 44.4112C151.105 44.4112 151.105 44.4112 151.105 44.4112V44.2469C151.105 44.2469 151.659 43.8721 152.238 43.4679C152.479 43.2993 152.725 43.1256 152.936 42.9719C152.745 42.7602 152.558 42.545 152.377 42.3264C149.482 38.8374 147.878 34.4742 147.878 29.8105C147.878 24.4444 149.809 19.8815 153.637 16.1219C157.499 12.328 162.147 10.4653 167.548 10.4653C172.965 10.4653 177.613 12.3109 181.476 16.1219C181.478 16.1237 181.48 16.1256 181.482 16.1276C181.623 16.2521 181.958 16.5856 182.093 16.7202C182.093 16.7202 182.093 16.7203 182.093 16.7203C182.29 16.5097 182.474 16.3219 182.651 16.1412C182.662 16.13 182.673 16.1189 182.684 16.1077C182.954 15.8317 183.208 15.5704 183.471 15.2674C183.302 15.0986 183.107 14.8791 182.905 14.651C182.802 14.5359 182.698 14.4186 182.595 14.3046C182.384 14.0728 182.175 13.8545 181.988 13.6952C182.148 13.5755 182.307 13.4617 182.464 13.3503C182.541 13.2948 182.618 13.2399 182.694 13.1852C182.727 13.1615 182.759 13.1378 182.791 13.1142C185.406 11.2278 187.429 9.86833 188.6 9.21055C188.71 9.1486 188.813 9.09287 188.907 9.04352C189.366 8.80509 189.642 8.71529 189.713 8.79057C189.783 8.86612 189.667 9.13313 189.383 9.56843C189.325 9.65796 189.26 9.75461 189.187 9.85818C188.419 10.9597 186.872 12.8436 184.757 15.2674C181.117 19.403 175.768 24.8033 169.53 30.4599C163.292 36.1165 157.414 40.9357 152.936 44.1485C150.298 46.052 148.262 47.4189 147.096 48.0698C146.998 48.125 146.905 48.175 146.819 48.2198C146.362 48.4577 146.085 48.5473 146.015 48.4721C145.939 48.3908 146.051 48.1222 146.329 47.6887C146.382 47.6059 146.442 47.5171 146.507 47.4224C147.1 46.562 148.185 45.2173 149.657 43.5054ZM150.101 44.2949C149.501 44.9952 148.973 45.6273 148.523 46.1831C149.104 45.8001 149.763 45.3513 150.492 44.8419C150.478 44.8281 150.466 44.8155 150.456 44.8047C150.388 44.7317 150.322 44.6419 150.253 44.5379C150.21 44.4737 150.16 44.3942 150.101 44.2949ZM187.159 11.1096C186.367 12.091 185.34 13.3049 184.117 14.7064C184.116 14.7071 184.116 14.7078 184.115 14.7085L184.072 14.6657C183.923 14.5166 183.751 14.3231 183.552 14.0986C183.496 14.0353 183.438 13.9695 183.377 13.9016C183.348 13.8696 183.319 13.837 183.289 13.8041C183.29 13.8035 183.291 13.8029 183.292 13.8023C184.802 12.7127 186.107 11.8047 187.159 11.1096ZM181.621 17.452L181.491 17.3219C181.344 17.1745 181.025 16.8583 180.915 16.7622L180.896 16.7455L180.878 16.7276C177.18 13.0785 172.748 11.3162 167.548 11.3162C162.366 11.3162 157.933 13.0942 154.233 16.7289L154.233 16.7289C150.567 20.33 148.729 24.6747 148.729 29.8105C148.729 34.5542 150.461 38.9677 153.567 42.401L153.695 42.5419C157.958 39.3839 163.306 34.9558 168.958 29.8296C173.872 25.3738 178.227 21.0823 181.621 17.452Z" fill="#030D11"/>
<path d="M199.723 10.4198H196.563V48.5985H198.586V12.2529L224.628 49.6099H223.427L199.597 15.4766V49.6099H195.552V9.40845H200.229L223.49 42.72V9.40845H227.725V45.2484L226.714 43.7946V10.4198H224.502V44.1106L229.685 51.6326V7.38574H221.468V36.2726L201.304 7.38574H193.529V51.6326H201.62V21.8608L222.352 51.6326H228.484L199.723 10.4198Z" fill="#E2E2E2"/>
<path d="M86.0151 63.2682H90.0422V64.6106H86.0151C85.0889 64.6106 84.2969 64.9394 83.6392 65.5972C82.9859 66.2505 82.6593 67.0402 82.6593 67.9665C82.6593 68.8927 82.9859 69.6847 83.6392 70.3424C84.2969 70.9957 85.0889 71.3224 86.0151 71.3224H90.0422V72.6647H86.0151C84.7175 72.6647 83.6101 72.2061 82.6928 71.2888C81.7755 70.3715 81.3169 69.2641 81.3169 67.9665C81.3169 66.6688 81.7755 65.5614 82.6928 64.6441C83.6101 63.7268 84.7175 63.2682 86.0151 63.2682Z" fill="#E2E2E2"/>
<path d="M94.8479 71.6579C95.8681 71.6579 96.7383 71.2977 97.4587 70.5773C98.1791 69.8569 98.5393 68.9867 98.5393 67.9665C98.5393 66.9463 98.1791 66.076 97.4587 65.3556C96.7383 64.6352 95.8681 64.275 94.8479 64.275C93.8277 64.275 92.9574 64.6352 92.237 65.3556C91.5166 66.076 91.1564 66.9463 91.1564 67.9665C91.1564 68.9867 91.5166 69.8569 92.237 70.5773C92.9574 71.2977 93.8277 71.6579 94.8479 71.6579ZM94.8479 73.0003C93.4563 73.0003 92.2683 72.5103 91.2839 71.5304C90.304 70.546 89.814 69.358 89.814 67.9665C89.814 66.5749 90.304 65.3891 91.2839 64.4092C92.2683 63.4248 93.4563 62.9326 94.8479 62.9326C96.2394 62.9326 97.4252 63.4248 98.4051 64.4092C99.3895 65.3891 99.8817 66.5749 99.8817 67.9665C99.8817 69.358 99.3895 70.546 98.4051 71.5304C97.4252 72.5103 96.2394 73.0003 94.8479 73.0003Z" fill="#E2E2E2"/>
<path d="M102.231 65.4495V72.6647H100.888V63.2682H102.144L108.271 70.4834V63.2682H109.614V72.6647H108.359L102.231 65.4495Z" fill="#E2E2E2"/>
<path d="M115.373 72.6647H114.03V65.9529H115.373V72.6647ZM118.728 64.6106H110.674V63.2682H118.728V64.6106Z" fill="#E2E2E2"/>
<path d="M121.118 64.6106V72.6647H119.775V63.2682H125.816C126.559 63.2682 127.192 63.53 127.715 64.0535C128.239 64.577 128.501 65.2102 128.501 65.9529C128.501 66.6957 128.239 67.3288 127.715 67.8524C127.192 68.3759 126.559 68.6376 125.816 68.6376H124.756L128.783 72.6647H126.877L121.507 67.2953H125.816C126.187 67.2953 126.503 67.1655 126.762 66.906C127.026 66.642 127.158 66.3243 127.158 65.9529C127.158 65.5815 127.026 65.2661 126.762 65.0066C126.503 64.7426 126.187 64.6106 125.816 64.6106H121.118Z" fill="#E2E2E2"/>
<path d="M134.273 71.6579C135.293 71.6579 136.163 71.2977 136.884 70.5773C137.604 69.8569 137.964 68.9867 137.964 67.9665C137.964 66.9463 137.604 66.076 136.884 65.3556C136.163 64.6352 135.293 64.275 134.273 64.275C133.253 64.275 132.382 64.6352 131.662 65.3556C130.942 66.076 130.581 66.9463 130.581 67.9665C130.581 68.9867 130.942 69.8569 131.662 70.5773C132.382 71.2977 133.253 71.6579 134.273 71.6579ZM134.273 73.0003C132.881 73.0003 131.693 72.5103 130.709 71.5304C129.729 70.546 129.239 69.358 129.239 67.9665C129.239 66.5749 129.729 65.3891 130.709 64.4092C131.693 63.4248 132.881 62.9326 134.273 62.9326C135.664 62.9326 136.85 63.4248 137.83 64.4092C138.815 65.3891 139.307 66.5749 139.307 67.9665C139.307 69.358 138.815 70.546 137.83 71.5304C136.85 72.5103 135.664 73.0003 134.273 73.0003Z" fill="#E2E2E2"/>
<path d="M140.314 63.2682H141.656V71.3224H148.368V72.6647H140.314V63.2682Z" fill="#E2E2E2"/>
</svg>
