<svg width="139" height="139" viewBox="0 0 139 139" fill="none" xmlns="http://www.w3.org/2000/svg">
<g opacity="0.68">
<path d="M104.387 68.5712C104.387 75.9872 102.188 83.2367 98.0678 89.4028C93.9477 95.569 88.0916 100.375 81.2401 103.213C74.3886 106.051 66.8494 106.794 59.5759 105.347C52.3024 103.9 45.6213 100.329 40.3773 95.0849C35.1334 89.841 31.5623 83.1599 30.1155 75.8863C28.6687 68.6128 29.4113 61.0736 32.2492 54.2221C35.0872 47.3706 39.8932 41.5146 46.0594 37.3945C52.2255 33.2743 59.475 31.0752 66.891 31.0752C76.8321 31.0867 86.3626 35.0409 93.392 42.0703C100.421 49.0996 104.375 58.6302 104.387 68.5712V68.5712Z" fill="#BDD1FF"/>
<g opacity="0.73">
<path d="M101.946 64.9521C101.903 65.0481 101.881 65.1521 101.881 65.2573C101.881 65.3626 101.903 65.4666 101.946 65.5625C101.99 65.5189 101.946 65.2137 101.946 64.9521Z" fill="white"/>
<path d="M32.8842 62.9004H32.0994V63.8596C32.1532 63.6526 32.2513 63.4596 32.3867 63.294C32.5222 63.1285 32.6919 62.9942 32.8842 62.9004V62.9004Z" fill="white"/>
<path d="M48.4939 69.8355C48.6655 69.8798 48.8456 69.8798 49.0171 69.8355C49.3871 69.5825 49.8369 69.474 50.2815 69.5304C50.6003 69.5856 50.909 69.6885 51.1971 69.8355C51.541 70.0716 51.9629 70.1654 52.3743 70.0971C52.3743 70.0971 52.7667 70.0971 52.9411 70.0971L53.5515 69.8792C53.5917 69.7515 53.5917 69.6144 53.5515 69.4867C53.5515 69.2251 53.5515 68.92 53.0719 68.7892C52.8107 68.6386 52.5752 68.4472 52.3743 68.2224C52.1563 68.2224 52.0255 67.83 51.7203 67.7428C51.5443 67.6318 51.3953 67.4828 51.2843 67.3067L51.7203 66.8708C51.7203 66.8708 51.7203 66.6528 51.7203 66.6092C51.7203 66.5656 51.7203 66.2603 51.7203 66.0859C51.3698 66.2197 51.0034 66.3076 50.6303 66.3475C50.2379 66.3475 50.0635 66.8272 49.6711 66.8708L50.6739 67.3504L49.8891 67.7863C49.5839 67.7863 49.4967 67.7863 49.3659 67.5683C49.3053 67.4086 49.2167 67.261 49.1043 67.1324L49.4095 66.8708C49.1915 66.4784 48.6683 66.8708 48.5375 66.3912C48.3271 66.4794 48.1371 66.6101 47.9796 66.7752C47.822 66.9402 47.7003 67.1361 47.6219 67.3504C47.3827 67.8497 47.2069 68.377 47.0987 68.92C47.074 69.0349 47.074 69.1538 47.0987 69.2688L47.4911 69.7047H46.7935L46.2703 69.9663C45.9651 69.4867 45.5291 69.9663 45.0931 69.7483V70.1408H44.7879L44.5263 69.792C44.5074 69.8928 44.5074 69.9963 44.5263 70.0971C44.5263 70.0971 44.5263 70.3588 44.5263 70.4896C44.5263 70.6204 44.5263 70.8383 44.8751 70.9255V71.1436C45.1367 71.1436 45.2239 71.3616 45.2675 71.6232H45.0059C45.0488 71.6711 45.0725 71.7332 45.0725 71.7975C45.0725 71.8619 45.0488 71.924 45.0059 71.972C44.9441 71.9956 44.8879 72.0318 44.8408 72.0782C44.7937 72.1246 44.7567 72.1803 44.7321 72.2417C44.7075 72.3032 44.6959 72.369 44.698 72.4351C44.7001 72.5013 44.7159 72.5662 44.7443 72.6259C44.2211 72.6259 44.0467 72.626 43.9159 71.8412H44.5263C44.4576 71.7881 44.3733 71.7593 44.2865 71.7593C44.1997 71.7593 44.1154 71.7881 44.0467 71.8412C43.9548 71.8564 43.8605 71.8385 43.7806 71.7905C43.7008 71.7426 43.6405 71.6678 43.6107 71.5796C43.5207 71.3622 43.4035 71.1571 43.2619 70.9692C43.1545 70.8275 43.0761 70.6659 43.0312 70.4938C42.9863 70.3218 42.9758 70.1425 43.0003 69.9663C43.0003 69.6611 43.0003 69.4867 42.6079 69.3559L41.4743 68.6147C41.2089 68.4565 41.0081 68.2093 40.9075 67.9171C40.9075 67.9171 40.9075 67.6556 40.6459 67.4812H40.3843L40.1227 67.0451C40.0186 67.0161 39.9074 67.0269 39.8108 67.0752C39.7141 67.1236 39.6388 67.206 39.5995 67.3067C39.5245 67.4158 39.4844 67.545 39.4844 67.6774C39.4844 67.8097 39.5245 67.9389 39.5995 68.0479C39.8432 68.2002 40.0277 68.4309 40.1227 68.702C40.1772 68.8909 40.2839 69.0606 40.4304 69.1917C40.5769 69.3228 40.7574 69.4099 40.9511 69.4432C40.9511 69.8356 41.5615 69.8792 41.8667 70.1408C42.1719 70.4024 42.2155 70.1408 42.1719 70.6204C42.1719 70.6204 41.8231 70.3588 41.6487 70.6204C41.4743 70.882 41.6487 71.0127 41.6487 71.1871C41.6487 71.3615 41.6487 71.1871 41.6487 71.1871C41.6487 71.1871 41.3871 71.7976 40.9511 71.8412C40.5151 71.8848 40.9511 71.5795 40.9511 71.5359C40.9511 71.4923 40.9511 71.0127 40.9511 70.7947L39.7739 70.01C39.2979 69.7141 38.8834 69.3292 38.5531 68.8763C38.5094 68.7642 38.5094 68.6397 38.5531 68.5275C38.5531 67.9607 37.9427 67.6556 37.3759 68.1788C37.1213 68.3968 36.8244 68.56 36.5039 68.6583C36.2148 68.7007 35.9211 68.7007 35.6319 68.6583C35.2395 68.6583 35.0651 68.6583 35.0215 69.1379C34.9779 69.6175 35.0215 69.792 34.3239 70.01C34.1065 70.0933 33.9214 70.2441 33.7959 70.4402C33.6703 70.6364 33.6109 70.8676 33.6263 71.1C33.6688 71.4417 33.5748 71.7863 33.3647 72.0592L33.1031 72.3643C33.1031 72.3643 32.7979 72.3644 32.7107 72.6696C32.6366 72.8037 32.5148 72.9051 32.3694 72.9536C32.224 73.0021 32.0657 72.9941 31.9259 72.9312C31.8375 72.8887 31.7407 72.8666 31.6425 72.8666C31.5444 72.8666 31.4476 72.8887 31.3591 72.9312V73.6288C31.3591 73.6288 31.3591 73.6288 31.7079 73.6288C31.9656 73.6934 32.2351 73.6934 32.4927 73.6288C32.7811 73.5856 33.0523 73.465 33.2775 73.28C33.6605 72.9367 34.1585 72.7499 34.6727 72.7567C34.6727 72.7567 35.1087 72.7567 35.3267 72.7567C35.8296 72.8652 36.3499 72.8652 36.8527 72.7567C36.8527 72.7567 36.8527 72.7567 37.1143 72.7567C37.2734 72.7788 37.4348 72.7788 37.5939 72.7567C37.9427 72.4951 38.2043 72.7567 38.5531 72.7567C38.4881 72.8694 38.4538 72.9973 38.4538 73.1274C38.4538 73.2575 38.4881 73.3852 38.5531 73.4979C38.5531 73.4979 38.5531 73.8903 38.5531 74.0647C38.5531 74.2391 38.2915 74.5008 38.5531 74.7188C38.9673 74.9937 39.4513 75.1449 39.9483 75.1547C40.1275 75.1156 40.3148 75.1485 40.4699 75.2464C40.6249 75.3443 40.7351 75.4993 40.7767 75.6779C40.8567 75.7877 40.9612 75.8773 41.0819 75.9396C41.494 75.9722 41.8878 76.1236 42.2155 76.3755C42.2945 76.4431 42.395 76.4802 42.4989 76.4802C42.6029 76.4802 42.7034 76.4431 42.7823 76.3755C42.8255 76.311 42.8485 76.2351 42.8485 76.1575C42.8485 76.0799 42.8255 76.0041 42.7823 75.9396C42.7823 75.5036 42.7823 75.46 43.0439 75.242C43.2622 75.1298 43.4982 75.056 43.7415 75.024C44.0031 75.024 44.1339 75.242 44.3519 75.3292C44.6734 75.6062 45.0661 75.7875 45.4855 75.8524H46.4011C46.5494 75.9288 46.7139 75.9687 46.8807 75.9687C47.0476 75.9687 47.212 75.9288 47.3603 75.8524C47.4694 75.7774 47.5986 75.7372 47.7309 75.7372C47.8633 75.7372 47.9925 75.7774 48.1015 75.8524C48.2341 75.924 48.3806 75.9662 48.531 75.976C48.6813 75.9859 48.8321 75.9631 48.9728 75.9092C49.1136 75.8554 49.2411 75.7718 49.3466 75.6642C49.452 75.5565 49.533 75.4274 49.5839 75.2855C49.9356 74.4905 50.0997 73.6253 50.0635 72.7567C49.9707 72.7032 49.8655 72.675 49.7583 72.675C49.6512 72.675 49.5459 72.7032 49.4531 72.7567H48.9299C48.8159 72.8178 48.6886 72.8497 48.5593 72.8497C48.43 72.8497 48.3027 72.8178 48.1887 72.7567L47.7963 72.4951C47.2731 72.8439 47.0987 73.0184 46.7063 72.7132L46.2703 73.062V72.5824H46.9243C46.9243 71.8848 46.9243 71.8847 46.5755 71.6667C46.6498 71.5739 46.6903 71.4586 46.6903 71.3397C46.6903 71.2209 46.6498 71.1056 46.5755 71.0128C46.5755 70.664 46.5755 70.4024 46.9243 70.3588H47.4911H47.8399V69.9663C48.0452 69.8736 48.2688 69.8289 48.4939 69.8355ZM38.5095 68.7892C38.5722 68.926 38.6047 69.0747 38.6047 69.2251C38.6047 69.3756 38.5722 69.5244 38.5095 69.6612C38.2043 69.1816 38.2043 69.0944 38.6403 68.7892H38.5095ZM38.5095 70.9255C38.5095 71.1435 38.2479 71.2307 37.9427 71.1871V70.1408L38.3351 69.8792C38.5248 70.0222 38.6647 70.2213 38.7351 70.4481C38.8055 70.675 38.8029 70.9183 38.7275 71.1436L38.5095 70.9255ZM41.0383 72.6259L39.7303 72.0155C40.2099 71.7103 40.6895 72.0155 41.1255 72.0155L41.0383 72.6259ZM45.3983 73.5416C45.3983 73.2364 45.7907 73.5416 45.9651 73.5416C46.1395 73.5416 46.3139 73.5416 46.4883 73.5416C46.6627 73.5416 45.7907 73.6724 45.4419 73.5416H45.3983ZM50.0199 73.5416C50.0199 73.934 50.0199 74.0212 49.3223 73.8904C49.5403 73.4544 49.8455 73.4979 50.0635 73.4543L50.0199 73.5416Z" fill="white"/>
<path d="M32.7526 61.3329C32.7894 61.315 32.8205 61.2871 32.8423 61.2524C32.864 61.2177 32.8756 61.1776 32.8756 61.1367C32.8756 61.0957 32.864 61.0556 32.8423 61.0209C32.8205 60.9862 32.7894 60.9583 32.7526 60.9405C32.7526 60.9405 32.7526 60.5481 32.4474 60.3301L32.1858 61.5944L32.7526 61.3329Z" fill="white"/>
<path d="M38.7259 58.1504L38.5841 58.2407L38.9875 58.5864L38.3771 59.1532C38.3241 59.2219 38.2953 59.3062 38.2953 59.393C38.2953 59.4798 38.3241 59.5641 38.3771 59.6328C38.3771 60.0688 38.8567 60.2432 39.2491 60.4176H39.5543L40.1647 60.1124L40.5571 60.6356C41.0878 60.5121 41.5906 60.2903 42.0395 59.9816C42.121 59.9018 42.2306 59.857 42.3447 59.857C42.4588 59.857 42.5684 59.9018 42.6499 59.9816C42.6774 60.0503 42.7261 60.1083 42.7888 60.1475C42.8515 60.1867 42.925 60.205 42.9987 60.1997C42.9987 60.1997 43.3911 60.1996 43.3911 59.8508H43.6963C43.6963 59.8508 43.9579 59.8508 43.9579 59.502V59.066C43.9579 58.9352 43.7399 58.4556 43.9579 58.1504C43.9579 57.6708 44.2195 57.5837 44.6119 57.5401L44.9607 58.0632C44.9853 58.0911 45.0155 58.1134 45.0493 58.1286C45.0831 58.1439 45.1198 58.1518 45.1569 58.1518C45.194 58.1518 45.2307 58.1439 45.2646 58.1286C45.2984 58.1134 45.3286 58.0911 45.3531 58.0632C45.4188 57.9273 45.4529 57.7782 45.4529 57.6272C45.4529 57.4762 45.4188 57.3272 45.3531 57.1912C45.2511 57.0709 45.1633 56.9393 45.0915 56.7989C45.0663 56.6546 45.0663 56.5071 45.0915 56.3628C45.2591 56.1644 45.4773 56.015 45.723 55.9306C45.9686 55.8462 46.2325 55.8298 46.4867 55.8832C46.6044 55.9567 46.7404 55.9956 46.8791 55.9956C47.0179 55.9956 47.1538 55.9567 47.2715 55.8832C47.2715 55.8832 47.7947 55.8832 48.0999 55.6216C48.4051 55.36 48.0999 55.3165 47.7947 55.3601C47.4895 55.4037 47.4023 55.36 47.4023 55.0548C46.5303 55.0548 45.8327 55.5344 45.0479 55.6216L44.5683 55.3164C44.2631 55.3164 44.0887 54.924 44.1759 54.5752C44.2648 54.2469 44.2648 53.9008 44.1759 53.5724C44.0935 53.3478 44.0873 53.1023 44.1582 52.8738C44.2291 52.6453 44.3732 52.4465 44.5683 52.308L45.4403 51.3489C45.5532 51.1885 45.6414 51.0121 45.7019 50.8256C45.7019 50.8256 45.7019 50.5204 46.0071 50.4332C46.3123 50.346 46.0071 50.0844 46.0071 49.8664C45.9391 49.7006 45.8132 49.565 45.6529 49.4849C45.4926 49.4047 45.3086 49.3854 45.1351 49.4304H44.5683L44.1323 50.2589C44.1134 50.3597 44.1134 50.4632 44.1323 50.564V50.5641C44.1323 51.0872 44.1323 51.3924 43.5655 51.6976L42.7807 52.4389C42.7664 52.5401 42.7664 52.6428 42.7807 52.744V53.0493C42.7807 53.0929 42.7807 53.834 42.4755 54.1828C42.4307 54.3162 42.4371 54.4616 42.4935 54.5905C42.55 54.7195 42.6523 54.8228 42.7807 54.8804C42.8896 54.9548 42.9828 55.0499 43.0549 55.1603C43.127 55.2707 43.1766 55.3942 43.2009 55.5238C43.2252 55.6534 43.2237 55.7865 43.1965 55.9155C43.1693 56.0445 43.1169 56.1669 43.0423 56.2756C42.9597 56.3719 42.855 56.4467 42.7371 56.4936C42.3883 56.4936 42.1267 56.9297 42.1703 57.4093C42.2139 57.8889 42.1703 58.1069 42.1703 58.4993C42.1703 58.8917 42.1703 59.0224 41.6035 59.066C41.0367 59.1096 41.6035 59.066 41.3419 59.3276C41.0803 59.5892 40.7751 59.6328 40.6007 59.3276C40.3761 58.8721 40.2148 58.388 40.1211 57.8889C39.9838 57.2443 39.7792 56.6159 39.5107 56.014C39.5107 56.3192 39.2491 56.5808 38.9003 56.5808C38.5515 56.5808 38.9003 56.5809 38.9003 56.7989C38.7327 57.0931 38.4719 57.3231 38.1591 57.4528C37.8103 57.4528 37.7231 57.4528 37.6795 57.1476C37.6359 56.8424 37.2871 56.886 37.1563 56.7552L37.5051 56.1448H37.0691C37.0691 55.7088 37.5051 55.5781 37.5487 55.2293H37.1999V54.6189H37.1563C37.0501 54.3928 37.0362 54.1342 37.1176 53.8981C37.199 53.662 37.3693 53.4669 37.5923 53.3544C37.736 53.2828 37.8456 53.1575 37.8975 53.0056C38.1403 52.7009 38.4549 52.4612 38.8131 52.308C38.9561 52.2415 39.0771 52.1357 39.1619 52.0028L39.5543 51.436C39.5543 51.218 39.9467 51.0872 39.9903 50.782C39.9903 50.782 40.3827 50.4768 40.4263 50.128C40.3934 49.882 40.3934 49.6328 40.4263 49.3868C40.6879 49.038 40.8187 48.6456 41.2547 48.4276C41.2547 48.2097 41.2547 48.2097 41.5161 48.079L41.5163 48.0789C41.7779 47.9481 41.5163 47.5557 41.7779 47.4685C41.7779 47.2069 41.9959 47.2068 42.1703 47.076H41.8215V46.7708H41.7872L41.3419 47.3376V46.7708H41.7872L41.8215 46.7272V46.7708V47.076H42.1703C41.9959 47.2068 41.7779 47.2069 41.7779 47.4685C41.5163 47.5557 41.7779 47.9481 41.5163 48.0789L41.5161 48.079C41.2547 48.2097 41.2547 48.2097 41.2547 48.4276C40.8187 48.6456 40.6879 49.038 40.4263 49.3868C40.3934 49.6328 40.3934 49.882 40.4263 50.128C40.3827 50.4768 39.9903 50.782 39.9903 50.782C39.9467 51.0872 39.5543 51.218 39.5543 51.436L39.1619 52.0028C39.0771 52.1357 38.9561 52.2415 38.8131 52.308C38.4549 52.4612 38.1403 52.7009 37.8975 53.0056C37.8456 53.1575 37.736 53.2828 37.5923 53.3544C37.3693 53.4669 37.199 53.662 37.1176 53.8981C37.0362 54.1342 37.0501 54.3928 37.1563 54.6189H37.1999V55.2293H37.5487C37.5051 55.5781 37.0691 55.7088 37.0691 56.1448H37.5051L37.1563 56.7552C37.2871 56.886 37.6359 56.8424 37.6795 57.1476C37.7231 57.4528 37.8103 57.4528 38.1591 57.4528C38.4719 57.3231 38.7327 57.0931 38.9003 56.7989C38.9003 56.5809 38.5515 56.5808 38.9003 56.5808C39.2491 56.5808 39.5107 56.3192 39.5107 56.014C39.7792 56.6159 39.9838 57.2443 40.1211 57.8889C40.2148 58.388 40.3761 58.8721 40.6007 59.3276C40.7751 59.6328 41.0803 59.5892 41.3419 59.3276C41.6035 59.066 41.0367 59.1096 41.6035 59.066C42.1703 59.0224 42.1703 58.8917 42.1703 58.4993C42.1703 58.1069 42.2139 57.8889 42.1703 57.4093C42.1267 56.9297 42.3883 56.4936 42.7371 56.4936C42.855 56.4467 42.9597 56.3719 43.0423 56.2756C43.1169 56.1669 43.1693 56.0445 43.1965 55.9155C43.2237 55.7865 43.2252 55.6534 43.2009 55.5238C43.1766 55.3942 43.127 55.2707 43.0549 55.1603C42.9828 55.0499 42.8896 54.9548 42.7807 54.8804C42.6523 54.8228 42.55 54.7195 42.4935 54.5905C42.4371 54.4616 42.4307 54.3162 42.4755 54.1828C42.7807 53.834 42.7807 53.0929 42.7807 53.0493V52.744C42.7664 52.6428 42.7664 52.5401 42.7807 52.4389L43.5655 51.6976C44.1323 51.3924 44.1323 51.0872 44.1323 50.5641V50.564C44.1134 50.4632 44.1134 50.3597 44.1323 50.2589L44.5683 49.4304H45.1351C45.3086 49.3854 45.4926 49.4047 45.6529 49.4849C45.8132 49.565 45.9391 49.7006 46.0071 49.8664C46.0071 50.0844 46.3123 50.346 46.0071 50.4332C45.7019 50.5204 45.7019 50.8256 45.7019 50.8256C45.6414 51.0121 45.5532 51.1885 45.4403 51.3489L44.5683 52.308C44.3732 52.4465 44.2291 52.6453 44.1582 52.8738C44.0873 53.1023 44.0935 53.3478 44.1759 53.5724C44.2648 53.9008 44.2648 54.2469 44.1759 54.5752C44.0887 54.924 44.2631 55.3164 44.5683 55.3164L45.0479 55.6216C45.8327 55.5344 46.5303 55.0548 47.4023 55.0548C47.4023 55.36 47.4895 55.4037 47.7947 55.3601C48.0999 55.3165 48.4051 55.36 48.0999 55.6216C47.7947 55.8832 47.2715 55.8832 47.2715 55.8832C47.1538 55.9567 47.0179 55.9956 46.8791 55.9956C46.7404 55.9956 46.6044 55.9567 46.4867 55.8832C46.2325 55.8298 45.9686 55.8462 45.723 55.9306C45.4773 56.015 45.2591 56.1644 45.0915 56.3628C45.0663 56.5071 45.0663 56.6546 45.0915 56.7989C45.1633 56.9393 45.2511 57.0709 45.3531 57.1912C45.4188 57.3272 45.4529 57.4762 45.4529 57.6272C45.4529 57.7782 45.4188 57.9273 45.3531 58.0632C45.3286 58.0911 45.2984 58.1134 45.2646 58.1286C45.2307 58.1439 45.194 58.1518 45.1569 58.1518C45.1198 58.1518 45.0831 58.1439 45.0493 58.1286C45.0155 58.1134 44.9853 58.0911 44.9607 58.0632L44.6119 57.5401C44.2195 57.5837 43.9579 57.6708 43.9579 58.1504C43.7399 58.4556 43.9579 58.9352 43.9579 59.066V59.502C43.9579 59.8508 43.6963 59.8508 43.6963 59.8508H43.3911C43.3911 60.1996 42.9987 60.1997 42.9987 60.1997C42.925 60.205 42.8515 60.1867 42.7888 60.1475C42.7261 60.1083 42.6774 60.0503 42.6499 59.9816C42.5684 59.9018 42.4588 59.857 42.3447 59.857C42.2306 59.857 42.121 59.9018 42.0395 59.9816C41.5906 60.2903 41.0878 60.5121 40.5571 60.6356L40.1647 60.1124L39.5543 60.4176H39.2491C38.8567 60.2432 38.3771 60.0688 38.3771 59.6328C38.3241 59.5641 38.2953 59.4798 38.2953 59.393C38.2953 59.3062 38.3241 59.2219 38.3771 59.1532L38.9875 58.5864L38.5841 58.2407L38.3771 58.0632H38.7259V58.1504Z" fill="white"/>
<path d="M32.2305 61.7246C32.2546 61.9128 32.2546 62.1033 32.2305 62.2914C32.2849 62.2069 32.3139 62.1085 32.3139 62.008C32.3139 61.9075 32.2849 61.8091 32.2305 61.7246Z" fill="white"/>
<path d="M91.2634 92.941V93.7258L91.743 93.2463V92.8975L91.2634 92.941Z" fill="white"/>
<path d="M84.6803 39.1431C84.9546 39.1277 85.2158 39.0201 85.4214 38.8379C85.5626 38.7026 85.7492 38.6248 85.9446 38.6199V38.6199L85.1598 38.0967C84.6802 38.0967 84.6366 38.5763 84.3314 38.7507C84.0262 38.9251 84.3314 38.7507 84.3314 39.0123C84.3314 39.2739 84.3314 39.4483 84.3314 39.6663C84.4244 39.61 84.5038 39.5339 84.5641 39.4435C84.6243 39.3531 84.664 39.2505 84.6803 39.1431Z" fill="white"/>
<path d="M69.2458 78.8173V79.1661C69.2333 79.2466 69.2022 79.323 69.1549 79.3894C69.1077 79.4557 69.0456 79.51 68.9736 79.5482C68.9016 79.5863 68.8217 79.607 68.7403 79.6088C68.6589 79.6106 68.5782 79.5934 68.5046 79.5585C68.3291 79.4932 68.1711 79.3886 68.0425 79.2525C67.914 79.1164 67.8185 78.9526 67.7634 78.7737H68.1994C67.5018 78.7737 67.1966 78.2069 66.8478 77.7273C66.7926 77.6402 66.7147 77.5699 66.6226 77.5238C66.5304 77.4777 66.4273 77.4576 66.3246 77.4657C65.5874 77.5749 64.8382 77.5749 64.101 77.4657H62.6622C62.5415 77.4532 62.4273 77.4051 62.3341 77.3274C62.2409 77.2498 62.173 77.1462 62.139 77.0297V77.0297C62.139 76.6373 62.139 76.5937 61.5722 76.7681C61.3163 76.8559 61.0424 76.878 60.7757 76.8323C60.5091 76.7866 60.2582 76.6746 60.0462 76.5065C59.3922 76.5065 59.305 75.7217 58.9562 75.3293C58.8339 75.2095 58.6696 75.1423 58.4984 75.1423C58.3272 75.1423 58.1628 75.2095 58.0406 75.3293L57.7354 75.6781L58.215 76.3321L58.7382 77.1169C58.7571 77.2031 58.7571 77.2923 58.7382 77.3785C58.7382 77.6837 58.7382 77.8581 59.1306 78.0325V77.3349L59.3922 77.6401V78.2505C59.3922 78.4685 59.3922 78.5993 59.6974 78.5993C59.8696 78.6477 60.0522 78.6446 60.2227 78.5903C60.3932 78.5361 60.544 78.4331 60.6566 78.2941C60.9573 77.9966 61.2777 77.7199 61.6158 77.4657C61.6349 77.5958 61.6349 77.728 61.6158 77.8581C61.5905 78.0483 61.64 78.241 61.7538 78.3955C61.8677 78.55 62.037 78.6543 62.2262 78.6865C62.4329 78.7185 62.6198 78.8276 62.7494 78.9917L63.3162 79.4713C63.1448 79.806 62.9075 80.1026 62.6186 80.3433C62.4597 80.5214 62.314 80.7109 62.1826 80.9101C61.921 81.2153 61.7466 81.6077 61.3106 81.7821C61.3106 81.7821 60.7874 82.0873 60.4822 82.1309C60.332 82.1547 60.1885 82.2097 60.0609 82.2923C59.9332 82.3749 59.8243 82.4833 59.741 82.6105C59.6426 82.7482 59.5062 82.8542 59.3486 82.9157C59.1115 83.0289 58.863 83.1166 58.6074 83.1773C58.4952 83.1335 58.3707 83.1335 58.2586 83.1773C57.8135 83.4928 57.3093 83.7153 56.7762 83.8313H56.1222C55.6862 83.8313 55.5118 83.8313 55.381 83.3953C55.2502 82.9593 55.381 82.3925 55.0758 81.8693C54.9906 81.6761 54.8726 81.4991 54.727 81.3461C54.727 81.3461 54.1166 80.3869 53.7678 79.9073C53.7078 79.7231 53.7078 79.5247 53.7678 79.3405C53.7743 79.177 53.7323 79.0151 53.6469 78.8754C53.5615 78.7357 53.4367 78.6245 53.2882 78.5557C53.1514 78.4726 53.0365 78.358 52.9531 78.2215C52.8697 78.085 52.8201 77.9305 52.8086 77.7709C52.8086 77.7709 52.3726 76.9861 52.1546 76.6373L51.8494 76.3321V76.2013H51.5878C51.3808 76.2013 51.2284 75.901 51.1954 75.5813C51.1867 75.4969 51.1863 75.4112 51.1954 75.3293V75.5813C51.2284 75.901 51.3808 76.2013 51.5878 76.2013H51.8494V76.3321L52.1546 76.6373C52.3726 76.9861 52.8086 77.7709 52.8086 77.7709C52.8201 77.9305 52.8697 78.085 52.9531 78.2215C53.0365 78.358 53.1514 78.4726 53.2882 78.5557C53.4367 78.6245 53.5615 78.7357 53.6469 78.8754C53.7323 79.0151 53.7743 79.177 53.7678 79.3405C53.7078 79.5247 53.7078 79.7231 53.7678 79.9073C54.1166 80.3869 54.727 81.3461 54.727 81.3461C54.8726 81.4991 54.9906 81.6761 55.0758 81.8693C55.381 82.3925 55.2502 82.9593 55.381 83.3953C55.5118 83.8313 55.6862 83.8313 56.1222 83.8313H56.7762C57.3093 83.7153 57.8135 83.4928 58.2586 83.1773C58.3707 83.1335 58.4952 83.1335 58.6074 83.1773C58.863 83.1166 59.1115 83.0289 59.3486 82.9157C59.5062 82.8542 59.6426 82.7482 59.741 82.6105C59.8243 82.4833 59.9332 82.3749 60.0609 82.2923C60.1885 82.2097 60.332 82.1547 60.4822 82.1309C60.7874 82.0873 61.3106 81.7821 61.3106 81.7821C61.7466 81.6077 61.921 81.2153 62.1826 80.9101C62.314 80.7109 62.4597 80.5214 62.6186 80.3433C62.9075 80.1026 63.1448 79.806 63.3162 79.4713L62.7494 78.9917C62.6198 78.8276 62.4329 78.7185 62.2262 78.6865C62.037 78.6543 61.8677 78.55 61.7538 78.3955C61.64 78.241 61.5905 78.0483 61.6158 77.8581C61.6349 77.728 61.6349 77.5958 61.6158 77.4657C61.2777 77.7199 60.9573 77.9966 60.6566 78.2941C60.544 78.4331 60.3932 78.5361 60.2227 78.5903C60.0522 78.6446 59.8696 78.6477 59.6974 78.5993C59.3922 78.5993 59.3922 78.4685 59.3922 78.2505V77.6401L59.1306 77.3349V78.0325C58.7382 77.8581 58.7382 77.6837 58.7382 77.3785C58.7571 77.2923 58.7571 77.2031 58.7382 77.1169L58.215 76.3321L57.7354 75.6781L58.0406 75.3293C58.1628 75.2095 58.3272 75.1423 58.4984 75.1423C58.6696 75.1423 58.8339 75.2095 58.9562 75.3293C59.305 75.7217 59.3922 76.5065 60.0462 76.5065C60.2582 76.6746 60.5091 76.7866 60.7757 76.8323C61.0424 76.878 61.3163 76.8559 61.5722 76.7681C62.139 76.5937 62.139 76.6373 62.139 77.0297V77.0297C62.173 77.1462 62.2409 77.2498 62.3341 77.3274C62.4273 77.4051 62.5415 77.4532 62.6622 77.4657H64.101C64.8382 77.5749 65.5874 77.5749 66.3246 77.4657C66.4273 77.4576 66.5304 77.4777 66.6226 77.5238C66.7147 77.5699 66.7926 77.6402 66.8478 77.7273C67.1966 78.2069 67.5018 78.7737 68.1994 78.7737H67.7634C67.8185 78.9526 67.914 79.1164 68.0425 79.2525C68.1711 79.3886 68.3291 79.4932 68.5046 79.5585C68.5782 79.5934 68.6589 79.6106 68.7403 79.6088C68.8217 79.607 68.9016 79.5863 68.9736 79.5482C69.0456 79.51 69.1077 79.4557 69.1549 79.3894C69.2022 79.323 69.2333 79.2466 69.2458 79.1661C69.2307 79.0503 69.2307 78.9331 69.2458 78.8173Z" fill="white"/>
</g>
<path style="mix-blend-mode:screen" opacity="0.67" d="M126.595 80.5462C132.946 48.7633 112.329 17.8498 80.5464 11.499C48.7635 5.14816 17.8501 25.7649 11.4992 57.5477C5.14837 89.3306 25.7651 120.244 57.5479 126.595C89.3308 132.946 120.244 112.329 126.595 80.5462Z" fill="url(#paint0_radial_149_19125)"/>
<path style="mix-blend-mode:screen" opacity="0.64" d="M32.0038 106.163C32.0038 107.184 32.3068 108.183 32.8745 109.032C33.4423 109.881 34.2492 110.543 35.1932 110.934C36.1372 111.324 37.1758 111.426 38.1776 111.226C39.1795 111.026 40.0995 110.534 40.8213 109.811C41.5431 109.088 42.0343 108.167 42.2326 107.165C42.4309 106.163 42.3275 105.124 41.9354 104.181C41.5433 103.238 40.8803 102.432 40.03 101.865C39.1798 101.299 38.1807 100.997 37.1591 100.999C36.4814 100.999 35.8104 101.133 35.1844 101.392C34.5584 101.652 33.9897 102.032 33.5108 102.512C33.032 102.991 32.6525 103.561 32.3939 104.187C32.1353 104.814 32.0027 105.485 32.0038 106.163V106.163Z" fill="url(#paint1_radial_149_19125)"/>
</g>
<defs>
<radialGradient id="paint0_radial_149_19125" cx="0" cy="0" r="1" gradientUnits="userSpaceOnUse" gradientTransform="translate(103.85 95.9135) scale(59.0959)">
<stop stop-color="#FF7CDB"/>
<stop offset="0.09" stop-color="#F979D6"/>
<stop offset="0.22" stop-color="#E871C7"/>
<stop offset="0.36" stop-color="#CB63AE"/>
<stop offset="0.52" stop-color="#A34F8C"/>
<stop offset="0.69" stop-color="#703760"/>
<stop offset="0.87" stop-color="#33192C"/>
<stop offset="1"/>
</radialGradient>
<radialGradient id="paint1_radial_149_19125" cx="0" cy="0" r="1" gradientUnits="userSpaceOnUse" gradientTransform="translate(42.0975 107.842) rotate(180) scale(5.19615 5.19615)">
<stop stop-color="white"/>
<stop offset="1" stop-color="white"/>
</radialGradient>
</defs>
</svg>
