<svg width="139" height="139" viewBox="0 0 139 139" fill="none" xmlns="http://www.w3.org/2000/svg">
<g opacity="0.68">
<path style="mix-blend-mode:screen" opacity="0.64" d="M32.0038 106.163C32.0038 107.184 32.3068 108.183 32.8745 109.032C33.4423 109.881 34.2492 110.543 35.1932 110.934C36.1372 111.324 37.1758 111.426 38.1776 111.226C39.1795 111.026 40.0995 110.534 40.8213 109.811C41.5431 109.088 42.0343 108.167 42.2326 107.165C42.4309 106.163 42.3275 105.124 41.9354 104.181C41.5433 103.238 40.8803 102.432 40.03 101.865C39.1798 101.299 38.1807 100.997 37.1591 100.999C36.4814 100.999 35.8104 101.133 35.1844 101.392C34.5584 101.652 33.9897 102.032 33.5108 102.512C33.032 102.991 32.6525 103.561 32.3939 104.187C32.1353 104.814 32.0027 105.485 32.0038 106.163V106.163Z" fill="url(#paint0_radial_149_19125)"/>
</g>
<defs>
<radialGradient id="paint0_radial_149_19125" cx="0" cy="0" r="1" gradientUnits="userSpaceOnUse" gradientTransform="translate(42.0975 107.842) rotate(180) scale(5.19615 5.19615)">
<stop stop-color="white"/>
<stop offset="1" stop-color="white"/>
</radialGradient>
</defs>
</svg>
