<svg width="428" height="64" viewBox="0 0 428 64" fill="none" xmlns="http://www.w3.org/2000/svg">
<g clip-path="url(#clip0_104_22482)">
<path d="M384.991 18.115C384.991 18.115 385.364 3.85839 401.695 3.90932C417.872 3.959 418.398 18.115 418.398 18.115H384.991Z" fill="white"/>
<path d="M395.785 12.2603C396.571 11.475 396.571 10.2017 395.785 9.41642C395 8.6311 393.727 8.6311 392.941 9.41642C392.156 10.2017 392.156 11.475 392.941 12.2603C393.727 13.0456 395 13.0456 395.785 12.2603Z" fill="black"/>
<path d="M411.029 11.1646C411.207 10.0683 410.463 9.03536 409.367 8.85741C408.27 8.67946 407.237 9.42392 407.06 10.5202C406.882 11.6164 407.626 12.6494 408.722 12.8273C409.819 13.0053 410.851 12.2608 411.029 11.1646Z" fill="black"/>
<path d="M393.809 5.82564C393.868 5.90886 394.05 5.88278 394.217 5.76478C394.381 5.64802 394.465 5.48407 394.409 5.40085L391.288 0.99642C391.228 0.9132 391.04 0.940527 390.882 1.05728C390.715 1.18149 390.633 1.33799 390.689 1.42121L393.809 5.82564Z" fill="white"/>
<path d="M409.578 5.82564C409.518 5.90886 409.337 5.88278 409.169 5.76478C409.005 5.64802 408.921 5.48407 408.978 5.40085L412.098 0.99642C412.159 0.9132 412.346 0.940527 412.505 1.05728C412.672 1.18149 412.754 1.33799 412.698 1.42121L409.578 5.82564Z" fill="white"/>
<path d="M418.537 20.0986H384.852V33.964H384.883V48.5076C384.883 49.0416 385.095 49.5537 385.472 49.9313C385.85 50.3089 386.362 50.521 386.896 50.521H416.491C417.025 50.521 417.537 50.3089 417.915 49.9313C418.292 49.5537 418.505 49.0416 418.505 48.5076V33.964H418.537V20.0986Z" fill="white"/>
<path d="M427.497 38.6341C427.497 39.1049 427.405 39.5712 427.224 40.0061C427.044 40.441 426.78 40.8361 426.446 41.1688C426.113 41.5015 425.718 41.7653 425.283 41.945C424.847 42.1248 424.381 42.2169 423.91 42.2163V42.2163C422.96 42.2163 422.049 41.8389 421.377 41.1671C420.706 40.4953 420.328 39.5842 420.328 38.6341V22.5355C420.33 21.5864 420.708 20.6767 421.379 20.0061C422.051 19.3354 422.961 18.9586 423.91 18.9583V18.9583C424.86 18.9586 425.772 19.3363 426.443 20.0082C427.115 20.6802 427.492 21.5915 427.492 22.5417L427.497 38.6341Z" fill="white"/>
<path d="M383.056 38.6341C383.056 39.1046 382.964 39.5705 382.783 40.0052C382.603 40.4399 382.339 40.8349 382.007 41.1675C381.674 41.5002 381.279 41.764 380.844 41.944C380.409 42.1239 379.943 42.2164 379.473 42.2163V42.2163C378.523 42.2163 377.612 41.8389 376.94 41.1671C376.268 40.4953 375.891 39.5842 375.891 38.6341V22.5355C375.892 21.5864 376.27 20.6767 376.942 20.0061C377.614 19.3354 378.524 18.9586 379.473 18.9583V18.9583C380.423 18.9583 381.335 19.3358 382.007 20.0078C382.679 20.6798 383.056 21.5913 383.056 22.5417V38.6341Z" fill="white"/>
<path d="M412.191 59.4701C412.191 59.9407 412.098 60.4066 411.918 60.8413C411.738 61.276 411.474 61.6709 411.141 62.0036C410.808 62.3362 410.413 62.6001 409.978 62.78C409.544 62.96 409.078 63.0525 408.607 63.0523V63.0523C407.658 63.0507 406.749 62.6725 406.078 62.0009C405.408 61.3293 405.031 60.4191 405.031 59.4701V43.3703C405.031 42.8998 405.124 42.434 405.304 41.9994C405.484 41.5648 405.748 41.1699 406.08 40.8373C406.413 40.5046 406.808 40.2408 407.243 40.0608C407.677 39.8807 408.143 39.7881 408.613 39.7881C409.084 39.7879 409.55 39.8805 409.985 40.0604C410.419 40.2404 410.814 40.5042 411.147 40.8368C411.48 41.1695 411.744 41.5644 411.924 41.9991C412.104 42.4338 412.197 42.8997 412.197 43.3703L412.191 59.4701Z" fill="white"/>
<path d="M398.364 59.4701C398.364 59.9406 398.271 60.4064 398.091 60.841C397.911 61.2756 397.647 61.6705 397.314 62.0031C396.982 62.3358 396.587 62.5996 396.152 62.7796C395.718 62.9597 395.252 63.0523 394.781 63.0523V63.0523C393.831 63.0523 392.92 62.6749 392.248 62.0031C391.577 61.3313 391.199 60.4202 391.199 59.4701V43.3703C391.199 42.4202 391.577 41.5091 392.248 40.8373C392.92 40.1655 393.831 39.7881 394.781 39.7881V39.7881C395.252 39.7881 395.718 39.8807 396.152 40.0608C396.587 40.2408 396.982 40.5046 397.314 40.8373C397.647 41.1699 397.911 41.5648 398.091 41.9994C398.271 42.434 398.364 42.8998 398.364 43.3703V59.4701Z" fill="white"/>
<path d="M28.8769 5.82169C40.0507 4.11176 51.2386 2.48711 62.4405 0.947754C62.448 10.7594 62.4504 20.5685 62.448 30.3752C51.2605 30.4174 40.0718 30.5876 28.8769 30.6236C28.8711 22.3514 28.8711 14.084 28.8769 5.82169V5.82169Z" fill="white"/>
<path d="M0.50053 9.78033C8.91441 8.48235 17.3631 7.36075 25.813 6.30249C25.8204 14.4415 25.8241 22.5767 25.8241 30.7082C17.378 30.702 8.94049 30.8324 0.498047 30.8076V9.78033H0.50053Z" fill="white"/>
<path d="M0.500488 33.3662C8.93548 33.3389 17.3705 33.4731 25.8055 33.4594C25.8055 41.6174 25.8266 49.7754 25.8129 57.9347C17.3854 56.6888 8.94294 55.5995 0.500488 54.4531V33.3662Z" fill="white"/>
<path d="M28.8271 33.6953H62.4404C62.4553 43.478 62.4553 53.2635 62.4404 63.052C51.2617 61.3776 40.0717 59.8225 28.8768 58.306C28.8636 50.1049 28.847 41.9013 28.8271 33.6953Z" fill="white"/>
<path d="M142.256 33.9439C142.182 26.0828 148.715 22.3056 149.017 22.123C145.339 16.7821 139.616 16.053 137.575 15.9648C132.702 15.4754 128.068 18.8129 125.598 18.8129C123.127 18.8129 119.311 16.0381 115.273 16.1151C109.96 16.1908 105.066 19.178 102.327 23.8967C96.8123 33.4024 100.919 47.4802 106.294 55.1898C108.923 58.9595 112.054 63.2012 116.17 63.0485C120.134 62.8957 121.635 60.5059 126.42 60.5059C131.204 60.5059 132.557 63.0522 136.742 62.969C141.007 62.8957 143.707 59.126 146.317 55.3438C148.181 52.6239 149.641 49.6484 150.653 46.5101C150.56 46.4679 142.338 43.3403 142.254 33.9439" fill="white"/>
<path d="M134.382 10.8646C136.568 8.23755 138.039 4.58582 137.635 0.947754C134.49 1.07196 130.68 3.02949 128.419 5.65401C126.396 7.97919 124.623 11.6943 125.103 15.2603C128.61 15.5298 132.196 13.4891 134.382 10.8646" fill="white"/>
<path d="M304.462 13.4406C304.574 11.7191 304.556 9.97646 304.821 8.27854C305.539 3.68282 308.46 1.15146 313.133 0.967629C314.136 0.914661 315.142 0.952074 316.139 1.07942C318.956 1.48309 320.933 3.04439 322.094 5.63787C322.943 7.53329 323.262 9.54919 323.375 11.5999C323.448 12.9662 323.531 14.3399 323.437 15.6987C323.22 18.8238 324.28 21.4831 326.17 23.8903C327.459 25.5385 328.778 27.1607 330.005 28.8586C331.8 31.3515 333.197 34.053 333.885 37.075C334.398 39.3319 334.397 41.585 333.718 43.8146C333.631 44.1015 333.668 44.2592 333.95 44.4033C334.329 44.5904 334.664 44.8552 334.933 45.1806C335.203 45.5059 335.401 45.8843 335.514 46.2913C335.74 47.049 335.874 47.8364 336.144 48.5755C336.36 49.1655 336.696 49.7182 337.023 50.2597C337.463 50.9888 338.032 51.6534 338.389 52.4172C338.886 53.4668 338.619 54.4369 337.705 55.1498C337.127 55.6032 336.463 55.9584 335.821 56.3174C335.145 56.69 334.439 57.0167 333.749 57.3669C332.508 57.9884 331.404 58.8506 330.5 59.9033C329.374 61.2137 328.015 62.2086 326.346 62.7365C323.453 63.6531 320.993 62.5179 319.792 59.748C319.749 59.6695 319.69 59.6013 319.618 59.5483C319.546 59.4952 319.463 59.4587 319.375 59.4412C317.92 59.2847 316.455 59.204 315.005 59.0102C313.104 58.7618 311.261 59.0761 309.415 59.4102C308.752 59.5344 308.08 59.6039 307.415 59.7207C307.26 59.7432 307.12 59.8246 307.023 59.948C305.858 61.9639 303.974 62.4918 301.855 62.2918C300.691 62.1825 299.457 61.9577 298.429 61.4397C296.165 60.3008 293.777 59.8399 291.304 59.5841C290.486 59.4978 289.681 59.3152 288.906 59.04C287.788 58.6388 287.236 57.7818 287.3 56.5857C287.335 55.9286 287.457 55.2791 287.664 54.6542C287.913 53.8852 287.977 53.068 287.851 52.2694C287.731 51.5384 287.652 50.801 287.615 50.061C287.584 48.7692 288.203 47.8141 289.337 47.2266C289.885 46.9607 290.451 46.7329 291.031 46.5447C291.689 46.3168 292.261 45.8934 292.672 45.3312C293.125 44.725 293.616 44.1474 294.074 43.5438C294.17 43.4168 294.219 43.2606 294.213 43.1016C293.88 40.1653 294.669 37.4476 295.828 34.8082C297.286 31.4943 299.306 28.532 301.588 25.741C303.926 22.8755 304.941 19.589 304.755 15.9149C304.713 15.0914 304.657 14.2704 304.607 13.4468L304.462 13.4406ZM304.796 52.5203C305.129 52.9613 305.453 53.2979 305.665 53.6941C306.286 54.8294 307.286 55.4802 308.451 55.9299C308.847 56.0921 309.252 56.2323 309.664 56.3497C313.534 57.352 316.992 56.3149 320.205 54.1661C320.357 54.0439 320.466 53.8771 320.518 53.6891C320.97 52.2767 321.248 50.8143 321.345 49.3344C321.431 47.9717 321.62 46.6176 321.913 45.284C322.188 44.0158 322.907 42.996 324.14 42.4272C324.282 42.3613 324.4 42.1415 324.438 41.9726C324.75 40.5889 325.514 40.0399 326.934 40.2138C328.034 40.3492 329.03 40.7814 329.983 41.3167C331.02 41.898 332.06 42.4955 331.846 43.9413C332.229 44.0816 332.343 43.8978 332.387 43.6109C332.519 42.7166 332.148 41.9962 331.475 41.4919C330.715 40.9426 329.92 40.4446 329.095 40.0014C328.746 39.8064 328.562 39.6561 328.672 39.2176C328.768 38.7994 328.81 38.3708 328.797 37.942C328.754 34.135 327.028 31.0919 324.449 28.4463C324.357 28.3785 324.255 28.3253 324.146 28.2885C324.109 28.3283 324.07 28.368 324.033 28.4127C324.169 28.6188 324.319 28.8147 324.483 28.999C325.438 29.9571 326.216 31.0769 326.781 32.3067C327.686 34.2294 328.131 36.2279 327.671 38.3544C327.466 39.3046 327.459 39.2897 326.504 39.194C326.197 39.163 326.04 39.0698 325.977 38.7494C325.493 36.2888 324.591 33.976 323.432 31.7601C321.506 28.0601 319.958 24.175 318.813 20.164C318.783 20.0728 318.746 19.9839 318.702 19.8982C318.04 20.3454 317.428 20.8161 316.765 21.195C315.867 21.708 314.916 22.1265 314.012 22.6308C311.994 23.7549 310.154 23.5773 308.423 22.0545C308.199 21.8582 307.983 21.6533 307.743 21.4806C307.402 21.2322 307.042 21.0161 306.64 20.754C306.607 20.9118 306.591 20.9875 306.576 21.0633C306.327 22.288 306.145 23.5313 305.816 24.7337C305.089 27.3806 303.934 29.866 302.761 32.3377C301.697 34.5735 300.764 36.8614 300.393 39.3331C300.28 40.0908 300.209 40.8547 300.103 41.7403C299.948 41.5217 299.855 41.4012 299.77 41.2695C299.162 40.2422 298.842 39.0701 298.843 37.8762C298.815 36.0404 299.323 34.3263 300.096 32.6843C300.509 31.8049 300.965 30.9453 301.4 30.0759C301.489 29.8603 301.565 29.6397 301.627 29.4151C301.503 29.4598 301.463 29.461 301.45 29.4822C301.281 29.7455 301.111 30.0076 300.953 30.2771C299.697 32.416 298.548 34.602 298.105 37.0787C297.629 39.738 298.184 42.0657 300.376 43.822C300.902 44.2418 301.494 44.5847 302.05 44.9623C303.492 45.9323 304.879 46.9794 305.876 48.4227C306.306 49.0411 306.626 49.7295 306.82 50.4572C307.079 51.4584 306.461 52.2322 305.439 52.4135C305.262 52.4458 305.084 52.4731 304.796 52.5203ZM302.322 61.5776C302.795 61.523 303.277 61.5068 303.74 61.4087C306.224 60.887 307.413 58.6028 306.338 56.3161C305.9 55.3937 305.346 54.5302 304.691 53.7463C303.022 51.7469 301.587 49.5632 300.414 47.2378C300.126 46.6652 299.86 46.064 299.475 45.5585C299.003 44.9374 298.481 44.3077 297.86 43.8506C296.705 43.001 295.459 43.1923 294.506 44.2617C294.096 44.7345 293.712 45.2291 293.355 45.7435C292.823 46.5082 292.053 47.0758 291.165 47.3582C290.708 47.4983 290.261 47.6668 289.825 47.8625C288.874 48.3134 288.351 49.0698 288.399 50.1417C288.434 50.7825 288.507 51.4208 288.615 52.0533C288.77 53.0147 288.77 53.9475 288.408 54.8741C288.264 55.276 288.165 55.6926 288.112 56.1162C287.915 57.4328 288.387 58.1718 289.673 58.496C290.345 58.6597 291.028 58.7734 291.717 58.8363C294.062 59.0624 296.334 59.4909 298.451 60.6187C299.637 61.2447 300.958 61.5279 302.322 61.5776ZM324.307 43.1836C323.975 43.468 323.657 43.6444 323.481 43.9127C323.169 44.3896 322.838 44.8964 322.707 45.438C322.458 46.4565 322.245 47.5048 322.204 48.5432C322.12 50.6547 321.707 52.6793 321.094 54.694C320.737 55.8232 320.513 56.9905 320.427 58.1718C320.296 60.4722 322.119 62.2707 324.432 62.2446C326.336 62.2223 327.87 61.3242 329.221 60.0735C329.692 59.6387 330.1 59.1369 330.544 58.6736C331.766 57.398 333.327 56.6478 334.877 55.874C335.634 55.5157 336.366 55.1043 337.065 54.6431C337.881 54.0816 338.034 53.4134 337.578 52.5315C337.272 51.9315 336.897 51.3696 336.46 50.8572C335.867 50.1691 335.455 49.3445 335.259 48.4575C335.106 47.7502 334.915 47.052 334.685 46.3658C334.35 45.4243 333.623 44.9262 332.64 44.8132C332.363 44.7688 332.081 44.7646 331.804 44.8008C331.527 44.8605 331.263 44.9676 331.022 45.1175C330.235 45.587 329.511 46.1981 328.676 46.5409C326.742 47.3334 325.28 46.5794 324.648 44.5785C324.51 44.1785 324.438 43.7549 324.303 43.1786L324.307 43.1836ZM311.458 22.914C312.328 22.914 313.098 22.6296 313.847 22.2147C314.708 21.7378 315.612 21.3353 316.463 20.8484C317.04 20.5156 317.633 20.1516 318.092 19.6784C319.116 18.6276 318.866 17.4426 317.557 16.7943C317.41 16.7222 317.256 16.6614 317.106 16.5943C315.97 16.0784 314.833 15.5642 313.695 15.0516C313.427 14.9255 313.153 14.8132 312.873 14.715C311.437 14.2381 310.109 14.4393 308.916 15.3857C308.026 16.0929 307.142 16.8046 306.263 17.5209C305.701 17.978 305.524 18.568 305.901 19.1853C306.225 19.6766 306.62 20.1167 307.074 20.4907C307.718 21.0496 308.44 21.5204 309.095 22.0657C309.753 22.6268 310.593 22.9285 311.458 22.914V22.914ZM316.237 15.7584C316.688 15.941 317.075 16.1248 317.479 16.2477C317.559 16.2575 317.64 16.2481 317.715 16.2205C317.791 16.1929 317.859 16.1477 317.914 16.0888C319.168 14.4741 318.854 11.4993 317.302 10.1615C316.237 9.24364 314.841 9.24488 313.805 10.2C312.744 11.1788 312.419 12.442 312.508 13.8369C312.515 13.9062 312.538 13.9731 312.574 14.0323C312.611 14.0916 312.661 14.1415 312.72 14.1784C313.144 14.3449 313.59 14.4678 313.97 14.5908C314.123 13.9474 314.218 13.3289 314.422 12.755C314.602 12.2582 314.987 11.8781 315.578 11.9079C316.147 11.9365 316.455 12.3476 316.634 12.8271C317.017 13.8381 317.002 14.8218 316.237 15.7584V15.7584ZM309.082 14.6405C309.455 14.4852 309.793 14.3647 310.108 14.2033C310.159 14.1661 310.201 14.1183 310.231 14.0631C310.262 14.008 310.279 13.9468 310.283 13.8841C310.313 12.75 310.086 11.6818 309.323 10.8025C308.417 9.75662 307.202 9.8535 306.438 11.0111C306.3 11.2162 306.187 11.4367 306.101 11.6682C305.852 12.3248 305.75 13.0279 305.802 13.7283C305.853 14.4286 306.057 15.1092 306.399 15.7223C306.824 16.5111 307.01 16.5247 307.641 15.8664C307.651 15.8552 307.65 15.8354 307.654 15.8205C307.658 15.8056 307.661 15.7832 307.654 15.772C307.609 15.7037 307.558 15.6391 307.512 15.5721C306.971 14.7808 306.858 13.9151 307.201 13.0382C307.307 12.7637 307.648 12.4234 307.899 12.4085C308.149 12.3936 308.49 12.6966 308.682 12.945C308.875 13.1935 308.92 13.5164 308.992 13.8145C309.039 14.0894 309.069 14.3669 309.082 14.6455V14.6405Z" fill="white"/>
<path d="M304.796 52.5205C305.084 52.4733 305.261 52.446 305.438 52.4149C306.46 52.2336 307.077 51.4598 306.819 50.4587C306.624 49.731 306.305 49.0426 305.875 48.4241C304.881 46.9808 303.49 45.9337 302.048 44.9637C301.488 44.5911 300.9 44.2433 300.375 43.8234C298.183 42.0671 297.627 39.7395 298.103 37.0802C298.547 34.6035 299.696 32.4174 300.951 30.2785C301.109 30.009 301.279 29.7469 301.448 29.4836C301.462 29.4625 301.504 29.4612 301.626 29.4165C301.563 29.6411 301.487 29.8618 301.398 30.0773C300.97 30.9468 300.508 31.805 300.094 32.6857C299.322 34.3277 298.814 36.0393 298.841 37.8776C298.84 39.0715 299.161 40.2436 299.769 41.271C299.848 41.4026 299.946 41.5194 300.102 41.7417C300.207 40.8561 300.278 40.0922 300.391 39.3345C300.764 36.8628 301.695 34.5811 302.76 32.3391C303.932 29.8674 305.087 27.382 305.814 24.7351C306.143 23.5328 306.325 22.2894 306.574 21.0647C306.589 20.989 306.605 20.9132 306.639 20.7555C307.04 21.0175 307.4 21.2361 307.742 21.4821C307.981 21.6547 308.198 21.8547 308.421 22.0559C310.154 23.5787 311.993 23.7563 314.011 22.6322C314.915 22.128 315.865 21.7094 316.763 21.1964C317.426 20.8176 318.039 20.3468 318.701 19.8997C318.744 19.9854 318.781 20.0742 318.811 20.1655C319.956 24.1759 321.502 28.0605 323.427 31.7603C324.586 33.9762 325.487 36.289 325.972 38.7495C326.035 39.0737 326.192 39.1631 326.498 39.1942C327.454 39.2898 327.461 39.3047 327.666 38.3545C328.126 36.2281 327.681 34.2296 326.775 32.3068C326.214 31.0736 325.438 29.9499 324.484 28.988C324.32 28.8037 324.17 28.6078 324.034 28.4017C324.071 28.3607 324.11 28.321 324.147 28.2775C324.256 28.3143 324.358 28.3675 324.45 28.4353C327.033 31.0809 328.759 34.124 328.798 37.931C328.811 38.3598 328.769 38.7884 328.673 39.2066C328.563 39.6451 328.747 39.7954 329.096 39.9904C329.921 40.4337 330.716 40.9316 331.475 41.4809C332.149 41.9876 332.52 42.7056 332.388 43.5999C332.345 43.8868 332.229 44.0706 331.847 43.9303C332.059 42.4845 331.02 41.887 329.984 41.3057C329.031 40.7704 328.035 40.3382 326.934 40.2028C325.515 40.0289 324.751 40.5754 324.439 41.9616C324.401 42.1305 324.283 42.3503 324.141 42.4162C322.899 42.9912 322.188 44.011 321.914 45.273C321.621 46.6066 321.432 47.9607 321.346 49.3234C321.249 50.8033 320.971 52.2657 320.519 53.6781C320.467 53.8661 320.358 54.0329 320.206 54.1551C316.989 56.3039 313.535 57.341 309.664 56.3387C309.253 56.2213 308.848 56.0811 308.452 55.9189C307.287 55.473 306.292 54.8221 305.666 53.6831C305.453 53.2981 305.128 52.9615 304.796 52.5205Z" fill="black"/>
<path d="M302.321 61.5777C300.955 61.528 299.637 61.2448 298.455 60.6139C296.343 59.4861 294.065 59.0575 291.72 58.8315C291.032 58.7685 290.349 58.6548 289.677 58.4911C288.39 58.167 287.918 57.4279 288.116 56.1113C288.168 55.6877 288.267 55.2712 288.411 54.8692C288.774 53.9426 288.774 53.0061 288.619 52.0484C288.509 51.4151 288.436 50.7761 288.4 50.1344C288.352 49.0625 288.874 48.3061 289.826 47.8552C290.262 47.6594 290.709 47.491 291.166 47.3509C292.054 47.0685 292.824 46.5009 293.356 45.7362C293.713 45.2218 294.097 44.7271 294.507 44.2544C295.46 43.1849 296.706 42.9937 297.861 43.8432C298.482 44.3003 299 44.9301 299.476 45.5511C299.861 46.0566 300.126 46.6578 300.415 47.2304C301.588 49.5558 303.023 51.7395 304.692 53.7389C305.347 54.5229 305.901 55.3863 306.339 56.3088C307.414 58.5992 306.215 60.8834 303.741 61.4013C303.276 61.5069 302.794 61.5231 302.321 61.5777Z" fill="black"/>
<path d="M324.303 43.1787C324.438 43.7501 324.51 44.1724 324.639 44.5785C325.272 46.5795 326.734 47.3335 328.667 46.541C329.502 46.1982 330.226 45.5871 331.014 45.1176C331.254 44.9677 331.518 44.8606 331.795 44.8009C332.073 44.7647 332.354 44.7689 332.631 44.8133C333.615 44.9263 334.341 45.4244 334.677 46.3659C334.906 47.0521 335.098 47.7503 335.251 48.4576C335.446 49.3446 335.859 50.1692 336.452 50.8573C336.889 51.3697 337.264 51.9316 337.57 52.5316C338.025 53.4135 337.873 54.0817 337.057 54.6431C336.357 55.1044 335.626 55.5157 334.868 55.8741C333.318 56.6479 331.763 57.3981 330.536 58.6737C330.091 59.137 329.684 59.6388 329.213 60.0735C327.861 61.3243 326.327 62.2223 324.423 62.2447C322.111 62.272 320.287 60.4723 320.419 58.1719C320.504 56.9905 320.728 55.8233 321.086 54.6941C321.693 52.6794 322.112 50.6536 322.195 48.5433C322.236 47.4999 322.451 46.4516 322.698 45.4381C322.83 44.8965 323.16 44.3897 323.472 43.9128C323.653 43.6445 323.971 43.4681 324.303 43.1787Z" fill="black"/>
<path d="M311.458 22.9141C310.594 22.9263 309.755 22.6229 309.098 22.0608C308.441 21.5155 307.722 21.0448 307.077 20.4859C306.623 20.1118 306.228 19.6718 305.905 19.1804C305.532 18.5594 305.705 17.9731 306.266 17.516C307.147 16.7998 308.032 16.0881 308.919 15.3809C310.113 14.4344 311.441 14.2332 312.877 14.7102C313.156 14.8083 313.431 14.9207 313.699 15.0468C314.837 15.5585 315.974 16.0727 317.11 16.5894C317.26 16.6565 317.414 16.7136 317.56 16.7894C318.87 17.4378 319.119 18.6227 318.096 19.6735C317.636 20.1468 317.044 20.5107 316.466 20.8436C315.615 21.3404 314.711 21.7379 313.85 22.2099C313.098 22.6297 312.321 22.9104 311.458 22.9141ZM306.648 18.188L306.445 18.2874C306.541 18.4886 306.588 18.7407 306.741 18.8798C307.241 19.3548 307.773 19.7959 308.332 20.2002C309.465 20.9864 310.734 21.2994 312.085 20.9541C313.863 20.5 315.503 19.6177 316.861 18.3843C317.007 18.2263 317.139 18.0554 317.254 17.8738L317.148 17.7495C317.015 17.7958 316.889 17.862 316.775 17.9458C315.484 19.25 313.929 20.107 312.18 20.6225C311.107 20.9392 310.035 20.8411 309.075 20.261C308.379 19.8375 307.757 19.2897 307.12 18.7705C306.933 18.619 306.805 18.3855 306.648 18.188ZM312.054 15.6392C312.199 15.716 312.349 15.784 312.501 15.8429C312.709 15.8976 312.921 15.9349 313.132 15.9796C313.144 15.9088 313.182 15.7808 313.165 15.7734C312.951 15.6669 312.729 15.5792 312.5 15.5113C312.413 15.4877 312.3 15.5647 312.054 15.6392V15.6392ZM309.503 15.9125C310.031 16.1609 310.298 15.7995 310.621 15.6467C310.211 15.4355 309.877 15.52 309.503 15.9125Z" fill="black"/>
<path d="M316.236 15.7583C317.001 14.8218 317.016 13.8381 316.637 12.827C316.458 12.3476 316.15 11.9364 315.582 11.9079C314.99 11.8781 314.605 12.2594 314.425 12.755C314.215 13.3288 314.126 13.9474 313.973 14.5908C313.587 14.4666 313.147 14.3424 312.724 14.1784C312.664 14.1415 312.614 14.0915 312.578 14.0323C312.541 13.9731 312.518 13.9062 312.511 13.8368C312.422 12.442 312.747 11.1788 313.808 10.2C314.844 9.24484 316.24 9.2436 317.306 10.1615C318.857 11.4992 319.169 14.4703 317.917 16.0887C317.862 16.1477 317.794 16.1928 317.718 16.2205C317.643 16.2481 317.562 16.2574 317.482 16.2477C317.075 16.1247 316.687 15.9409 316.236 15.7583Z" fill="black"/>
<path d="M309.082 14.6455C309.067 14.3693 309.035 14.0943 308.986 13.822C308.914 13.5214 308.862 13.1835 308.677 12.9525C308.492 12.7215 308.149 12.401 307.893 12.4159C307.637 12.4308 307.302 12.7712 307.195 13.0457C306.852 13.9226 306.965 14.7846 307.507 15.5795C307.553 15.6466 307.604 15.7112 307.649 15.7795C307.657 15.7907 307.649 15.8118 307.649 15.8279C307.649 15.8441 307.649 15.8627 307.635 15.8739C307.008 16.5322 306.821 16.5185 306.393 15.7298C306.051 15.1166 305.847 14.436 305.795 13.7357C305.744 13.0354 305.846 12.3323 306.095 11.6756C306.181 11.4442 306.294 11.2237 306.431 11.0186C307.195 9.86096 308.41 9.76408 309.317 10.8099C310.079 11.6893 310.31 12.7575 310.277 13.8915C310.273 13.9543 310.255 14.0154 310.225 14.0706C310.195 14.1258 310.153 14.1736 310.102 14.2107C309.792 14.3697 309.456 14.4865 309.082 14.6455Z" fill="black"/>
<path d="M306.648 18.1881C306.805 18.3856 306.933 18.6191 307.125 18.7756C307.762 19.2911 308.384 19.8389 309.08 20.2661C310.035 20.8462 311.107 20.9443 312.185 20.6276C313.93 20.1121 315.485 19.2551 316.781 17.9509C316.894 17.8671 317.02 17.8009 317.153 17.7546L317.259 17.8788C317.144 18.0605 317.012 18.2314 316.866 18.3893C315.508 19.6228 313.868 20.5051 312.09 20.9592C310.739 21.3045 309.47 20.9915 308.337 20.2053C307.778 19.801 307.246 19.3599 306.746 18.8849C306.593 18.7458 306.546 18.4937 306.45 18.2925L306.648 18.1881Z" fill="white"/>
<path d="M312.055 15.6391C312.303 15.5646 312.414 15.4876 312.501 15.5149C312.729 15.5828 312.952 15.6705 313.165 15.777C313.182 15.7844 313.144 15.9124 313.133 15.9832C312.922 15.9385 312.709 15.9012 312.502 15.8466C312.349 15.7864 312.199 15.7171 312.055 15.6391Z" fill="white"/>
<path d="M309.504 15.9125C309.877 15.52 310.212 15.4356 310.622 15.6467C310.299 15.7995 310.032 16.161 309.504 15.9125Z" fill="white"/>
<path d="M218.967 0.947998C236.117 0.947998 250.019 14.8506 250.019 32.0001C250.019 49.1496 236.117 63.0522 218.967 63.0522C201.818 63.0522 187.915 49.1496 187.915 32.0001C187.915 14.8506 201.826 0.947998 218.967 0.947998Z" fill="white"/>
<path d="M214.355 20.2712C212.616 20.2948 211.117 20.6351 209.644 21.3692C205.884 23.2423 203.713 27.1859 203.713 32.1555C203.713 37.125 205.849 40.9631 209.622 42.7529C210.641 43.2361 211.662 43.4982 213.214 43.6845C213.999 43.7155 214.733 43.7714 215.498 43.6845C217.048 43.4994 218.07 43.2361 219.089 42.7529C222.862 40.9631 224.997 37.1362 224.997 32.1555C224.997 27.1747 222.826 23.2423 219.068 21.3692C217.595 20.6351 216.097 20.2948 214.355 20.2712V20.2712ZM215.852 23.7739C218.11 24.3763 219.747 26.4121 220.376 29.3831C220.817 31.4698 220.696 33.8807 220.065 35.7799C219.081 38.7373 216.949 40.4079 214.351 40.3756C211.759 40.4029 209.632 38.7323 208.638 35.7799C208.007 33.8807 207.886 31.4698 208.327 29.3831C208.948 26.4121 210.593 24.3763 212.851 23.7739C213.839 23.5769 214.856 23.5769 215.843 23.7739H215.852ZM199.366 20.2712C198.919 20.2712 198.483 20.4036 198.112 20.6515C197.741 20.8995 197.451 21.252 197.281 21.6644C197.11 22.0768 197.065 22.5306 197.152 22.9684C197.239 23.4061 197.454 23.8083 197.77 24.1239C198.086 24.4395 198.488 24.6545 198.925 24.7416C199.363 24.8286 199.817 24.784 200.229 24.6131C200.642 24.4423 200.994 24.1531 201.242 23.7819C201.49 23.4108 201.623 22.9744 201.623 22.5281V22.5281C201.623 21.9295 201.385 21.3555 200.962 20.9322C200.538 20.509 199.964 20.2712 199.366 20.2712V20.2712ZM197.254 27.1573V43.7304H201.477V27.1561L197.254 27.1573ZM231.127 43.6969C229.321 43.3864 227.582 43.1467 226.108 42.3095C226.088 42.2921 226.977 38.9646 227.018 38.9049C229.389 39.7098 232.732 40.8389 234.978 39.8042C236.205 39.1906 236.808 38.0566 236.606 36.7462C236.377 35.2743 235.358 34.426 232.56 33.3802C229.439 32.2138 227.611 30.7805 226.863 28.9161C226.487 27.9268 226.375 26.8565 226.539 25.8109C226.998 22.9752 229.207 21.0028 232.598 20.4004C233.579 20.2252 235.679 20.224 236.713 20.4004C238.203 20.6488 239.91 21.2127 239.91 21.4549C239.91 21.5443 239.04 24.621 238.993 24.6843C237.52 24.1005 235.869 23.6844 234.472 23.6758C232.495 23.6497 230.351 24.8234 230.728 26.8977C230.997 28.1957 231.825 28.8304 234.877 30.07C237.125 30.9842 238.203 31.6152 239.127 32.5542C240.412 33.8372 240.818 35.3414 240.828 36.8331C240.828 38.0752 240.715 38.6553 240.271 39.6154C239.195 41.9447 237.005 43.2953 233.702 43.6671C232.846 43.7387 231.987 43.7483 231.13 43.6957L231.127 43.6969Z" fill="black"/>
</g>
<defs>
<clipPath id="clip0_104_22482">
<rect width="427" height="62.1042" fill="white" transform="translate(0.5 0.947754)"/>
</clipPath>
</defs>
</svg>
