<svg width="360" height="273" viewBox="0 0 360 273" fill="none" xmlns="http://www.w3.org/2000/svg">
<path opacity="0.37" d="M136.032 272.064C211.16 272.064 272.064 211.16 272.064 136.032C272.064 60.9036 211.16 0 136.032 0C60.9036 0 0 60.9036 0 136.032C0 211.16 60.9036 272.064 136.032 272.064Z" fill="url(#paint0_radial_149_20345)"/>
<path d="M168.695 159.253C184.524 142.374 183.672 115.858 166.793 100.029C149.913 84.2 123.397 85.0518 107.568 101.932C91.7392 118.811 92.591 145.327 109.471 161.156C126.35 176.985 152.866 176.133 168.695 159.253Z" fill="#2F1700"/>
<g opacity="0.73">
<path d="M98.8852 130.756C98.9397 130.872 98.9679 130.998 98.9679 131.126C98.9679 131.255 98.9397 131.381 98.8852 131.497C98.8729 131.25 98.8729 131.003 98.8852 130.756V130.756Z" fill="#FFFF71"/>
<path d="M175.36 120.379L176.232 120.074C176.326 120.418 176.399 120.768 176.45 121.121C176.331 120.927 176.172 120.761 175.985 120.634C175.797 120.506 175.584 120.419 175.36 120.379V120.379Z" fill="#FFFF71"/>
<path d="M159.533 129.841V130.32C159.533 130.32 159.795 130.32 159.925 130.32C160.143 130.298 160.362 130.298 160.579 130.32C160.664 130.298 160.753 130.302 160.836 130.331C160.918 130.36 160.99 130.414 161.041 130.484C161.093 130.555 161.123 130.639 161.126 130.726C161.129 130.814 161.105 130.9 161.059 130.974C160.995 131.102 160.982 131.25 161.022 131.388C161.062 131.525 161.154 131.642 161.277 131.715C161.059 131.977 161.059 131.977 161.015 132.762H160.623V133.285L160.1 132.936C159.707 133.329 159.533 133.198 158.923 132.936L158.486 133.285C158.383 133.397 158.252 133.48 158.107 133.526C157.962 133.572 157.807 133.579 157.658 133.547H157.091C156.982 133.496 156.863 133.469 156.743 133.469C156.622 133.469 156.503 133.496 156.394 133.547C156.469 134.497 156.752 135.42 157.222 136.25C157.299 136.402 157.407 136.536 157.539 136.644C157.671 136.752 157.824 136.831 157.988 136.876C158.152 136.921 158.324 136.931 158.492 136.906C158.661 136.881 158.822 136.821 158.966 136.729C159.084 136.656 159.22 136.617 159.359 136.617C159.497 136.617 159.633 136.656 159.751 136.729C159.919 136.817 160.106 136.863 160.296 136.863C160.486 136.863 160.673 136.817 160.841 136.729C161.161 136.596 161.499 136.508 161.844 136.468C162.303 136.343 162.724 136.103 163.064 135.77C163.064 135.77 163.37 135.334 163.675 135.334C163.935 135.289 164.2 135.289 164.46 135.334C164.939 135.334 164.939 135.334 164.852 136.075C164.841 136.161 164.856 136.249 164.894 136.327C164.933 136.404 164.995 136.469 165.07 136.511C165.163 136.586 165.278 136.626 165.397 136.626C165.516 136.626 165.631 136.586 165.724 136.511C166.077 136.214 166.495 136.005 166.945 135.901C166.945 135.901 167.207 135.901 167.25 135.596C167.282 135.392 167.39 135.207 167.551 135.078C167.712 134.949 167.916 134.885 168.122 134.898C168.665 134.842 169.179 134.63 169.604 134.288C169.997 134.026 169.997 133.808 169.604 133.547C169.212 133.285 169.256 133.111 169.386 132.936C169.473 132.807 169.519 132.655 169.519 132.5C169.519 132.345 169.473 132.193 169.386 132.064C169.779 131.803 170.084 131.672 170.476 132.064C170.645 132.128 170.831 132.128 171 132.064C171 132.064 171 132.064 171.305 132.064C171.866 132.176 172.444 132.176 173.005 132.064C173.267 132.064 173.529 132.064 173.79 132.064C174.349 132.01 174.909 132.165 175.36 132.5C175.628 132.69 175.947 132.797 176.275 132.805C176.563 132.869 176.86 132.869 177.147 132.805H177.54V131.977C177.451 131.934 177.354 131.912 177.256 131.912C177.158 131.912 177.061 131.934 176.973 131.977C176.839 132.091 176.669 132.153 176.493 132.153C176.318 132.153 176.148 132.091 176.014 131.977C176.014 131.977 175.709 131.977 175.578 131.715L175.229 131.367C175.1 131.234 174.999 131.077 174.932 130.904C174.865 130.732 174.832 130.549 174.836 130.364C174.833 130.099 174.741 129.844 174.575 129.638C174.409 129.433 174.179 129.289 173.921 129.23C173.223 129.23 173.223 129.23 173.049 128.315C172.874 127.399 172.787 127.748 172.308 127.879C172.006 127.94 171.694 127.94 171.392 127.879C171.011 127.826 170.651 127.676 170.346 127.443C169.648 126.919 169.212 127.443 169.081 127.966C169.103 128.11 169.103 128.257 169.081 128.402C168.757 128.921 168.344 129.378 167.86 129.753L166.64 130.8C166.64 131.061 166.64 131.367 166.64 131.585C166.64 131.803 166.64 131.585 166.64 131.977C166.64 132.369 166.073 131.454 165.768 131.323C165.762 131.236 165.762 131.148 165.768 131.061C165.768 131.061 165.986 130.625 165.768 130.451C165.55 130.277 165.375 130.451 165.201 130.451H164.939C164.939 130.102 164.939 130.015 165.244 129.841C165.55 129.666 166.029 129.448 166.16 128.969C166.372 128.918 166.565 128.81 166.719 128.656C166.873 128.502 166.982 128.308 167.032 128.097C167.104 127.778 167.272 127.489 167.512 127.268C167.594 127.146 167.638 127.002 167.638 126.854C167.638 126.706 167.594 126.562 167.512 126.44C167.426 126.369 167.318 126.33 167.206 126.33C167.095 126.33 166.987 126.369 166.901 126.44L166.64 126.919H166.334C166.238 127.089 166.151 127.264 166.073 127.443C166.04 127.612 165.973 127.773 165.875 127.915C165.778 128.058 165.652 128.179 165.506 128.271L164.373 129.23C164.155 129.23 163.893 129.623 163.98 129.928C164.066 130.112 164.11 130.313 164.11 130.516C164.11 130.72 164.066 130.921 163.98 131.105C163.838 131.339 163.721 131.587 163.631 131.846C163.631 131.846 163.631 132.151 163.195 132.151C162.759 132.151 162.803 132.151 162.672 132.151H163.37C163.37 132.98 163.152 133.154 162.585 133.111C162.605 132.956 162.574 132.799 162.495 132.665C162.416 132.53 162.294 132.426 162.149 132.369C162.122 132.349 162.1 132.323 162.085 132.292C162.07 132.262 162.062 132.229 162.062 132.195C162.062 132.161 162.07 132.128 162.085 132.097C162.1 132.067 162.122 132.041 162.149 132.021H161.844C161.844 131.715 161.844 131.541 162.236 131.41V131.759C162.236 131.759 162.629 131.541 162.585 131.279C162.541 131.018 162.585 130.974 162.585 130.8V130.451L162.367 130.843H161.974V130.364C161.495 130.364 161.015 130.146 160.71 130.713L160.1 130.495H159.315C159.441 130.327 159.558 130.152 159.664 129.971C159.701 129.843 159.701 129.707 159.664 129.579C159.508 128.963 159.258 128.375 158.923 127.835H158.704C158.607 127.6 158.452 127.393 158.254 127.233C158.056 127.073 157.821 126.965 157.571 126.919C157.571 127.399 156.83 126.919 156.612 127.53L157.048 127.791C156.927 127.947 156.838 128.124 156.786 128.315C156.786 128.663 156.786 128.707 156.263 128.576L155.304 128.227L156.35 127.573C155.914 127.573 155.696 127.094 155.216 127.094C154.812 127.151 154.401 127.151 153.996 127.094C153.996 127.094 154.388 127.399 154.301 127.661C154.214 127.922 154.301 127.661 154.301 127.966L154.868 128.402C154.747 128.595 154.6 128.771 154.432 128.925C154.166 129.07 153.94 129.28 153.778 129.535C153.579 129.799 153.344 130.034 153.08 130.233C152.731 130.233 152.688 130.756 152.644 131.105C152.601 131.454 152.644 131.41 152.862 131.454C153.09 131.519 153.332 131.519 153.56 131.454C153.56 131.454 153.952 131.454 154.17 131.454C154.626 131.442 155.068 131.289 155.434 131.018C155.754 130.81 156.109 130.662 156.481 130.582C156.933 130.429 157.424 130.429 157.876 130.582C158.059 130.648 158.26 130.648 158.443 130.582C158.712 130.219 159.096 129.958 159.533 129.841ZM173.136 129.841H173.354H173.136ZM169.997 128.663C169.692 128.663 169.692 128.097 169.648 127.748C169.604 127.399 170.128 127.966 169.997 128.663ZM169.997 128.925L170.433 129.187V130.364C170.347 130.435 170.239 130.473 170.128 130.473C170.016 130.473 169.908 130.435 169.823 130.364C169.607 130.13 169.491 129.822 169.499 129.505C169.508 129.187 169.639 128.885 169.866 128.663L169.997 128.925ZM167.163 131.454C167.642 131.454 168.122 131.192 168.689 131.454L167.337 132.282L167.163 131.454ZM161.582 134.026C161.582 134.026 161.974 134.026 162.149 134.026C162.323 134.026 162.541 133.721 162.803 134.026C163.064 134.331 161.931 134.157 161.451 133.852L161.582 134.026ZM158.443 134.593C157.832 134.593 157.658 134.593 157.614 134.244C157.571 133.895 158.225 134.07 158.225 134.419L158.443 134.593Z" fill="#FFFF71"/>
<path d="M175.316 118.592C175.098 118.592 175.054 118.592 175.316 118.156C175.391 117.919 175.478 117.686 175.578 117.458C175.578 117.894 175.839 118.374 176.013 118.853L175.316 118.592Z" fill="#FFFF71"/>
<path d="M160.318 100.846C160.536 101.195 160.318 100.846 160.318 101.108V100.846V100.367L160.972 100.759V101.064C161.364 101.064 161.887 101.064 161.974 101.893C161.996 102.099 162.026 102.202 162.06 102.242H162.14C162.2 102.192 162.264 102.059 162.323 101.972V101.893L162.357 101.927C162.376 101.906 162.394 101.893 162.41 101.893H162.933V102.503L162.357 101.927C162.346 101.94 162.335 101.955 162.323 101.972V102.242H162.14C162.136 102.245 162.132 102.248 162.128 102.251C162.105 102.265 162.083 102.266 162.063 102.244C162.017 102.242 161.972 102.242 161.931 102.242H162.06C162.026 102.202 161.996 102.099 161.974 101.893C161.887 101.064 161.364 101.064 160.972 101.064V100.759L160.318 100.367V100.846Z" fill="#FFFF71"/>
<path d="M175.926 118.984C175.907 119.187 175.907 119.392 175.926 119.595C175.883 119.499 175.86 119.395 175.86 119.29C175.86 119.184 175.883 119.08 175.926 118.984V118.984Z" fill="#FFFF71"/>
<path d="M114.014 160.361C114.014 160.666 114.014 160.928 114.232 161.233L113.666 160.753V160.317L114.014 160.361Z" fill="#FFFF71"/>
<path d="M115.018 100.062C114.705 100.082 114.396 99.9893 114.146 99.8005C114.05 99.7572 113.946 99.7347 113.841 99.7347C113.735 99.7347 113.631 99.7572 113.535 99.8005H113.317L114.146 99.1465C114.669 99.1465 114.8 99.5825 115.105 99.7569C115.215 99.8369 115.304 99.9414 115.367 100.062L115.628 100.716C115.466 100.696 115.316 100.619 115.204 100.5C115.093 100.38 115.027 100.225 115.018 100.062V100.062Z" fill="#FFFF71"/>
</g>
<path opacity="0.31" d="M359.22 26.9453C269.797 116.369 214.904 159.184 194.456 191.71C226.851 171.261 269.797 116.369 359.22 26.9453Z" fill="white"/>
<defs>
<radialGradient id="paint0_radial_149_20345" cx="0" cy="0" r="1" gradientUnits="userSpaceOnUse" gradientTransform="translate(136.022 136.012) scale(136.049 136.049)">
<stop stop-color="#52A9FF"/>
<stop offset="0.22" stop-color="#51A7FC"/>
<stop offset="0.35" stop-color="#4EA2F4"/>
<stop offset="0.46" stop-color="#4A98E5"/>
<stop offset="0.57" stop-color="#438AD0"/>
<stop offset="0.66" stop-color="#3A78B6"/>
<stop offset="0.75" stop-color="#306294"/>
<stop offset="0.83" stop-color="#23486D"/>
<stop offset="0.91" stop-color="#142A40"/>
<stop offset="0.98" stop-color="#04090D"/>
<stop offset="1"/>
</radialGradient>
</defs>
</svg>
