<svg width="242" height="242" viewBox="0 0 242 242" fill="none" xmlns="http://www.w3.org/2000/svg">
<g opacity="0.43">
<path d="M203.619 114.089V114.62C203.506 114.843 203.447 115.09 203.447 115.34C203.447 115.59 203.506 115.837 203.619 116.061C203.579 115.404 203.579 114.745 203.619 114.089Z" fill="#FBD099"/>
<path d="M42.0194 109.388L40.1235 109.009C40.1235 109.691 40.1235 110.45 40.1235 111.208C40.494 110.377 41.1743 109.724 42.0194 109.388V109.388Z" fill="#FBD099"/>
<path d="M78.7235 125.463C79.1136 125.616 79.5467 125.616 79.9368 125.463C80.7722 124.87 81.8058 124.625 82.8185 124.781C83.5852 124.881 84.3292 125.112 85.0177 125.463C85.8689 125.953 86.8423 126.19 87.8235 126.146C87.8235 126.146 88.7334 126.146 89.1125 126.146C89.6074 126.096 90.0795 125.913 90.4777 125.615C90.6037 125.517 90.7039 125.39 90.77 125.245C90.836 125.099 90.8658 124.94 90.8568 124.781C90.8568 124.174 90.8567 123.416 89.795 123.112C89.2003 122.768 88.663 122.333 88.2026 121.823C87.8015 121.322 87.2798 120.93 86.6861 120.686C86.3069 120.686 86.0034 120.003 85.6243 119.7C85.9969 119.365 86.3514 119.011 86.6861 118.638C86.6861 118.638 86.6861 118.183 86.6861 118.032C86.6861 117.88 86.686 117.273 87.0651 116.818C86.2893 117.135 85.4721 117.339 84.6384 117.425C83.6526 117.425 83.2735 118.487 82.3635 118.638L84.7143 119.776L82.8185 120.762C82.136 120.762 81.9086 120.762 81.6811 120.231C81.488 119.88 81.2593 119.549 80.9986 119.245L81.7567 118.638C81.3017 117.804 80.0885 118.638 79.7093 117.577C79.2112 117.735 78.7581 118.01 78.3886 118.379C78.0191 118.749 77.7439 119.202 77.586 119.7C77.6004 119.877 77.6004 120.054 77.586 120.231L77.2069 120.61C76.6563 121.789 76.2733 123.04 76.0693 124.326C75.9952 124.599 75.9952 124.887 76.0693 125.16L76.9036 126.146L75.3111 126.525L74.0978 127.056C73.3394 125.994 72.3535 127.056 71.3677 126.601V127.511H70.6093L70.0027 126.752C69.9675 127.004 69.9675 127.259 70.0027 127.511C70.0027 127.511 70.0027 128.117 70.0027 128.421C70.0027 128.724 70.3818 129.255 70.8368 129.407V128.648C71.4434 128.648 71.671 129.179 71.8226 129.862H71.1402C71.1906 129.911 71.2306 129.97 71.258 130.035C71.2853 130.1 71.2996 130.17 71.2996 130.241C71.2996 130.311 71.2853 130.381 71.258 130.446C71.2306 130.512 71.1906 130.571 71.1402 130.62C70.8597 130.765 70.6384 131.004 70.5139 131.294C70.3895 131.584 70.3696 131.909 70.4577 132.212C69.2444 132.212 68.8652 132.212 68.5619 130.392H69.2444H70.0027C69.6236 129.862 69.2445 130.013 68.8653 130.392C68.6561 130.421 68.4432 130.377 68.2634 130.266C68.0835 130.155 67.9478 129.986 67.8794 129.786C67.6468 129.281 67.3674 128.798 67.0451 128.345C66.7834 128.018 66.5941 127.64 66.4895 127.235C66.3849 126.829 66.3676 126.407 66.4386 125.994C66.4386 125.312 66.4386 124.932 65.5286 124.553L62.8744 122.809C62.5594 122.65 62.2815 122.425 62.0594 122.151C61.8372 121.876 61.6755 121.558 61.5852 121.217C61.5852 121.217 61.1302 120.61 60.9027 120.231H60.2961L59.6893 119.245C59.1585 119.245 58.7037 119.245 58.4762 119.852C58.3066 120.111 58.2161 120.414 58.2161 120.724C58.2161 121.034 58.3066 121.337 58.4762 121.596C59.0677 121.954 59.5012 122.523 59.6893 123.188C59.8485 123.625 60.1229 124.011 60.4834 124.305C60.8438 124.598 61.277 124.789 61.737 124.857C61.737 124.857 62.1161 124.857 62.1161 124.857C62.1161 124.857 63.557 125.842 64.1637 126.449C64.7704 127.056 65.0735 126.904 64.9218 127.662H64.3912C64.012 127.662 63.6328 127.056 63.1778 127.662C62.7228 128.269 63.1778 128.572 63.1778 129.027C63.1778 129.482 63.1778 129.027 63.1778 129.482C63.1778 129.937 62.571 130.847 61.5852 131.075C60.5993 131.302 61.5852 130.392 61.5852 130.241C61.5852 130.089 61.5852 129.103 61.5852 128.497V128.117C60.6752 127.511 59.7653 126.828 58.8553 126.297C57.723 125.62 56.7422 124.716 55.9736 123.643C55.9736 123.643 55.9736 123.112 55.9736 122.809C55.9736 122.506 54.6087 120.762 53.2437 121.975C52.6626 122.513 51.9601 122.903 51.1961 123.112C50.5436 123.224 49.8771 123.224 49.2246 123.112C48.2388 123.112 47.8596 123.112 47.7838 124.25C47.7079 125.387 47.7836 125.842 46.1911 126.297C45.6794 126.477 45.24 126.819 44.9391 127.27C44.6382 127.721 44.4921 128.258 44.5228 128.8C44.5903 129.606 44.376 130.41 43.9162 131.075C43.7331 131.319 43.5303 131.547 43.3097 131.757C43.3097 131.757 42.627 132.212 42.3995 132.516C42.1983 132.815 41.8969 133.033 41.5495 133.131C41.202 133.228 40.8311 133.198 40.5036 133.047C40.1135 132.894 39.6806 132.894 39.2905 133.047V134.791H40.0487C40.701 134.904 41.3681 134.904 42.0204 134.791C42.6831 134.656 43.3058 134.371 43.8403 133.957C44.7054 133.147 45.8406 132.687 47.0254 132.667C47.4804 132.667 48.0111 132.667 48.5419 132.667C49.7189 132.897 50.9291 132.897 52.1061 132.667C52.1061 132.667 52.5613 132.667 52.7888 132.667C53.0163 132.667 53.6228 132.667 53.8503 132.667C54.1731 132.409 54.5742 132.268 54.9877 132.268C55.4013 132.268 55.8024 132.409 56.1252 132.667C55.9555 132.927 55.8653 133.23 55.8653 133.539C55.8653 133.849 55.9555 134.152 56.1252 134.412C56.1252 134.867 56.1252 135.322 56.1252 135.777C56.1252 136.232 55.4427 136.838 56.1252 137.293C57.0685 137.924 58.1754 138.267 59.3103 138.279C59.7502 138.206 60.2017 138.296 60.5792 138.534C60.9566 138.772 61.2337 139.14 61.3577 139.568C61.4236 139.703 61.5194 139.82 61.6377 139.912C61.756 140.004 61.8938 140.068 62.0404 140.099C63.0002 140.224 63.9128 140.59 64.6943 141.161C64.8912 141.308 65.1307 141.388 65.3768 141.388C65.6229 141.388 65.8626 141.308 66.0595 141.161C66.1643 141.018 66.2206 140.845 66.2206 140.668C66.2206 140.491 66.1643 140.318 66.0595 140.175C66.0595 139.113 66.0595 139.037 66.742 138.507C67.247 138.276 67.7838 138.123 68.3344 138.052C68.9411 138.052 69.2443 138.507 69.6993 138.81C70.4966 139.417 71.4369 139.809 72.4294 139.947C73.1326 139.833 73.8496 139.833 74.5528 139.947C74.9031 140.133 75.2936 140.23 75.6902 140.23C76.0868 140.23 76.4773 140.133 76.8276 139.947C77.0813 139.801 77.3691 139.724 77.6619 139.724C77.9548 139.724 78.2424 139.801 78.496 139.947C78.816 140.107 79.1665 140.196 79.524 140.209C79.8814 140.221 80.2376 140.157 80.5681 140.021C80.8987 139.884 81.1961 139.678 81.4404 139.417C81.6847 139.156 81.8701 138.845 81.9842 138.507C82.7749 136.69 83.1631 134.724 83.1219 132.743C82.909 132.6 82.6582 132.523 82.4015 132.523C82.1448 132.523 81.8939 132.6 81.6811 132.743L80.4677 133.198C80.2053 133.359 79.9033 133.444 79.5955 133.444C79.2876 133.444 78.9859 133.359 78.7235 133.198L77.8135 132.592C76.6002 133.426 76.2211 133.729 75.3111 132.592L74.2494 133.502V132.364H73.4153C73.4153 130.696 73.4152 130.696 72.581 130.241C72.8188 130.06 72.9868 129.803 73.0559 129.512C73.1251 129.222 73.0911 128.917 72.9601 128.648C72.5809 127.89 72.9602 127.283 73.7944 127.132H75.1593H75.9936L75.5386 126.146C76.4987 125.58 77.616 125.341 78.7235 125.463ZM48.3903 128.876L48.7696 128.421L48.3903 128.876ZM55.5945 123.112C55.6574 123.467 55.6495 123.83 55.5714 124.182C55.4933 124.533 55.3466 124.866 55.1396 125.16C54.7604 124.174 54.8361 124.174 55.6702 123.112H55.5945ZM55.5945 128.117C55.5945 128.648 54.9879 128.8 54.3812 128.724V126.222L55.2152 125.615C55.5488 125.928 55.7839 126.331 55.8917 126.776C55.9994 127.22 55.9753 127.687 55.822 128.117H55.5945ZM61.5852 132.137L58.5519 130.696C59.6894 129.937 60.7512 130.696 61.737 130.241L61.5852 132.137ZM71.2918 134.184C71.7468 133.502 72.2019 134.184 72.6569 134.184C73.1119 134.184 73.4911 134.184 73.8703 134.184C73.1878 135.094 72.3536 134.487 71.5195 134.184H71.2918ZM82.2117 134.184C82.2117 135.094 81.8325 135.322 80.5434 135.094C81.15 134.032 81.8325 134.108 82.4392 133.957L82.2117 134.184Z" fill="#FBD099"/>
<path d="M42.0202 105.672C42.0987 105.625 42.1637 105.558 42.2088 105.478C42.2539 105.399 42.2776 105.309 42.2776 105.217C42.2776 105.126 42.2539 105.035 42.2088 104.956C42.1637 104.876 42.0987 104.809 42.0202 104.762C42.0202 104.383 41.6411 103.852 41.3377 103.321C41.3377 104.307 40.9585 105.293 40.731 106.279C41.1934 106.155 41.6301 105.949 42.0202 105.672V105.672Z" fill="#FBD099"/>
<path d="M40.7304 106.657C40.6888 107.086 40.6888 107.518 40.7304 107.946C40.8251 107.745 40.8744 107.525 40.8744 107.302C40.8744 107.079 40.8251 106.859 40.7304 106.657V106.657Z" fill="#FBD099"/>
<path d="M178.52 179.078C178.484 179.684 178.484 180.292 178.52 180.898L179.657 179.761V178.851L178.52 179.078Z" fill="#FBD099"/>
<path d="M163.353 53.8016C163.664 53.8227 163.977 53.7722 164.266 53.6539C164.555 53.5356 164.813 53.3527 165.021 53.1192C165.372 52.7911 165.83 52.6024 166.31 52.5883H166.765L164.869 51.375C164.869 51.375 163.656 52.4367 162.973 52.8917C162.789 53.0512 162.657 53.2626 162.594 53.4983C162.398 53.9632 162.245 54.4457 162.139 54.9392C162.434 54.8982 162.709 54.7668 162.926 54.5631C163.144 54.3594 163.293 54.0934 163.353 53.8016V53.8016Z" fill="#FBD099"/>
<path d="M176.928 179.684V178.85C176.928 178.85 177.307 178.168 176.928 177.94C176.92 177.059 177.156 176.193 177.61 175.438C177.819 175.122 178.121 174.879 178.475 174.743C178.828 174.607 179.215 174.585 179.582 174.679H180.871C181.271 174.698 181.669 174.625 182.037 174.468C182.405 174.31 182.732 174.071 182.994 173.769C182.994 174.907 182.539 175.438 181.478 175.286H179.127C178.865 175.214 178.586 175.244 178.346 175.371C178.107 175.498 177.925 175.712 177.838 175.969C177.838 176.424 177.838 176.651 178.596 177.182C178.989 176.851 179.461 176.628 179.967 176.535C180.472 176.441 180.993 176.482 181.478 176.651L179.203 177.94C179.47 178.154 179.701 178.41 179.885 178.699C194.432 164.175 202.986 144.713 203.848 124.175C202.938 123.416 201.877 123.644 200.815 123.644L201.27 124.175H200.512L199.981 123.113L200.967 121.824C202.483 121.824 202.104 120.383 202.18 119.397C202.212 119.171 202.212 118.941 202.18 118.715C202.862 118.336 203.166 118.715 203.242 119.094C203.358 119.508 203.629 119.861 204 120.08C204 119.018 204 117.881 204 116.819C204 115.757 203.318 116.819 202.938 117.198C202.825 116.52 202.825 115.828 202.938 115.151C202.976 114.646 202.976 114.139 202.938 113.634C202.9 113.408 202.9 113.177 202.938 112.951C203.129 111.771 203.129 110.568 202.938 109.387C202.938 109.387 202.938 108.932 202.938 108.781C202.594 107.669 202.594 106.48 202.938 105.368C202.332 102.349 201.573 99.3623 200.663 96.4199C200.351 96.9331 199.905 97.3523 199.374 97.6332C199.374 97.6332 198.919 98.3916 198.692 98.7707C197.943 99.8608 196.958 100.768 195.81 101.425C195.77 101.508 195.749 101.598 195.749 101.69C195.749 101.782 195.77 101.873 195.81 101.956C195.81 101.956 195.81 101.956 196.189 101.956H197.327L197.706 102.866H198.464V103.852C199.374 103.852 199.45 103.321 199.602 102.79C201.042 102.79 201.346 103.852 202.028 104.61C202.711 105.368 202.408 105.292 202.028 105.52C202.787 106.43 202.787 106.582 202.028 107.567C201.538 108.363 201.3 109.288 201.346 110.221C201.452 111.051 201.364 111.895 201.087 112.685C200.811 113.474 200.354 114.189 199.753 114.771C199.118 115.341 198.713 116.123 198.616 116.971C198.501 117.49 198.238 117.964 197.857 118.336C197.175 119.094 196.493 120.004 195.81 120.838C195.512 121.201 195.153 121.509 194.748 121.748L193.611 122.431L192.018 121.9C191.535 122.159 191.078 122.463 190.653 122.81C190.195 123.122 189.849 123.574 189.668 124.099C189.603 124.64 189.382 125.15 189.032 125.568C188.682 125.985 188.217 126.292 187.696 126.45C187.544 126.494 187.404 126.571 187.286 126.676C187.168 126.781 187.075 126.911 187.013 127.056C186.96 127.162 186.932 127.279 186.932 127.398C186.932 127.516 186.96 127.633 187.013 127.739C187.37 127.93 187.679 128.2 187.916 128.529C188.152 128.857 188.31 129.236 188.378 129.635C188.66 130.447 188.864 131.286 188.985 132.137C188.969 132.534 188.829 132.916 188.584 133.229C188.339 133.542 188.002 133.77 187.62 133.881H186.255C185.724 133.881 185.345 133.881 185.421 133.275C185.497 132.668 185.421 131.151 185.421 130.09C185.421 129.028 185.042 129.407 184.587 129.407C184.132 129.407 183.753 129.407 183.525 128.952C183.746 128.649 183.925 128.318 184.056 127.966C184.13 127.668 184.13 127.355 184.056 127.056C183.887 126.887 183.686 126.752 183.465 126.66C183.244 126.568 183.006 126.521 182.767 126.521C182.527 126.521 182.29 126.568 182.069 126.66C181.848 126.752 181.647 126.887 181.478 127.056L180.34 127.663L179.809 126.829C180.005 126.577 180.159 126.295 180.264 125.995C180.339 125.882 180.379 125.751 180.379 125.616C180.379 125.481 180.339 125.349 180.264 125.236C180.264 125.236 179.658 125.236 179.582 125.236C179.506 125.236 177.762 125.995 177.307 126.981C177.227 127.171 177.102 127.338 176.944 127.47C176.786 127.602 176.598 127.694 176.397 127.739C175.714 127.739 175.639 128.27 176.397 128.876C177.155 129.483 176.397 128.876 176.397 128.876C176.397 128.876 177.003 129.483 177.231 129.862C177.813 129.592 178.424 129.389 179.051 129.256C179.694 129.316 180.33 129.443 180.947 129.635V129.635C180.113 129.635 179.733 131.076 178.672 130.848C178.208 131.247 177.8 131.706 177.458 132.213C177.458 132.213 177.459 132.896 177.914 132.971C178.369 133.047 178.975 134.109 179.203 134.943C179.43 135.777 179.203 135.322 179.203 135.474C179.51 135.775 179.74 136.146 179.872 136.556C180.004 136.965 180.035 137.401 179.961 137.825L178.899 138.735H179.279H179.961C180.011 138.855 180.037 138.984 180.037 139.114C180.037 139.244 180.011 139.373 179.961 139.493C179.582 140.1 179.582 140.782 179.051 141.389C178.313 142.178 177.791 143.145 177.534 144.195C177.534 144.195 177.534 144.574 177.534 144.725C177.534 144.877 176.321 145.635 175.942 146.394C175.563 147.152 174.956 147.228 174.425 147.531C173.772 147.897 173.087 148.202 172.378 148.441C172.27 148.489 172.154 148.514 172.036 148.514C171.919 148.514 171.803 148.489 171.695 148.441C171.695 148.441 171.695 148.441 171.24 147.91V148.365C171.13 148.67 170.936 148.938 170.682 149.139C170.427 149.34 170.122 149.466 169.799 149.503C168.901 149.669 168.094 150.154 167.524 150.868L167.145 150.489C167.145 149.655 166.539 149.351 165.78 149.655C165.022 149.958 164.263 149.655 163.96 150.792C163.657 151.93 163.581 151.171 163.429 151.399C163.282 151.534 163.165 151.698 163.084 151.881C163.004 152.063 162.963 152.261 162.963 152.46C162.963 152.66 163.004 152.857 163.084 153.04C163.165 153.223 163.282 153.387 163.429 153.522C164.339 154.508 165.174 155.57 166.008 156.555C166.384 157.046 166.653 157.61 166.796 158.211C166.94 158.812 166.956 159.436 166.842 160.044C166.842 160.044 166.842 160.044 166.842 160.499C166.842 160.954 166.083 162.091 165.174 162.546C164.811 162.721 164.479 162.951 164.188 163.229L162.064 164.973C162.033 164.544 162.033 164.113 162.064 163.684C162.064 163.153 162.065 162.774 161.306 162.774C160.988 162.752 160.685 162.63 160.44 162.426C160.194 162.222 160.02 161.945 159.941 161.636C159.832 161.311 159.654 161.014 159.418 160.765C159.182 160.516 158.895 160.321 158.576 160.195C158.212 159.933 157.881 159.627 157.59 159.285C156.984 159.285 156.832 159.285 156.756 160.195C156.659 160.654 156.479 161.09 156.225 161.484C156.04 161.668 155.892 161.886 155.792 162.127C155.691 162.368 155.639 162.626 155.639 162.887C155.639 163.148 155.691 163.407 155.792 163.648C155.892 163.888 156.04 164.107 156.225 164.29C156.268 164.49 156.268 164.697 156.225 164.897C156.481 165.693 157.021 166.368 157.742 166.793C158.381 167.144 158.915 167.659 159.288 168.286C159.662 168.913 159.861 169.628 159.865 170.357C159.79 170.578 159.79 170.818 159.865 171.039C160.414 171.639 160.712 172.426 160.699 173.239C159.991 173.185 159.322 172.891 158.804 172.404C158.804 172.404 158.273 171.949 158.045 171.798C157.573 171.466 157.226 170.985 157.06 170.433C157.06 169.447 156.453 168.537 156.149 167.627C155.851 166.792 155.326 166.057 154.633 165.504C154.424 165.35 154.263 165.14 154.169 164.898C154.075 164.657 154.052 164.393 154.102 164.139C154.102 162.774 154.102 161.409 154.102 160.044C154.189 159.695 154.189 159.331 154.102 158.982C153.636 158.288 153.397 157.467 153.42 156.631C153.446 156.315 153.372 155.999 153.208 155.726C153.045 155.454 152.801 155.24 152.51 155.115C152.209 155.566 151.784 155.922 151.286 156.137C150.788 156.352 150.239 156.419 149.704 156.328V153.977C149.624 153.632 149.496 153.301 149.324 152.991C149.178 152.623 149.001 152.268 148.794 151.93C148.794 151.93 148.794 151.93 148.794 151.475C148.359 151.209 147.995 150.843 147.731 150.408C147.467 149.972 147.311 149.48 147.277 148.972C147.238 148.699 147.126 148.442 146.952 148.229C146.779 148.015 146.55 147.852 146.291 147.759V147.759C146.283 147.943 146.236 148.123 146.153 148.287C146.07 148.451 145.952 148.595 145.808 148.71C145.665 148.825 145.498 148.908 145.32 148.953C145.142 148.998 144.956 149.005 144.774 148.972C144.132 148.778 143.446 148.778 142.803 148.972C142.712 148.99 142.626 149.026 142.55 149.078C142.473 149.13 142.408 149.197 142.359 149.275C142.309 149.353 142.276 149.441 142.261 149.532C142.246 149.623 142.25 149.717 142.272 149.806C142.297 150.045 142.233 150.285 142.094 150.48C141.954 150.676 141.748 150.814 141.514 150.868C141.097 150.967 140.705 151.153 140.365 151.415C140.026 151.676 139.745 152.007 139.542 152.385C139.542 152.84 138.784 153.067 138.329 153.37C138.009 153.629 137.704 153.908 137.419 154.205C136.852 154.988 136.096 155.615 135.22 156.025C135.064 156.122 134.935 156.256 134.842 156.414C134.75 156.573 134.697 156.751 134.689 156.935C134.689 158.451 134.689 159.892 134.689 161.409C134.689 162.925 134.006 162.47 133.703 163.077C133.4 163.684 133.021 163.835 132.641 164.29C132.558 164.415 132.446 164.518 132.313 164.589C132.181 164.66 132.033 164.697 131.883 164.697C131.733 164.697 131.585 164.66 131.453 164.589C131.32 164.518 131.208 164.415 131.125 164.29C131.092 163.988 131.092 163.683 131.125 163.38L129.684 160.12L129.077 158.527C129.077 157.617 128.395 156.707 128.015 155.797C127.466 154.469 127.133 153.06 127.03 151.626C127.03 150.716 127.03 149.73 127.03 148.82C127.06 148.67 127.06 148.516 127.03 148.365C127.048 148.643 127.048 148.922 127.03 149.2C126.996 149.38 126.923 149.551 126.818 149.701C126.713 149.851 126.577 149.977 126.419 150.07C126.261 150.164 126.085 150.222 125.903 150.242C125.72 150.262 125.536 150.243 125.361 150.185C124.94 150.017 124.561 149.761 124.247 149.434C123.933 149.107 123.692 148.717 123.541 148.29H124.603C122.935 148.29 122.176 146.925 121.418 145.863C121.277 145.39 120.955 144.993 120.521 144.758C120.087 144.524 119.578 144.471 119.105 144.612C118.633 144.752 118.235 145.075 118 145.509C117.766 145.943 117.713 146.452 117.854 146.925C116.145 147.189 114.406 147.189 112.697 146.925L109.361 146.47C109.072 146.47 108.793 146.361 108.582 146.164C108.371 145.966 108.242 145.696 108.223 145.408C108.223 144.498 107.768 144.498 106.858 144.877C106.245 145.062 105.598 145.103 104.967 144.998C104.336 144.893 103.738 144.644 103.218 144.27V144.27C101.777 144.27 101.55 142.375 100.716 141.465C100.581 141.318 100.417 141.2 100.234 141.12C100.051 141.039 99.8537 140.998 99.654 140.998C99.4544 140.998 99.2569 141.039 99.0741 141.12C98.8913 141.2 98.7272 141.318 98.5923 141.465L97.9098 142.299L98.9716 143.74L100.261 145.56C100.304 145.785 100.304 146.017 100.261 146.242C100.261 146.925 100.64 147.304 101.246 147.759V146.09C101.246 146.09 101.777 146.621 101.777 146.849C101.815 147.303 101.815 147.76 101.777 148.214C101.752 148.322 101.753 148.435 101.78 148.542C101.808 148.65 101.861 148.749 101.936 148.831C102.011 148.913 102.105 148.976 102.209 149.014C102.313 149.052 102.426 149.063 102.536 149.048C102.941 149.146 103.366 149.135 103.766 149.015C104.166 148.895 104.526 148.671 104.811 148.365C105.472 147.632 106.209 146.971 107.01 146.394C107.042 146.696 107.042 147.001 107.01 147.304C106.967 147.755 107.101 148.205 107.384 148.559C107.667 148.913 108.077 149.143 108.526 149.2C108.981 149.315 109.383 149.582 109.664 149.958L110.953 151.095C110.578 151.886 110.035 152.585 109.361 153.143C109.008 153.554 108.679 153.984 108.375 154.432C107.768 155.19 107.313 156.1 106.327 156.48C105.948 157.314 105.114 157.162 104.432 157.314C103.723 157.448 103.096 157.856 102.687 158.451C102.44 158.764 102.13 159.022 101.777 159.21L100.033 159.74H99.1991C98.184 160.534 96.9833 161.056 95.7106 161.257L94.27 161.864C93.2083 161.864 92.7532 161.864 92.5257 160.726C92.2982 159.589 91.9949 158.375 91.7674 157.238C91.6027 156.762 91.3449 156.324 91.009 155.949C91.009 155.949 90.6298 155.949 90.554 155.949C90.554 154.508 89.1131 153.674 88.3548 152.536C88.1259 152.144 87.9958 151.701 87.9757 151.247C87.9945 150.863 87.905 150.482 87.7172 150.147C87.5295 149.811 87.2512 149.536 86.9142 149.351C86.2317 148.896 85.7007 148.441 85.7765 147.531C85.1546 146.718 84.6446 145.826 84.26 144.877C84.26 144.877 83.805 144.422 83.5775 144.119V142.905C83.6215 143.182 83.6215 143.463 83.5775 143.74C83.4965 143.967 83.367 144.174 83.1982 144.346C83.1982 144.346 82.7432 144.346 82.6673 144.346C82.5915 144.346 81.6059 143.209 81.6817 142.375C81.7575 141.54 81.6817 142.375 81.6817 141.995C81.6817 141.616 81.3025 143.36 81.6817 143.74C82.3548 144.559 82.8924 145.48 83.2741 146.47C83.7034 147.164 84.0591 147.901 84.3357 148.669V148.669C84.3637 149.23 84.5141 149.779 84.7761 150.277C85.038 150.775 85.4053 151.209 85.8524 151.55C85.8524 151.55 85.8524 152.385 86.3074 152.84C86.3454 153.218 86.3454 153.599 86.3074 153.977C86.2955 154.295 86.3579 154.611 86.4895 154.901C86.6212 155.19 86.8185 155.445 87.0658 155.645C87.7546 156.172 88.2374 156.923 88.4307 157.769C88.5288 158.265 88.7363 158.734 89.038 159.141C89.3396 159.547 89.728 159.882 90.1749 160.12C90.6808 160.433 91.1403 160.816 91.5399 161.257L92.9048 162.47L93.5873 162.925L92.9048 163.759C93.3211 164.252 93.7779 164.708 94.27 165.124C94.6144 165.24 94.9871 165.24 95.3315 165.124L101.019 163.456C101.019 163.456 101.019 163.456 101.701 163.456C101.939 164.637 101.779 165.864 101.246 166.944C100.109 168.916 98.9716 170.736 97.7582 172.556C97.31 173.217 96.7124 173.762 96.014 174.149C94.6972 174.874 93.5375 175.854 92.6016 177.03C91.8495 178.175 90.8992 179.176 89.7956 179.988V179.988C89.2648 181.125 88.8098 182.187 88.3548 183.4C89.1131 183.931 89.0374 184.765 88.9616 185.599C88.8846 185.989 88.9144 186.392 89.0479 186.766C89.1814 187.139 89.4137 187.47 89.72 187.723C89.9465 188.011 90.1023 188.349 90.1749 188.708C90.2125 189.315 90.2125 189.922 90.1749 190.528C90.2875 190.951 90.2875 191.395 90.1749 191.818C89.5683 193.107 89.4924 193.031 90.1749 194.32C90.0693 194.828 89.8081 195.291 89.4277 195.645C89.0472 195.998 88.5663 196.224 88.0516 196.292V196.292L91.6158 197.884C91.713 197.642 91.8403 197.412 91.9949 197.202L94.1941 196.595L96.6965 195.609C96.6965 195.609 96.6964 195.003 97.1514 195.003C97.6064 195.003 98.1373 194.168 98.3648 193.638C98.5923 193.107 98.8199 192.879 99.4266 192.955C100.033 193.031 100.261 192.424 100.261 192.045C100.261 191.666 100.261 191.211 100.943 190.983L101.474 191.514C101.851 191.797 102.156 192.163 102.367 192.584C102.578 193.006 102.687 193.47 102.687 193.941C102.622 194.241 102.622 194.551 102.687 194.851C103.066 195.609 103.067 195.685 102.308 196.292C101.55 196.898 101.701 195.458 101.171 196.292L101.853 197.96H101.019C100.914 199.045 100.606 200.099 100.109 201.069C107.392 203.11 114.917 204.155 122.48 204.178C143.32 204.199 163.385 196.281 178.596 182.035C177.838 180.67 178.065 179.988 176.928 179.684ZM197.933 102.487V102.107H198.54L197.933 102.487ZM194.218 135.853L192.322 137.218C191.791 136.536 191.791 136.156 192.322 135.929L193.914 135.246C194.369 135.398 194.293 135.701 194.218 135.853ZM192.322 133.654C192.517 133.578 192.733 133.578 192.928 133.654C193.708 133.769 194.5 133.769 195.279 133.654C196.113 133.654 196.493 132.592 196.796 131.834V131.227V132.137C197.63 132.137 197.933 131.379 198.388 130.924C198.819 130.488 199.151 129.964 199.361 129.388C199.57 128.812 199.652 128.198 199.602 127.587C199.527 127.366 199.527 127.126 199.602 126.905C199.602 126.222 199.602 126.146 200.663 126.222C201.725 126.298 200.663 125.464 200.663 125.388C200.663 125.312 201.27 126.753 201.497 127.436C201.574 127.683 201.574 127.947 201.497 128.194C201.497 128.952 201.498 129.862 200.588 130.393C200.967 131.303 200.588 131.986 200.588 132.744C200.622 133.046 200.578 133.352 200.458 133.631C200.338 133.91 200.148 134.153 199.905 134.336V133.578C199.223 133.578 199.298 134.185 199.147 134.64C198.995 135.095 198.54 134.185 198.085 134.64C197.63 135.095 197.175 134.64 196.872 134.64C197.251 135.322 196.872 135.701 196.265 136.156C196.173 136.21 196.068 136.238 195.962 136.238C195.855 136.238 195.751 136.21 195.658 136.156C195.658 136.156 195.658 136.156 195.658 135.701C195.658 135.246 195.658 135.701 195.658 135.322C195.658 134.943 195.203 134.336 194.521 134.564L192.17 135.474C191.969 135.611 191.731 135.684 191.488 135.684C191.244 135.684 191.006 135.611 190.805 135.474C191.27 134.835 191.777 134.227 192.322 133.654V133.654ZM188.909 136.536C188.909 136.156 190.047 135.701 190.35 135.929C190.748 136.289 191.128 136.668 191.488 137.066L190.502 139.341L189.44 138.886C189.44 138.355 189.44 137.976 189.819 137.445C188.985 137.066 188.758 136.839 188.909 136.536ZM179.43 162.091L178.672 160.878C179.278 160.878 179.582 160.878 179.809 161.409C180.037 161.939 179.961 162.091 179.43 162.091ZM184.208 163.304C183.525 163.304 183.525 162.622 183.222 162.091C184.283 162.091 184.359 162.091 184.208 163.229V163.304ZM183.829 164.442L183.449 163.532C183.904 163.759 183.904 163.987 183.829 164.366V164.442ZM184.284 165.807C184.663 165.352 184.89 165.807 184.966 165.807C185.179 166.371 185.332 166.955 185.421 167.551C185.421 168.082 185.421 168.234 184.359 168.158V169.674C182.767 169.674 182.615 169.674 182.767 167.93C182.435 167.73 182.055 167.623 181.667 167.623C181.28 167.623 180.899 167.73 180.568 167.93V167.93L182.16 166.489L182.918 167.096L184.284 165.807ZM180.719 164.214V163.229H181.705L180.719 164.214ZM181.781 164.214C181.781 164.214 182.312 164.214 182.16 164.745C181.978 165.126 181.748 165.483 181.478 165.807C181.478 165.807 181.098 165.807 180.871 165.807L181.781 164.214ZM182.615 165.276V164.745V165.276ZM182.615 161.939L180.719 161.03C180.719 161.03 180.719 160.65 180.719 160.574C180.719 160.499 181.098 160.574 181.25 160.574C181.402 160.574 182.312 160.271 182.615 161.56V161.939ZM178.52 148.82C178.68 148.25 178.936 147.711 179.279 147.228C179.279 147.228 179.734 147.228 180.037 147.228C180.21 147.555 180.3 147.92 180.3 148.29C180.3 148.66 180.21 149.024 180.037 149.351C179.763 149.798 179.558 150.284 179.43 150.792C179.068 150.626 178.777 150.336 178.61 149.975C178.444 149.613 178.412 149.204 178.52 148.82V148.82ZM178.52 157.314C178.52 157.314 178.52 156.859 178.52 156.631L178.975 155.19H180.719C180.719 155.873 180.719 156.48 180.719 157.01C180.719 157.541 180.719 157.617 180.34 157.845C180.167 157.931 180.015 158.052 179.893 158.202C179.771 158.351 179.682 158.525 179.631 158.711C179.581 158.897 179.571 159.092 179.602 159.283C179.632 159.473 179.703 159.655 179.809 159.816C179.809 159.816 179.809 160.499 179.809 160.878H179.279C178.824 160.195 178.368 159.513 177.989 158.83C177.61 158.148 177.913 157.693 178.52 157.314ZM104.28 162.243H105.266C104.659 162.774 104.659 162.774 104.128 162.091L104.28 162.243ZM135.22 169.295C134.689 169.75 134.158 169.295 133.93 168.916C133.706 168.02 133.706 167.082 133.93 166.186C133.93 166.186 133.93 165.504 134.613 165.579L135.599 166.717C135.886 166.88 136.115 167.127 136.255 167.426C136.395 167.724 136.439 168.059 136.381 168.384C136.323 168.708 136.165 169.007 135.93 169.238C135.695 169.469 135.393 169.622 135.068 169.674L135.22 169.295ZM149.324 162.925V162.091V162.925ZM166.083 155.342C165.948 155.169 165.875 154.955 165.875 154.735C165.875 154.516 165.948 154.302 166.083 154.129C166.389 153.834 166.774 153.634 167.192 153.553C167.609 153.472 168.041 153.514 168.434 153.674C168.263 154.045 168.111 154.424 167.979 154.811C167.817 155.05 167.612 155.256 167.373 155.418C167.3 155.593 167.164 155.735 166.992 155.815C166.821 155.895 166.625 155.908 166.444 155.851C166.263 155.794 166.11 155.671 166.015 155.506C165.92 155.342 165.891 155.148 165.932 154.963L166.083 155.342ZM165.022 179.154C165.022 179.154 165.022 179.154 164.643 179.609L164.264 179.154C164.428 178.975 164.638 178.845 164.87 178.774L165.022 179.154ZM162.216 178.016H162.671C163.095 178.469 163.453 178.979 163.733 179.533C162.595 179.533 162.519 178.623 162.064 178.168L162.216 178.016ZM162.216 182.49H161.837C160.762 182.124 159.742 181.614 158.804 180.974C157.87 180.233 157.14 179.267 156.68 178.168C156.341 177.311 155.728 176.591 154.936 176.12C154.936 176.12 154.936 175.741 154.557 175.514C154.178 175.286 154.178 173.845 153.192 173.542V173.087C153.192 173.087 152.661 172.404 152.282 172.253C151.903 172.101 151.144 171.191 150.538 170.281H153.268C153.268 170.281 153.268 170.281 153.799 170.736L155.543 172.48C156.549 173.204 157.488 174.016 158.349 174.907C158.349 175.362 159.335 175.589 159.865 175.969C160.396 176.348 160.851 178.168 161.837 178.926C162.061 179.073 162.243 179.277 162.362 179.516C162.482 179.756 162.537 180.024 162.52 180.291C162.431 180.894 162.38 181.502 162.368 182.111L162.216 182.49ZM171.619 185.827C171.619 185.827 171.013 185.827 170.785 185.827C169.847 185.559 168.879 185.406 167.904 185.372C166.918 185.372 165.932 184.917 164.87 184.917H163.733C162.898 184.917 162.823 184.917 162.292 183.931L162.747 183.324C163.327 183.278 163.911 183.278 164.491 183.324C164.739 183.253 165.002 183.253 165.249 183.324C165.601 183.547 166.009 183.665 166.425 183.665C166.841 183.665 167.249 183.547 167.6 183.324C167.942 183.243 168.297 183.242 168.64 183.321C168.982 183.4 169.301 183.557 169.572 183.779C169.572 184.538 170.406 184.614 171.013 184.614C171.619 184.614 171.847 184.841 171.771 185.448L171.619 185.827ZM170.33 184.234H171.392H170.254H170.33ZM171.999 185.448H173.136C172.833 185.751 172.529 185.675 172.15 184.841L171.999 185.448ZM176.093 175.286C175.487 175.286 175.183 175.286 175.335 176.044C175.487 176.803 174.956 177.334 174.501 177.864C174.046 178.395 174.046 178.319 174.046 178.547C174.046 178.774 173.288 180.139 172.454 180.519C171.619 180.898 170.558 179.457 169.496 179.988L167.6 179.305C167.076 178.538 166.619 177.726 166.235 176.879C165.926 176.073 165.926 175.182 166.235 174.376H168.283C168.283 173.011 169.496 173.163 170.178 172.632C170.678 172.441 171.103 172.096 171.392 171.646C171.392 171.115 171.847 171.115 173.06 170.888C174.274 170.66 174.349 169.144 175.108 168.234C175.108 169.523 176.624 169.295 177.079 170.129L175.638 171.722C175.638 171.722 175.638 172.177 175.638 172.329C175.638 172.48 175.638 174.073 176.776 174.604C177.913 175.134 176.776 174.604 177.231 175.21L176.093 175.286Z" fill="#FBD099"/>
</g>
</svg>
