<svg width="426" height="64" viewBox="0 0 426 64" fill="none" xmlns="http://www.w3.org/2000/svg">
<path d="M31.0775 0.947754C48.227 0.947754 62.1296 14.8504 62.1296 31.9999C62.1296 49.1493 48.227 63.052 31.0775 63.052C13.928 63.052 0.0253906 49.1493 0.0253906 31.9999C0.0253906 14.8504 13.9367 0.947754 31.0775 0.947754Z" fill="white"/>
<path d="M26.4656 20.271C24.7267 20.2946 23.2275 20.6349 21.7543 21.369C17.9946 23.242 15.8234 27.1856 15.8234 32.1552C15.8234 37.1248 17.9598 40.9628 21.732 42.7527C22.7517 43.2358 23.7727 43.4979 25.3241 43.6842C26.1091 43.7153 26.8432 43.7712 27.6083 43.6842C29.1584 43.4992 30.1807 43.2358 31.1992 42.7527C34.9726 40.9628 37.1078 37.136 37.1078 32.1552C37.1078 27.1745 34.9366 23.242 31.1781 21.369C29.7049 20.6349 28.207 20.2946 26.4656 20.271ZM27.9623 23.7736C30.2204 24.376 31.8575 26.4118 32.486 29.3829C32.9269 31.4696 32.8064 33.8805 32.1755 35.7796C31.1917 38.737 29.059 40.4076 26.4618 40.3753C23.8696 40.4027 21.7419 38.732 20.7483 35.7796C20.1173 33.8805 19.9968 31.4696 20.4377 29.3829C21.0588 26.4118 22.7033 24.376 24.9614 23.7736C25.9491 23.5767 26.9659 23.5767 27.9536 23.7736H27.9623ZM11.4761 20.271C11.0297 20.271 10.5934 20.4033 10.2223 20.6513C9.85112 20.8993 9.56185 21.2518 9.39103 21.6642C9.22021 22.0765 9.17552 22.5303 9.26261 22.9681C9.34969 23.4059 9.56464 23.808 9.88027 24.1237C10.1959 24.4393 10.598 24.6542 11.0358 24.7413C11.4736 24.8284 11.9274 24.7837 12.3398 24.6129C12.7522 24.4421 13.1046 24.1528 13.3526 23.7817C13.6006 23.4105 13.733 22.9742 13.733 22.5278C13.733 21.9293 13.4952 21.3552 13.0719 20.932C12.6487 20.5087 12.0747 20.271 11.4761 20.271ZM9.36456 27.1571V43.7302H13.5876V27.1558L9.36456 27.1571ZM43.2374 43.6967C41.4314 43.3861 39.6925 43.1464 38.2182 42.3093C38.1983 42.2919 39.0876 38.9643 39.1286 38.9047C41.4998 39.7096 44.8422 40.8386 47.0879 39.804C48.3151 39.1904 48.9187 38.0564 48.7163 36.746C48.4877 35.2741 47.468 34.4257 44.6708 33.3799C41.5494 32.2136 39.7211 30.7802 38.9734 28.9159C38.5972 27.9266 38.4854 26.8563 38.6492 25.8106C39.1088 22.975 41.3172 21.0025 44.7081 20.4001C45.6893 20.225 47.7897 20.2238 48.8231 20.4001C50.3136 20.6485 52.0202 21.2125 52.0202 21.4547C52.0202 21.5441 51.1508 24.6207 51.1036 24.6841C49.6305 24.1003 47.9797 23.6842 46.5824 23.6755C44.605 23.6494 42.4611 24.8232 42.8387 26.8975C43.107 28.1955 43.9355 28.8302 46.9873 30.0698C49.2355 30.9839 50.3136 31.6149 51.2377 32.5539C52.522 33.837 52.9282 35.3412 52.9381 36.8329C52.9381 38.075 52.8251 38.655 52.3817 39.6152C51.3052 41.9445 49.1154 43.2951 45.8123 43.6669C44.9566 43.7385 44.0969 43.748 43.2399 43.6954L43.2374 43.6967Z" fill="black"/>
<path d="M108.229 18.1145C108.229 18.1145 108.602 3.8579 124.933 3.90883C141.11 3.95851 141.637 18.1145 141.637 18.1145H108.229Z" fill="white"/>
<path d="M119.024 12.2598C119.809 11.4745 119.809 10.2013 119.024 9.41593C118.239 8.63062 116.966 8.63061 116.18 9.41593C115.395 10.2012 115.395 11.4745 116.18 12.2598C116.966 13.0452 118.239 13.0451 119.024 12.2598Z" fill="black"/>
<path d="M134.268 11.1641C134.446 10.0678 133.702 9.03487 132.605 8.85692C131.509 8.67897 130.476 9.42343 130.298 10.5197C130.12 11.616 130.865 12.6489 131.961 12.8268C133.057 13.0048 134.09 12.2604 134.268 11.1641Z" fill="black"/>
<path d="M117.049 5.82515C117.107 5.90837 117.29 5.88229 117.456 5.76429C117.62 5.64754 117.705 5.48358 117.649 5.40036L114.527 0.995932C114.468 0.912712 114.279 0.940038 114.121 1.05679C113.955 1.181 113.873 1.3375 113.929 1.42072L117.049 5.82515Z" fill="white"/>
<path d="M132.817 5.82515C132.757 5.90837 132.576 5.88229 132.408 5.76429C132.244 5.64754 132.16 5.48358 132.217 5.40036L135.337 0.995932C135.398 0.912712 135.586 0.940038 135.745 1.05679C135.911 1.181 135.993 1.3375 135.937 1.42072L132.817 5.82515Z" fill="white"/>
<path d="M141.776 20.0981H108.091V33.9635H108.122V48.5071C108.122 49.0411 108.334 49.5532 108.712 49.9308C109.089 50.3084 109.601 50.5205 110.135 50.5205H139.73C140.264 50.5205 140.777 50.3084 141.154 49.9308C141.532 49.5532 141.744 49.0411 141.744 48.5071V33.9635H141.776V20.0981Z" fill="white"/>
<path d="M150.736 38.6336C150.736 39.1045 150.643 39.5707 150.463 40.0056C150.283 40.4405 150.018 40.8357 149.685 41.1684C149.352 41.5011 148.957 41.7648 148.521 41.9445C148.086 42.1243 147.62 42.2164 147.149 42.2158C146.199 42.2158 145.288 41.8384 144.616 41.1666C143.944 40.4948 143.567 39.5837 143.567 38.6336V22.535C143.569 21.5859 143.947 20.6762 144.618 20.0056C145.29 19.3349 146.2 18.9581 147.149 18.9578C148.099 18.9581 149.01 19.3358 149.682 20.0078C150.354 20.6797 150.731 21.591 150.731 22.5412L150.736 38.6336Z" fill="white"/>
<path d="M106.295 38.6336C106.295 39.1041 106.202 39.5701 106.022 40.0047C105.842 40.4394 105.578 40.8344 105.245 41.167C104.913 41.4997 104.518 41.7635 104.083 41.9435C103.648 42.1234 103.182 42.216 102.712 42.2158C101.762 42.2158 100.85 41.8384 100.179 41.1666C99.5068 40.4948 99.1294 39.5837 99.1294 38.6336V22.535C99.131 21.5859 99.5091 20.6762 100.181 20.0056C100.852 19.3349 101.762 18.9581 102.712 18.9578C103.662 18.9578 104.573 19.3353 105.245 20.0073C105.917 20.6793 106.295 21.5908 106.295 22.5412V38.6336Z" fill="white"/>
<path d="M135.429 59.4697C135.429 59.9402 135.336 60.4061 135.156 60.8408C134.976 61.2755 134.712 61.6704 134.379 62.0031C134.047 62.3357 133.651 62.5996 133.217 62.7795C132.782 62.9595 132.316 63.052 131.845 63.0518C130.897 63.0502 129.987 62.6721 129.317 62.0004C128.646 61.3288 128.27 60.4186 128.27 59.4697V43.3698C128.27 42.8993 128.362 42.4335 128.542 41.9989C128.722 41.5643 128.986 41.1694 129.319 40.8368C129.651 40.5042 130.046 40.2403 130.481 40.0603C130.915 39.8803 131.381 39.7876 131.852 39.7876C132.322 39.7874 132.788 39.88 133.223 40.0599C133.658 40.2399 134.053 40.5037 134.385 40.8363C134.718 41.169 134.982 41.564 135.162 41.9986C135.342 42.4333 135.435 42.8992 135.435 43.3698L135.429 59.4697Z" fill="white"/>
<path d="M121.602 59.4697C121.602 59.9401 121.509 60.4059 121.329 60.8405C121.149 61.2751 120.885 61.67 120.553 62.0026C120.22 62.3353 119.825 62.5991 119.391 62.7792C118.956 62.9592 118.49 63.0518 118.02 63.0518C117.07 63.0518 116.159 62.6744 115.487 62.0026C114.815 61.3309 114.438 60.4197 114.438 59.4697V43.3698C114.438 42.4197 114.815 41.5086 115.487 40.8368C116.159 40.165 117.07 39.7876 118.02 39.7876C118.49 39.7876 118.956 39.8803 119.391 40.0603C119.825 40.2403 120.22 40.5042 120.553 40.8368C120.885 41.1694 121.149 41.5643 121.329 41.9989C121.509 42.4335 121.602 42.8993 121.602 43.3698V59.4697Z" fill="white"/>
<path d="M230.283 33.9439C230.209 26.0828 236.742 22.3056 237.044 22.123C233.366 16.7821 227.643 16.053 225.602 15.9648C220.729 15.4754 216.095 18.8129 213.624 18.8129C211.154 18.8129 207.338 16.0381 203.3 16.1151C197.987 16.1908 193.093 19.178 190.354 23.8967C184.839 33.4024 188.945 47.4802 194.321 55.1898C196.949 58.9595 200.081 63.2012 204.197 63.0485C208.161 62.8957 209.662 60.5059 214.447 60.5059C219.231 60.5059 220.584 63.0522 224.768 62.969C229.034 62.8957 231.734 59.126 234.344 55.3438C236.208 52.6239 237.668 49.6484 238.68 46.5101C238.587 46.4679 230.365 43.3403 230.281 33.9439" fill="white"/>
<path d="M222.409 10.8646C224.595 8.23755 226.066 4.58582 225.662 0.947754C222.517 1.07196 218.706 3.02949 216.446 5.65401C214.422 7.97919 212.65 11.6943 213.129 15.2603C216.637 15.5298 220.223 13.4891 222.409 10.8646Z" fill="white"/>
<path d="M304.058 5.82169C315.232 4.11176 326.42 2.48711 337.622 0.947754C337.629 10.7594 337.632 20.5685 337.629 30.3752C326.442 30.4174 315.253 30.5876 304.058 30.6236C304.052 22.3514 304.052 14.084 304.058 5.82169Z" fill="white"/>
<path d="M275.682 9.78033C284.096 8.48235 292.545 7.36075 300.995 6.30249C301.002 14.4415 301.006 22.5767 301.006 30.7082C292.56 30.702 284.122 30.8324 275.68 30.8076V9.78033H275.682Z" fill="white"/>
<path d="M275.683 33.3662C284.118 33.3389 292.553 33.4731 300.988 33.4594C300.988 41.6174 301.009 49.7754 300.995 57.9347C292.568 56.6888 284.125 55.5995 275.683 54.4531V33.3662Z" fill="white"/>
<path d="M304.009 33.6953H337.622C337.637 43.478 337.637 53.2635 337.622 63.052C326.443 61.3776 315.253 59.8225 304.058 58.306C304.045 50.1049 304.029 41.9013 304.009 33.6953Z" fill="white"/>
<path d="M391.801 13.4441C391.912 11.7225 391.895 9.97988 392.16 8.28195C392.877 3.68624 395.799 1.15488 400.472 0.971047C401.475 0.918079 402.481 0.955492 403.477 1.08283C406.294 1.48651 408.272 3.04781 409.433 5.64128C410.282 7.53671 410.601 9.55261 410.714 11.6033C410.787 12.9696 410.87 14.3433 410.776 15.7022C410.559 18.8273 411.619 21.4866 413.508 23.8937C414.798 25.542 416.117 27.1641 417.344 28.862C419.139 31.3549 420.536 34.0564 421.224 37.0784C421.737 39.3353 421.736 41.5884 421.057 43.818C420.97 44.1049 421.007 44.2626 421.289 44.4067C421.668 44.5938 422.003 44.8587 422.272 45.184C422.542 45.5093 422.739 45.8878 422.853 46.2947C423.079 47.0524 423.213 47.8399 423.482 48.5789C423.699 49.1689 424.035 49.7216 424.362 50.2632C424.802 50.9923 425.37 51.6568 425.728 52.4207C426.225 53.4702 425.958 54.4403 425.044 55.1532C424.466 55.6066 423.802 55.9618 423.159 56.3208C422.484 56.6934 421.778 57.0201 421.088 57.3704C419.847 57.9919 418.742 58.8541 417.838 59.9067C416.713 61.2171 415.354 62.212 413.685 62.7399C410.792 63.6566 408.331 62.5213 407.13 59.7514C407.088 59.6729 407.028 59.6047 406.957 59.5517C406.885 59.4986 406.802 59.4621 406.714 59.4446C405.259 59.2881 403.794 59.2074 402.343 59.0136C400.443 58.7652 398.6 59.0795 396.754 59.4136C396.091 59.5378 395.419 59.6074 394.754 59.7241C394.599 59.7466 394.458 59.828 394.362 59.9514C393.197 61.9673 391.312 62.4952 389.193 62.2952C388.03 62.1859 386.796 61.9611 385.768 61.4432C383.503 60.3042 381.116 59.8434 378.643 59.5875C377.825 59.5012 377.02 59.3186 376.245 59.0435C375.127 58.6423 374.575 57.7852 374.639 56.5891C374.674 55.932 374.796 55.2825 375.003 54.6577C375.252 53.8886 375.316 53.0715 375.19 52.2729C375.07 51.5418 374.991 50.8045 374.954 50.0644C374.923 48.7727 375.542 47.8175 376.676 47.23C377.224 46.9641 377.79 46.7363 378.37 46.5481C379.028 46.3202 379.6 45.8968 380.011 45.3346C380.464 44.7284 380.955 44.1509 381.413 43.5472C381.509 43.4202 381.558 43.264 381.552 43.105C381.219 40.1687 382.008 37.4511 383.167 34.8116C384.625 31.4977 386.645 28.5354 388.926 25.7444C391.265 22.8789 392.28 19.5924 392.094 15.9183C392.051 15.0948 391.996 14.2738 391.946 13.4503L391.801 13.4441ZM392.135 52.5238C392.468 52.9647 392.792 53.3013 393.004 53.6975C393.625 54.8328 394.625 55.4836 395.79 55.9333C396.186 56.0955 396.591 56.2357 397.002 56.3531C400.873 57.3555 404.331 56.3183 407.544 54.1695C407.696 54.0473 407.805 53.8805 407.857 53.6926C408.309 52.2801 408.587 50.8177 408.684 49.3378C408.769 47.9751 408.959 46.621 409.252 45.2874C409.526 44.0192 410.246 42.9995 411.479 42.4306C411.621 42.3647 411.739 42.1449 411.777 41.976C412.089 40.5923 412.853 40.0433 414.272 40.2172C415.373 40.3526 416.369 40.7848 417.322 41.3202C418.359 41.9015 419.398 42.4989 419.185 43.9447C419.567 44.085 419.682 43.9012 419.726 43.6143C419.858 42.72 419.487 41.9996 418.813 41.4953C418.054 40.946 417.259 40.4481 416.434 40.0048C416.085 39.8098 415.901 39.6595 416.011 39.221C416.107 38.8028 416.148 38.3742 416.135 37.9454C416.093 34.1384 414.367 31.0953 411.788 28.4497C411.696 28.3819 411.594 28.3287 411.485 28.2919C411.448 28.3317 411.409 28.3714 411.372 28.4161C411.508 28.6222 411.658 28.8181 411.822 29.0024C412.777 29.9605 413.555 31.0804 414.12 32.3101C415.025 34.2328 415.47 36.2313 415.01 38.3578C414.805 39.308 414.798 39.2931 413.843 39.1974C413.536 39.1664 413.379 39.0732 413.316 38.7528C412.832 36.2922 411.93 33.9794 410.771 31.7636C408.845 28.0635 407.297 24.1784 406.152 20.1675C406.121 20.0762 406.085 19.9874 406.041 19.9017C405.379 20.3488 404.767 20.8196 404.103 21.1984C403.205 21.7114 402.255 22.13 401.351 22.6342C399.333 23.7583 397.493 23.5807 395.762 22.0579C395.538 21.8617 395.322 21.6567 395.082 21.4841C394.741 21.2357 394.38 21.0195 393.979 20.7574C393.946 20.9152 393.93 20.991 393.915 21.0667C393.666 22.2914 393.484 23.5347 393.154 24.7371C392.428 27.384 391.273 29.8694 390.1 32.3411C389.036 34.5769 388.103 36.8648 387.732 39.3365C387.618 40.0942 387.548 40.8581 387.442 41.7437C387.287 41.5251 387.194 41.4046 387.109 41.273C386.501 40.2456 386.181 39.0735 386.181 37.8796C386.154 36.0438 386.662 34.3297 387.435 32.6877C387.848 31.8083 388.304 30.9488 388.739 30.0793C388.828 29.8637 388.904 29.6431 388.966 29.4185C388.842 29.4632 388.802 29.4645 388.789 29.4856C388.62 29.7489 388.449 30.011 388.292 30.2805C387.036 32.4194 385.887 34.6054 385.444 37.0822C384.968 39.7415 385.523 42.0691 387.715 43.8254C388.241 44.2453 388.833 44.5881 389.388 44.9657C390.831 45.9357 392.218 46.9828 393.215 48.4261C393.645 49.0445 393.965 49.7329 394.159 50.4606C394.418 51.4618 393.8 52.2356 392.778 52.4169C392.6 52.4492 392.423 52.4766 392.135 52.5238ZM389.66 61.581C390.134 61.5264 390.616 61.5102 391.079 61.4121C393.563 60.8904 394.752 58.6062 393.677 56.3196C393.239 55.3971 392.685 54.5336 392.03 53.7497C390.361 51.7503 388.926 49.5666 387.753 47.2412C387.464 46.6686 387.199 46.0674 386.814 45.5619C386.342 44.9408 385.82 44.3111 385.199 43.854C384.044 43.0044 382.798 43.1957 381.845 44.2651C381.435 44.7379 381.051 45.2326 380.694 45.7469C380.162 46.5116 379.392 47.0792 378.504 47.3617C378.047 47.5018 377.6 47.6702 377.164 47.8659C376.212 48.3168 375.69 49.0732 375.738 50.1452C375.773 50.786 375.846 51.4242 375.954 52.0567C376.109 53.0181 376.109 53.9509 375.747 54.8775C375.603 55.2794 375.504 55.696 375.451 56.1196C375.254 57.4362 375.726 58.1752 377.012 58.4994C377.684 58.6631 378.367 58.7768 379.056 58.8398C381.401 59.0658 383.672 59.4943 385.79 60.6221C386.976 61.2481 388.297 61.5313 389.66 61.581ZM411.645 43.187C411.314 43.4714 410.996 43.6478 410.819 43.9161C410.508 44.3931 410.177 44.8998 410.046 45.4414C409.797 46.4599 409.583 47.5082 409.543 48.5466C409.459 50.6581 409.046 52.6827 408.433 54.6974C408.076 55.8266 407.852 56.9939 407.766 58.1752C407.635 60.4756 409.458 62.2741 411.771 62.248C413.675 62.2257 415.209 61.3277 416.56 60.0769C417.031 59.6421 417.438 59.1403 417.883 58.677C419.105 57.4014 420.665 56.6512 422.215 55.8774C422.973 55.5191 423.704 55.1077 424.404 54.6465C425.22 54.0851 425.373 53.4168 424.917 52.5349C424.611 51.935 424.236 51.373 423.799 50.8606C423.206 50.1725 422.794 49.3479 422.598 48.4609C422.445 47.7537 422.254 47.0554 422.024 46.3692C421.689 45.4277 420.962 44.9296 419.978 44.8166C419.702 44.7722 419.42 44.768 419.143 44.8042C418.866 44.8639 418.601 44.9711 418.361 45.1209C417.574 45.5904 416.85 46.2015 416.015 46.5444C414.081 47.3368 412.619 46.5829 411.987 44.5819C411.849 44.1819 411.777 43.7584 411.642 43.182L411.645 43.187ZM398.797 22.9174C399.667 22.9174 400.437 22.633 401.186 22.2181C402.047 21.7412 402.951 21.3387 403.802 20.8518C404.379 20.519 404.972 20.155 405.431 19.6818C406.455 18.631 406.205 17.4461 404.896 16.7977C404.749 16.7256 404.595 16.6648 404.445 16.5977C403.309 16.0818 402.172 15.5676 401.034 15.055C400.766 14.9289 400.492 14.8166 400.212 14.7184C398.776 14.2415 397.448 14.4427 396.255 15.3892C395.365 16.0963 394.481 16.808 393.602 17.5243C393.04 17.9814 392.863 18.5714 393.24 19.1887C393.563 19.6801 393.959 20.1201 394.413 20.4941C395.057 21.0531 395.779 21.5238 396.434 22.0691C397.092 22.6302 397.932 22.9319 398.797 22.9174ZM403.576 15.7618C404.026 15.9444 404.414 16.1282 404.818 16.2512C404.898 16.2609 404.979 16.2516 405.054 16.2239C405.13 16.1963 405.198 16.1511 405.252 16.0922C406.507 14.4775 406.193 11.5027 404.641 10.165C403.576 9.24705 402.179 9.24829 401.144 10.2035C400.083 11.1822 399.757 12.4454 399.847 13.8403C399.854 13.9097 399.876 13.9765 399.913 14.0358C399.95 14.095 400 14.145 400.059 14.1819C400.483 14.3483 400.929 14.4713 401.309 14.5942C401.462 13.9508 401.557 13.3323 401.761 12.7584C401.941 12.2616 402.326 11.8815 402.917 11.9113C403.486 11.9399 403.794 12.351 403.973 12.8305C404.356 13.8415 404.341 14.8253 403.576 15.7618ZM396.421 14.6439C396.794 14.4886 397.132 14.3682 397.447 14.2067C397.498 14.1696 397.54 14.1217 397.57 14.0666C397.6 14.0114 397.618 13.9503 397.622 13.8875C397.652 12.7535 397.425 11.6853 396.662 10.8059C395.755 9.76003 394.541 9.85692 393.777 11.0145C393.639 11.2196 393.526 11.4402 393.44 11.6716C393.191 12.3282 393.089 13.0314 393.141 13.7317C393.192 14.432 393.396 15.1126 393.738 15.7258C394.163 16.5145 394.349 16.5282 394.98 15.8698C394.99 15.8587 394.989 15.8388 394.993 15.8239C394.996 15.809 395 15.7866 394.993 15.7754C394.948 15.7071 394.897 15.6425 394.851 15.5755C394.31 14.7843 394.197 13.9185 394.539 13.0416C394.646 12.7671 394.987 12.4268 395.237 12.4119C395.488 12.397 395.829 12.7 396.021 12.9485C396.214 13.1969 396.258 13.5198 396.33 13.8179C396.377 14.0928 396.408 14.3703 396.421 14.6489V14.6439Z" fill="white"/>
<path d="M392.134 52.5239C392.423 52.4767 392.6 52.4494 392.777 52.4184C393.799 52.237 394.416 51.4632 394.158 50.4621C393.963 49.7344 393.644 49.046 393.214 48.4275C392.22 46.9842 390.829 45.9372 389.387 44.9671C388.827 44.5945 388.239 44.2467 387.714 43.8269C385.522 42.0706 384.966 39.7429 385.442 37.0836C385.885 34.6069 387.034 32.4208 388.29 30.2819C388.448 30.0124 388.618 29.7503 388.787 29.487C388.801 29.4659 388.843 29.4646 388.965 29.4199C388.902 29.6445 388.826 29.8652 388.737 30.0807C388.309 30.9502 387.847 31.8085 387.433 32.6891C386.661 34.3311 386.153 36.0427 386.18 37.881C386.179 39.0749 386.499 40.247 387.108 41.2744C387.187 41.406 387.285 41.5228 387.441 41.7451C387.546 40.8595 387.617 40.0956 387.73 39.338C388.103 36.8662 389.034 34.5845 390.099 32.3426C391.271 29.8708 392.426 27.3854 393.153 24.7385C393.482 23.5362 393.663 22.2928 393.913 21.0682C393.928 20.9924 393.944 20.9166 393.978 20.7589C394.379 21.021 394.739 21.2396 395.081 21.4855C395.32 21.6581 395.536 21.8581 395.76 22.0593C397.493 23.5821 399.332 23.7597 401.349 22.6357C402.254 22.1314 403.204 21.7128 404.102 21.1998C404.765 20.821 405.377 20.3502 406.04 19.9031C406.083 19.9888 406.12 20.0776 406.15 20.1689C407.295 24.1793 408.841 28.0639 410.766 31.7637C411.925 33.9796 412.826 36.2924 413.311 38.753C413.374 39.0771 413.531 39.1666 413.837 39.1976C414.792 39.2933 414.8 39.3082 415.005 38.358C415.464 36.2315 415.02 34.233 414.114 32.3103C413.553 31.077 412.777 29.9533 411.823 28.9914C411.659 28.8071 411.508 28.6112 411.373 28.4051C411.41 28.3642 411.449 28.3244 411.486 28.2809C411.595 28.3177 411.697 28.3709 411.789 28.4387C414.371 31.0843 416.098 34.1274 416.136 37.9344C416.149 38.3632 416.108 38.7918 416.012 39.21C415.902 39.6485 416.085 39.7988 416.435 39.9938C417.26 40.4371 418.055 40.935 418.814 41.4843C419.488 41.9911 419.859 42.709 419.727 43.6033C419.684 43.8902 419.568 44.074 419.186 43.9337C419.398 42.4879 418.359 41.8904 417.323 41.3092C416.37 40.7738 415.374 40.3416 414.273 40.2062C412.854 40.0323 412.09 40.5788 411.778 41.965C411.739 42.1339 411.621 42.3537 411.48 42.4196C410.238 42.9947 409.527 44.0144 409.253 45.2764C408.96 46.61 408.77 47.9641 408.685 49.3268C408.588 50.8067 408.31 52.2691 407.858 53.6816C407.806 53.8695 407.697 54.0363 407.545 54.1585C404.328 56.3073 400.874 57.3445 397.003 56.3421C396.592 56.2247 396.187 56.0845 395.791 55.9223C394.626 55.4764 393.631 54.8255 393.005 53.6865C392.791 53.3015 392.467 52.9649 392.134 52.5239Z" fill="black"/>
<path d="M389.66 61.5811C388.294 61.5315 386.976 61.2483 385.793 60.6173C383.682 59.4895 381.404 59.061 379.059 58.8349C378.37 58.772 377.687 58.6582 377.016 58.4946C375.729 58.1704 375.257 57.4313 375.454 56.1147C375.507 55.6911 375.606 55.2746 375.75 54.8726C376.113 53.946 376.113 53.0095 375.957 52.0519C375.848 51.4186 375.775 50.7795 375.739 50.1378C375.69 49.0659 376.213 48.3095 377.165 47.8586C377.601 47.6628 378.048 47.4944 378.505 47.3543C379.393 47.0719 380.162 46.5043 380.695 45.7396C381.051 45.2252 381.436 44.7305 381.846 44.2578C382.799 43.1884 384.045 42.9971 385.2 43.8467C385.821 44.3037 386.339 44.9335 386.814 45.5545C387.2 46.0601 387.465 46.6612 387.753 47.2338C388.927 49.5593 390.362 51.7429 392.031 53.7423C392.686 54.5263 393.239 55.3897 393.678 56.3122C394.753 58.6026 393.554 60.8868 391.08 61.4048C390.615 61.5103 390.133 61.5265 389.66 61.5811Z" fill="black"/>
<path d="M411.642 43.1821C411.777 43.7535 411.849 44.1758 411.978 44.582C412.611 46.583 414.072 47.3369 416.006 46.5445C416.841 46.2016 417.565 45.5905 418.353 45.121C418.593 44.9712 418.857 44.864 419.134 44.8043C419.412 44.7681 419.693 44.7723 419.97 44.8167C420.954 44.9297 421.68 45.4278 422.016 46.3693C422.245 47.0555 422.437 47.7538 422.589 48.461C422.785 49.348 423.198 50.1726 423.791 50.8607C424.227 51.3731 424.603 51.9351 424.908 52.535C425.364 53.4169 425.211 54.0851 424.395 54.6466C423.696 55.1078 422.964 55.5192 422.207 55.8775C420.657 56.6513 419.102 57.4015 417.874 58.6771C417.43 59.1404 417.022 59.6422 416.552 60.077C415.2 61.3277 413.666 62.2258 411.762 62.2481C409.449 62.2754 407.626 60.4757 407.758 58.1753C407.843 56.994 408.067 55.8267 408.425 54.6975C409.032 52.6828 409.451 50.657 409.534 48.5467C409.575 47.5033 409.79 46.455 410.037 45.4415C410.169 44.8999 410.499 44.3932 410.811 43.9162C410.992 43.6479 411.31 43.4715 411.642 43.1821Z" fill="black"/>
<path d="M398.797 22.9176C397.933 22.9297 397.094 22.6263 396.437 22.0642C395.78 21.519 395.061 21.0482 394.416 20.4893C393.962 20.1153 393.567 19.6752 393.244 19.1838C392.871 18.5628 393.044 17.9765 393.605 17.5195C394.486 16.8032 395.37 16.0915 396.258 15.3843C397.452 14.4378 398.78 14.2366 400.215 14.7136C400.495 14.8117 400.77 14.9241 401.038 15.0502C402.175 15.5619 403.312 16.0762 404.448 16.5929C404.599 16.6599 404.753 16.7171 404.899 16.7928C406.209 17.4412 406.458 18.6262 405.435 19.677C404.975 20.1502 404.383 20.5141 403.805 20.847C402.954 21.3438 402.05 21.7413 401.189 22.2133C400.437 22.6331 399.66 22.9138 398.797 22.9176ZM393.986 18.1914L393.784 18.2908C393.88 18.492 393.927 18.7441 394.08 18.8833C394.58 19.3583 395.112 19.7993 395.671 20.2036C396.803 20.9898 398.073 21.3028 399.424 20.9575C401.202 20.5034 402.842 19.6212 404.2 18.3877C404.346 18.2297 404.477 18.0588 404.593 17.8772L404.487 17.753C404.354 17.7993 404.228 17.8654 404.114 17.9492C402.823 19.2534 401.267 20.1104 399.519 20.6259C398.445 20.9426 397.374 20.8445 396.413 20.2645C395.718 19.8409 395.096 19.2931 394.458 18.774C394.272 18.6224 394.144 18.3889 393.986 18.1914ZM399.393 15.6427C399.538 15.7194 399.687 15.7874 399.84 15.8464C400.048 15.901 400.26 15.9383 400.471 15.983C400.483 15.9122 400.521 15.7843 400.504 15.7768C400.29 15.6703 400.068 15.5826 399.839 15.5147C399.752 15.4911 399.639 15.5681 399.393 15.6427ZM396.842 15.9159C397.37 16.1643 397.637 15.8029 397.96 15.6501C397.55 15.439 397.216 15.5234 396.842 15.9159Z" fill="black"/>
<path d="M403.575 15.7617C404.34 14.8252 404.355 13.8415 403.976 12.8304C403.797 12.351 403.489 11.9399 402.92 11.9113C402.329 11.8815 401.944 12.2628 401.764 12.7584C401.554 13.3322 401.465 13.9508 401.312 14.5942C400.926 14.47 400.486 14.3458 400.062 14.1818C400.003 14.1449 399.953 14.0949 399.916 14.0357C399.88 13.9765 399.857 13.9096 399.85 13.8402C399.761 12.4454 400.086 11.1822 401.147 10.2034C402.183 9.24826 403.579 9.24701 404.644 10.1649C406.196 11.5026 406.508 14.4737 405.256 16.0921C405.201 16.1511 405.133 16.1962 405.057 16.2239C404.982 16.2515 404.901 16.2609 404.821 16.2511C404.413 16.1282 404.026 15.9443 403.575 15.7617Z" fill="black"/>
<path d="M396.421 14.6489C396.405 14.3727 396.374 14.0977 396.325 13.8254C396.253 13.5248 396.201 13.187 396.016 12.9559C395.831 12.7249 395.488 12.4044 395.232 12.4193C394.976 12.4343 394.641 12.7746 394.534 13.0491C394.191 13.926 394.304 14.788 394.846 15.5829C394.892 15.65 394.943 15.7146 394.987 15.7829C394.996 15.7941 394.987 15.8152 394.987 15.8314C394.987 15.8475 394.988 15.8661 394.974 15.8773C394.347 16.5356 394.16 16.522 393.732 15.7332C393.39 15.12 393.186 14.4395 393.134 13.7391C393.083 13.0388 393.185 12.3357 393.434 11.6791C393.52 11.4476 393.633 11.2271 393.77 11.022C394.534 9.86438 395.749 9.7675 396.656 10.8133C397.418 11.6927 397.649 12.7609 397.616 13.8949C397.612 13.9577 397.594 14.0189 397.564 14.074C397.533 14.1292 397.491 14.177 397.441 14.2142C397.131 14.3731 396.795 14.4899 396.421 14.6489Z" fill="black"/>
<path d="M393.987 18.1915C394.144 18.389 394.272 18.6225 394.464 18.7791C395.101 19.2945 395.723 19.8423 396.419 20.2696C397.374 20.8496 398.446 20.9477 399.524 20.631C401.269 20.1155 402.824 19.2585 404.119 17.9543C404.233 17.8705 404.359 17.8044 404.492 17.7581L404.598 17.8823C404.483 18.0639 404.351 18.2348 404.205 18.3928C402.847 19.6263 401.207 20.5085 399.429 20.9626C398.078 21.3079 396.809 20.9949 395.676 20.2087C395.117 19.8044 394.585 19.3633 394.085 18.8884C393.932 18.7492 393.885 18.4971 393.789 18.2959L393.987 18.1915Z" fill="white"/>
<path d="M399.394 15.6425C399.642 15.568 399.753 15.491 399.839 15.5183C400.068 15.5862 400.291 15.6739 400.504 15.7804C400.521 15.7879 400.483 15.9158 400.472 15.9866C400.261 15.9419 400.048 15.9046 399.841 15.85C399.688 15.7898 399.538 15.7205 399.394 15.6425Z" fill="white"/>
<path d="M396.843 15.916C397.215 15.5235 397.551 15.439 397.961 15.6502C397.638 15.8029 397.371 16.1644 396.843 15.916Z" fill="white"/>
</svg>
