<svg xmlns:xlink="http://www.w3.org/1999/xlink" class="svg-icon-menu" xmlns="http://www.w3.org/2000/svg" width="90" height="90" viewBox="0 0 90 90"><defs><linearGradient id="svg-icon-menu__blue-green" x2="1" y2="1">
      <stop offset="0%" stop-color="#29FAFF"></stop>
      <stop offset="100%" stop-color="#0FFF8C"></stop>
  </linearGradient><linearGradient id="svg-icon-menu__orange-purple" x2="1" y2="1">
      <stop offset="0%" stop-color="#FFCC40"></stop>
      <stop offset="100%" stop-color="#D636FC"></stop>
  </linearGradient><linearGradient id="svg-icon-menu__blue-green" x2="1" y2="1">
      <stop offset="0%" stop-color="#29FAFF"></stop>
      <stop offset="100%" stop-color="#0FFF8C"></stop>
  </linearGradient><linearGradient id="svg-icon-menu__orange-purple" x2="1" y2="1">
      <stop offset="0%" stop-color="#FFCC40"></stop>
      <stop offset="100%" stop-color="#D636FC"></stop>
  </linearGradient></defs>
  <linearGradient id="svg-icon-menu__blue-green" x2="1" y2="1">
      <stop offset="0%" stop-color="#29FAFF"></stop>
      <stop offset="100%" stop-color="#0FFF8C"></stop>
  </linearGradient>
  <linearGradient id="svg-icon-menu__orange-purple" x2="1" y2="1">
      <stop offset="0%" stop-color="#FFCC40"></stop>
      <stop offset="100%" stop-color="#D636FC"></stop>
  </linearGradient>
  <g class="svg-icon-menu__icon">
 <path d="M68 44C68 48.7468 66.5924 53.3869 63.9553 57.3337C61.3181 61.2804 57.5698 64.3566 53.1844 66.1731C48.799 67.9896 43.9734 68.4649 39.3178 67.5388C34.6623 66.6128 30.3859 64.327 27.0294 60.9706C23.673 57.6141 21.3872 53.3377 20.4612 48.6822C19.5351 44.0266 20.0104 39.201 21.8269 34.8156C23.6434 30.4302 26.7195 26.6819 30.6663 24.0448C34.6131 21.4076 39.2533 20 44 20C50.3629 20.0074 56.4631 22.5383 60.9624 27.0376C65.4617 31.5369 67.9926 37.6371 68 44V44Z" fill="#BDD1FF"/>
<path d="M66.4384 41.6837C66.4101 41.7451 66.3955 41.8116 66.3955 41.8789C66.3955 41.9463 66.4101 42.0129 66.4384 42.0742C66.4668 42.0463 66.4384 41.8511 66.4384 41.6837Z" fill="white"/>
<path d="M22.2323 40.3718H21.73V40.9857C21.7644 40.8532 21.8272 40.7297 21.9139 40.6237C22.0006 40.5177 22.1092 40.4318 22.2323 40.3718V40.3718Z" fill="white"/>
<path d="M32.2226 44.809C32.3324 44.8374 32.4476 44.8374 32.5575 44.809C32.7942 44.647 33.0822 44.5776 33.3667 44.6137C33.5708 44.649 33.7684 44.7149 33.9528 44.809C34.1729 44.9601 34.4429 45.0201 34.7063 44.9764C34.7063 44.9764 34.9574 44.9764 35.0691 44.9764L35.4598 44.8369C35.4855 44.7552 35.4855 44.6675 35.4598 44.5857C35.4598 44.4183 35.4598 44.223 35.1528 44.1393C34.9856 44.0429 34.8349 43.9204 34.7063 43.7765C34.5668 43.7765 34.483 43.5253 34.2877 43.4695C34.175 43.3984 34.0797 43.3031 34.0086 43.1904L34.2877 42.9113C34.2877 42.9113 34.2877 42.7718 34.2877 42.7439C34.2877 42.716 34.2877 42.5206 34.2877 42.409C34.0633 42.4946 33.8288 42.5509 33.59 42.5764C33.3388 42.5764 33.2272 42.8834 32.976 42.9113L33.6179 43.2183L33.1156 43.4974C32.9202 43.4974 32.8644 43.4974 32.7807 43.3578C32.7419 43.2556 32.6852 43.1611 32.6133 43.0788L32.8086 42.9113C32.6691 42.6602 32.3342 42.9113 32.2505 42.6044C32.1158 42.6608 31.9942 42.7445 31.8933 42.8502C31.7925 42.9558 31.7146 43.0811 31.6644 43.2183C31.5113 43.5379 31.3988 43.8754 31.3295 44.223C31.3137 44.2965 31.3137 44.3727 31.3295 44.4462L31.5807 44.7253H31.1342L30.7993 44.8927C30.604 44.5857 30.3249 44.8927 30.0458 44.7532V45.0044H29.8505L29.683 44.7811C29.6709 44.8457 29.6709 44.9119 29.683 44.9764C29.683 44.9764 29.683 45.1439 29.683 45.2276C29.683 45.3113 29.683 45.4509 29.9063 45.5067V45.6462C30.0737 45.6462 30.1295 45.7858 30.1575 45.9532H29.99C30.0175 45.9839 30.0326 46.0236 30.0326 46.0648C30.0326 46.106 30.0175 46.1458 29.99 46.1765C29.9505 46.1916 29.9145 46.2147 29.8843 46.2445C29.8541 46.2742 29.8305 46.3098 29.8147 46.3491C29.799 46.3884 29.7916 46.4306 29.7929 46.4729C29.7943 46.5152 29.8044 46.5568 29.8226 46.595C29.4877 46.595 29.376 46.5951 29.2923 46.0927H29.683C29.6391 46.0588 29.5851 46.0404 29.5295 46.0404C29.474 46.0404 29.42 46.0588 29.376 46.0927C29.3172 46.1025 29.2569 46.091 29.2057 46.0603C29.1546 46.0297 29.116 45.9818 29.097 45.9253C29.0393 45.7862 28.9643 45.6549 28.8737 45.5346C28.805 45.4439 28.7548 45.3405 28.726 45.2304C28.6973 45.1202 28.6906 45.0055 28.7063 44.8927C28.7063 44.6974 28.7063 44.5857 28.4551 44.502L27.7295 44.0276C27.5597 43.9263 27.4311 43.7681 27.3668 43.5811C27.3668 43.5811 27.3667 43.4137 27.1993 43.302H27.0319L26.8644 43.023C26.7978 43.0044 26.7266 43.0113 26.6647 43.0422C26.6029 43.0731 26.5547 43.1259 26.5295 43.1904C26.4815 43.2602 26.4559 43.3429 26.4559 43.4276C26.4559 43.5123 26.4815 43.595 26.5295 43.6648C26.6855 43.7622 26.8036 43.9099 26.8644 44.0834C26.8993 44.2043 26.9676 44.313 27.0613 44.3969C27.1551 44.4808 27.2706 44.5366 27.3947 44.5578C27.3947 44.809 27.7853 44.8369 27.9807 45.0044C28.176 45.1718 28.204 45.0044 28.1761 45.3113C28.1761 45.3113 27.9528 45.1439 27.8412 45.3113C27.7295 45.4788 27.8412 45.5625 27.8412 45.6741C27.8412 45.7857 27.8412 45.6741 27.8412 45.6741C27.8412 45.6741 27.6737 46.0648 27.3947 46.0927C27.1156 46.1206 27.3947 45.9253 27.3947 45.8974C27.3947 45.8695 27.3947 45.5625 27.3947 45.423L26.6412 44.9206C26.3365 44.7313 26.0712 44.4849 25.8598 44.195C25.8318 44.1233 25.8318 44.0436 25.8598 43.9718C25.8598 43.609 25.4691 43.4137 25.1063 43.7486C24.9433 43.8881 24.7533 43.9926 24.5482 44.0555C24.3631 44.0826 24.1751 44.0826 23.99 44.0555C23.7389 44.0555 23.6272 44.0555 23.5993 44.3625C23.5714 44.6695 23.5993 44.7811 23.1528 44.9206C23.0136 44.974 22.8952 45.0705 22.8148 45.196C22.7344 45.3216 22.6964 45.4696 22.7063 45.6183C22.7335 45.837 22.6733 46.0576 22.5388 46.2323L22.3714 46.4276C22.3714 46.4276 22.1761 46.4276 22.1202 46.623C22.0728 46.7089 21.9948 46.7737 21.9018 46.8048C21.8087 46.8358 21.7074 46.8307 21.6179 46.7904C21.5613 46.7632 21.4993 46.7491 21.4365 46.7491C21.3737 46.7491 21.3117 46.7632 21.2551 46.7904V47.2369C21.2551 47.2369 21.2551 47.2369 21.4784 47.2369C21.6433 47.2783 21.8158 47.2783 21.9807 47.2369C22.1653 47.2093 22.3388 47.1321 22.483 47.0137C22.7281 46.7939 23.0469 46.6744 23.3761 46.6788C23.3761 46.6788 23.6551 46.6788 23.7947 46.6788C24.1165 46.7482 24.4495 46.7482 24.7714 46.6788C24.7714 46.6788 24.7714 46.6788 24.9388 46.6788C25.0407 46.6929 25.144 46.6929 25.2458 46.6788C25.4691 46.5113 25.6365 46.6788 25.8598 46.6788C25.8181 46.7509 25.7962 46.8327 25.7962 46.916C25.7962 46.9993 25.8181 47.0811 25.8598 47.1532C25.8598 47.1532 25.8598 47.4043 25.8598 47.516C25.8598 47.6276 25.6923 47.7951 25.8598 47.9346C26.1249 48.1106 26.4347 48.2074 26.7528 48.2137C26.8675 48.1886 26.9874 48.2097 27.0866 48.2723C27.1858 48.335 27.2564 48.4342 27.283 48.5485C27.3342 48.6188 27.4011 48.6762 27.4784 48.716C27.7422 48.7369 27.9942 48.8338 28.204 48.995C28.2545 49.0383 28.3188 49.062 28.3854 49.062C28.4519 49.062 28.5162 49.0383 28.5668 48.995C28.5944 48.9537 28.6091 48.9052 28.6091 48.8555C28.6091 48.8058 28.5944 48.7573 28.5668 48.716C28.5668 48.4369 28.5668 48.409 28.7342 48.2695C28.8739 48.1977 29.0249 48.1505 29.1807 48.1299C29.3481 48.1299 29.4319 48.2695 29.5714 48.3253C29.7772 48.5026 30.0285 48.6187 30.297 48.6602H30.883C30.9779 48.7091 31.0832 48.7346 31.19 48.7346C31.2968 48.7346 31.4021 48.7091 31.497 48.6602C31.5668 48.6122 31.6495 48.5865 31.7342 48.5865C31.8189 48.5865 31.9016 48.6122 31.9714 48.6602C32.0562 48.706 32.15 48.733 32.2463 48.7393C32.3425 48.7456 32.439 48.731 32.5291 48.6966C32.6192 48.6621 32.7008 48.6086 32.7683 48.5397C32.8358 48.4708 32.8876 48.3881 32.9202 48.2974C33.1453 47.7885 33.2504 47.2347 33.2272 46.6788C33.1678 46.6445 33.1005 46.6264 33.0319 46.6264C32.9633 46.6264 32.8959 46.6445 32.8365 46.6788H32.5016C32.4287 46.7178 32.3472 46.7383 32.2644 46.7383C32.1817 46.7383 32.1002 46.7178 32.0272 46.6788L31.776 46.5113C31.4412 46.7346 31.3295 46.8462 31.0784 46.6509L30.7993 46.8741V46.5671H31.2179C31.2179 46.1206 31.2179 46.1206 30.9947 45.9811C31.0422 45.9217 31.0681 45.8479 31.0681 45.7718C31.0681 45.6957 31.0422 45.6219 30.9947 45.5625C30.9947 45.3392 30.9947 45.1718 31.2179 45.1439H31.5807H31.804V44.8927C31.9353 44.8334 32.0785 44.8047 32.2226 44.809ZM25.8319 44.1393C25.872 44.2268 25.8928 44.322 25.8928 44.4183C25.8928 44.5146 25.872 44.6098 25.8319 44.6974C25.6365 44.3904 25.6365 44.3346 25.9156 44.1393H25.8319ZM25.8319 45.5067C25.8319 45.6462 25.6644 45.702 25.4691 45.6741V45.0044L25.7202 44.8369C25.8416 44.9285 25.9312 45.0559 25.9762 45.2011C26.0213 45.3463 26.0196 45.502 25.9714 45.6462L25.8319 45.5067ZM27.4505 46.595L26.6133 46.2043C26.9202 46.009 27.2272 46.2043 27.5063 46.2043L27.4505 46.595ZM30.2412 47.1811C30.2412 46.9858 30.4923 47.1811 30.604 47.1811C30.7156 47.1811 30.8272 47.1811 30.9388 47.1811C31.0505 47.1811 30.4923 47.2648 30.2691 47.1811H30.2412ZM33.1993 47.1811C33.1993 47.4323 33.1993 47.4881 32.7528 47.4044C32.8923 47.1253 33.0877 47.1532 33.2272 47.1253L33.1993 47.1811Z" fill="white"/>
<path d="M22.1479 39.3674C22.1715 39.3559 22.1914 39.3381 22.2053 39.3159C22.2193 39.2937 22.2267 39.268 22.2267 39.2418C22.2267 39.2156 22.2193 39.1899 22.2053 39.1677C22.1914 39.1455 22.1715 39.1276 22.1479 39.1162C22.1479 39.1162 22.1479 38.8651 21.9526 38.7255L21.7852 39.5348L22.1479 39.3674Z" fill="white"/>
<path d="M25.9712 37.3301L25.8804 37.3879L26.1386 37.6092L25.7479 37.972C25.714 38.0159 25.6956 38.0699 25.6956 38.1254C25.6956 38.181 25.714 38.235 25.7479 38.2789C25.7479 38.558 26.0549 38.6696 26.306 38.7812H26.5014L26.8921 38.5859L27.1433 38.9208C27.4829 38.8418 27.8047 38.6998 28.0921 38.5022C28.1443 38.4511 28.2144 38.4224 28.2874 38.4224C28.3605 38.4224 28.4306 38.4511 28.4828 38.5022C28.5004 38.5461 28.5316 38.5833 28.5717 38.6084C28.6118 38.6334 28.6589 38.6451 28.706 38.6417C28.706 38.6417 28.9572 38.6417 28.9572 38.4185H29.1526C29.1526 38.4185 29.32 38.4185 29.32 38.1952V37.9161C29.32 37.8324 29.1805 37.5255 29.32 37.3301C29.32 37.0231 29.4875 36.9673 29.7386 36.9394L29.9619 37.2743C29.9776 37.2921 29.9969 37.3064 30.0186 37.3161C30.0402 37.3259 30.0637 37.331 30.0875 37.331C30.1112 37.331 30.1347 37.3259 30.1564 37.3161C30.178 37.3064 30.1973 37.2921 30.213 37.2743C30.255 37.1873 30.2769 37.0918 30.2769 36.9952C30.2769 36.8986 30.255 36.8032 30.213 36.7162C30.1477 36.6392 30.0916 36.5549 30.0456 36.465C30.0294 36.3727 30.0294 36.2782 30.0456 36.1859C30.1529 36.0589 30.2925 35.9633 30.4498 35.9093C30.607 35.8552 30.7759 35.8447 30.9386 35.8789C31.014 35.9259 31.101 35.9509 31.1898 35.9509C31.2786 35.9509 31.3656 35.9259 31.4409 35.8789C31.4409 35.8789 31.7758 35.8789 31.9712 35.7115C32.1665 35.5441 31.9712 35.5162 31.7758 35.5441C31.5805 35.572 31.5247 35.544 31.5247 35.3487C30.9665 35.3487 30.52 35.6557 30.0177 35.7115L29.7107 35.5161C29.5154 35.5161 29.4037 35.265 29.4595 35.0417C29.5165 34.8315 29.5165 34.61 29.4595 34.3999C29.4068 34.2561 29.4028 34.099 29.4482 33.9527C29.4936 33.8064 29.5858 33.6792 29.7107 33.5905L30.2689 32.9766C30.3411 32.874 30.3975 32.7611 30.4363 32.6417C30.4363 32.6417 30.4363 32.4464 30.6316 32.3906C30.827 32.3347 30.6316 32.1673 30.6316 32.0278C30.5881 31.9216 30.5075 31.8349 30.4049 31.7835C30.3023 31.7322 30.1845 31.7199 30.0735 31.7487H29.7107L29.4316 32.279C29.4195 32.3435 29.4195 32.4097 29.4316 32.4743V32.4743C29.4316 32.8092 29.4316 33.0045 29.0689 33.1998L28.5665 33.6743C28.5574 33.7391 28.5574 33.8048 28.5665 33.8696V34.065C28.5665 34.0929 28.5665 34.5673 28.3712 34.7906C28.3425 34.876 28.3466 34.969 28.3827 35.0515C28.4188 35.134 28.4843 35.2002 28.5665 35.2371C28.6362 35.2847 28.6958 35.3455 28.742 35.4162C28.7881 35.4868 28.8199 35.5659 28.8354 35.6489C28.851 35.7318 28.85 35.817 28.8326 35.8996C28.8152 35.9822 28.7817 36.0605 28.734 36.1301C28.6811 36.1917 28.6141 36.2396 28.5386 36.2696C28.3154 36.2696 28.1479 36.5487 28.1758 36.8557C28.2037 37.1627 28.1758 37.3022 28.1758 37.5534C28.1758 37.8045 28.1758 37.8882 27.813 37.9161C27.4502 37.944 27.813 37.9161 27.6456 38.0836C27.4782 38.251 27.2828 38.2789 27.1712 38.0836C27.0274 37.792 26.9241 37.4822 26.8642 37.1627C26.7763 36.7501 26.6454 36.3479 26.4735 35.9627C26.4735 36.158 26.3061 36.3255 26.0828 36.3255C25.8596 36.3255 26.0828 36.3255 26.0828 36.465C25.9755 36.6533 25.8086 36.8006 25.6084 36.8836C25.3851 36.8836 25.3293 36.8836 25.3014 36.6882C25.2735 36.4929 25.0502 36.5208 24.9665 36.4371L25.1898 36.0464H24.9107C24.9107 35.7673 25.1898 35.6836 25.2177 35.4603H24.9944V35.0696H24.9665C24.8985 34.925 24.8896 34.7594 24.9417 34.6083C24.9939 34.4572 25.1029 34.3323 25.2456 34.2603C25.3375 34.2145 25.4077 34.1343 25.4409 34.0371C25.5963 33.842 25.7977 33.6886 26.027 33.5905C26.1185 33.548 26.1959 33.4802 26.2502 33.3952L26.5014 33.0324C26.5014 32.8929 26.7526 32.8092 26.7805 32.6138C26.7805 32.6138 27.0316 32.4184 27.0595 32.1952C27.0385 32.0378 27.0385 31.8782 27.0595 31.7208C27.227 31.4975 27.3107 31.2464 27.5898 31.1068C27.5898 30.9673 27.5898 30.9673 27.7571 30.8837L27.7572 30.8836C27.9247 30.7999 27.7572 30.5487 27.9247 30.4929C27.9247 30.3255 28.0642 30.3254 28.1758 30.2417H27.9526V30.0464H27.9306L27.6456 30.4091V30.0464H27.9306L27.9526 30.0185V30.0464V30.2417H28.1758C28.0642 30.3254 27.9247 30.3255 27.9247 30.4929C27.7572 30.5487 27.9247 30.7999 27.7572 30.8836L27.7571 30.8837C27.5898 30.9673 27.5898 30.9673 27.5898 31.1068C27.3107 31.2464 27.227 31.4975 27.0595 31.7208C27.0385 31.8782 27.0385 32.0378 27.0595 32.1952C27.0316 32.4184 26.7805 32.6138 26.7805 32.6138C26.7526 32.8092 26.5014 32.8929 26.5014 33.0324L26.2502 33.3952C26.1959 33.4802 26.1185 33.548 26.027 33.5905C25.7977 33.6886 25.5963 33.842 25.4409 34.0371C25.4077 34.1343 25.3375 34.2145 25.2456 34.2603C25.1029 34.3323 24.9939 34.4572 24.9417 34.6083C24.8896 34.7594 24.8985 34.925 24.9665 35.0696H24.9944V35.4603H25.2177C25.1898 35.6836 24.9107 35.7673 24.9107 36.0464H25.1898L24.9665 36.4371C25.0502 36.5208 25.2735 36.4929 25.3014 36.6882C25.3293 36.8836 25.3851 36.8836 25.6084 36.8836C25.8086 36.8006 25.9755 36.6533 26.0828 36.465C26.0828 36.3255 25.8596 36.3255 26.0828 36.3255C26.3061 36.3255 26.4735 36.158 26.4735 35.9627C26.6454 36.3479 26.7763 36.7501 26.8642 37.1627C26.9241 37.4822 27.0274 37.792 27.1712 38.0836C27.2828 38.2789 27.4782 38.251 27.6456 38.0836C27.813 37.9161 27.4502 37.944 27.813 37.9161C28.1758 37.8882 28.1758 37.8045 28.1758 37.5534C28.1758 37.3022 28.2037 37.1627 28.1758 36.8557C28.1479 36.5487 28.3154 36.2696 28.5386 36.2696C28.6141 36.2396 28.6811 36.1917 28.734 36.1301C28.7817 36.0605 28.8152 35.9822 28.8326 35.8996C28.85 35.817 28.851 35.7318 28.8354 35.6489C28.8199 35.5659 28.7881 35.4868 28.742 35.4162C28.6958 35.3455 28.6362 35.2847 28.5665 35.2371C28.4843 35.2002 28.4188 35.134 28.3827 35.0515C28.3466 34.969 28.3425 34.876 28.3712 34.7906C28.5665 34.5673 28.5665 34.0929 28.5665 34.065V33.8696C28.5574 33.8048 28.5574 33.7391 28.5665 33.6743L29.0689 33.1998C29.4316 33.0045 29.4316 32.8092 29.4316 32.4743V32.4743C29.4195 32.4097 29.4195 32.3435 29.4316 32.279L29.7107 31.7487H30.0735C30.1845 31.7199 30.3023 31.7322 30.4049 31.7835C30.5075 31.8349 30.5881 31.9216 30.6316 32.0278C30.6316 32.1673 30.827 32.3347 30.6316 32.3906C30.4363 32.4464 30.4363 32.6417 30.4363 32.6417C30.3975 32.7611 30.3411 32.874 30.2689 32.9766L29.7107 33.5905C29.5858 33.6792 29.4936 33.8064 29.4482 33.9527C29.4028 34.099 29.4068 34.2561 29.4595 34.3999C29.5165 34.61 29.5165 34.8315 29.4595 35.0417C29.4037 35.265 29.5154 35.5161 29.7107 35.5161L30.0177 35.7115C30.52 35.6557 30.9665 35.3487 31.5247 35.3487C31.5247 35.544 31.5805 35.572 31.7758 35.5441C31.9712 35.5162 32.1665 35.5441 31.9712 35.7115C31.7758 35.8789 31.4409 35.8789 31.4409 35.8789C31.3656 35.9259 31.2786 35.9509 31.1898 35.9509C31.101 35.9509 31.014 35.9259 30.9386 35.8789C30.7759 35.8447 30.607 35.8552 30.4498 35.9093C30.2925 35.9633 30.1529 36.0589 30.0456 36.1859C30.0294 36.2782 30.0294 36.3727 30.0456 36.465C30.0916 36.5549 30.1477 36.6392 30.213 36.7162C30.255 36.8032 30.2769 36.8986 30.2769 36.9952C30.2769 37.0918 30.255 37.1873 30.213 37.2743C30.1973 37.2921 30.178 37.3064 30.1564 37.3161C30.1347 37.3259 30.1112 37.331 30.0875 37.331C30.0637 37.331 30.0402 37.3259 30.0186 37.3161C29.9969 37.3064 29.9776 37.2921 29.9619 37.2743L29.7386 36.9394C29.4875 36.9673 29.32 37.0231 29.32 37.3301C29.1805 37.5255 29.32 37.8324 29.32 37.9161V38.1952C29.32 38.4185 29.1526 38.4185 29.1526 38.4185H28.9572C28.9572 38.6417 28.706 38.6417 28.706 38.6417C28.6589 38.6451 28.6118 38.6334 28.5717 38.6084C28.5316 38.5833 28.5004 38.5461 28.4828 38.5022C28.4306 38.4511 28.3605 38.4224 28.2874 38.4224C28.2144 38.4224 28.1443 38.4511 28.0921 38.5022C27.8047 38.6998 27.4829 38.8418 27.1433 38.9208L26.8921 38.5859L26.5014 38.7812H26.306C26.0549 38.6696 25.7479 38.558 25.7479 38.2789C25.714 38.235 25.6956 38.181 25.6956 38.1254C25.6956 38.0699 25.714 38.0159 25.7479 37.972L26.1386 37.6092L25.8804 37.3879L25.7479 37.2743H25.9712V37.3301Z" fill="white"/>
<path d="M21.8127 39.6183C21.8285 39.7387 21.8285 39.8606 21.8127 39.9809C21.8482 39.9269 21.8671 39.8639 21.8671 39.7996C21.8671 39.7353 21.8482 39.6723 21.8127 39.6183Z" fill="white"/>
<path d="M59.5991 59.5998V60.103L59.9066 59.7955V59.5719L59.5991 59.5998Z" fill="white"/>
<path d="M55.3841 25.1627C55.5597 25.1529 55.7268 25.084 55.8585 24.9674C55.9488 24.8808 56.0682 24.831 56.1933 24.8278V24.8278L55.691 24.493C55.384 24.493 55.3561 24.8 55.1608 24.9116C54.9654 25.0232 55.1608 24.9116 55.1608 25.079C55.1608 25.2465 55.1608 25.3581 55.1608 25.4976C55.2203 25.4616 55.2711 25.4129 55.3097 25.355C55.3483 25.2971 55.3737 25.2315 55.3841 25.1627Z" fill="white"/>
<path d="M45.507 50.558V50.7813C45.499 50.8328 45.4791 50.8817 45.4488 50.9242C45.4186 50.9666 45.3788 51.0014 45.3328 51.0258C45.2867 51.0502 45.2356 51.0635 45.1834 51.0646C45.1313 51.0658 45.0796 51.0547 45.0325 51.0324C44.9202 50.9907 44.8191 50.9237 44.7368 50.8366C44.6545 50.7495 44.5934 50.6446 44.5581 50.5301H44.8372C44.3907 50.5301 44.1953 50.1673 43.9721 49.8603C43.9368 49.8046 43.8869 49.7596 43.8279 49.7301C43.7689 49.7006 43.703 49.6877 43.6372 49.6929C43.1654 49.7628 42.6858 49.7628 42.214 49.6929H41.293C41.2158 49.6849 41.1427 49.6541 41.083 49.6044C41.0234 49.5547 40.9799 49.4884 40.9581 49.4138V49.4138C40.9581 49.1627 40.9581 49.1347 40.5953 49.2464C40.4316 49.3026 40.2562 49.3168 40.0856 49.2875C39.9149 49.2582 39.7543 49.1865 39.6186 49.0789C39.2 49.0789 39.1442 48.5766 38.9209 48.3255C38.8427 48.2488 38.7375 48.2058 38.6279 48.2058C38.5183 48.2058 38.4131 48.2488 38.3349 48.3255L38.1395 48.5487L38.4465 48.9673L38.7814 49.4696C38.7935 49.5248 38.7935 49.5819 38.7814 49.6371C38.7814 49.8324 38.7814 49.9441 39.0326 50.0557V49.6092L39.2 49.8045V50.1952C39.2 50.3348 39.2 50.4185 39.3953 50.4185C39.5056 50.4495 39.6225 50.4475 39.7316 50.4127C39.8407 50.378 39.9372 50.3121 40.0093 50.2231C40.2018 50.0327 40.4069 49.8556 40.6233 49.6929C40.6355 49.7762 40.6355 49.8608 40.6233 49.944C40.6071 50.0658 40.6387 50.1891 40.7116 50.288C40.7845 50.3869 40.8929 50.4537 41.014 50.4743C41.1462 50.4948 41.2659 50.5646 41.3488 50.6696L41.7116 50.9766C41.6019 51.1909 41.45 51.3807 41.2651 51.5348C41.1634 51.6488 41.0702 51.77 40.986 51.8976C40.8186 52.0929 40.707 52.3441 40.4279 52.4557C40.4279 52.4557 40.093 52.651 39.8977 52.679C39.8016 52.6942 39.7097 52.7294 39.628 52.7823C39.5463 52.8351 39.4766 52.9045 39.4233 52.9859C39.3603 53.074 39.273 53.1419 39.1721 53.1813C39.0203 53.2537 38.8613 53.3099 38.6977 53.3487C38.6259 53.3207 38.5462 53.3207 38.4744 53.3487C38.1895 53.5506 37.8668 53.693 37.5256 53.7673H37.107C36.8279 53.7673 36.7163 53.7673 36.6326 53.4882C36.5488 53.2092 36.6326 52.8464 36.4372 52.5115C36.3827 52.3878 36.3071 52.2745 36.214 52.1766C36.214 52.1766 35.8232 51.5626 35.6 51.2557C35.5616 51.1378 35.5616 51.0108 35.6 50.8929C35.6042 50.7882 35.5773 50.6846 35.5226 50.5952C35.468 50.5058 35.3881 50.4346 35.293 50.3906C35.2055 50.3374 35.132 50.2641 35.0785 50.1767C35.0251 50.0893 34.9934 49.9904 34.986 49.8883C34.986 49.8883 34.707 49.3859 34.5674 49.1626L34.3721 48.9673V48.8836H34.2046C34.0722 48.8836 33.9746 48.6914 33.9535 48.4867C33.9479 48.4328 33.9477 48.3779 33.9535 48.3255V48.4867C33.9746 48.6914 34.0722 48.8836 34.2046 48.8836H34.3721V48.9673L34.5674 49.1626C34.707 49.3859 34.986 49.8883 34.986 49.8883C34.9934 49.9904 35.0251 50.0893 35.0785 50.1767C35.132 50.2641 35.2055 50.3374 35.293 50.3906C35.3881 50.4346 35.468 50.5058 35.5226 50.5952C35.5773 50.6846 35.6042 50.7882 35.6 50.8929C35.5616 51.0108 35.5616 51.1378 35.6 51.2557C35.8232 51.5626 36.214 52.1766 36.214 52.1766C36.3071 52.2745 36.3827 52.3878 36.4372 52.5115C36.6326 52.8464 36.5488 53.2092 36.6326 53.4882C36.7163 53.7673 36.8279 53.7673 37.107 53.7673H37.5256C37.8668 53.693 38.1895 53.5506 38.4744 53.3487C38.5462 53.3207 38.6259 53.3207 38.6977 53.3487C38.8613 53.3099 39.0203 53.2537 39.1721 53.1813C39.273 53.1419 39.3603 53.074 39.4233 52.9859C39.4766 52.9045 39.5463 52.8351 39.628 52.7823C39.7097 52.7294 39.8016 52.6942 39.8977 52.679C40.093 52.651 40.4279 52.4557 40.4279 52.4557C40.707 52.3441 40.8186 52.0929 40.986 51.8976C41.0702 51.77 41.1634 51.6488 41.2651 51.5348C41.45 51.3807 41.6019 51.1909 41.7116 50.9766L41.3488 50.6696C41.2659 50.5646 41.1462 50.4948 41.014 50.4743C40.8929 50.4537 40.7845 50.3869 40.7116 50.288C40.6387 50.1891 40.6071 50.0658 40.6233 49.944C40.6355 49.8608 40.6355 49.7762 40.6233 49.6929C40.4069 49.8556 40.2018 50.0327 40.0093 50.2231C39.9372 50.3121 39.8407 50.378 39.7316 50.4127C39.6225 50.4475 39.5056 50.4495 39.3953 50.4185C39.2 50.4185 39.2 50.3348 39.2 50.1952V49.8045L39.0326 49.6092V50.0557C38.7814 49.9441 38.7814 49.8324 38.7814 49.6371C38.7935 49.5819 38.7935 49.5248 38.7814 49.4696L38.4465 48.9673L38.1395 48.5487L38.3349 48.3255C38.4131 48.2488 38.5183 48.2058 38.6279 48.2058C38.7375 48.2058 38.8427 48.2488 38.9209 48.3255C39.1442 48.5766 39.2 49.0789 39.6186 49.0789C39.7543 49.1865 39.9149 49.2582 40.0856 49.2875C40.2562 49.3168 40.4316 49.3026 40.5953 49.2464C40.9581 49.1347 40.9581 49.1627 40.9581 49.4138V49.4138C40.9799 49.4884 41.0234 49.5547 41.083 49.6044C41.1427 49.6541 41.2158 49.6849 41.293 49.6929H42.214C42.6858 49.7628 43.1654 49.7628 43.6372 49.6929C43.703 49.6877 43.7689 49.7006 43.8279 49.7301C43.8869 49.7596 43.9368 49.8046 43.9721 49.8603C44.1953 50.1673 44.3907 50.5301 44.8372 50.5301H44.5581C44.5934 50.6446 44.6545 50.7495 44.7368 50.8366C44.8191 50.9237 44.9202 50.9907 45.0325 51.0324C45.0796 51.0547 45.1313 51.0658 45.1834 51.0646C45.2356 51.0635 45.2867 51.0502 45.3328 51.0258C45.3788 51.0014 45.4186 50.9666 45.4488 50.9242C45.4791 50.8817 45.499 50.8328 45.507 50.7813C45.4973 50.7071 45.4973 50.6321 45.507 50.558Z" fill="white"/>
<path style="mix-blend-mode:screen" opacity="0.64" d="M69.7231 68.2981C69.7231 67.6456 69.5258 67.0077 69.1562 66.4652C68.7866 65.9227 68.2613 65.5 67.6467 65.2505C67.0322 65.0011 66.356 64.9361 65.7038 65.0637C65.0516 65.1914 64.4526 65.5061 63.9827 65.9678C63.5128 66.4296 63.1931 67.0178 63.0639 67.6579C62.9348 68.298 63.0022 68.9613 63.2574 69.5639C63.5127 70.1665 63.9443 70.6812 64.4978 71.043C65.0513 71.4048 65.7018 71.5973 66.3668 71.5963C66.808 71.5963 67.2449 71.5109 67.6524 71.3451C68.06 71.1793 68.4302 70.9363 68.7419 70.63C69.0537 70.3236 69.3008 69.96 69.4691 69.5599C69.6375 69.1598 69.7238 68.731 69.7231 68.2981V68.2981Z" fill="url(#paint0_radial_258_32)"/>
<path style="mix-blend-mode:screen" opacity="0.67" d="M5.64643 44.4312C5.64643 65.1489 22.7388 81.8189 43.8232 81.6647C64.9077 81.5104 82 64.5903 82 43.8726C82 23.1549 64.9077 6.4849 43.8232 6.63915C22.7388 6.7934 5.64643 23.7135 5.64643 44.4312Z" fill="url(#paint1_radial_258_32)"/>
<defs>
<radialGradient id="paint0_radial_258_32" cx="0" cy="0" r="1" gradientUnits="userSpaceOnUse" gradientTransform="translate(63.1519 67.2253) scale(3.38277 3.31899)">
<stop stop-color="white"/>
<stop offset="1" stop-color="white"/>
</radialGradient>
<radialGradient id="paint1_radial_258_32" cx="0" cy="0" r="1" gradientUnits="userSpaceOnUse" gradientTransform="translate(18.1974 31.8578) rotate(168.489) scale(38.4723 37.7469)">
<stop stop-color="#FF7CDB"/>
<stop offset="0.09" stop-color="#F979D6"/>
<stop offset="0.22" stop-color="#E871C7"/>
<stop offset="0.36" stop-color="#CB63AE"/>
<stop offset="0.52" stop-color="#A34F8C"/>
<stop offset="0.69" stop-color="#703760"/>
<stop offset="0.87" stop-color="#33192C"/>
<stop offset="1"/>
</radialGradient>
</defs>
  </g>
  <g class="svg-icon-menu__label">
    <circle class="svg-icon-menu__label-background" cx="45" cy="45" r="45" fill="none"></circle>
    <path class="svg-icon-menu__label-text" d="M66.35,8.76l-3.47,7.53L61,15.45l2.16-4.72-3.79,4L57.82,14l.53-5.47L56.18,13.2l-1.83-.83,3.47-7.53,2.24,1-.37,6.18,4.43-4.33Zm6.49,6.55-1.25,1.22,2,2-1.08,1.06-2-2L69.18,18.9l2.23,2.26-1.14,1.15-3.64-3.7,5.94-5.85,3.63,3.69-1.14,1.12Zm3.65,16.61-.9-1.8,3.06-5.3-4.57,2.3-.9-1.79,7.45-3.76.9,1.8-3.1,5.34L83,26.39l.9,1.79Zm9.92,4.88-4.76.69a1.91,1.91,0,0,0-1.2.55,1.56,1.56,0,0,0,.31,2.14,1.79,1.79,0,0,0,1.3.19l4.76-.7.28,2-4.75.7a4,4,0,0,1-2-.17,3,3,0,0,1-1.39-1.06,4.1,4.1,0,0,1-.68-1.71,3.64,3.64,0,0,1,.15-1.82,3,3,0,0,1,1-1.37,4.34,4.34,0,0,1,1.92-.71l4.75-.69Z" fill="#FFFFFF"></path>
  </g>
</svg>