<svg width="442" height="139" viewBox="0 0 442 139" fill="none" xmlns="http://www.w3.org/2000/svg">
<path d="M145.902 37.3235C146.508 32.7162 153.177 29.5639 157.663 29.5639C163.604 29.5639 169.302 33.8074 169.302 39.3846V39.8696H185.912V37.3235C185.912 23.8655 170.272 14.166 157.663 14.166C144.205 14.166 129.292 24.108 129.292 38.1722C129.292 65.0882 168.817 59.7535 168.817 73.9389C168.817 79.3949 161.906 83.6384 156.571 83.6384C151.237 83.6384 143.72 79.7586 143.72 74.1814V73.8177H133.293V73.9389C133.293 84.8508 145.296 93.2166 155.844 93.2166C166.392 93.2166 179.244 85.8208 179.244 74.5451C179.244 51.5089 146.387 58.2986 140.567 43.0219H142.75C148.569 55.9949 181.305 50.6602 181.305 74.5451C181.305 86.7907 167.605 95.1565 155.965 95.1565C144.205 95.1565 131.232 86.0633 131.232 74.0602V73.9389L127.109 73.8177V74.1814C127.109 88.2456 142.144 99.0363 155.844 99.0363C169.666 99.0363 185.427 89.2156 185.427 74.5451C185.427 46.9017 147.478 52.1151 145.902 39.1421H135.475C136.809 62.1783 175.122 53.2063 175.122 74.1814C175.122 83.0322 164.816 89.3368 156.329 89.3368C149.054 89.3368 139.719 84.8508 137.9 77.6975H140.082C141.901 83.6384 150.146 87.5182 156.329 87.5182C163.725 87.5182 173.061 81.941 173.061 74.1814C173.061 54.9037 133.414 63.512 133.414 38.1722C133.414 26.4116 146.387 18.0458 157.663 18.0458C168.09 18.0458 180.456 25.3204 181.669 35.9898H173.303C172.091 29.8064 163.846 25.6841 157.663 25.6841C152.449 25.6841 144.932 28.594 142.75 33.4437H140.567C142.871 27.3815 151.358 23.7442 157.663 23.7442C164.21 23.7442 172.939 27.7453 175 34.0499H179.244C177.062 25.4416 166.271 19.9857 157.663 19.9857C147.721 19.9857 136.081 27.0178 135.475 37.3235H145.902Z" fill="#E2E2E2"/>
<path d="M211.187 37.3235C211.793 32.7162 218.462 29.5639 222.948 29.5639C228.889 29.5639 234.587 33.8074 234.587 39.3846V39.8696H251.197V37.3235C251.197 23.8655 235.557 14.166 222.948 14.166C209.49 14.166 194.577 24.108 194.577 38.1722C194.577 65.0882 234.102 59.7535 234.102 73.9389C234.102 79.3949 227.191 83.6384 221.857 83.6384C216.522 83.6384 209.005 79.7586 209.005 74.1814V73.8177H198.578V73.9389C198.578 84.8508 210.581 93.2166 221.129 93.2166C231.677 93.2166 244.529 85.8208 244.529 74.5451C244.529 51.5089 211.672 58.2986 205.853 43.0219H208.035C213.855 55.9949 246.59 50.6602 246.59 74.5451C246.59 86.7907 232.89 95.1565 221.25 95.1565C209.49 95.1565 196.517 86.0633 196.517 74.0602V73.9389L192.395 73.8177V74.1814C192.395 88.2456 207.429 99.0363 221.129 99.0363C234.951 99.0363 250.713 89.2156 250.713 74.5451C250.713 46.9017 212.763 52.1151 211.187 39.1421H200.76C202.094 62.1783 240.407 53.2063 240.407 74.1814C240.407 83.0322 230.101 89.3368 221.614 89.3368C214.34 89.3368 205.004 84.8508 203.185 77.6975H205.368C207.186 83.6384 215.431 87.5182 221.614 87.5182C229.01 87.5182 238.346 81.941 238.346 74.1814C238.346 54.9037 198.699 63.512 198.699 38.1722C198.699 26.4116 211.672 18.0458 222.948 18.0458C233.375 18.0458 245.742 25.3204 246.954 35.9898H238.588C237.376 29.8064 229.131 25.6841 222.948 25.6841C217.734 25.6841 210.217 28.594 208.035 33.4437H205.853C208.156 27.3815 216.643 23.7442 222.948 23.7442C229.495 23.7442 238.224 27.7453 240.286 34.0499H244.529C242.347 25.4416 231.556 19.9857 222.948 19.9857C213.006 19.9857 201.367 27.0178 200.76 37.3235H211.187Z" fill="#E2E2E2"/>
<path d="M107.523 99.0363H111.403V18.0458H119.163V95.1565H117.223V19.9857H113.343V99.0363H123.043V14.166H107.523V99.0363Z" fill="#E2E2E2"/>
<path d="M258.594 97.9269H262.474V16.9364H270.233V94.0471H268.293V18.8763H264.413V97.9269H274.113V13.0566H258.594V97.9269Z" fill="#E2E2E2"/>
<path d="M88.8626 99.0363V31.5038L54.7932 95.1565H52.6109L90.8025 23.7442V99.0363H100.502V14.166H84.9828L50.5497 78.5462L16.1166 14.166H0.71875V99.0363H16.1166V46.9017L44.0026 99.0363L49.4585 88.8518L12.7218 19.9857H6.53842V93.2166H10.4182V23.7442L45.0938 88.8518L44.0026 90.7917L12.3581 31.5038V95.1565H4.59853V18.0458H13.813L50.5497 86.7907L87.2864 18.0458H96.6221V95.1565H94.6823V19.9857H88.4989L46.185 99.0363H57.0969L84.9828 46.9017V99.0363H88.8626Z" fill="#E2E2E2"/>
<path d="M343.476 34.8385C341.184 32.6193 338.513 30.619 335.681 29.2171C320.542 21.7228 301.654 28.1026 294.159 43.2419C286.665 58.3811 293.045 77.2696 308.184 84.764C323.214 92.2045 342.212 85.8785 349.598 70.9571C354.559 60.9369 353.585 48.3858 347.244 39.2802L344.264 41.7379C349.677 49.7058 350.426 60.5186 346.221 69.014C339.805 81.9749 322.87 87.6948 309.909 81.2787C296.948 74.8627 291.228 57.9282 297.644 44.9672C304.061 32.0063 320.995 26.2864 334.065 32.7564C337.55 34.4817 340.604 37.0783 343.171 40.1117L350.647 34.0491C347.261 29.9319 343.008 26.4704 338.215 24.0981C320.244 15.2019 297.936 22.7368 289.04 40.7078C280.144 58.6789 287.679 80.9868 305.65 89.8831C323.512 98.7254 345.929 91.2444 354.717 73.4912C360.055 62.7086 359.73 49.394 353.927 38.9275L355.445 37.7801C361.793 48.7879 362.121 62.9177 356.46 74.3539C347.186 93.0873 323.63 100.953 304.787 91.6257C285.945 82.2982 277.97 58.6875 287.297 39.8451C296.625 21.0028 320.236 13.0279 339.078 22.3555C344.088 24.8356 348.668 28.4589 352.164 32.9017L355.253 30.4979C351.32 25.5677 346.358 21.6199 340.803 18.8702C320.001 8.57213 294.11 17.317 283.812 38.1198C273.514 58.9227 282.259 84.813 303.062 95.111C323.756 105.355 349.755 96.6642 359.945 76.0792C366.846 62.138 365.472 44.6427 356.4 32.0152L348.815 38.0239C355.647 47.7798 356.516 61.0921 351.232 71.7659C343.36 87.6675 323.386 94.3235 307.375 86.3978C291.365 78.472 284.6 58.4437 292.525 42.4331C300.451 26.4226 320.479 19.6577 336.49 27.5834C339.649 29.147 342.591 31.1462 345.047 33.5822L343.476 34.8385Z" fill="#E2E2E2"/>
<path d="M348.497 21.311C353.284 17.8734 357.461 15.3345 360.725 13.9398C362.353 13.2442 363.805 12.8108 365.019 12.717C366.227 12.6235 367.349 12.8602 368.098 13.694C368.844 14.5243 368.97 15.6617 368.759 16.8562C368.548 18.0558 367.978 19.4577 367.13 21.0105C365.428 24.1243 362.498 28.0366 358.599 32.4787L358.597 32.4803C358.466 32.6294 358.328 32.7872 358.187 32.9501C357.955 33.2163 357.711 33.4963 357.46 33.7756C357.772 34.2244 358.075 34.6843 358.367 35.1467C358.541 35.4221 358.712 35.6988 358.879 35.9748L358.881 35.9768C362.798 42.4722 364.636 49.6018 364.636 57.1803C364.636 64.7587 362.798 71.8881 358.881 78.3834M348.497 21.311C348.498 21.3105 348.499 21.31 348.499 21.3095L348.971 21.9754L348.495 21.3126C348.496 21.312 348.496 21.3115 348.497 21.311ZM348.497 21.311C348.061 21.6197 347.594 21.9641 347.13 22.3064C346.931 22.4535 346.732 22.6002 346.536 22.7435M346.536 22.7435C345.557 22.0671 344.544 21.4144 343.478 20.8092M346.536 22.7435C346.697 22.8547 346.857 22.9665 347.016 23.0788L346.545 23.7455L346.068 23.0833C346.221 22.9733 346.378 22.8595 346.536 22.7435ZM343.478 20.8092C336.887 16.963 329.665 15.1607 322.059 15.1607C314.483 15.1607 307.325 16.9646 300.735 20.8117M343.478 20.8092C343.479 20.81 343.481 20.8108 343.482 20.8117L343.071 21.5165L343.474 20.8067C343.475 20.8075 343.476 20.8084 343.478 20.8092ZM300.735 20.8117C294.325 24.5509 289.144 29.6303 285.335 35.9776M300.735 20.8117C300.735 20.8116 300.735 20.8116 300.735 20.8116L301.146 21.5165L300.735 20.8117ZM285.335 35.9776C281.418 42.4731 279.581 49.6352 279.581 57.1803C279.581 64.7542 281.416 71.8797 285.329 78.3719M285.335 35.9776C285.336 35.9773 285.336 35.9771 285.336 35.9768L286.035 36.3983L285.335 35.9784C285.335 35.9781 285.335 35.9779 285.335 35.9776ZM285.329 78.3719C285.402 78.5034 285.48 78.6272 285.551 78.7376M285.329 78.3719C285.331 78.3759 285.333 78.3799 285.336 78.3838L286.035 77.9624L285.321 78.3587C285.324 78.3631 285.326 78.3675 285.329 78.3719ZM285.551 78.7376C282.109 82.7783 279.522 86.3351 278.008 89.1924C277.225 90.6708 276.703 92.0096 276.52 93.161C276.338 94.3108 276.478 95.4027 277.199 96.2076L277.199 96.2076L277.203 96.2121C277.925 97.0062 278.987 97.2574 280.138 97.1946C281.29 97.1317 282.658 96.752 284.188 96.1279C287.139 94.924 290.877 92.7319 295.172 89.739M285.551 78.7376C285.68 78.5866 285.809 78.435 285.94 78.2826L286.559 78.8147L285.846 79.211C285.779 79.0914 285.704 78.9747 285.612 78.8319L285.606 78.8233C285.588 78.7958 285.57 78.7672 285.551 78.7376ZM295.172 89.739C296.905 91.15 298.751 92.4223 300.734 93.5815L300.737 93.5833C307.326 97.3962 314.483 99.2 322.059 99.2C329.666 99.2 336.89 97.3969 343.482 93.5491M295.172 89.739C295.01 89.6069 294.849 89.4736 294.688 89.3391L295.213 88.714L295.683 89.3812C295.512 89.5017 295.342 89.621 295.172 89.739ZM343.482 93.5491C349.892 89.81 355.072 84.7306 358.881 78.3834M343.482 93.5491L343.071 92.8442L343.482 93.549C343.482 93.549 343.482 93.5491 343.482 93.5491ZM358.881 78.3834C358.881 78.383 358.881 78.3826 358.882 78.3823L358.183 77.9631L358.881 78.3838C358.881 78.3837 358.881 78.3835 358.881 78.3834ZM290.553 84.871L291.01 85.547L291.01 85.5469L291.01 85.5467L291.012 85.5459L291.016 85.5427L291.035 85.5302L291.105 85.4823C291.167 85.4406 291.256 85.38 291.367 85.3042C291.59 85.1527 291.901 84.9401 292.255 84.6961C292.962 84.2091 293.848 83.5928 294.546 83.0853L295.28 82.5512L294.671 81.8778C288.578 75.1433 285.179 66.4828 285.179 57.1803C285.179 47.1085 288.794 38.5656 295.981 31.5063L295.981 31.5063C303.234 24.3819 311.944 20.8902 322.092 20.8902C332.275 20.8902 340.983 24.3504 348.234 31.505L348.251 31.5221L348.27 31.5382C348.506 31.7451 349.142 32.3764 349.414 32.6489L350.01 33.2449L350.586 32.63C350.938 32.2554 351.28 31.9051 351.617 31.5611C352.174 30.991 352.715 30.438 353.251 29.8196L353.748 29.2454L353.211 28.7081C352.906 28.4032 352.555 28.0072 352.169 27.5729C352.064 27.4541 351.956 27.3325 351.845 27.209C351.591 26.9248 351.325 26.6308 351.059 26.3554C351.093 26.3317 351.126 26.3081 351.159 26.2844C351.372 26.1328 351.586 25.9801 351.811 25.8151C355.689 23.0173 358.875 20.8336 361.143 19.4137C361.883 18.9507 362.516 18.5743 363.038 18.2861C362.702 18.7763 362.268 19.3678 361.739 20.0563C360.107 22.1787 357.63 25.1461 354.487 28.7467C347.53 36.6508 337.294 46.987 325.346 57.8215C313.396 68.658 302.145 77.8803 293.59 84.0192L293.588 84.0204C289.709 86.819 286.522 89.0033 284.254 90.4235C283.484 90.9052 282.83 91.2932 282.296 91.5855C282.559 91.1966 282.887 90.7401 283.281 90.2174C284.536 88.5536 286.397 86.2929 288.761 83.5541C289.158 84.2752 289.422 84.7113 289.599 84.9784C289.722 85.164 289.819 85.293 289.904 85.3845C289.946 85.4294 290.006 85.4879 290.083 85.5405C290.123 85.5678 290.18 85.6017 290.252 85.63C290.289 85.6445 290.333 85.6586 290.383 85.6691C290.408 85.6744 290.434 85.6789 290.463 85.682C290.477 85.6836 290.492 85.6849 290.507 85.6857C290.514 85.6861 290.522 85.6865 290.529 85.6867L290.541 85.6869C290.547 85.687 290.553 85.687 290.553 84.871ZM290.553 84.871V85.687H290.803L291.01 85.547L290.553 84.871ZM329.065 61.9481C338.476 53.4236 346.913 45.1402 353.549 38.0412C353.681 38.2474 353.81 38.4546 353.937 38.6627C357.268 44.1238 358.939 50.2865 358.939 57.1475C358.939 67.2203 355.357 75.7314 348.2 82.8238C340.95 89.9777 332.242 93.4377 322.059 93.4377C313.688 93.4377 306.315 91.0547 299.938 86.2377C308.236 80.044 318.408 71.6213 329.065 61.9481Z" fill="#FFC08D" stroke="#242424" stroke-width="1.63212"/>
<path d="M383.81 19.9857H377.747V93.2166H381.627V23.5017L431.579 95.1565H429.276L383.567 29.6852V95.1565H375.808V18.0458H384.78L429.397 81.941V18.0458H437.52V86.7907L435.58 84.0021V19.9857H431.337V84.6083L441.279 99.0363V14.166H425.517V69.5742L386.841 14.166H371.928V99.0363H387.447V41.9307L427.215 99.0363H438.975L383.81 19.9857Z" fill="#E2E2E2"/>
<path d="M158.827 136.154C154.714 136.154 151.189 133.124 150.602 129.042H151.096C151.684 132.845 154.993 135.659 158.827 135.659C161.672 135.659 164.3 134.144 165.691 131.67L164.857 131.206C163.62 133.34 161.331 134.67 158.827 134.67C155.147 134.67 152.117 131.732 151.993 128.052H149.519C149.643 133.093 153.787 137.143 158.827 137.143C161.919 137.143 164.857 135.597 166.588 133.062L167.021 133.247C165.228 135.999 162.135 137.638 158.827 137.638C153.416 137.638 149.025 133.216 149.025 127.805C149.025 122.394 153.416 117.972 158.827 117.972C162.043 117.972 165.042 119.518 166.897 122.115L165.166 123.105C163.682 121.095 161.331 119.92 158.858 119.92C154.993 119.92 151.684 122.765 151.096 126.568H150.602C151.189 122.486 154.714 119.456 158.858 119.456C161.331 119.456 163.712 120.538 165.289 122.456L166.155 121.961C164.393 119.765 161.703 118.467 158.827 118.467C153.818 118.467 149.643 122.517 149.519 127.558H151.993C152.117 123.878 155.147 120.909 158.827 120.909C161.331 120.909 163.62 122.239 164.857 124.404L168.258 122.456C166.341 119.085 162.754 116.982 158.827 116.982C152.89 116.982 148.035 121.837 148.035 127.805C148.035 133.773 152.89 138.628 158.827 138.628C162.723 138.628 166.341 136.525 168.258 133.124L166.124 131.918C164.64 134.515 161.857 136.154 158.827 136.154Z" fill="#E7E7E7"/>
<path d="M188.264 130.217C188.511 129.444 188.666 128.609 188.666 127.805C188.666 123.507 185.079 119.92 180.781 119.92C176.483 119.92 172.896 123.507 172.896 127.805C172.896 132.072 176.483 135.69 180.719 135.69C183.564 135.69 186.316 134.051 187.676 131.577L186.78 131.175C185.574 133.309 183.193 134.701 180.781 134.701C177.101 134.701 173.885 131.485 173.885 127.805C173.885 124.125 177.101 120.909 180.781 120.909C184.46 120.909 187.676 124.125 187.676 127.836C187.676 128.825 187.429 129.815 187.027 130.743L189.253 131.763C189.81 130.526 190.119 129.166 190.119 127.805C190.119 122.703 185.883 118.467 180.781 118.467C175.679 118.467 171.442 122.703 171.442 127.805C171.442 132.876 175.679 137.143 180.719 137.143C183.78 137.143 186.78 135.566 188.511 133.062L188.944 133.278C187.151 135.968 183.966 137.638 180.719 137.638C175.4 137.638 170.948 133.154 170.948 127.805C170.948 122.456 175.431 117.972 180.781 117.972C186.13 117.972 190.614 122.456 190.614 127.805C190.614 129.227 190.305 130.681 189.686 131.979L190.583 132.412C191.263 130.959 191.603 129.382 191.603 127.805C191.603 121.899 186.687 116.982 180.781 116.982C174.875 116.982 169.958 121.899 169.958 127.805C169.958 133.68 174.875 138.628 180.719 138.628C184.677 138.628 188.511 136.339 190.366 132.845L188.14 131.794C186.687 134.453 183.749 136.154 180.719 136.154C176.204 136.154 172.432 132.351 172.432 127.805C172.432 123.26 176.235 119.456 180.781 119.456C185.326 119.456 189.13 123.26 189.13 127.805C189.13 128.702 189.006 129.598 188.728 130.433L188.264 130.217Z" fill="#E7E7E7"/>
<path d="M197.901 118.467H196.355V137.143H197.344V119.363L210.084 137.638H209.497L197.839 120.94V137.638H195.86V117.972H198.148L209.528 134.268V117.972H211.599V135.505L211.105 134.793V118.467H210.022V134.948L212.558 138.628V116.982H208.538V131.114L198.674 116.982H194.871V138.628H198.829V124.063L208.971 138.628H211.97L197.901 118.467Z" fill="#E7E7E7"/>
<path d="M216.28 116.982V120.909H222.557V138.628H223.547V119.92H217.27V117.972H231.803V119.92H226.979V120.909H232.792V116.982H216.28ZM231.308 118.467H225.526V137.638H225.031V118.467H217.765V119.425H224.042V138.628H226.515V119.425H231.308V118.467Z" fill="#E7E7E7"/>
<path d="M240.261 138.628V132.722H241.374L247.28 138.628H248.672L241.776 131.732H239.272V137.638H237.323V117.972H244.961C248.672 117.972 251.702 120.909 251.857 124.62H252.846C252.692 120.353 249.228 116.982 244.961 116.982H236.21V138.628H240.261ZM245.456 131.237C248.115 131.021 250.403 129.166 251.115 126.568H250.094C249.352 128.764 247.28 130.248 244.961 130.248H240.261V120.909H244.961C247.033 120.909 248.764 122.548 248.888 124.62H251.362C251.238 121.188 248.393 118.467 244.961 118.467H237.818V137.143H238.808V119.425H244.961C247.466 119.425 249.661 121.188 250.249 123.631H249.723C249.166 121.466 247.218 119.92 244.961 119.92H239.272V131.237H245.456ZM249.754 137.638L243.848 131.732H242.456L249.352 138.628H252.846L246.724 132.536C250.218 131.732 252.722 128.671 252.846 125.084H248.888C248.764 127.156 247.033 128.795 244.961 128.795H240.756V129.784H244.961C247.187 129.784 249.166 128.238 249.723 126.073H251.733C251.145 129.351 248.27 131.732 244.992 131.732H244.559L250.465 137.638H249.754Z" fill="#E7E7E7"/>
<path d="M273.782 130.217C274.029 129.444 274.184 128.609 274.184 127.805C274.184 123.507 270.597 119.92 266.299 119.92C262 119.92 258.414 123.507 258.414 127.805C258.414 132.072 262 135.69 266.237 135.69C269.081 135.69 271.834 134.051 273.194 131.577L272.297 131.175C271.091 133.309 268.71 134.701 266.299 134.701C262.619 134.701 259.403 131.485 259.403 127.805C259.403 124.125 262.619 120.909 266.299 120.909C269.978 120.909 273.194 124.125 273.194 127.836C273.194 128.825 272.947 129.815 272.545 130.743L274.771 131.763C275.328 130.526 275.637 129.166 275.637 127.805C275.637 122.703 271.401 118.467 266.299 118.467C261.196 118.467 256.96 122.703 256.96 127.805C256.96 132.876 261.196 137.143 266.237 137.143C269.298 137.143 272.297 135.566 274.029 133.062L274.462 133.278C272.668 135.968 269.483 137.638 266.237 137.638C260.918 137.638 256.465 133.154 256.465 127.805C256.465 122.456 260.949 117.972 266.299 117.972C271.648 117.972 276.132 122.456 276.132 127.805C276.132 129.227 275.822 130.681 275.204 131.979L276.101 132.412C276.781 130.959 277.121 129.382 277.121 127.805C277.121 121.899 272.205 116.982 266.299 116.982C260.392 116.982 255.476 121.899 255.476 127.805C255.476 133.68 260.392 138.628 266.237 138.628C270.195 138.628 274.029 136.339 275.884 132.845L273.658 131.794C272.205 134.453 269.267 136.154 266.237 136.154C261.722 136.154 257.95 132.351 257.95 127.805C257.95 123.26 261.753 119.456 266.299 119.456C270.844 119.456 274.647 123.26 274.647 127.805C274.647 128.702 274.524 129.598 274.245 130.433L273.782 130.217Z" fill="#E7E7E7"/>
<path d="M284.346 116.982H281.873V137.143H292.479V136.154H282.862V117.972H283.357V135.659H292.974V137.638H281.378V116.982H280.388V138.628H293.963V134.67H284.346V116.982Z" fill="#E7E7E7"/>
</svg>
